<svg width="35" height="35" viewBox="0 0 35 35" fill="none" xmlns="http://www.w3.org/2000/svg">
<path d="M6.03522 16.7411C5.6958 15.8732 5.89149 15.1189 6.35329 14.5686C4.45676 10.9188 2.84888 7.13006 1.241 3.34133C0.51916 1.63793 2.42762 -0.452022 4.18324 0.461087C13.6856 5.43598 23.3095 10.1844 33.071 14.6831C34.8516 15.51 34.8359 18.0838 33.034 18.8687C22.9357 23.2425 13.2699 28.3692 3.99004 34.3062C1.98998 35.5887 -0.137465 33.7647 0.539565 31.5914C1.72245 27.7334 3.07244 23.963 4.66673 20.2782L6.03522 16.7411ZM12.0757 24.19C12.9754 23.6244 13.7563 22.9011 14.5894 22.262C14.5713 22.2082 14.5424 22.1401 14.5261 22.0737C14.125 22.4659 13.544 22.679 12.993 22.6785C12.8162 23.8455 11.6076 24.3293 10.6196 23.9726C10.1616 24.5875 9.66934 25.1719 9.17711 25.7564C10.1685 25.2677 11.1473 24.7772 12.0757 24.19Z" />
</svg>
