<svg width="35" height="35" viewBox="0 0 35 35" fill="none" xmlns="http://www.w3.org/2000/svg">
<path d="M28.6026 16.5259C28.9368 15.6713 28.7441 14.9286 28.2894 14.3867C30.1569 10.7927 31.7402 7.06191 33.3235 3.33114C34.0343 1.65379 32.155 -0.404191 30.4262 0.494951C21.0692 5.39374 11.5925 10.0696 1.98034 14.4994C0.227027 15.3137 0.242408 17.8481 2.01682 18.621C11.9606 22.9279 21.4786 27.9761 30.6165 33.8223C32.586 35.0852 34.6809 33.2891 34.0142 31.1491C32.8494 27.3501 31.52 23.6374 29.9501 20.0089L28.6026 16.5259ZM22.6545 23.8609C21.7686 23.3039 20.9996 22.5917 20.1793 21.9624C20.1971 21.9094 20.2255 21.8423 20.2416 21.777C20.6366 22.1631 21.2087 22.373 21.7513 22.3725C21.9254 23.5217 23.1155 23.998 24.0883 23.6468C24.5394 24.2523 25.0241 24.8278 25.5088 25.4033C24.5325 24.9221 23.5687 24.4392 22.6545 23.8609Z" fill="#f16310"/>
</svg>
