<svg width="323" height="324" viewBox="0 0 323 324" fill="none" xmlns="http://www.w3.org/2000/svg">
<g clip-path="url(#clip0_770_13406)">
<path d="M0.827602 13.3574C0.69354 13.3574 0.559479 13.3232 0.433693 13.253C0.0315092 13.0273 -0.117448 12.509 0.101023 12.0933L6.21654 0.448322C6.43501 0.0326739 6.93649 -0.12127 7.33868 0.104514C7.74086 0.330299 7.88982 0.848577 7.67135 1.26423L1.55584 12.9109C1.40522 13.1966 1.12055 13.3574 0.827602 13.3574Z" fill="#E6D9D9"/>
<path d="M7.04075 19.4039H2.01097C1.10068 19.4039 0.532985 18.3861 0.988131 17.5719L3.50219 13.0699L6.01791 8.56963C6.47306 7.75544 7.6101 7.75544 8.06524 8.56963L10.5793 13.0716L13.0934 17.5736C13.5485 18.3878 12.9792 19.4056 12.0705 19.4056H7.04075V19.4039Z" fill="#E6D9D9"/>
<path d="M17.1714 2.62891H22.2012C23.1115 2.62891 23.6792 3.64665 23.224 4.46084L20.7099 8.96284L18.1959 13.4648C17.7407 14.279 16.6037 14.279 16.1486 13.4648L13.6345 8.96113L11.1188 4.46084C10.6636 3.64665 11.233 2.62891 12.1416 2.62891H17.1714Z" fill="#E6D9D9"/>
<path d="M17.1715 21.441C16.8686 21.441 16.5889 21.2699 16.4449 20.9945L6.08244 1.26405C5.94341 0.998925 5.95003 0.677353 6.09899 0.41907C6.24794 0.159075 6.51772 0 6.80902 0H27.5339C27.8252 0 28.0966 0.159075 28.2456 0.417359C28.3945 0.675643 28.4012 0.997214 28.2621 1.26234L17.8997 20.9928C17.754 21.2699 17.476 21.441 17.1715 21.441ZM8.20094 1.71049L17.1731 18.7931L26.1436 1.71049H8.20094Z" fill="#E6D9D9"/>
<path d="M27.6299 19.4036H22.6001C21.6898 19.4036 21.1221 18.3859 21.5772 17.5717L24.0913 13.0697L26.6054 8.56768C27.0605 7.75348 28.1976 7.75348 28.6527 8.56768L31.1668 13.0697L33.6808 17.5717C34.136 18.3859 33.5666 19.4036 32.658 19.4036H27.6299Z" fill="#E6D9D9"/>
<path d="M321.492 21.9761H0.827539C0.370737 21.9761 0 21.593 0 21.1209C0 20.6488 0.370737 20.2656 0.827539 20.2656H321.492C321.949 20.2656 322.32 20.6488 322.32 21.1209C322.32 21.593 321.949 21.9761 321.492 21.9761Z" fill="#E6D9D9"/>
<path d="M37.4346 2.62915H42.4643C43.3746 2.62915 43.9423 3.64689 43.4872 4.46108L40.9731 8.96309L38.4591 13.4651C38.0039 14.2793 36.8669 14.2793 36.4117 13.4651L33.896 8.96138L31.382 4.45937C30.9268 3.64518 31.4962 2.62744 32.4048 2.62744H37.4346V2.62915Z" fill="#E6D9D9"/>
<path d="M37.4345 21.4407C37.1316 21.4407 36.8519 21.2697 36.7079 20.9943L26.3455 1.2638C26.2065 0.998679 26.2131 0.677108 26.362 0.418824C26.511 0.15883 26.7808 0.00146484 27.0737 0.00146484H47.7986C48.0899 0.00146484 48.3613 0.16054 48.5103 0.418824C48.6592 0.677108 48.6659 0.998679 48.5268 1.2638L38.1644 20.9943C38.0171 21.2697 37.7374 21.4407 37.4345 21.4407ZM28.464 1.71024L37.4362 18.7929L46.4067 1.71024H28.464Z" fill="#E6D9D9"/>
<path d="M47.8929 19.4036H42.8631C41.9529 19.4036 41.3852 18.3859 41.8403 17.5717L44.3544 13.0697L46.8684 8.56768C47.3236 7.75348 48.4606 7.75348 48.9158 8.56768L51.4298 13.0697L53.9439 17.5717C54.399 18.3859 53.8297 19.4036 52.921 19.4036H47.8929Z" fill="#E6D9D9"/>
<path d="M58.0237 2.62891H63.0535C63.9638 2.62891 64.5315 3.64665 64.0764 4.46084L61.5623 8.96284L59.0482 13.4648C58.5931 14.279 57.456 14.279 57.0009 13.4648L54.4868 8.96284L51.9728 4.46084C51.5176 3.64665 52.087 2.62891 52.9956 2.62891H58.0237Z" fill="#E6D9D9"/>
<path d="M58.0237 21.4407C57.7209 21.4407 57.4412 21.2697 57.2972 20.9943L46.9347 1.2638C46.7957 0.998679 46.8023 0.677108 46.9513 0.418824C47.1002 0.15883 47.37 0.00146484 47.663 0.00146484H68.3878C68.6791 0.00146484 68.9506 0.16054 69.0995 0.418824C69.2485 0.677108 69.2551 0.998679 69.1161 1.2638L58.7536 20.9943C58.6063 21.2697 58.3283 21.4407 58.0237 21.4407ZM49.0532 1.71024L58.0254 18.7929L66.9959 1.71024H49.0532Z" fill="#E6D9D9"/>
<path d="M68.4821 19.4036H63.4524C62.5421 19.4036 61.9744 18.3859 62.4295 17.5717L64.9436 13.0697L67.4577 8.56768C67.9128 7.75348 69.0498 7.75348 69.505 8.56768L72.0191 13.0697L74.5331 17.5717C74.9883 18.3859 74.4189 19.4036 73.5103 19.4036H68.4821Z" fill="#E6D9D9"/>
<path d="M78.6146 2.62891H83.6444C84.5547 2.62891 85.1224 3.64665 84.6672 4.46084L82.1531 8.96284L79.6391 13.4648C79.1839 14.279 78.0469 14.279 77.5917 13.4648L75.0777 8.96284L72.5636 4.46084C72.1084 3.64665 72.6778 2.62891 73.5864 2.62891H78.6146Z" fill="#E6D9D9"/>
<path d="M78.6145 21.4407C78.3116 21.4407 78.0319 21.2697 77.8879 20.9943L67.5238 1.2638C67.3848 0.998679 67.3914 0.677108 67.5404 0.418824C67.6893 0.15883 67.9591 0.00146484 68.2521 0.00146484H88.9769C89.2682 0.00146484 89.5397 0.16054 89.6886 0.418824C89.8376 0.677108 89.8442 0.998679 89.7052 1.2638L79.3428 20.9943C79.1971 21.2697 78.9174 21.4407 78.6145 21.4407ZM69.6423 1.71024L78.6145 18.7929L87.585 1.71024H69.6423Z" fill="#E6D9D9"/>
<path d="M89.073 19.4036H84.0432C83.1329 19.4036 82.5652 18.3859 83.0204 17.5717L85.5344 13.0697L88.0485 8.56768C88.5036 7.75348 89.6407 7.75348 90.0958 8.56768L92.6099 13.0697L95.1239 17.5717C95.5791 18.3859 95.0097 19.4036 94.1011 19.4036H89.073Z" fill="#E6D9D9"/>
<path d="M99.2037 2.62891H104.233C105.144 2.62891 105.711 3.64665 105.256 4.46084L102.742 8.96284L100.228 13.4648C99.773 14.279 98.636 14.279 98.1808 13.4648L95.6668 8.96284L93.1527 4.46084C92.6976 3.64665 93.2669 2.62891 94.1755 2.62891H99.2037Z" fill="#E6D9D9"/>
<path d="M99.2037 21.4407C98.9008 21.4407 98.6211 21.2697 98.4771 20.9943L88.1147 1.2638C87.9756 0.998679 87.9823 0.677108 88.1312 0.418824C88.2802 0.15883 88.5499 0.00146484 88.8429 0.00146484H109.566C109.857 0.00146484 110.129 0.16054 110.278 0.418824C110.427 0.677108 110.433 0.998679 110.294 1.2638L99.9319 20.9943C99.7863 21.2697 99.5082 21.4407 99.2037 21.4407ZM90.2332 1.71024L99.2053 18.7929L108.176 1.71024H90.2332Z" fill="#E6D9D9"/>
<path d="M109.662 19.4039H104.632C103.722 19.4039 103.154 18.3861 103.609 17.5719L106.124 13.0699L108.639 8.56963C109.094 7.75544 110.231 7.75544 110.687 8.56963L113.201 13.0716L115.715 17.5736C116.17 18.3878 115.601 19.4056 114.692 19.4056H109.662V19.4039Z" fill="#E6D9D9"/>
<path d="M119.467 2.62915H124.497C125.407 2.62915 125.975 3.64689 125.519 4.46108L123.005 8.96138L120.49 13.4634C120.034 14.2776 118.897 14.2776 118.442 13.4634L115.928 8.96138L113.414 4.45937C112.959 3.64518 113.528 2.62744 114.437 2.62744H119.467V2.62915Z" fill="#E6D9D9"/>
<path d="M119.467 21.4407C119.164 21.4407 118.884 21.2697 118.74 20.9943L108.378 1.2638C108.239 0.998679 108.245 0.677108 108.394 0.418824C108.543 0.15883 108.813 0.00146484 109.106 0.00146484H129.831C130.122 0.00146484 130.394 0.16054 130.543 0.418824C130.691 0.677108 130.698 0.998679 130.559 1.2638L120.197 20.9943C120.049 21.2697 119.77 21.4407 119.467 21.4407ZM110.495 1.71024L119.467 18.7929L128.439 1.71024H110.495Z" fill="#E6D9D9"/>
<path d="M129.925 19.4036H124.895C123.985 19.4036 123.418 18.3859 123.873 17.5717L126.387 13.0697L128.901 8.56768C129.356 7.75348 130.493 7.75348 130.948 8.56768L133.462 13.0697L135.976 17.5717C136.431 18.3859 135.862 19.4036 134.953 19.4036H129.925Z" fill="#E6D9D9"/>
<path d="M140.056 2.62915H145.086C145.996 2.62915 146.564 3.64689 146.109 4.46108L143.595 8.96138L141.08 13.4634C140.625 14.2776 139.488 14.2776 139.033 13.4634L136.519 8.96138L134.005 4.45937C133.55 3.64518 134.119 2.62744 135.028 2.62744H140.056V2.62915Z" fill="#E6D9D9"/>
<path d="M140.056 21.4407C139.753 21.4407 139.473 21.2697 139.329 20.9943L128.967 1.2638C128.828 0.998679 128.835 0.677108 128.984 0.418824C129.132 0.15883 129.402 0.00146484 129.695 0.00146484H150.42C150.711 0.00146484 150.983 0.16054 151.132 0.418824C151.281 0.677108 151.287 0.998679 151.148 1.2638L140.786 20.9943C140.639 21.2697 140.361 21.4407 140.056 21.4407ZM131.085 1.71024L140.058 18.7929L149.028 1.71024H131.085Z" fill="#E6D9D9"/>
<path d="M150.514 19.4036H145.485C144.574 19.4036 144.007 18.3859 144.462 17.5717L146.976 13.0697L149.49 8.56768C149.945 7.75348 151.082 7.75348 151.537 8.56768L154.051 13.0697L156.565 17.5717C157.021 18.3859 156.451 19.4036 155.543 19.4036H150.514Z" fill="#E6D9D9"/>
<path d="M160.483 2.62891H165.513C166.423 2.62891 166.991 3.64665 166.536 4.46084L164.022 8.96284L161.507 13.4648C161.052 14.279 159.915 14.279 159.46 13.4648L156.946 8.96284L154.432 4.46084C153.977 3.64665 154.546 2.62891 155.455 2.62891H160.483Z" fill="#E6D9D9"/>
<path d="M160.483 21.4407C160.18 21.4407 159.9 21.2697 159.756 20.9943L149.394 1.2638C149.255 0.998679 149.262 0.677108 149.411 0.418824C149.559 0.15883 149.829 0.00146484 150.122 0.00146484H170.847C171.138 0.00146484 171.41 0.16054 171.559 0.418824C171.708 0.677108 171.714 0.998679 171.575 1.2638L161.213 20.9943C161.066 21.2697 160.786 21.4407 160.483 21.4407ZM151.511 1.71024L160.483 18.7929L169.455 1.71024H151.511Z" fill="#E6D9D9"/>
<path d="M170.941 19.4036H165.912C165.001 19.4036 164.434 18.3859 164.889 17.5717L167.403 13.0697L169.917 8.56768C170.372 7.75348 171.509 7.75348 171.964 8.56768L174.478 13.0697L176.992 17.5717C177.447 18.3859 176.878 19.4036 175.969 19.4036H170.941Z" fill="#E6D9D9"/>
<path d="M181.072 2.62891H186.102C187.012 2.62891 187.58 3.64665 187.125 4.46084L184.611 8.96284L182.097 13.4648C181.641 14.279 180.504 14.279 180.049 13.4648L177.535 8.96284L175.021 4.46084C174.566 3.64665 175.135 2.62891 176.044 2.62891H181.072Z" fill="#E6D9D9"/>
<path d="M181.072 21.4407C180.769 21.4407 180.489 21.2697 180.346 20.9943L169.983 1.2638C169.844 0.998679 169.851 0.677108 170 0.418824C170.149 0.15883 170.418 0.00146484 170.711 0.00146484H191.436C191.727 0.00146484 191.999 0.16054 192.148 0.418824C192.297 0.677108 192.303 0.998679 192.164 1.2638L181.802 20.9943C181.655 21.2697 181.377 21.4407 181.072 21.4407ZM172.102 1.71024L181.074 18.7929L190.044 1.71024H172.102Z" fill="#E6D9D9"/>
<path d="M191.53 19.4036H186.501C185.59 19.4036 185.023 18.3859 185.478 17.5717L187.992 13.0697L190.506 8.56768C190.961 7.75348 192.098 7.75348 192.553 8.56768L195.067 13.0697L197.581 17.5717C198.037 18.3859 197.467 19.4036 196.559 19.4036H191.53Z" fill="#E6D9D9"/>
<path d="M201.335 2.62891H206.453C207.323 2.62891 207.868 3.60217 207.433 4.38216L204.874 8.96284L202.315 13.5435C201.88 14.3235 200.792 14.3235 200.357 13.5435L197.798 8.96284L195.24 4.38216C194.804 3.60388 195.349 2.62891 196.219 2.62891H201.335Z" fill="#E6D9D9"/>
<path d="M201.335 21.4407C201.032 21.4407 200.753 21.2697 200.609 20.9943L190.246 1.2638C190.107 0.998679 190.114 0.677108 190.263 0.418824C190.412 0.15883 190.682 0.00146484 190.974 0.00146484H211.699C211.991 0.00146484 212.262 0.16054 212.411 0.418824C212.56 0.677108 212.567 0.998679 212.428 1.2638L202.065 20.9943C201.918 21.2697 201.64 21.4407 201.335 21.4407ZM192.365 1.71024L201.337 18.7929L210.307 1.71024H192.365Z" fill="#E6D9D9"/>
<path d="M211.794 19.4036H206.676C205.806 19.4036 205.261 18.4303 205.696 17.6504L208.255 13.0697L210.814 8.48898C211.249 7.71071 212.337 7.71071 212.772 8.48898L215.331 13.0697L217.889 17.6504C218.325 18.4303 217.78 19.4036 216.909 19.4036H211.794Z" fill="#E6D9D9"/>
<path d="M221.926 2.62891H227.044C227.914 2.62891 228.459 3.60217 228.023 4.38216L225.465 8.96284L222.906 13.5435C222.471 14.3235 221.382 14.3235 220.948 13.5435L218.389 8.96284L215.83 4.38216C215.395 3.60388 215.94 2.62891 216.81 2.62891H221.926Z" fill="#E6D9D9"/>
<path d="M221.926 21.4407C221.623 21.4407 221.343 21.2697 221.199 20.9943L210.835 1.2638C210.696 0.998679 210.703 0.677108 210.852 0.418824C211.001 0.15883 211.271 0.00146484 211.564 0.00146484H232.288C232.58 0.00146484 232.851 0.16054 233 0.418824C233.149 0.677108 233.156 0.998679 233.017 1.2638L222.654 20.9943C222.509 21.2697 222.229 21.4407 221.926 21.4407ZM212.954 1.71024L221.926 18.7929L230.897 1.71024H212.954Z" fill="#E6D9D9"/>
<path d="M232.383 19.4036H227.265C226.395 19.4036 225.85 18.4303 226.285 17.6504L228.844 13.0697L231.403 8.48898C231.838 7.71071 232.926 7.71071 233.361 8.48898L235.92 13.0697L238.478 17.6504C238.914 18.4303 238.369 19.4036 237.499 19.4036H232.383Z" fill="#E6D9D9"/>
<path d="M242.515 2.62891H247.633C248.503 2.62891 249.048 3.60217 248.613 4.38216L246.054 8.96284L243.495 13.5435C243.06 14.3235 241.972 14.3235 241.537 13.5435L238.978 8.96284L236.42 4.38216C235.984 3.60388 236.529 2.62891 237.399 2.62891H242.515Z" fill="#E6D9D9"/>
<path d="M242.515 21.4407C242.212 21.4407 241.933 21.2697 241.789 20.9943L231.426 1.2638C231.287 0.998679 231.294 0.677108 231.443 0.418824C231.592 0.15883 231.861 0.00146484 232.154 0.00146484H252.879C253.171 0.00146484 253.442 0.16054 253.591 0.418824C253.74 0.677108 253.747 0.998679 253.608 1.2638L243.245 20.9943C243.098 21.2697 242.818 21.4407 242.515 21.4407ZM233.543 1.71024L242.515 18.7929L251.487 1.71024H233.543Z" fill="#E6D9D9"/>
<path d="M252.974 19.4036H247.856C246.986 19.4036 246.441 18.4303 246.876 17.6504L249.435 13.0697L251.994 8.48898C252.429 7.71071 253.516 7.71071 253.952 8.48898L256.51 13.0697L259.069 17.6504C259.504 18.4303 258.96 19.4036 258.089 19.4036H252.974Z" fill="#E6D9D9"/>
<path d="M263.104 2.62891H268.222C269.092 2.62891 269.637 3.60217 269.202 4.38216L266.643 8.96284L264.084 13.5435C263.649 14.3235 262.562 14.3235 262.126 13.5435L259.567 8.96284L257.009 4.38216C256.573 3.60388 257.118 2.62891 257.989 2.62891H263.104Z" fill="#E6D9D9"/>
<path d="M263.104 21.4407C262.801 21.4407 262.522 21.2697 262.378 20.9943L252.015 1.2638C251.876 0.998679 251.883 0.677108 252.032 0.418824C252.181 0.15883 252.451 0.00146484 252.744 0.00146484H273.468C273.76 0.00146484 274.031 0.16054 274.18 0.418824C274.329 0.677108 274.336 0.998679 274.197 1.2638L263.834 20.9943C263.687 21.2697 263.409 21.4407 263.104 21.4407ZM254.134 1.71024L263.106 18.7929L272.077 1.71024H254.134Z" fill="#E6D9D9"/>
<path d="M273.563 19.4036H268.445C267.575 19.4036 267.03 18.4303 267.465 17.6504L270.024 13.0697L272.583 8.48898C273.018 7.71071 274.106 7.71071 274.541 8.48898L277.1 13.0697L279.658 17.6504C280.094 18.4303 279.549 19.4036 278.679 19.4036H273.563Z" fill="#E6D9D9"/>
<path d="M283.367 2.62891H288.485C289.356 2.62891 289.9 3.60217 289.465 4.38216L286.906 8.96284L284.347 13.5435C283.912 14.3235 282.825 14.3235 282.389 13.5435L279.831 8.96284L277.272 4.38216C276.837 3.60388 277.381 2.62891 278.252 2.62891H283.367Z" fill="#E6D9D9"/>
<path d="M283.367 21.4407C283.065 21.4407 282.785 21.2697 282.641 20.9943L272.278 1.2638C272.139 0.998679 272.146 0.677108 272.295 0.418824C272.444 0.15883 272.714 0.00146484 273.007 0.00146484H293.732C294.023 0.00146484 294.294 0.16054 294.443 0.418824C294.592 0.677108 294.599 0.998679 294.46 1.2638L284.097 20.9943C283.95 21.2697 283.67 21.4407 283.367 21.4407ZM274.397 1.71024L283.369 18.7929L292.34 1.71024H274.397Z" fill="#E6D9D9"/>
<path d="M293.826 19.4036H288.708C287.838 19.4036 287.293 18.4303 287.729 17.6504L290.287 13.0697L292.846 8.48898C293.281 7.71071 294.37 7.71071 294.804 8.48898L297.363 13.0697L299.922 17.6504C300.357 18.4303 299.812 19.4036 298.942 19.4036H293.826Z" fill="#E6D9D9"/>
<path d="M303.958 2.62891H309.076C309.946 2.62891 310.491 3.60217 310.056 4.38216L307.497 8.96284L304.938 13.5435C304.503 14.3235 303.415 14.3235 302.98 13.5435L300.421 8.96284L297.863 4.38216C297.427 3.60388 297.972 2.62891 298.842 2.62891H303.958Z" fill="#E6D9D9"/>
<path d="M303.958 21.4407C303.656 21.4407 303.376 21.2697 303.232 20.9943L292.868 1.2638C292.729 0.998679 292.735 0.677108 292.884 0.418824C293.033 0.15883 293.303 0.00146484 293.596 0.00146484H314.321C314.612 0.00146484 314.884 0.16054 315.033 0.418824C315.182 0.677108 315.188 0.998679 315.049 1.2638L304.687 20.9943C304.539 21.2697 304.261 21.4407 303.958 21.4407ZM294.986 1.71024L303.958 18.7929L312.929 1.71024H294.986Z" fill="#E6D9D9"/>
<path d="M321.492 15.5141C321.199 15.5141 320.915 15.3516 320.764 15.0659L313.515 1.26227C313.296 0.846624 313.445 0.328346 313.847 0.102561C314.25 -0.123223 314.751 0.0307208 314.97 0.446369L322.219 14.25C322.437 14.6657 322.288 15.1839 321.886 15.4097C321.76 15.4798 321.626 15.5141 321.492 15.5141Z" fill="#E6D9D9"/>
<path d="M314.415 19.4036H309.297C308.427 19.4036 307.882 18.4303 308.318 17.6504L310.876 13.0697L313.435 8.48898C313.87 7.71071 314.958 7.71071 315.393 8.48898L317.952 13.0697L320.511 17.6504C320.946 18.4303 320.401 19.4036 319.531 19.4036H314.415Z" fill="#E6D9D9"/>
<path d="M321.492 1.71049H307.028C306.572 1.71049 306.201 1.32734 306.201 0.855244C306.201 0.383149 306.572 0 307.028 0H321.492C321.949 0 322.32 0.383149 322.32 0.855244C322.32 1.32734 321.949 1.71049 321.492 1.71049Z" fill="#E6D9D9"/>
<path d="M13.2522 1.71049H0.827539C0.370737 1.71049 0 1.32734 0 0.855244C0 0.383149 0.370737 0 0.827539 0H13.2522C13.709 0 14.0797 0.383149 14.0797 0.855244C14.0797 1.32734 13.7107 1.71049 13.2522 1.71049Z" fill="#E6D9D9"/>
</g>
<g clip-path="url(#clip1_770_13406)">
<path d="M0.827602 314.834C0.69354 314.834 0.559479 314.801 0.433693 314.733C0.0315092 314.516 -0.117448 314.017 0.101023 313.617L6.21654 302.403C6.43501 302.003 6.93649 301.854 7.33868 302.072C7.74086 302.289 7.88982 302.788 7.67135 303.189L1.55584 314.404C1.40522 314.679 1.12055 314.834 0.827602 314.834Z" fill="#E6D9D9"/>
<path d="M7.04075 320.656H2.01097C1.10068 320.656 0.532985 319.676 0.988131 318.892L3.50219 314.557L6.01791 310.223C6.47306 309.439 7.6101 309.439 8.06524 310.223L10.5793 314.559L13.0934 318.894C13.5485 319.678 12.9792 320.658 12.0705 320.658H7.04075V320.656Z" fill="#E6D9D9"/>
<path d="M17.1714 304.503H22.2012C23.1115 304.503 23.6792 305.483 23.224 306.267L20.7099 310.602L18.1959 314.938C17.7407 315.722 16.6037 315.722 16.1486 314.938L13.6345 310.601L11.1188 306.267C10.6636 305.483 11.233 304.503 12.1416 304.503H17.1714Z" fill="#E6D9D9"/>
<path d="M17.1715 322.618C16.8686 322.618 16.5889 322.453 16.4449 322.188L6.08244 303.188C5.94341 302.933 5.95003 302.623 6.09899 302.375C6.24794 302.124 6.51772 301.971 6.80902 301.971H27.5339C27.8252 301.971 28.0966 302.124 28.2456 302.373C28.3945 302.622 28.4012 302.931 28.2621 303.187L17.8997 322.186C17.754 322.453 17.476 322.618 17.1715 322.618ZM8.20094 303.618L17.1731 320.068L26.1436 303.618H8.20094Z" fill="#E6D9D9"/>
<path d="M27.6299 320.656H22.6001C21.6898 320.656 21.1221 319.676 21.5772 318.892L24.0913 314.557L26.6054 310.222C27.0605 309.438 28.1976 309.438 28.6527 310.222L31.1668 314.557L33.6808 318.892C34.136 319.676 33.5666 320.656 32.658 320.656H27.6299Z" fill="#E6D9D9"/>
<path d="M321.492 323.133H0.827539C0.370737 323.133 0 322.765 0 322.31C0 321.855 0.370737 321.486 0.827539 321.486H321.492C321.949 321.486 322.32 321.855 322.32 322.31C322.32 322.765 321.949 323.133 321.492 323.133Z" fill="#E6D9D9"/>
<path d="M37.4346 304.503H42.4643C43.3746 304.503 43.9423 305.483 43.4872 306.267L40.9731 310.602L38.4591 314.937C38.0039 315.721 36.8669 315.721 36.4117 314.937L33.896 310.6L31.382 306.265C30.9268 305.481 31.4962 304.501 32.4048 304.501H37.4346V304.503Z" fill="#E6D9D9"/>
<path d="M37.4345 322.618C37.1316 322.618 36.8519 322.453 36.7079 322.188L26.3455 303.188C26.2065 302.933 26.2131 302.623 26.362 302.375C26.511 302.124 26.7808 301.973 27.0737 301.973H47.7986C48.0899 301.973 48.3613 302.126 48.5103 302.375C48.6592 302.623 48.6659 302.933 48.5268 303.188L38.1644 322.188C38.0171 322.453 37.7374 322.618 37.4345 322.618ZM28.464 303.618L37.4362 320.068L46.4067 303.618H28.464Z" fill="#E6D9D9"/>
<path d="M47.8929 320.656H42.8631C41.9529 320.656 41.3852 319.676 41.8403 318.892L44.3544 314.557L46.8684 310.222C47.3236 309.438 48.4606 309.438 48.9158 310.222L51.4298 314.557L53.9439 318.892C54.399 319.676 53.8297 320.656 52.921 320.656H47.8929Z" fill="#E6D9D9"/>
<path d="M58.0237 304.503H63.0535C63.9638 304.503 64.5315 305.483 64.0764 306.267L61.5623 310.602L59.0482 314.938C58.5931 315.722 57.456 315.722 57.0009 314.938L54.4868 310.602L51.9728 306.267C51.5176 305.483 52.087 304.503 52.9956 304.503H58.0237Z" fill="#E6D9D9"/>
<path d="M58.0237 322.618C57.7209 322.618 57.4412 322.453 57.2972 322.188L46.9347 303.188C46.7957 302.933 46.8023 302.623 46.9513 302.375C47.1002 302.124 47.37 301.973 47.663 301.973H68.3878C68.6791 301.973 68.9506 302.126 69.0995 302.375C69.2485 302.623 69.2551 302.933 69.1161 303.188L58.7536 322.188C58.6063 322.453 58.3283 322.618 58.0237 322.618ZM49.0532 303.618L58.0254 320.068L66.9959 303.618H49.0532Z" fill="#E6D9D9"/>
<path d="M68.4821 320.656H63.4524C62.5421 320.656 61.9744 319.676 62.4295 318.892L64.9436 314.557L67.4577 310.222C67.9128 309.438 69.0498 309.438 69.505 310.222L72.0191 314.557L74.5331 318.892C74.9883 319.676 74.4189 320.656 73.5103 320.656H68.4821Z" fill="#E6D9D9"/>
<path d="M78.6146 304.503H83.6444C84.5547 304.503 85.1224 305.483 84.6672 306.267L82.1531 310.602L79.6391 314.938C79.1839 315.722 78.0469 315.722 77.5917 314.938L75.0777 310.602L72.5636 306.267C72.1084 305.483 72.6778 304.503 73.5864 304.503H78.6146Z" fill="#E6D9D9"/>
<path d="M78.6145 322.618C78.3116 322.618 78.0319 322.453 77.8879 322.188L67.5238 303.188C67.3848 302.933 67.3914 302.623 67.5404 302.375C67.6893 302.124 67.9591 301.973 68.2521 301.973H88.9769C89.2682 301.973 89.5397 302.126 89.6886 302.375C89.8376 302.623 89.8442 302.933 89.7052 303.188L79.3428 322.188C79.1971 322.453 78.9174 322.618 78.6145 322.618ZM69.6423 303.618L78.6145 320.068L87.585 303.618H69.6423Z" fill="#E6D9D9"/>
<path d="M89.073 320.656H84.0432C83.1329 320.656 82.5652 319.676 83.0204 318.892L85.5344 314.557L88.0485 310.222C88.5036 309.438 89.6407 309.438 90.0958 310.222L92.6099 314.557L95.1239 318.892C95.5791 319.676 95.0097 320.656 94.1011 320.656H89.073Z" fill="#E6D9D9"/>
<path d="M99.2037 304.503H104.233C105.144 304.503 105.711 305.483 105.256 306.267L102.742 310.602L100.228 314.938C99.773 315.722 98.636 315.722 98.1808 314.938L95.6668 310.602L93.1527 306.267C92.6976 305.483 93.2669 304.503 94.1755 304.503H99.2037Z" fill="#E6D9D9"/>
<path d="M99.2037 322.618C98.9008 322.618 98.6211 322.453 98.4771 322.188L88.1147 303.188C87.9756 302.933 87.9823 302.623 88.1312 302.375C88.2802 302.124 88.5499 301.973 88.8429 301.973H109.566C109.857 301.973 110.129 302.126 110.278 302.375C110.427 302.623 110.433 302.933 110.294 303.188L99.9319 322.188C99.7863 322.453 99.5082 322.618 99.2037 322.618ZM90.2332 303.618L99.2053 320.068L108.176 303.618H90.2332Z" fill="#E6D9D9"/>
<path d="M109.662 320.656H104.632C103.722 320.656 103.154 319.676 103.609 318.892L106.124 314.557L108.639 310.223C109.094 309.439 110.231 309.439 110.687 310.223L113.201 314.559L115.715 318.894C116.17 319.678 115.601 320.658 114.692 320.658H109.662V320.656Z" fill="#E6D9D9"/>
<path d="M119.467 304.503H124.497C125.407 304.503 125.975 305.483 125.519 306.267L123.005 310.6L120.49 314.936C120.034 315.72 118.897 315.72 118.442 314.936L115.928 310.6L113.414 306.265C112.959 305.481 113.528 304.501 114.437 304.501H119.467V304.503Z" fill="#E6D9D9"/>
<path d="M119.467 322.618C119.164 322.618 118.884 322.453 118.74 322.188L108.378 303.188C108.239 302.933 108.245 302.623 108.394 302.375C108.543 302.124 108.813 301.973 109.106 301.973H129.831C130.122 301.973 130.394 302.126 130.543 302.375C130.691 302.623 130.698 302.933 130.559 303.188L120.197 322.188C120.049 322.453 119.77 322.618 119.467 322.618ZM110.495 303.618L119.467 320.068L128.439 303.618H110.495Z" fill="#E6D9D9"/>
<path d="M129.925 320.656H124.895C123.985 320.656 123.418 319.676 123.873 318.892L126.387 314.557L128.901 310.222C129.356 309.438 130.493 309.438 130.948 310.222L133.462 314.557L135.976 318.892C136.431 319.676 135.862 320.656 134.953 320.656H129.925Z" fill="#E6D9D9"/>
<path d="M140.056 304.503H145.086C145.996 304.503 146.564 305.483 146.109 306.267L143.595 310.6L141.08 314.936C140.625 315.72 139.488 315.72 139.033 314.936L136.519 310.6L134.005 306.265C133.55 305.481 134.119 304.501 135.028 304.501H140.056V304.503Z" fill="#E6D9D9"/>
<path d="M140.056 322.618C139.753 322.618 139.473 322.453 139.329 322.188L128.967 303.188C128.828 302.933 128.835 302.623 128.984 302.375C129.132 302.124 129.402 301.973 129.695 301.973H150.42C150.711 301.973 150.983 302.126 151.132 302.375C151.281 302.623 151.287 302.933 151.148 303.188L140.786 322.188C140.639 322.453 140.361 322.618 140.056 322.618ZM131.085 303.618L140.058 320.068L149.028 303.618H131.085Z" fill="#E6D9D9"/>
<path d="M150.514 320.656H145.485C144.574 320.656 144.007 319.676 144.462 318.892L146.976 314.557L149.49 310.222C149.945 309.438 151.082 309.438 151.537 310.222L154.051 314.557L156.565 318.892C157.021 319.676 156.451 320.656 155.543 320.656H150.514Z" fill="#E6D9D9"/>
<path d="M160.483 304.503H165.513C166.423 304.503 166.991 305.483 166.536 306.267L164.022 310.602L161.507 314.938C161.052 315.722 159.915 315.722 159.46 314.938L156.946 310.602L154.432 306.267C153.977 305.483 154.546 304.503 155.455 304.503H160.483Z" fill="#E6D9D9"/>
<path d="M160.483 322.618C160.18 322.618 159.9 322.453 159.756 322.188L149.394 303.188C149.255 302.933 149.262 302.623 149.411 302.375C149.559 302.124 149.829 301.973 150.122 301.973H170.847C171.138 301.973 171.41 302.126 171.559 302.375C171.708 302.623 171.714 302.933 171.575 303.188L161.213 322.188C161.066 322.453 160.786 322.618 160.483 322.618ZM151.511 303.618L160.483 320.068L169.455 303.618H151.511Z" fill="#E6D9D9"/>
<path d="M170.941 320.656H165.912C165.001 320.656 164.434 319.676 164.889 318.892L167.403 314.557L169.917 310.222C170.372 309.438 171.509 309.438 171.964 310.222L174.478 314.557L176.992 318.892C177.447 319.676 176.878 320.656 175.969 320.656H170.941Z" fill="#E6D9D9"/>
<path d="M181.072 304.503H186.102C187.012 304.503 187.58 305.483 187.125 306.267L184.611 310.602L182.097 314.938C181.641 315.722 180.504 315.722 180.049 314.938L177.535 310.602L175.021 306.267C174.566 305.483 175.135 304.503 176.044 304.503H181.072Z" fill="#E6D9D9"/>
<path d="M181.072 322.618C180.769 322.618 180.489 322.453 180.346 322.188L169.983 303.188C169.844 302.933 169.851 302.623 170 302.375C170.149 302.124 170.418 301.973 170.711 301.973H191.436C191.727 301.973 191.999 302.126 192.148 302.375C192.297 302.623 192.303 302.933 192.164 303.188L181.802 322.188C181.655 322.453 181.377 322.618 181.072 322.618ZM172.102 303.618L181.074 320.068L190.044 303.618H172.102Z" fill="#E6D9D9"/>
<path d="M191.53 320.656H186.501C185.59 320.656 185.023 319.676 185.478 318.892L187.992 314.557L190.506 310.222C190.961 309.438 192.098 309.438 192.553 310.222L195.067 314.557L197.581 318.892C198.037 319.676 197.467 320.656 196.559 320.656H191.53Z" fill="#E6D9D9"/>
<path d="M201.335 304.503H206.453C207.323 304.503 207.868 305.44 207.433 306.191L204.874 310.602L202.315 315.013C201.88 315.764 200.792 315.764 200.357 315.013L197.798 310.602L195.24 306.191C194.804 305.442 195.349 304.503 196.219 304.503H201.335Z" fill="#E6D9D9"/>
<path d="M201.335 322.618C201.032 322.618 200.753 322.453 200.609 322.188L190.246 303.188C190.107 302.933 190.114 302.623 190.263 302.375C190.412 302.124 190.682 301.973 190.974 301.973H211.699C211.991 301.973 212.262 302.126 212.411 302.375C212.56 302.623 212.567 302.933 212.428 303.188L202.065 322.188C201.918 322.453 201.64 322.618 201.335 322.618ZM192.365 303.618L201.337 320.068L210.307 303.618H192.365Z" fill="#E6D9D9"/>
<path d="M211.794 320.656H206.676C205.806 320.656 205.261 319.719 205.696 318.968L208.255 314.557L210.814 310.146C211.249 309.397 212.337 309.397 212.772 310.146L215.331 314.557L217.889 318.968C218.325 319.719 217.78 320.656 216.909 320.656H211.794Z" fill="#E6D9D9"/>
<path d="M221.926 304.503H227.044C227.914 304.503 228.459 305.44 228.023 306.191L225.465 310.602L222.906 315.013C222.471 315.764 221.382 315.764 220.948 315.013L218.389 310.602L215.83 306.191C215.395 305.442 215.94 304.503 216.81 304.503H221.926Z" fill="#E6D9D9"/>
<path d="M221.926 322.618C221.623 322.618 221.343 322.453 221.199 322.188L210.835 303.188C210.696 302.933 210.703 302.623 210.852 302.375C211.001 302.124 211.271 301.973 211.564 301.973H232.288C232.58 301.973 232.851 302.126 233 302.375C233.149 302.623 233.156 302.933 233.017 303.188L222.654 322.188C222.509 322.453 222.229 322.618 221.926 322.618ZM212.954 303.618L221.926 320.068L230.897 303.618H212.954Z" fill="#E6D9D9"/>
<path d="M232.383 320.656H227.265C226.395 320.656 225.85 319.719 226.285 318.968L228.844 314.557L231.403 310.146C231.838 309.397 232.926 309.397 233.361 310.146L235.92 314.557L238.478 318.968C238.914 319.719 238.369 320.656 237.499 320.656H232.383Z" fill="#E6D9D9"/>
<path d="M242.515 304.503H247.633C248.503 304.503 249.048 305.44 248.613 306.191L246.054 310.602L243.495 315.013C243.06 315.764 241.972 315.764 241.537 315.013L238.978 310.602L236.42 306.191C235.984 305.442 236.529 304.503 237.399 304.503H242.515Z" fill="#E6D9D9"/>
<path d="M242.515 322.618C242.212 322.618 241.933 322.453 241.789 322.188L231.426 303.188C231.287 302.933 231.294 302.623 231.443 302.375C231.592 302.124 231.861 301.973 232.154 301.973H252.879C253.171 301.973 253.442 302.126 253.591 302.375C253.74 302.623 253.747 302.933 253.608 303.188L243.245 322.188C243.098 322.453 242.818 322.618 242.515 322.618ZM233.543 303.618L242.515 320.068L251.487 303.618H233.543Z" fill="#E6D9D9"/>
<path d="M252.974 320.656H247.856C246.986 320.656 246.441 319.719 246.876 318.968L249.435 314.557L251.994 310.146C252.429 309.397 253.516 309.397 253.952 310.146L256.51 314.557L259.069 318.968C259.504 319.719 258.96 320.656 258.089 320.656H252.974Z" fill="#E6D9D9"/>
<path d="M263.104 304.503H268.222C269.092 304.503 269.637 305.44 269.202 306.191L266.643 310.602L264.084 315.013C263.649 315.764 262.562 315.764 262.126 315.013L259.567 310.602L257.009 306.191C256.573 305.442 257.118 304.503 257.989 304.503H263.104Z" fill="#E6D9D9"/>
<path d="M263.104 322.618C262.801 322.618 262.522 322.453 262.378 322.188L252.015 303.188C251.876 302.933 251.883 302.623 252.032 302.375C252.181 302.124 252.451 301.973 252.744 301.973H273.468C273.76 301.973 274.031 302.126 274.18 302.375C274.329 302.623 274.336 302.933 274.197 303.188L263.834 322.188C263.687 322.453 263.409 322.618 263.104 322.618ZM254.134 303.618L263.106 320.068L272.077 303.618H254.134Z" fill="#E6D9D9"/>
<path d="M273.563 320.656H268.445C267.575 320.656 267.03 319.719 267.465 318.968L270.024 314.557L272.583 310.146C273.018 309.397 274.106 309.397 274.541 310.146L277.1 314.557L279.658 318.968C280.094 319.719 279.549 320.656 278.679 320.656H273.563Z" fill="#E6D9D9"/>
<path d="M283.367 304.503H288.485C289.356 304.503 289.9 305.44 289.465 306.191L286.906 310.602L284.347 315.013C283.912 315.764 282.825 315.764 282.389 315.013L279.831 310.602L277.272 306.191C276.837 305.442 277.381 304.503 278.252 304.503H283.367Z" fill="#E6D9D9"/>
<path d="M283.367 322.618C283.065 322.618 282.785 322.453 282.641 322.188L272.278 303.188C272.139 302.933 272.146 302.623 272.295 302.375C272.444 302.124 272.714 301.973 273.007 301.973H293.732C294.023 301.973 294.294 302.126 294.443 302.375C294.592 302.623 294.599 302.933 294.46 303.188L284.097 322.188C283.95 322.453 283.67 322.618 283.367 322.618ZM274.397 303.618L283.369 320.068L292.34 303.618H274.397Z" fill="#E6D9D9"/>
<path d="M293.826 320.656H288.708C287.838 320.656 287.293 319.719 287.729 318.968L290.287 314.557L292.846 310.146C293.281 309.397 294.37 309.397 294.804 310.146L297.363 314.557L299.922 318.968C300.357 319.719 299.812 320.656 298.942 320.656H293.826Z" fill="#E6D9D9"/>
<path d="M303.958 304.503H309.076C309.946 304.503 310.491 305.44 310.056 306.191L307.497 310.602L304.938 315.013C304.503 315.764 303.415 315.764 302.98 315.013L300.421 310.602L297.863 306.191C297.427 305.442 297.972 304.503 298.842 304.503H303.958Z" fill="#E6D9D9"/>
<path d="M303.958 322.618C303.655 322.618 303.376 322.453 303.232 322.188L292.868 303.188C292.729 302.933 292.735 302.623 292.884 302.375C293.033 302.124 293.303 301.973 293.596 301.973H314.321C314.612 301.973 314.883 302.126 315.032 302.375C315.181 302.623 315.188 302.933 315.049 303.188L304.687 322.188C304.539 322.453 304.261 322.618 303.958 322.618ZM294.986 303.618L303.958 320.068L312.929 303.618H294.986Z" fill="#E6D9D9"/>
<path d="M321.492 316.911C321.199 316.911 320.915 316.754 320.764 316.479L313.515 303.187C313.296 302.786 313.445 302.287 313.847 302.07C314.25 301.852 314.751 302.001 314.97 302.401L322.219 315.693C322.437 316.094 322.288 316.593 321.886 316.81C321.76 316.878 321.626 316.911 321.492 316.911Z" fill="#E6D9D9"/>
<path d="M314.415 320.656H309.297C308.427 320.656 307.882 319.719 308.318 318.968L310.876 314.557L313.435 310.146C313.87 309.397 314.958 309.397 315.393 310.146L317.952 314.557L320.511 318.968C320.946 319.719 320.401 320.656 319.531 320.656H314.415Z" fill="#E6D9D9"/>
<path d="M321.492 303.618H307.028C306.572 303.618 306.201 303.249 306.201 302.795C306.201 302.34 306.572 301.971 307.028 301.971H321.492C321.949 301.971 322.32 302.34 322.32 302.795C322.32 303.249 321.949 303.618 321.492 303.618Z" fill="#E6D9D9"/>
<path d="M13.2522 303.618H0.827539C0.370737 303.618 0 303.249 0 302.795C0 302.34 0.370737 301.971 0.827539 301.971H13.2522C13.709 301.971 14.0797 302.34 14.0797 302.795C14.0797 303.249 13.7107 303.618 13.2522 303.618Z" fill="#E6D9D9"/>
</g>
<g clip-path="url(#clip2_770_13406)">
<path d="M8.29981 1.64169C8.29981 1.50763 8.33275 1.37357 8.40028 1.24778C8.61771 0.845596 9.11679 0.696639 9.51704 0.915109L20.7307 7.03062C21.131 7.24909 21.2792 7.75058 21.0618 8.15276C20.8444 8.55495 20.3453 8.70391 19.9451 8.48543L8.72971 2.36992C8.45464 2.21931 8.29981 1.93464 8.29981 1.64169Z" fill="#E6D9D9"/>
<path d="M2.47718 7.85459L2.47719 2.82481C2.47719 1.91452 3.45723 1.34683 4.24127 1.80197L8.57653 4.31604L12.9101 6.83175C13.6942 7.2869 13.6942 8.42394 12.9101 8.87909L8.57488 11.3931L4.23962 13.9072C3.45558 14.3624 2.47554 13.793 2.47554 12.8844L2.47554 7.85459L2.47718 7.85459Z" fill="#E6D9D9"/>
<path d="M18.6306 17.9852L18.6306 23.015C18.6306 23.9253 17.6506 24.493 16.8665 24.0379L12.5313 21.5238L8.19601 19.0097C7.41197 18.5546 7.41197 17.4175 8.19601 16.9624L12.5329 14.4483L16.8665 11.9326C17.6506 11.4775 18.6306 12.0468 18.6306 12.9555L18.6306 17.9852Z" fill="#E6D9D9"/>
<path d="M0.515514 17.9853C0.515514 17.6824 0.680227 17.4027 0.945417 17.2587L19.9451 6.89628C20.2004 6.75725 20.5101 6.76387 20.7588 6.91283C21.0092 7.06179 21.1624 7.33157 21.1624 7.62286L21.1624 28.3477C21.1624 28.639 21.0092 28.9105 20.7605 29.0594C20.5117 29.2084 20.2021 29.215 19.9468 29.076L0.947063 18.7135C0.680227 18.5679 0.515514 18.2898 0.515514 17.9853ZM19.5152 9.01478L3.06528 17.987L19.5152 26.9575L19.5152 9.01478Z" fill="#E6D9D9"/>
<path d="M2.47725 28.4439L2.47725 23.4142C2.47725 22.5039 3.45729 21.9362 4.24133 22.3913L8.57659 24.9054L12.9119 27.4195C13.6959 27.8746 13.6959 29.0116 12.9119 29.4668L8.57659 31.9808L4.24133 34.4949C3.45729 34.9501 2.47725 34.3807 2.47725 33.4721L2.47725 28.4439Z" fill="#E6D9D9"/>
<path d="M-5.60145e-05 322.306L-4.19978e-05 1.6415C-4.19779e-05 1.1847 0.368916 0.813965 0.823526 0.813965C1.27814 0.813965 1.64709 1.1847 1.64709 1.6415L1.64708 322.306C1.64708 322.763 1.27812 323.134 0.823512 323.134C0.368902 323.134 -5.60345e-05 322.763 -5.60145e-05 322.306Z" fill="#E6D9D9"/>
<path d="M18.6307 38.2484L18.6307 43.2782C18.6307 44.1885 17.6506 44.7562 16.8666 44.301L12.5313 41.787L8.19607 39.2729C7.41204 38.8178 7.41204 37.6807 8.19607 37.2256L12.533 34.7099L16.8682 32.1958C17.6523 31.7407 18.6323 32.31 18.6323 33.2186L18.6323 38.2484L18.6307 38.2484Z" fill="#E6D9D9"/>
<path d="M0.515451 38.2485C0.515451 37.9456 0.680164 37.6659 0.945352 37.5219L19.9451 27.1595C20.2004 27.0204 20.51 27.0271 20.7587 27.176C21.0091 27.325 21.1606 27.5947 21.1606 27.8877L21.1606 48.6126C21.1606 48.9039 21.0075 49.1753 20.7587 49.3243C20.51 49.4732 20.2004 49.4798 19.9451 49.3408L0.945352 38.9784C0.680164 38.8311 0.515451 38.5514 0.515451 38.2485ZM19.5152 29.278L3.06522 38.2501L19.5152 47.2207L19.5152 29.278Z" fill="#E6D9D9"/>
<path d="M2.47725 48.7071L2.47725 43.6774C2.47725 42.7671 3.45729 42.1994 4.24133 42.6545L8.57659 45.1686L12.9119 47.6826C13.6959 48.1378 13.6959 49.2748 12.9119 49.73L8.57659 52.244L4.24133 54.7581C3.45729 55.2132 2.47725 54.6439 2.47725 53.7353L2.47725 48.7071Z" fill="#E6D9D9"/>
<path d="M18.6306 58.8376L18.6306 63.8674C18.6306 64.7776 17.6506 65.3453 16.8665 64.8902L12.5313 62.3761L8.19601 59.8621C7.41197 59.4069 7.41197 58.2699 8.19601 57.8147L12.5313 55.3007L16.8665 52.7866C17.6506 52.3315 18.6306 52.9008 18.6306 53.8095L18.6306 58.8376Z" fill="#E6D9D9"/>
<path d="M0.515451 58.8378C0.515451 58.535 0.680164 58.2553 0.945352 58.1113L19.9451 47.7488C20.2004 47.6098 20.51 47.6164 20.7587 47.7654C21.0091 47.9143 21.1606 48.1841 21.1606 48.4771L21.1606 69.2019C21.1606 69.4932 21.0075 69.7647 20.7587 69.9136C20.51 70.0626 20.2004 70.0692 19.9451 69.9302L0.945352 59.5677C0.680164 59.4204 0.515451 59.1424 0.515451 58.8378ZM19.5152 49.8673L3.06522 58.8395L19.5152 67.81L19.5152 49.8673Z" fill="#E6D9D9"/>
<path d="M2.47725 69.296L2.47725 64.2662C2.47725 63.3559 3.45729 62.7882 4.24133 63.2434L8.57659 65.7574L12.9119 68.2715C13.6959 68.7266 13.6959 69.8637 12.9119 70.3188L8.57659 72.8329L4.24133 75.347C3.45729 75.8021 2.47725 75.2328 2.47725 74.3241L2.47725 69.296Z" fill="#E6D9D9"/>
<path d="M18.6306 79.4284L18.6306 84.4582C18.6306 85.3685 17.6506 85.9362 16.8665 85.4811L12.5313 82.967L8.19601 80.4529C7.41197 79.9978 7.41197 78.8607 8.19601 78.4056L12.5313 75.8915L16.8665 73.3774C17.6506 72.9223 18.6306 73.4916 18.6306 74.4003L18.6306 79.4284Z" fill="#E6D9D9"/>
<path d="M0.515451 79.4284C0.515451 79.1255 0.680164 78.8458 0.945352 78.7018L19.9451 68.3377C20.2004 68.1987 20.51 68.2053 20.7587 68.3542C21.0091 68.5032 21.1606 68.773 21.1606 69.0659L21.1606 89.7908C21.1606 90.0821 21.0075 90.3535 20.7587 90.5025C20.51 90.6514 20.2004 90.6581 19.9451 90.519L0.945352 80.1566C0.680164 80.0109 0.515451 79.7312 0.515451 79.4284ZM19.5152 70.4562L3.06522 79.4284L19.5152 88.3989L19.5152 70.4562Z" fill="#E6D9D9"/>
<path d="M2.47725 89.8868L2.47725 84.857C2.47725 83.9467 3.45729 83.3791 4.24133 83.8342L8.57659 86.3483L12.9119 88.8623C13.6959 89.3175 13.6959 90.4545 12.9119 90.9097L8.57659 93.4237L4.24133 95.9378C3.45729 96.3929 2.47725 95.8236 2.47725 94.9149L2.47725 89.8868Z" fill="#E6D9D9"/>
<path d="M18.6306 100.018L18.6306 105.048C18.6306 105.958 17.6506 106.526 16.8665 106.07L12.5313 103.556L8.19601 101.042C7.41197 100.587 7.41197 99.4501 8.19601 98.9949L12.5313 96.4809L16.8665 93.9668C17.6506 93.5116 18.6306 94.081 18.6306 94.9896L18.6306 100.018Z" fill="#E6D9D9"/>
<path d="M0.515451 100.018C0.515451 99.7147 0.680164 99.4349 0.945352 99.2909L19.9451 88.9285C20.2004 88.7895 20.51 88.7961 20.7587 88.9451C21.0091 89.094 21.1606 89.3638 21.1606 89.6567L21.1606 110.38C21.1606 110.671 21.0075 110.943 20.7587 111.092C20.51 111.241 20.2004 111.247 19.9451 111.108L0.945352 100.746C0.680164 100.6 0.515451 100.322 0.515451 100.018ZM19.5152 91.047L3.06522 100.019L19.5152 108.99L19.5152 91.047Z" fill="#E6D9D9"/>
<path d="M2.47718 110.476L2.47719 105.446C2.47719 104.536 3.45723 103.968 4.24127 104.424L8.57653 106.938L12.9101 109.453C13.6942 109.908 13.6942 111.046 12.9101 111.501L8.57488 114.015L4.23962 116.529C3.45558 116.984 2.47554 116.415 2.47554 115.506L2.47554 110.476L2.47718 110.476Z" fill="#E6D9D9"/>
<path d="M18.6307 120.281L18.6307 125.31C18.6307 126.221 17.6506 126.788 16.8666 126.333L12.533 123.819L8.19772 121.303C7.41369 120.848 7.41369 119.711 8.19772 119.256L12.533 116.742L16.8682 114.228C17.6523 113.773 18.6323 114.342 18.6323 115.251L18.6323 120.281L18.6307 120.281Z" fill="#E6D9D9"/>
<path d="M0.515451 120.281C0.515451 119.978 0.680164 119.698 0.945352 119.554L19.9451 109.192C20.2004 109.053 20.51 109.059 20.7587 109.208C21.0091 109.357 21.1606 109.627 21.1606 109.92L21.1606 130.645C21.1606 130.936 21.0075 131.208 20.7587 131.356C20.51 131.505 20.2004 131.512 19.9451 131.373L0.945352 121.011C0.680164 120.863 0.515451 120.584 0.515451 120.281ZM19.5152 111.309L3.06522 120.281L19.5152 129.253L19.5152 111.309Z" fill="#E6D9D9"/>
<path d="M2.47725 130.739L2.47725 125.71C2.47725 124.799 3.45729 124.232 4.24133 124.687L8.57659 127.201L12.9119 129.715C13.6959 130.17 13.6959 131.307 12.9119 131.762L8.57659 134.276L4.24133 136.79C3.45729 137.245 2.47725 136.676 2.47725 135.768L2.47725 130.739Z" fill="#E6D9D9"/>
<path d="M18.6307 140.87L18.6307 145.9C18.6307 146.81 17.6506 147.378 16.8666 146.922L12.533 144.408L8.19772 141.894C7.41369 141.439 7.41369 140.302 8.19772 139.847L12.533 137.333L16.8682 134.819C17.6523 134.364 18.6323 134.933 18.6323 135.842L18.6323 140.87L18.6307 140.87Z" fill="#E6D9D9"/>
<path d="M0.515451 140.87C0.515451 140.567 0.680164 140.287 0.945352 140.143L19.9451 129.781C20.2004 129.642 20.51 129.649 20.7587 129.798C21.0091 129.947 21.1606 130.216 21.1606 130.509L21.1606 151.234C21.1606 151.525 21.0075 151.797 20.7587 151.946C20.51 152.095 20.2004 152.101 19.9451 151.962L0.945352 141.6C0.680164 141.453 0.515451 141.175 0.515451 140.87ZM19.5152 131.9L3.06522 140.872L19.5152 149.842L19.5152 131.9Z" fill="#E6D9D9"/>
<path d="M2.47725 151.328L2.47725 146.298C2.47725 145.388 3.45729 144.82 4.24133 145.276L8.57659 147.79L12.9119 150.304C13.6959 150.759 13.6959 151.896 12.9119 152.351L8.57659 154.865L4.24133 157.379C3.45729 157.834 2.47725 157.265 2.47725 156.356L2.47725 151.328Z" fill="#E6D9D9"/>
<path d="M18.6306 161.297L18.6306 166.327C18.6306 167.237 17.6506 167.805 16.8665 167.35L12.5313 164.836L8.19601 162.322C7.41197 161.866 7.41197 160.729 8.19601 160.274L12.5313 157.76L16.8665 155.246C17.6506 154.791 18.6306 155.36 18.6306 156.269L18.6306 161.297Z" fill="#E6D9D9"/>
<path d="M0.515451 161.297C0.515451 160.994 0.680164 160.714 0.945352 160.57L19.9451 150.208C20.2004 150.069 20.51 150.075 20.7587 150.224C21.0091 150.373 21.1606 150.643 21.1606 150.936L21.1606 171.661C21.1606 171.952 21.0075 172.224 20.7587 172.373C20.51 172.522 20.2004 172.528 19.9451 172.389L0.945352 162.027C0.680164 161.879 0.515451 161.6 0.515451 161.297ZM19.5152 152.325L3.06522 161.297L19.5152 170.269L19.5152 152.325Z" fill="#E6D9D9"/>
<path d="M2.47725 171.755L2.47725 166.726C2.47725 165.815 3.45729 165.248 4.24133 165.703L8.57659 168.217L12.9119 170.731C13.6959 171.186 13.6959 172.323 12.9119 172.778L8.57659 175.292L4.24133 177.806C3.45729 178.262 2.47725 177.692 2.47725 176.784L2.47725 171.755Z" fill="#E6D9D9"/>
<path d="M18.6306 181.886L18.6306 186.916C18.6306 187.826 17.6506 188.394 16.8665 187.939L12.5313 185.424L8.19601 182.91C7.41197 182.455 7.41197 181.318 8.19601 180.863L12.5313 178.349L16.8665 175.835C17.6506 175.38 18.6306 175.949 18.6306 176.858L18.6306 181.886Z" fill="#E6D9D9"/>
<path d="M0.515451 181.886C0.515451 181.583 0.680164 181.304 0.945352 181.16L19.9451 170.797C20.2004 170.658 20.51 170.665 20.7587 170.814C21.0091 170.963 21.1606 171.232 21.1606 171.525L21.1606 192.25C21.1606 192.542 21.0075 192.813 20.7587 192.962C20.51 193.111 20.2004 193.118 19.9451 192.978L0.945352 182.616C0.680164 182.469 0.515451 182.191 0.515451 181.886ZM19.5152 172.916L3.06522 181.888L19.5152 190.858L19.5152 172.916Z" fill="#E6D9D9"/>
<path d="M2.47725 192.344L2.47725 187.315C2.47725 186.404 3.45729 185.837 4.24133 186.292L8.57659 188.806L12.9119 191.32C13.6959 191.775 13.6959 192.912 12.9119 193.367L8.57659 195.881L4.24133 198.395C3.45729 198.85 2.47725 198.281 2.47725 197.372L2.47725 192.344Z" fill="#E6D9D9"/>
<path d="M18.6306 202.149L18.6306 207.267C18.6306 208.137 17.6934 208.682 16.9423 208.246L12.5313 205.688L8.12024 203.129C7.36915 202.694 7.36915 201.606 8.12024 201.171L12.5313 198.612L16.9423 196.054C17.6917 195.618 18.6306 196.163 18.6306 197.033L18.6306 202.149Z" fill="#E6D9D9"/>
<path d="M0.515451 202.149C0.515451 201.846 0.680164 201.567 0.945352 201.423L19.9451 191.06C20.2004 190.921 20.51 190.928 20.7587 191.077C21.0091 191.226 21.1606 191.496 21.1606 191.789L21.1606 212.513C21.1606 212.805 21.0075 213.076 20.7587 213.225C20.51 213.374 20.2004 213.381 19.9451 213.242L0.945352 202.879C0.680164 202.732 0.515451 202.454 0.515451 202.149ZM19.5152 193.179L3.06522 202.151L19.5152 211.122L19.5152 193.179Z" fill="#E6D9D9"/>
<path d="M2.47723 212.607L2.47723 207.49C2.47723 206.619 3.41445 206.075 4.16554 206.51L8.57657 209.069L12.9876 211.628C13.737 212.063 13.737 213.15 12.9876 213.586L8.57657 216.144L4.16554 218.703C3.41445 219.138 2.47723 218.594 2.47723 217.723L2.47723 212.607Z" fill="#E6D9D9"/>
<path d="M18.6306 222.74L18.6306 227.858C18.6306 228.728 17.6934 229.273 16.9423 228.837L12.5313 226.279L8.12024 223.72C7.36915 223.285 7.36915 222.195 8.12024 221.762L12.5313 219.203L16.9423 216.644C17.6917 216.209 18.6306 216.754 18.6306 217.624L18.6306 222.74Z" fill="#E6D9D9"/>
<path d="M0.515451 222.74C0.515451 222.437 0.680164 222.157 0.945352 222.013L19.9451 211.649C20.2004 211.51 20.51 211.517 20.7587 211.666C21.0091 211.815 21.1606 212.085 21.1606 212.377L21.1606 233.102C21.1606 233.394 21.0075 233.665 20.7587 233.814C20.51 233.963 20.2004 233.97 19.9451 233.831L0.945352 223.468C0.680164 223.322 0.515451 223.043 0.515451 222.74ZM19.5152 213.768L3.06522 222.74L19.5152 231.71L19.5152 213.768Z" fill="#E6D9D9"/>
<path d="M2.47723 233.197L2.47723 228.079C2.47723 227.209 3.41445 226.664 4.16554 227.099L8.57657 229.658L12.9876 232.217C13.737 232.652 13.737 233.74 12.9876 234.175L8.57657 236.734L4.16554 239.292C3.41445 239.728 2.47723 239.183 2.47723 238.313L2.47723 233.197Z" fill="#E6D9D9"/>
<path d="M18.6306 243.329L18.6306 248.447C18.6306 249.317 17.6934 249.862 16.9423 249.427L12.5313 246.868L8.12024 244.309C7.36915 243.874 7.36915 242.786 8.12024 242.351L12.5313 239.792L16.9423 237.234C17.6917 236.798 18.6306 237.343 18.6306 238.214L18.6306 243.329Z" fill="#E6D9D9"/>
<path d="M0.515451 243.329C0.515451 243.026 0.680164 242.746 0.945352 242.602L19.9451 232.24C20.2004 232.101 20.51 232.108 20.7587 232.257C21.0091 232.406 21.1606 232.675 21.1606 232.968L21.1606 253.693C21.1606 253.984 21.0075 254.256 20.7587 254.405C20.51 254.554 20.2004 254.56 19.9451 254.421L0.945352 244.059C0.680164 243.912 0.515451 243.632 0.515451 243.329ZM19.5152 234.357L3.06522 243.329L19.5152 252.301L19.5152 234.357Z" fill="#E6D9D9"/>
<path d="M2.47723 253.788L2.47723 248.67C2.47723 247.799 3.41445 247.255 4.16554 247.69L8.57657 250.249L12.9876 252.808C13.737 253.243 13.737 254.33 12.9876 254.766L8.57657 257.324L4.16554 259.883C3.41445 260.318 2.47723 259.774 2.47723 258.903L2.47723 253.788Z" fill="#E6D9D9"/>
<path d="M18.6306 263.918L18.6306 269.036C18.6306 269.906 17.6934 270.451 16.9423 270.016L12.5313 267.457L8.12024 264.898C7.36915 264.463 7.36915 263.375 8.12024 262.94L12.5313 260.381L16.9423 257.823C17.6917 257.387 18.6306 257.932 18.6306 258.802L18.6306 263.918Z" fill="#E6D9D9"/>
<path d="M0.515451 263.918C0.515451 263.616 0.680164 263.336 0.945352 263.192L19.9451 252.829C20.2004 252.69 20.51 252.697 20.7587 252.846C21.0091 252.995 21.1606 253.265 21.1606 253.558L21.1606 274.283C21.1606 274.574 21.0075 274.845 20.7587 274.994C20.51 275.143 20.2004 275.15 19.9451 275.011L0.945352 264.648C0.680164 264.501 0.515451 264.223 0.515451 263.918ZM19.5152 254.948L3.06522 263.92L19.5152 272.891L19.5152 254.948Z" fill="#E6D9D9"/>
<path d="M2.47723 274.377L2.47723 269.259C2.47723 268.389 3.41445 267.844 4.16554 268.28L8.57657 270.838L12.9876 273.397C13.737 273.832 13.737 274.92 12.9876 275.355L8.57657 277.914L4.16554 280.473C3.41445 280.908 2.47723 280.363 2.47723 279.493L2.47723 274.377Z" fill="#E6D9D9"/>
<path d="M18.6306 284.181L18.6306 289.299C18.6306 290.169 17.6934 290.714 16.9423 290.279L12.5313 287.72L8.12024 285.161C7.36915 284.726 7.36915 283.639 8.12024 283.203L12.5313 280.645L16.9423 278.086C17.6917 277.65 18.6306 278.195 18.6306 279.066L18.6306 284.181Z" fill="#E6D9D9"/>
<path d="M0.515451 284.182C0.515451 283.879 0.680164 283.599 0.945352 283.455L19.9451 273.093C20.2004 272.954 20.51 272.96 20.7587 273.109C21.0091 273.258 21.1606 273.528 21.1606 273.821L21.1606 294.546C21.1606 294.837 21.0075 295.108 20.7587 295.257C20.51 295.406 20.2004 295.413 19.9451 295.274L0.945352 284.912C0.680164 284.764 0.515451 284.484 0.515451 284.182ZM19.5152 275.211L3.06522 284.183L19.5152 293.154L19.5152 275.211Z" fill="#E6D9D9"/>
<path d="M2.47723 294.64L2.47723 289.522C2.47723 288.652 3.41445 288.107 4.16554 288.542L8.57657 291.101L12.9876 293.66C13.737 294.095 13.737 295.184 12.9876 295.618L8.57657 298.177L4.16554 300.735C3.41445 301.171 2.47723 300.626 2.47723 299.755L2.47723 294.64Z" fill="#E6D9D9"/>
<path d="M18.6306 304.772L18.6306 309.89C18.6306 310.76 17.6934 311.305 16.9423 310.87L12.5313 308.311L8.12024 305.752C7.36915 305.317 7.36915 304.229 8.12024 303.794L12.5313 301.235L16.9423 298.677C17.6917 298.241 18.6306 298.786 18.6306 299.656L18.6306 304.772Z" fill="#E6D9D9"/>
<path d="M0.515451 304.772C0.515451 304.469 0.680164 304.19 0.945352 304.046L19.9451 293.681C20.2004 293.542 20.51 293.549 20.7587 293.698C21.0091 293.847 21.1606 294.117 21.1606 294.41L21.1606 315.135C21.1606 315.426 21.0075 315.697 20.7587 315.846C20.51 315.995 20.2004 316.002 19.9451 315.863L0.945352 305.5C0.680164 305.353 0.515451 305.075 0.515451 304.772ZM19.5152 295.8L3.06522 304.772L19.5152 313.743L19.5152 295.8Z" fill="#E6D9D9"/>
<path d="M6.22284 322.306C6.22284 322.013 6.37931 321.729 6.65439 321.578L19.9468 314.329C20.347 314.11 20.8461 314.259 21.0635 314.661C21.2809 315.064 21.1327 315.565 20.7324 315.784L7.44007 323.033C7.03982 323.251 6.54073 323.102 6.32331 322.7C6.25578 322.574 6.22284 322.44 6.22284 322.306Z" fill="#E6D9D9"/>
<path d="M2.47723 315.229L2.47723 310.111C2.47723 309.241 3.41445 308.696 4.16554 309.132L8.57657 311.69L12.9876 314.249C13.737 314.684 13.737 315.772 12.9876 316.207L8.57657 318.766L4.16554 321.325C3.41445 321.76 2.47723 321.215 2.47723 320.345L2.47723 315.229Z" fill="#E6D9D9"/>
<path d="M19.5152 322.306L19.5152 307.843C19.5152 307.386 19.8842 307.015 20.3388 307.015C20.7934 307.015 21.1624 307.386 21.1624 307.843L21.1624 322.306C21.1624 322.763 20.7934 323.134 20.3388 323.134C19.8842 323.134 19.5152 322.763 19.5152 322.306Z" fill="#E6D9D9"/>
<path d="M19.5152 14.0662L19.5152 1.6415C19.5152 1.1847 19.8842 0.813965 20.3388 0.813965C20.7934 0.813965 21.1624 1.1847 21.1624 1.6415L21.1624 14.0662C21.1624 14.523 20.7934 14.8937 20.3388 14.8937C19.8842 14.8937 19.5152 14.5246 19.5152 14.0662Z" fill="#E6D9D9"/>
</g>
<g clip-path="url(#clip3_770_13406)">
<path d="M309.457 0.827723C309.457 0.693662 309.49 0.559601 309.558 0.433815C309.775 0.0316307 310.274 -0.117326 310.674 0.101144L321.888 6.21666C322.288 6.43513 322.437 6.93662 322.219 7.3388C322.002 7.74098 321.503 7.88994 321.102 7.67147L309.887 1.55596C309.612 1.40535 309.457 1.12067 309.457 0.827723Z" fill="#E6D9D9"/>
<path d="M303.635 7.04063L303.635 2.01085C303.635 1.10055 304.615 0.532862 305.399 0.988009L309.734 3.50207L314.067 6.01779C314.852 6.47294 314.852 7.60997 314.067 8.06512L309.732 10.5792L305.397 13.0932C304.613 13.5484 303.633 12.979 303.633 12.0704L303.633 7.04063L303.635 7.04063Z" fill="#E6D9D9"/>
<path d="M319.788 17.1713L319.788 22.201C319.788 23.1113 318.808 23.679 318.024 23.2239L313.689 20.7098L309.353 18.1958C308.569 17.7406 308.569 16.6036 309.353 16.1484L313.69 13.6344L318.024 11.1186C318.808 10.6635 319.788 11.2328 319.788 12.1415L319.788 17.1713Z" fill="#E6D9D9"/>
<path d="M301.673 17.1713C301.673 16.8685 301.838 16.5887 302.103 16.4448L321.102 6.08232C321.358 5.94329 321.667 5.94991 321.916 6.09887C322.167 6.24782 322.32 6.5176 322.32 6.80889L322.32 27.5338C322.32 27.8251 322.167 28.0965 321.918 28.2455C321.669 28.3944 321.359 28.401 321.104 28.262L302.104 17.8996C301.838 17.7539 301.673 17.4759 301.673 17.1713ZM320.673 8.20081L304.223 17.173L320.673 26.1435L320.673 8.20081Z" fill="#E6D9D9"/>
<path d="M303.635 27.63L303.635 22.6002C303.635 21.6899 304.615 21.1222 305.399 21.5774L309.734 24.0914L314.069 26.6055C314.853 27.0606 314.853 28.1977 314.069 28.6528L309.734 31.1669L305.399 33.6809C304.615 34.1361 303.635 33.5667 303.635 32.6581L303.635 27.63Z" fill="#E6D9D9"/>
<path d="M301.157 321.492L301.157 0.827539C301.157 0.370737 301.526 -5.5871e-08 301.981 -3.59993e-08C302.435 -1.61277e-08 302.804 0.370737 302.804 0.827539L302.804 321.492C302.804 321.949 302.435 322.32 301.981 322.32C301.526 322.32 301.157 321.949 301.157 321.492Z" fill="#E6D9D9"/>
<path d="M319.788 37.4344L319.788 42.4642C319.788 43.3745 318.808 43.9422 318.024 43.4871L313.689 40.973L309.353 38.4589C308.569 38.0038 308.569 36.8668 309.353 36.4116L313.69 33.8959L318.025 31.3818C318.81 30.9267 319.79 31.496 319.79 32.4047L319.79 37.4344L319.788 37.4344Z" fill="#E6D9D9"/>
<path d="M301.673 37.4345C301.673 37.1316 301.838 36.8519 302.103 36.7079L321.102 26.3455C321.358 26.2065 321.667 26.2131 321.916 26.362C322.166 26.511 322.318 26.7808 322.318 27.0737L322.318 47.7986C322.318 48.0899 322.165 48.3613 321.916 48.5103C321.667 48.6592 321.358 48.6659 321.102 48.5268L302.103 38.1644C301.838 38.0171 301.673 37.7374 301.673 37.4345ZM320.673 28.464L304.223 37.4362L320.673 46.4067L320.673 28.464Z" fill="#E6D9D9"/>
<path d="M303.635 47.8932L303.635 42.8634C303.635 41.9531 304.615 41.3854 305.399 41.8405L309.734 44.3546L314.069 46.8687C314.853 47.3238 314.853 48.4609 314.069 48.916L309.734 51.4301L305.399 53.9441C304.615 54.3993 303.635 53.8299 303.635 52.9213L303.635 47.8932Z" fill="#E6D9D9"/>
<path d="M319.788 58.0236L319.788 63.0534C319.788 63.9637 318.808 64.5314 318.024 64.0762L313.689 61.5622L309.353 59.0481C308.569 58.593 308.569 57.4559 309.353 57.0008L313.689 54.4867L318.024 51.9727C318.808 51.5175 319.788 52.0869 319.788 52.9955L319.788 58.0236Z" fill="#E6D9D9"/>
<path d="M301.673 58.0239C301.673 57.721 301.838 57.4413 302.103 57.2973L321.103 46.9349C321.358 46.7958 321.667 46.8024 321.916 46.9514C322.167 47.1004 322.318 47.3701 322.318 47.6631L322.318 68.388C322.318 68.6793 322.165 68.9507 321.916 69.0996C321.667 69.2486 321.358 69.2552 321.103 69.1162L302.103 58.7538C301.838 58.6065 301.673 58.3284 301.673 58.0239ZM320.673 49.0534L304.223 58.0255L320.673 66.996L320.673 49.0534Z" fill="#E6D9D9"/>
<path d="M303.635 68.482L303.635 63.4523C303.635 62.542 304.615 61.9743 305.399 62.4294L309.734 64.9435L314.069 67.4575C314.853 67.9127 314.853 69.0497 314.069 69.5049L309.734 72.0189L305.399 74.533C304.615 74.9881 303.635 74.4188 303.635 73.5101L303.635 68.482Z" fill="#E6D9D9"/>
<path d="M319.788 78.6145L319.788 83.6442C319.788 84.5545 318.808 85.1222 318.024 84.6671L313.689 82.153L309.353 79.6389C308.569 79.1838 308.569 78.0468 309.353 77.5916L313.689 75.0775L318.024 72.5635C318.808 72.1083 319.788 72.6777 319.788 73.5863L319.788 78.6145Z" fill="#E6D9D9"/>
<path d="M301.673 78.6144C301.673 78.3115 301.838 78.0318 302.103 77.8878L321.103 67.5237C321.358 67.3847 321.667 67.3913 321.916 67.5403C322.167 67.6892 322.318 67.959 322.318 68.252L322.318 88.9768C322.318 89.2681 322.165 89.5396 321.916 89.6885C321.667 89.8375 321.358 89.8441 321.103 89.7051L302.103 79.3426C301.838 79.197 301.673 78.9173 301.673 78.6144ZM320.673 69.6422L304.223 78.6144L320.673 87.5849L320.673 69.6422Z" fill="#E6D9D9"/>
<path d="M303.635 89.0729L303.635 84.0431C303.635 83.1328 304.615 82.5651 305.399 83.0202L309.734 85.5343L314.069 88.0484C314.853 88.5035 314.853 89.6405 314.069 90.0957L309.734 92.6098L305.399 95.1238C304.615 95.579 303.635 95.0096 303.635 94.101L303.635 89.0729Z" fill="#E6D9D9"/>
<path d="M319.788 99.2038L319.788 104.234C319.788 105.144 318.808 105.712 318.024 105.256L313.689 102.742L309.353 100.228C308.569 99.7731 308.569 98.6361 309.353 98.181L313.689 95.6669L318.024 93.1528C318.808 92.6977 319.788 93.267 319.788 94.1757L319.788 99.2038Z" fill="#E6D9D9"/>
<path d="M301.673 99.2036C301.673 98.9007 301.838 98.621 302.103 98.477L321.103 88.1145C321.358 87.9755 321.667 87.9821 321.916 88.1311C322.167 88.28 322.318 88.5498 322.318 88.8428L322.318 109.566C322.318 109.857 322.165 110.129 321.916 110.278C321.667 110.427 321.358 110.433 321.103 110.294L302.103 99.9318C301.838 99.7861 301.673 99.5081 301.673 99.2036ZM320.673 90.233L304.223 99.2052L320.673 108.176L320.673 90.233Z" fill="#E6D9D9"/>
<path d="M303.635 109.662L303.635 104.632C303.635 103.722 304.615 103.154 305.399 103.61L309.734 106.124L314.067 108.639C314.852 109.095 314.852 110.232 314.067 110.687L309.732 113.201L305.397 115.715C304.613 116.17 303.633 115.601 303.633 114.692L303.633 109.662L303.635 109.662Z" fill="#E6D9D9"/>
<path d="M319.788 119.467L319.788 124.496C319.788 125.407 318.808 125.974 318.024 125.519L313.69 123.005L309.355 120.49C308.571 120.034 308.571 118.897 309.355 118.442L313.69 115.928L318.025 113.414C318.81 112.959 319.79 113.528 319.79 114.437L319.79 119.467L319.788 119.467Z" fill="#E6D9D9"/>
<path d="M301.673 119.467C301.673 119.164 301.838 118.884 302.103 118.74L321.102 108.378C321.358 108.239 321.667 108.245 321.916 108.394C322.166 108.543 322.318 108.813 322.318 109.106L322.318 129.831C322.318 130.122 322.165 130.394 321.916 130.543C321.667 130.691 321.358 130.698 321.102 130.559L302.103 120.197C301.838 120.049 301.673 119.77 301.673 119.467ZM320.673 110.495L304.223 119.467L320.673 128.439L320.673 110.495Z" fill="#E6D9D9"/>
<path d="M303.635 129.925L303.635 124.896C303.635 123.985 304.615 123.418 305.399 123.873L309.734 126.387L314.069 128.901C314.853 129.356 314.853 130.493 314.069 130.948L309.734 133.462L305.399 135.976C304.615 136.432 303.635 135.862 303.635 134.954L303.635 129.925Z" fill="#E6D9D9"/>
<path d="M319.788 140.056L319.788 145.086C319.788 145.996 318.808 146.564 318.024 146.108L313.69 143.594L309.355 141.08C308.571 140.625 308.571 139.488 309.355 139.033L313.69 136.519L318.025 134.005C318.81 133.55 319.79 134.119 319.79 135.028L319.79 140.056L319.788 140.056Z" fill="#E6D9D9"/>
<path d="M301.673 140.056C301.673 139.753 301.838 139.474 302.103 139.33L321.103 128.967C321.358 128.828 321.667 128.835 321.916 128.984C322.167 129.133 322.318 129.402 322.318 129.695L322.318 150.42C322.318 150.711 322.165 150.983 321.916 151.132C321.667 151.281 321.358 151.287 321.103 151.148L302.103 140.786C301.838 140.639 301.673 140.361 301.673 140.056ZM320.673 131.086L304.223 140.058L320.673 149.028L320.673 131.086Z" fill="#E6D9D9"/>
<path d="M303.635 150.514L303.635 145.484C303.635 144.574 304.615 144.006 305.399 144.462L309.734 146.976L314.069 149.49C314.853 149.945 314.853 151.082 314.069 151.537L309.734 154.051L305.399 156.565C304.615 157.02 303.635 156.451 303.635 155.542L303.635 150.514Z" fill="#E6D9D9"/>
<path d="M319.788 160.483L319.788 165.513C319.788 166.423 318.808 166.991 318.024 166.536L313.689 164.022L309.353 161.508C308.569 161.052 308.569 159.915 309.353 159.46L313.689 156.946L318.024 154.432C318.808 153.977 319.788 154.546 319.788 155.455L319.788 160.483Z" fill="#E6D9D9"/>
<path d="M301.673 160.483C301.673 160.18 301.838 159.9 302.103 159.756L321.102 149.394C321.358 149.255 321.667 149.261 321.916 149.41C322.166 149.559 322.318 149.829 322.318 150.122L322.318 170.847C322.318 171.138 322.165 171.41 321.916 171.559C321.667 171.708 321.358 171.714 321.102 171.575L302.103 161.213C301.838 161.065 301.673 160.786 301.673 160.483ZM320.673 151.511L304.223 160.483L320.673 169.455L320.673 151.511Z" fill="#E6D9D9"/>
<path d="M303.635 170.941L303.635 165.912C303.635 165.001 304.615 164.434 305.399 164.889L309.734 167.403L314.069 169.917C314.853 170.372 314.853 171.509 314.069 171.964L309.734 174.478L305.399 176.992C304.615 177.448 303.635 176.878 303.635 175.97L303.635 170.941Z" fill="#E6D9D9"/>
<path d="M319.788 181.072L319.788 186.102C319.788 187.012 318.808 187.58 318.024 187.125L313.689 184.611L309.353 182.096C308.569 181.641 308.569 180.504 309.353 180.049L313.689 177.535L318.024 175.021C318.808 174.566 319.788 175.135 319.788 176.044L319.788 181.072Z" fill="#E6D9D9"/>
<path d="M301.673 181.072C301.673 180.769 301.838 180.49 302.103 180.346L321.103 169.983C321.358 169.844 321.667 169.851 321.916 170C322.167 170.149 322.318 170.418 322.318 170.711L322.318 191.436C322.318 191.728 322.165 191.999 321.916 192.148C321.667 192.297 321.358 192.304 321.103 192.165L302.103 181.802C301.838 181.655 301.673 181.377 301.673 181.072ZM320.673 172.102L304.223 181.074L320.673 190.044L320.673 172.102Z" fill="#E6D9D9"/>
<path d="M303.635 191.53L303.635 186.501C303.635 185.59 304.615 185.023 305.399 185.478L309.734 187.992L314.069 190.506C314.853 190.961 314.853 192.098 314.069 192.553L309.734 195.067L305.399 197.581C304.615 198.036 303.635 197.467 303.635 196.558L303.635 191.53Z" fill="#E6D9D9"/>
<path d="M319.788 201.335L319.788 206.453C319.788 207.323 318.851 207.868 318.1 207.433L313.689 204.874L309.278 202.315C308.526 201.88 308.526 200.792 309.278 200.357L313.689 197.798L318.1 195.24C318.849 194.804 319.788 195.349 319.788 196.219L319.788 201.335Z" fill="#E6D9D9"/>
<path d="M301.673 201.335C301.673 201.033 301.838 200.753 302.103 200.609L321.103 190.246C321.358 190.107 321.667 190.114 321.916 190.263C322.167 190.412 322.318 190.682 322.318 190.975L322.318 211.699C322.318 211.991 322.165 212.262 321.916 212.411C321.667 212.56 321.358 212.567 321.103 212.428L302.103 202.065C301.838 201.918 301.673 201.64 301.673 201.335ZM320.673 192.365L304.223 201.337L320.673 210.308L320.673 192.365Z" fill="#E6D9D9"/>
<path d="M303.635 211.793L303.635 206.676C303.635 205.805 304.572 205.261 305.323 205.696L309.734 208.255L314.145 210.814C314.894 211.249 314.894 212.336 314.145 212.772L309.734 215.33L305.323 217.889C304.572 218.324 303.635 217.78 303.635 216.909L303.635 211.793Z" fill="#E6D9D9"/>
<path d="M319.788 221.926L319.788 227.044C319.788 227.914 318.851 228.459 318.1 228.023L313.689 225.465L309.278 222.906C308.526 222.471 308.526 221.382 309.278 220.948L313.689 218.389L318.1 215.83C318.849 215.395 319.788 215.94 319.788 216.81L319.788 221.926Z" fill="#E6D9D9"/>
<path d="M301.673 221.926C301.673 221.623 301.838 221.343 302.103 221.199L321.103 210.835C321.358 210.696 321.667 210.703 321.916 210.852C322.167 211.001 322.318 211.271 322.318 211.563L322.318 232.288C322.318 232.58 322.165 232.851 321.916 233C321.667 233.149 321.358 233.156 321.103 233.017L302.103 222.654C301.838 222.509 301.673 222.229 301.673 221.926ZM320.673 212.954L304.223 221.926L320.673 230.896L320.673 212.954Z" fill="#E6D9D9"/>
<path d="M303.635 232.383L303.635 227.265C303.635 226.395 304.572 225.85 305.323 226.285L309.734 228.844L314.145 231.403C314.894 231.838 314.894 232.926 314.145 233.361L309.734 235.92L305.323 238.478C304.572 238.914 303.635 238.369 303.635 237.499L303.635 232.383Z" fill="#E6D9D9"/>
<path d="M319.788 242.515L319.788 247.633C319.788 248.503 318.851 249.048 318.1 248.613L313.689 246.054L309.278 243.495C308.527 243.06 308.527 241.973 309.278 241.537L313.689 238.978L318.1 236.42C318.849 235.984 319.788 236.529 319.788 237.4L319.788 242.515Z" fill="#E6D9D9"/>
<path d="M301.673 242.515C301.673 242.212 301.838 241.933 302.103 241.789L321.103 231.426C321.358 231.287 321.667 231.294 321.916 231.443C322.167 231.592 322.318 231.861 322.318 232.154L322.318 252.879C322.318 253.17 322.165 253.442 321.916 253.591C321.667 253.74 321.358 253.746 321.103 253.607L302.103 243.245C301.838 243.098 301.673 242.818 301.673 242.515ZM320.673 233.543L304.223 242.515L320.673 251.487L320.673 233.543Z" fill="#E6D9D9"/>
<path d="M303.635 252.974L303.635 247.856C303.635 246.986 304.572 246.441 305.323 246.876L309.734 249.435L314.145 251.994C314.894 252.429 314.894 253.516 314.145 253.952L309.734 256.51L305.323 259.069C304.572 259.504 303.635 258.96 303.635 258.089L303.635 252.974Z" fill="#E6D9D9"/>
<path d="M319.788 263.104L319.788 268.222C319.788 269.092 318.851 269.637 318.1 269.202L313.689 266.643L309.278 264.084C308.526 263.649 308.526 262.561 309.278 262.126L313.689 259.567L318.1 257.009C318.849 256.573 319.788 257.118 319.788 257.988L319.788 263.104Z" fill="#E6D9D9"/>
<path d="M301.673 263.104C301.673 262.802 301.838 262.522 302.103 262.378L321.103 252.015C321.358 251.876 321.667 251.883 321.916 252.032C322.167 252.181 322.318 252.451 322.318 252.744L322.318 273.469C322.318 273.76 322.165 274.031 321.916 274.18C321.667 274.329 321.358 274.336 321.103 274.197L302.103 263.834C301.838 263.687 301.673 263.409 301.673 263.104ZM320.673 254.134L304.223 263.106L320.673 272.077L320.673 254.134Z" fill="#E6D9D9"/>
<path d="M303.635 273.563L303.635 268.445C303.635 267.575 304.572 267.03 305.323 267.466L309.734 270.024L314.145 272.583C314.894 273.018 314.894 274.106 314.145 274.541L309.734 277.1L305.323 279.659C304.572 280.094 303.635 279.549 303.635 278.679L303.635 273.563Z" fill="#E6D9D9"/>
<path d="M319.788 283.367L319.788 288.485C319.788 289.356 318.851 289.9 318.1 289.465L313.689 286.906L309.278 284.347C308.526 283.912 308.526 282.825 309.278 282.389L313.689 279.831L318.1 277.272C318.849 276.837 319.788 277.381 319.788 278.252L319.788 283.367Z" fill="#E6D9D9"/>
<path d="M301.673 283.368C301.673 283.065 301.838 282.785 302.103 282.641L321.103 272.279C321.358 272.14 321.667 272.146 321.916 272.295C322.167 272.444 322.318 272.714 322.318 273.007L322.318 293.732C322.318 294.023 322.165 294.295 321.916 294.443C321.667 294.592 321.358 294.599 321.103 294.46L302.103 284.098C301.838 283.95 301.673 283.671 301.673 283.368ZM320.673 274.397L304.223 283.369L320.673 292.34L320.673 274.397Z" fill="#E6D9D9"/>
<path d="M303.635 293.826L303.635 288.708C303.635 287.838 304.572 287.293 305.323 287.728L309.734 290.287L314.145 292.846C314.894 293.281 314.894 294.37 314.145 294.804L309.734 297.363L305.323 299.921C304.572 300.357 303.635 299.812 303.635 298.941L303.635 293.826Z" fill="#E6D9D9"/>
<path d="M319.788 303.958L319.788 309.076C319.788 309.946 318.851 310.491 318.1 310.056L313.689 307.497L309.278 304.938C308.526 304.503 308.526 303.415 309.278 302.98L313.689 300.421L318.1 297.863C318.849 297.427 319.788 297.972 319.788 298.842L319.788 303.958Z" fill="#E6D9D9"/>
<path d="M301.673 303.958C301.673 303.655 301.838 303.376 302.103 303.232L321.103 292.867C321.358 292.728 321.667 292.735 321.916 292.884C322.167 293.033 322.318 293.303 322.318 293.596L322.318 314.321C322.318 314.612 322.165 314.883 321.916 315.032C321.667 315.181 321.358 315.188 321.103 315.049L302.103 304.686C301.838 304.539 301.673 304.261 301.673 303.958ZM320.673 294.986L304.223 303.958L320.673 312.929L320.673 294.986Z" fill="#E6D9D9"/>
<path d="M307.38 321.492C307.38 321.199 307.537 320.915 307.812 320.764L321.104 313.515C321.504 313.296 322.003 313.445 322.221 313.847C322.438 314.25 322.29 314.751 321.89 314.97L308.597 322.219C308.197 322.437 307.698 322.288 307.481 321.886C307.413 321.76 307.38 321.626 307.38 321.492Z" fill="#E6D9D9"/>
<path d="M303.635 314.415L303.635 309.297C303.635 308.427 304.572 307.882 305.323 308.318L309.734 310.876L314.145 313.435C314.894 313.87 314.894 314.958 314.145 315.393L309.734 317.952L305.323 320.511C304.572 320.946 303.635 320.401 303.635 319.531L303.635 314.415Z" fill="#E6D9D9"/>
<path d="M320.672 321.492L320.672 307.029C320.672 306.572 321.041 306.201 321.496 306.201C321.951 306.201 322.32 306.572 322.32 307.029L322.32 321.492C322.32 321.949 321.951 322.32 321.496 322.32C321.041 322.32 320.672 321.949 320.672 321.492Z" fill="#E6D9D9"/>
<path d="M320.673 13.2522L320.673 0.827539C320.673 0.370737 321.042 -5.58709e-08 321.496 -3.59993e-08C321.951 -1.61277e-08 322.32 0.370737 322.32 0.827539L322.32 13.2522C322.32 13.709 321.951 14.0797 321.496 14.0797C321.042 14.0797 320.673 13.7107 320.673 13.2522Z" fill="#E6D9D9"/>
</g>
<rect y="301.971" width="21.1624" height="21.1624" fill="#E6E6E6"/>
<rect width="21.1624" height="21.1624" fill="#E6E6E6"/>
<rect x="301.157" y="301.971" width="21.1624" height="21.1624" fill="#E6E6E6"/>
<rect x="301.157" width="21.1624" height="21.1624" fill="#E6E6E6"/>
<defs>
<clipPath id="clip0_770_13406">
<rect width="322.32" height="21.9763" fill="white"/>
</clipPath>
<clipPath id="clip1_770_13406">
<rect width="322.32" height="21.1624" fill="white" transform="translate(0 301.971)"/>
</clipPath>
<clipPath id="clip2_770_13406">
<rect width="322.32" height="21.1624" fill="white" transform="translate(21.1624 0.813965) rotate(90)"/>
</clipPath>
<clipPath id="clip3_770_13406">
<rect width="322.32" height="21.1624" fill="white" transform="translate(322.32) rotate(90)"/>
</clipPath>
</defs>
</svg>
