<svg width="208" height="47" viewBox="0 0 208 47" fill="none" xmlns="http://www.w3.org/2000/svg">
<rect x="1" y="1" width="205.146" height="44.3468" rx="2" stroke="white" stroke-width="2"/>
<path d="M22.1809 23.2434C22.1682 23.2899 22.1618 23.3347 22.1617 23.3812C22.1594 23.4259 22.1677 23.4724 22.1801 23.5189C22.329 24.0303 23.3405 24.2534 23.5432 24.2941C24.6592 24.5134 25.7119 24.2587 26.3602 23.6076C26.4294 23.5377 26.4632 23.4553 26.4697 23.3712C26.4637 23.2871 26.4305 23.2049 26.3617 23.1353C25.7196 22.489 24.6664 22.2374 23.549 22.4618C23.346 22.5035 22.3331 22.7313 22.1809 23.2434ZM24.3247 23.1722C24.5945 23.1698 24.9373 23.2083 25.2568 23.3633C25.2484 23.3669 25.24 23.3705 25.2317 23.3741C25.24 23.3776 25.2484 23.3812 25.2567 23.3847C24.9384 23.5429 24.5932 23.5813 24.3255 23.5819C23.9051 23.5811 23.5437 23.4871 23.3097 23.3982C23.3223 23.391 23.3348 23.3874 23.3474 23.3802C23.3349 23.3731 23.3224 23.3695 23.3098 23.3624C23.5423 23.267 23.9064 23.1732 24.3247 23.1722Z" fill="white"/>
<path d="M23.9107 21.2853C24.3846 20.8798 24.6559 20.3763 24.7617 20.0146C24.8209 19.807 24.6793 19.5997 24.439 19.5412C23.4819 19.3144 22.4437 19.6067 21.6593 20.3278C21.5167 20.457 20.8224 21.1296 21.0299 21.6265C21.1046 21.8053 21.2799 21.9266 21.5015 21.9511C22.5949 22.072 23.3822 21.741 23.9107 21.2853ZM22.767 20.5435C22.9891 20.4142 23.3011 20.2793 23.6672 20.2587C23.4296 20.6476 22.947 21.1533 22.0414 21.1858C22.1779 20.9976 22.4192 20.7448 22.767 20.5435Z" fill="white"/>
<path d="M22.2517 17.3868C21.2561 17.4249 20.3739 17.9798 19.888 18.8702C19.7997 19.0315 19.3809 19.8537 19.7581 20.2698C19.8936 20.418 20.1046 20.4873 20.3243 20.4528C21.0064 20.3438 21.509 20.0957 21.8718 19.7853C22.6015 19.161 22.7737 18.2784 22.7294 17.7525C22.7092 17.5378 22.5005 17.3772 22.2517 17.3868ZM20.5633 19.5808C20.6247 19.3677 20.7636 19.0632 21.0197 18.7799C21.1834 18.597 21.4329 18.3907 21.772 18.2718C21.6849 18.6997 21.4091 19.3105 20.5633 19.5808Z" fill="white"/>
<path d="M22.2006 11.0849C22.188 11.0957 22.1712 11.1136 22.1544 11.1315C21.7707 10.1501 20.9261 9.38798 19.6421 9.39096C18.5922 9.39339 18.04 10.0836 18.0358 10.7653C18.0345 11.1625 18.2111 11.5361 18.5323 11.8145C18.7826 12.0322 19.2355 12.2906 19.9842 12.2889C20.2394 12.2883 20.447 12.1107 20.4455 11.8942C20.4462 11.6759 20.2398 11.4992 19.9867 11.5016C19.6479 11.5023 19.3742 11.4189 19.1907 11.2619C19.0426 11.1316 18.9575 10.951 18.958 10.765C18.9589 10.4966 19.1376 10.183 19.6396 10.1818C20.8441 10.1791 21.47 11.3067 21.4665 12.4196C21.464 13.2177 21.1416 13.9896 20.5815 14.5367C19.9165 15.1877 18.9262 15.5318 17.7175 15.5346C17.4623 15.5352 17.2547 15.7128 17.2561 15.9293C17.2555 16.1476 17.4619 16.3243 17.715 16.3219C18.8108 16.3194 19.7694 16.0774 20.5341 15.6193C20.5383 15.6229 20.5425 15.6265 20.5487 15.6282C22.1374 16.5138 23.5867 15.8413 24.2787 15.2492C24.3458 15.1918 24.4066 15.1326 24.4611 15.0788C24.6206 14.9138 24.5963 14.6705 24.4085 14.5314C23.7701 14.0533 22.8881 13.9015 21.9799 14.0897C22.1966 13.6651 22.3319 13.2031 22.3732 12.7181C23.2828 12.7321 23.9488 12.4336 24.4164 12.0335C24.9218 11.6011 25.1933 11.0511 25.2865 10.6644C25.3374 10.4567 25.1854 10.2513 24.9429 10.2018C23.9774 10.0108 22.9516 10.3388 22.2006 11.0849ZM23.3575 14.8988C22.9489 15.1628 22.2579 15.4436 21.4286 15.1395C21.6444 15.0191 21.9899 14.8805 22.4041 14.8259C22.6678 14.7895 23.0149 14.7851 23.3575 14.8988ZM22.6245 11.9285C22.7506 11.7349 22.9815 11.4767 23.3188 11.263C23.5347 11.1247 23.8425 10.9827 24.2065 10.946C23.9878 11.3438 23.5282 11.8655 22.6245 11.9285Z" fill="white"/>
<path d="M21.0001 23.6469L21.2749 23.3833L21.0017 23.1209C20.9392 23.0602 19.4421 21.6537 17.5286 21.6599C15.6151 21.6661 14.1132 23.0832 14.0524 23.1423L13.786 23.3988L14.0508 23.6541C14.1133 23.7148 15.6041 25.1231 17.5176 25.1205C19.4312 25.1178 20.9372 23.7043 21.0001 23.6469ZM17.5222 24.3314C16.4787 24.332 15.5415 23.7526 15.0679 23.3977C15.5438 23.0405 16.4825 22.455 17.5282 22.4526C18.5759 22.4483 19.5172 23.0348 19.9929 23.388C19.515 23.7434 18.57 24.3307 17.5222 24.3314Z" fill="white"/>
<path d="M15.572 32.649C16.4147 33.3091 17.4764 33.5285 18.4122 33.2311C18.6445 33.1572 18.7707 32.9386 18.6919 32.7348C18.5716 32.4238 18.3156 32.0146 17.9131 31.6702C17.5877 31.3918 17.1681 31.1548 16.6436 31.0433C16.8619 30.7851 16.9612 30.4682 16.9205 30.1248C16.8777 29.7473 16.674 29.3792 16.3612 29.0972C16.357 29.09 16.3549 29.0847 16.3487 29.0793C16.0446 28.6864 15.9394 28.216 16.0517 27.7559C16.1619 27.294 16.4769 26.896 16.9378 26.6337C17.4175 26.3624 18.0634 26.4737 18.38 26.8809C18.4425 26.9631 18.4651 27.0614 18.4439 27.1581C18.4227 27.244 18.3702 27.3175 18.2906 27.3714C18.3495 27.2532 18.3395 27.1154 18.252 27.0011C18.1125 26.8207 17.8261 26.7695 17.6124 26.8916C17.4386 26.9904 17.321 27.141 17.2786 27.3129C17.2383 27.4866 17.2775 27.6636 17.392 27.8119C17.5378 28.0012 17.7612 28.1277 18.0204 28.1736C18.2795 28.2195 18.5453 28.1742 18.7673 28.0484C19.069 27.876 19.2769 27.616 19.349 27.3117C19.421 27.0073 19.353 26.6979 19.1551 26.4425C19.0822 26.3478 18.9989 26.2586 18.905 26.1783C18.636 25.9481 18.2935 25.7914 17.9131 25.7243C17.3989 25.636 16.8758 25.7231 16.438 25.9728C15.7718 26.3501 15.3182 26.9274 15.1551 27.5952C15.0682 27.9514 15.0754 28.3129 15.1643 28.658C14.771 28.6875 14.3982 28.8638 14.1609 29.1667C14.016 29.3549 13.9631 29.5787 14.0146 29.7987C14.0662 30.0186 14.2141 30.2062 14.4312 30.3309C14.642 30.4503 14.9287 30.4013 15.0715 30.2185C15.2122 30.0375 15.1565 29.7924 14.9436 29.6713C14.9164 29.6552 14.9082 29.623 14.9271 29.5997C15.0551 29.4366 15.3125 29.3913 15.5025 29.5C15.7759 29.655 15.9716 29.9301 16.0042 30.202C16.0185 30.3255 16.0012 30.5009 15.8397 30.639C15.3344 31.0714 14.5359 30.948 13.9572 30.7686C13.1006 30.5022 12.1467 29.9444 11.2749 29.1984C9.65437 27.8119 8.4496 25.8947 9.03336 24.478C9.39185 25.5204 10.3767 26.2124 11.7128 26.279C12.8064 26.3356 13.7539 25.6176 13.8238 24.6799C13.8478 24.3667 13.7275 24.0663 13.4856 23.8343C13.4668 23.8147 13.4481 23.7986 13.4272 23.7807C13.1915 23.5791 12.8803 23.4599 12.5458 23.4428C11.9938 23.4155 11.5179 23.7762 11.483 24.2487C11.4698 24.4276 11.5362 24.5993 11.6759 24.7331C11.8135 24.8652 12.0036 24.9453 12.2127 24.9556C12.4678 24.9693 12.6879 24.8024 12.7032 24.5858C12.7141 24.4409 12.6309 24.3087 12.4973 24.2338C12.6123 24.2425 12.7167 24.2852 12.7938 24.362C12.8731 24.4369 12.9104 24.537 12.9038 24.639C12.8666 25.1419 12.3572 25.5242 11.7739 25.4952C10.557 25.4336 9.80644 24.6945 9.81001 23.5673C9.81019 23.51 9.79573 23.4546 9.7687 23.4063C9.79395 23.3561 9.81085 23.3024 9.81103 23.2452C9.8146 22.1179 10.5719 21.3736 11.7871 21.3081C12.3749 21.2763 12.8798 21.6581 12.9116 22.159C12.9176 22.261 12.8775 22.3595 12.7999 22.4366C12.7223 22.5102 12.6176 22.5569 12.5025 22.5661C12.6366 22.4907 12.7207 22.3581 12.7107 22.2132C12.6967 21.9967 12.4777 21.8308 12.2225 21.8457C12.0133 21.8569 11.8207 21.9397 11.6843 22.0706C11.5438 22.2051 11.4763 22.3771 11.4883 22.556C11.5203 23.0283 11.996 23.385 12.5461 23.3569C12.8807 23.3383 13.1927 23.2177 13.4296 23.0149C13.4506 22.997 13.4695 22.9808 13.4884 22.9611C13.7296 22.7261 13.8519 22.4252 13.8319 22.1139C13.7659 21.1783 12.825 20.4665 11.7311 20.5245C10.3945 20.5974 9.40313 21.2958 9.04014 22.338C8.46533 20.924 9.68226 19.0012 11.3116 17.6071C12.1881 16.8571 13.1456 16.2949 14.0039 16.0245C14.5837 15.8424 15.383 15.7153 15.8856 16.1454C16.0441 16.281 16.0624 16.4581 16.0474 16.5816C16.0151 16.8519 15.8156 17.1297 15.5411 17.286C15.3505 17.3956 15.0913 17.3496 14.9663 17.1889C14.9476 17.1657 14.9561 17.1334 14.9833 17.1173C15.1949 16.9969 15.2563 16.7516 15.1147 16.5694C14.9752 16.389 14.6888 16.3378 14.4751 16.46C14.2551 16.584 14.1061 16.7758 14.0552 16.9942C14.0022 17.2144 14.0538 17.4379 14.1975 17.6255C14.4307 17.9255 14.8045 18.1018 15.1976 18.1295C15.1066 18.4751 15.0992 18.8348 15.1817 19.1924C15.3385 19.8613 15.7905 20.4346 16.4543 20.8088C16.8906 21.0565 17.4132 21.1412 17.9279 21.0505C18.3108 20.9834 18.6522 20.8234 18.9227 20.592C19.015 20.513 19.101 20.4251 19.1745 20.3266C19.3761 20.0684 19.4461 19.7587 19.3738 19.4565C19.3016 19.1543 19.0975 18.8935 18.7969 18.7224C18.5756 18.5977 18.3122 18.5553 18.0507 18.6007C17.7912 18.6478 17.567 18.7754 17.42 18.9654C17.3046 19.1141 17.2643 19.2914 17.3034 19.4649C17.3447 19.6401 17.4634 19.7884 17.6346 19.8846C17.8455 20.004 18.1321 19.955 18.2749 19.7722C18.3631 19.6574 18.374 19.5196 18.3158 19.4017C18.3951 19.4552 18.4493 19.5302 18.4678 19.6143C18.4905 19.7126 18.4693 19.8093 18.4021 19.8917C18.0829 20.3005 17.4385 20.4165 16.9583 20.1456C16.4991 19.8854 16.1866 19.4889 16.0794 19.0275C15.9721 18.5661 16.0802 18.0953 16.3847 17.7027C16.3889 17.6955 16.391 17.6902 16.3973 17.6848C16.7098 17.4031 16.918 17.0323 16.9631 16.6546C17.0039 16.3128 16.9087 15.9945 16.6921 15.7373C17.2152 15.6216 17.6384 15.3844 17.9655 15.1045C18.3703 14.7583 18.6288 14.3479 18.7511 14.0363C18.8291 13.8339 18.7085 13.6159 18.4745 13.5413C17.5427 13.25 16.4775 13.4725 15.6306 14.1365C15.509 14.2335 15.012 14.6444 14.8894 15.0633C13.532 15.1112 11.9128 15.9756 10.663 17.045C8.50104 18.8948 7.0411 21.6108 8.68751 23.407C7.03178 25.2163 8.47454 27.9256 10.6248 29.7654C11.8678 30.8289 13.4817 31.6859 14.8388 31.7274C14.9566 32.1441 15.4531 32.5545 15.572 32.649ZM15.8801 31.768C16.7836 31.7372 17.307 32.2102 17.5777 32.5746C17.2117 32.5772 16.89 32.467 16.6583 32.3549C16.2949 32.1768 16.0322 31.9448 15.8801 31.768ZM16.715 14.4329C16.9475 14.3196 17.2699 14.2079 17.6359 14.2088C17.3628 14.5745 16.8343 15.0517 15.9331 15.0234C16.0884 14.8441 16.3506 14.609 16.715 14.4329Z" fill="white"/>
<path d="M21.4921 24.8141C21.2704 24.8397 21.0943 24.9618 21.0185 25.1409C20.8099 25.637 21.4999 26.3064 21.6396 26.4367C22.4195 27.1542 23.4559 27.4417 24.4144 27.2104C24.653 27.1526 24.7979 26.9429 24.74 26.7355C24.6387 26.3725 24.3684 25.8721 23.8971 25.4688C23.3715 25.0155 22.5842 24.6863 21.4921 24.8141ZM23.6471 26.4964C23.2791 26.4758 22.97 26.3441 22.7487 26.2158C22.4022 26.0162 22.1625 25.7645 22.0272 25.5769C22.9347 25.607 23.4141 26.1105 23.6471 26.4964Z" fill="white"/>
<path d="M19.8597 27.9027C20.34 28.7909 21.2187 29.3418 22.214 29.3753C22.4628 29.3836 22.6767 29.2221 22.6962 29.0091C22.7438 28.4794 22.5772 27.6012 21.8514 26.9802C21.4906 26.6715 20.9895 26.4257 20.3081 26.3199C20.0886 26.2865 19.8772 26.3567 19.7408 26.5056C19.3588 26.9216 19.7724 27.7419 19.8597 27.9027ZM20.9908 27.9878C20.7345 27.7039 20.5974 27.4036 20.5396 27.189C21.3857 27.4573 21.6556 28.065 21.7421 28.4942C21.4016 28.3751 21.1534 28.1664 20.9908 27.9878Z" fill="white"/>
<path d="M22.0788 35.6294C22.0976 35.6491 22.1122 35.6651 22.1247 35.6758C22.8689 36.4167 23.8926 36.74 24.8636 36.5409C25.1063 36.4902 25.2575 36.2859 25.2101 36.0767C25.1193 35.6904 24.8513 35.1417 24.3486 34.7116C23.8856 34.3155 23.2195 34.0182 22.3097 34.0364C22.2715 33.5516 22.1391 33.0902 21.9251 32.6667C22.8321 32.8507 23.7151 32.6947 24.3566 32.2137C24.5452 32.0737 24.569 31.8321 24.4127 31.666C24.3606 31.6107 24.3001 31.5554 24.2313 31.4965C23.543 30.9076 22.1 30.2435 20.5037 31.1347C20.4995 31.1383 20.4932 31.1401 20.489 31.1437C19.7251 30.6874 18.7701 30.4516 17.6743 30.4542C17.4191 30.4548 17.2115 30.6324 17.2129 30.8489C17.2123 31.0672 17.4187 31.2439 17.6718 31.2415C18.8805 31.2387 19.8707 31.5799 20.5295 32.2262C21.0862 32.7706 21.4037 33.5411 21.4011 34.3391C21.3976 35.4521 20.7646 36.5826 19.56 36.5854C19.0581 36.5866 18.8813 36.2738 18.8822 36.0054C18.8828 35.8194 18.9691 35.6384 19.118 35.5075C19.3004 35.3478 19.5767 35.2648 19.9155 35.2641C20.1707 35.2635 20.3782 35.0858 20.3768 34.8693C20.3775 34.651 20.1711 34.4744 19.918 34.4767C19.1693 34.4785 18.7147 34.739 18.4631 34.9579C18.1401 35.2378 17.9612 35.6121 17.9599 36.0094C17.9578 36.6893 18.5056 37.3769 19.5575 37.3763C20.8394 37.3787 21.6888 36.6127 22.0788 35.6294ZM23.3037 31.8583C22.9604 31.9736 22.6132 31.9708 22.3477 31.9374C21.9338 31.8847 21.5892 31.7477 21.3742 31.6283C22.2075 31.3187 22.8967 31.5962 23.3037 31.8583ZM22.5519 34.8321C23.4551 34.8908 23.9115 35.4105 24.1277 35.8072C23.7618 35.774 23.4569 35.6316 23.242 35.4943C22.906 35.2822 22.6788 35.0232 22.5519 34.8321Z" fill="white"/>
<path d="M185.21 23.2434C185.223 23.2899 185.23 23.3347 185.23 23.3812C185.232 23.4259 185.224 23.4724 185.211 23.5189C185.062 24.0303 184.051 24.2534 183.848 24.2941C182.732 24.5134 181.679 24.2587 181.031 23.6076C180.962 23.5377 180.928 23.4553 180.922 23.3712C180.928 23.2871 180.961 23.2049 181.03 23.1353C181.672 22.489 182.725 22.2374 183.842 22.4618C184.045 22.5035 185.058 22.7313 185.21 23.2434ZM183.067 23.1722C182.797 23.1698 182.454 23.2083 182.135 23.3633C182.143 23.3669 182.151 23.3705 182.16 23.3741C182.151 23.3776 182.143 23.3812 182.135 23.3847C182.453 23.5429 182.798 23.5813 183.066 23.5819C183.486 23.5811 183.848 23.4871 184.082 23.3982C184.069 23.391 184.057 23.3874 184.044 23.3802C184.056 23.3731 184.069 23.3695 184.082 23.3624C183.849 23.267 183.485 23.1732 183.067 23.1722Z" fill="white"/>
<path d="M183.481 21.2853C183.007 20.8798 182.735 20.3763 182.63 20.0146C182.57 19.807 182.712 19.5997 182.952 19.5412C183.909 19.3144 184.948 19.6067 185.732 20.3278C185.875 20.457 186.569 21.1296 186.361 21.6265C186.287 21.8053 186.111 21.9266 185.89 21.9511C184.796 22.072 184.009 21.741 183.481 21.2853ZM184.624 20.5435C184.402 20.4142 184.09 20.2793 183.724 20.2587C183.962 20.6476 184.444 21.1533 185.35 21.1858C185.213 20.9976 184.972 20.7448 184.624 20.5435Z" fill="white"/>
<path d="M185.14 17.3868C186.135 17.4249 187.017 17.9798 187.503 18.8702C187.592 19.0315 188.01 19.8537 187.633 20.2698C187.498 20.418 187.287 20.4873 187.067 20.4528C186.385 20.3438 185.882 20.0957 185.52 19.7853C184.79 19.161 184.618 18.2784 184.662 17.7525C184.682 17.5378 184.891 17.3772 185.14 17.3868ZM186.828 19.5808C186.767 19.3677 186.628 19.0632 186.372 18.7799C186.208 18.597 185.958 18.3907 185.619 18.2718C185.706 18.6997 185.982 19.3105 186.828 19.5808Z" fill="white"/>
<path d="M185.191 11.0849C185.203 11.0957 185.22 11.1136 185.237 11.1315C185.621 10.1501 186.465 9.38798 187.749 9.39096C188.799 9.39339 189.351 10.0836 189.356 10.7653C189.357 11.1625 189.18 11.5361 188.859 11.8145C188.609 12.0322 188.156 12.2906 187.407 12.2889C187.152 12.2883 186.944 12.1107 186.946 11.8942C186.945 11.6759 187.152 11.4992 187.405 11.5016C187.743 11.5023 188.017 11.4189 188.201 11.2619C188.349 11.1316 188.434 10.951 188.433 10.765C188.432 10.4966 188.254 10.183 187.752 10.1818C186.547 10.1791 185.921 11.3067 185.925 12.4196C185.927 13.2177 186.25 13.9896 186.81 14.5367C187.475 15.1877 188.465 15.5318 189.674 15.5346C189.929 15.5352 190.137 15.7128 190.135 15.9293C190.136 16.1476 189.929 16.3243 189.676 16.3219C188.581 16.3194 187.622 16.0774 186.857 15.6193C186.853 15.6229 186.849 15.6265 186.843 15.6282C185.254 16.5138 183.805 15.8413 183.113 15.2492C183.046 15.1918 182.985 15.1326 182.93 15.0788C182.771 14.9138 182.795 14.6705 182.983 14.5314C183.621 14.0533 184.503 13.9015 185.412 14.0897C185.195 13.6651 185.059 13.2031 185.018 12.7181C184.109 12.7321 183.443 12.4336 182.975 12.0335C182.47 11.6011 182.198 11.0511 182.105 10.6644C182.054 10.4567 182.206 10.2513 182.448 10.2018C183.414 10.0108 184.44 10.3388 185.191 11.0849ZM184.034 14.8988C184.442 15.1628 185.133 15.4436 185.963 15.1395C185.747 15.0191 185.401 14.8805 184.987 14.8259C184.724 14.7895 184.376 14.7851 184.034 14.8988ZM184.767 11.9285C184.641 11.7349 184.41 11.4767 184.073 11.263C183.857 11.1247 183.549 10.9827 183.185 10.946C183.404 11.3438 183.863 11.8655 184.767 11.9285Z" fill="white"/>
<path d="M186.391 23.6469L186.116 23.3833L186.39 23.1209C186.452 23.0602 187.949 21.6537 189.863 21.6599C191.776 21.6661 193.278 23.0832 193.339 23.1423L193.605 23.3988L193.341 23.6541C193.278 23.7148 191.787 25.1231 189.874 25.1205C187.96 25.1178 186.454 23.7043 186.391 23.6469ZM189.869 24.3314C190.913 24.332 191.85 23.7526 192.323 23.3977C191.848 23.0405 190.909 22.455 189.863 22.4526C188.815 22.4483 187.874 23.0348 187.398 23.388C187.876 23.7434 188.821 24.3307 189.869 24.3314Z" fill="white"/>
<path d="M191.819 32.649C190.977 33.3091 189.915 33.5285 188.979 33.2311C188.747 33.1572 188.621 32.9387 188.699 32.7348C188.82 32.4238 189.076 32.0146 189.478 31.6702C189.804 31.3918 190.223 31.1548 190.748 31.0433C190.529 30.7851 190.43 30.4682 190.471 30.1248C190.514 29.7473 190.717 29.3792 191.03 29.0972C191.034 29.09 191.036 29.0847 191.043 29.0793C191.347 28.6864 191.452 28.216 191.34 27.7559C191.229 27.294 190.914 26.896 190.454 26.6337C189.974 26.3624 189.328 26.4737 189.011 26.8809C188.949 26.9631 188.926 27.0614 188.947 27.1581C188.969 27.244 189.021 27.3175 189.101 27.3714C189.042 27.2532 189.052 27.1154 189.139 27.0011C189.279 26.8207 189.565 26.7695 189.779 26.8916C189.953 26.9904 190.07 27.141 190.113 27.3129C190.153 27.4866 190.114 27.6636 189.999 27.8119C189.854 28.0012 189.63 28.1277 189.371 28.1736C189.112 28.2195 188.846 28.1742 188.624 28.0484C188.322 27.876 188.114 27.616 188.042 27.3117C187.97 27.0073 188.038 26.6979 188.236 26.4425C188.309 26.3478 188.392 26.2586 188.486 26.1783C188.755 25.9481 189.098 25.7914 189.478 25.7243C189.992 25.636 190.516 25.7231 190.953 25.9728C191.62 26.3501 192.073 26.9274 192.236 27.5952C192.323 27.9514 192.316 28.3129 192.227 28.658C192.62 28.6875 192.993 28.8638 193.23 29.1667C193.375 29.3549 193.428 29.5787 193.377 29.7987C193.325 30.0186 193.177 30.2062 192.96 30.3309C192.749 30.4503 192.463 30.4013 192.32 30.2185C192.179 30.0375 192.235 29.7924 192.448 29.6713C192.475 29.6552 192.483 29.623 192.464 29.5997C192.336 29.4366 192.079 29.3913 191.889 29.5C191.615 29.655 191.42 29.9301 191.387 30.202C191.373 30.3255 191.39 30.5009 191.552 30.639C192.057 31.0714 192.855 30.948 193.434 30.7686C194.291 30.5022 195.245 29.9444 196.116 29.1984C197.737 27.8119 198.942 25.8947 198.358 24.478C198 25.5204 197.015 26.2124 195.679 26.279C194.585 26.3356 193.637 25.6176 193.568 24.6799C193.544 24.3667 193.664 24.0663 193.906 23.8343C193.925 23.8147 193.943 23.7986 193.964 23.7807C194.2 23.5791 194.511 23.4599 194.846 23.4428C195.398 23.4155 195.873 23.7762 195.908 24.2487C195.922 24.4277 195.855 24.5993 195.715 24.7331C195.578 24.8652 195.388 24.9453 195.179 24.9556C194.924 24.9693 194.703 24.8024 194.688 24.5858C194.677 24.4409 194.76 24.3087 194.894 24.2338C194.779 24.2425 194.675 24.2852 194.598 24.362C194.518 24.4369 194.481 24.537 194.488 24.639C194.525 25.1419 195.034 25.5242 195.617 25.4952C196.834 25.4336 197.585 24.6945 197.581 23.5673C197.581 23.51 197.596 23.4546 197.623 23.4063C197.597 23.3561 197.581 23.3024 197.58 23.2452C197.577 22.1179 196.819 21.3736 195.604 21.3081C195.016 21.2763 194.512 21.6581 194.48 22.159C194.474 22.261 194.514 22.3595 194.591 22.4366C194.669 22.5102 194.774 22.5569 194.889 22.5661C194.755 22.4907 194.671 22.3581 194.681 22.2132C194.695 21.9967 194.914 21.8308 195.169 21.8457C195.378 21.8569 195.571 21.9397 195.707 22.0706C195.848 22.2051 195.915 22.3771 195.903 22.556C195.871 23.0283 195.395 23.385 194.845 23.3569C194.511 23.3383 194.199 23.2177 193.962 23.0149C193.941 22.997 193.922 22.9808 193.903 22.9611C193.662 22.7261 193.54 22.4252 193.559 22.1139C193.625 21.1783 194.566 20.4665 195.66 20.5245C196.997 20.5974 197.988 21.2958 198.351 22.338C198.926 20.924 197.709 19.0012 196.08 17.6071C195.203 16.8571 194.246 16.2949 193.387 16.0245C192.808 15.8424 192.008 15.7153 191.506 16.1454C191.347 16.281 191.329 16.4581 191.344 16.5816C191.376 16.8519 191.576 17.1297 191.85 17.286C192.041 17.3956 192.3 17.3496 192.425 17.1889C192.444 17.1657 192.435 17.1334 192.408 17.1173C192.196 16.9969 192.135 16.7516 192.277 16.5694C192.416 16.389 192.703 16.3378 192.916 16.46C193.136 16.584 193.285 16.7758 193.336 16.9942C193.389 17.2144 193.338 17.4379 193.194 17.6255C192.961 17.9255 192.587 18.1018 192.194 18.1295C192.285 18.4751 192.292 18.8348 192.21 19.1924C192.053 19.8613 191.601 20.4346 190.937 20.8088C190.501 21.0565 189.978 21.1412 189.463 21.0505C189.081 20.9834 188.739 20.8234 188.469 20.592C188.376 20.513 188.29 20.4251 188.217 20.3266C188.015 20.0684 187.945 19.7587 188.018 19.4565C188.09 19.1543 188.294 18.8935 188.594 18.7224C188.816 18.5977 189.079 18.5553 189.341 18.6007C189.6 18.6478 189.824 18.7754 189.971 18.9654C190.087 19.1141 190.127 19.2914 190.088 19.4649C190.047 19.6401 189.928 19.7884 189.757 19.8846C189.546 20.004 189.259 19.955 189.116 19.7722C189.028 19.6574 189.017 19.5196 189.076 19.4017C188.996 19.4552 188.942 19.5302 188.924 19.6143C188.901 19.7126 188.922 19.8093 188.989 19.8917C189.308 20.3005 189.953 20.4165 190.433 20.1456C190.892 19.8854 191.205 19.4889 191.312 19.0275C191.419 18.5661 191.311 18.0953 191.007 17.7027C191.002 17.6955 191 17.6902 190.994 17.6848C190.682 17.4031 190.473 17.0323 190.428 16.6546C190.387 16.3128 190.483 15.9945 190.699 15.7373C190.176 15.6216 189.753 15.3844 189.426 15.1045C189.021 14.7583 188.763 14.3479 188.64 14.0363C188.562 13.8339 188.683 13.6159 188.917 13.5413C189.849 13.25 190.914 13.4725 191.761 14.1365C191.882 14.2335 192.379 14.6444 192.502 15.0633C193.859 15.1112 195.479 15.9756 196.728 17.045C198.89 18.8948 200.35 21.6108 198.704 23.407C200.36 25.2163 198.917 27.9256 196.767 29.7654C195.524 30.8289 193.91 31.6859 192.553 31.7274C192.435 32.1441 191.938 32.5545 191.819 32.649ZM191.511 31.768C190.608 31.7372 190.084 32.2102 189.814 32.5746C190.18 32.5772 190.501 32.467 190.733 32.3549C191.096 32.1768 191.359 31.9448 191.511 31.768ZM190.676 14.4329C190.444 14.3196 190.121 14.2079 189.755 14.2088C190.029 14.5745 190.557 15.0517 191.458 15.0234C191.303 14.8441 191.041 14.609 190.676 14.4329Z" fill="white"/>
<path d="M185.899 24.8141C186.121 24.8397 186.297 24.9618 186.373 25.1409C186.582 25.637 185.891 26.3064 185.752 26.4367C184.972 27.1542 183.935 27.4417 182.977 27.2104C182.738 27.1526 182.593 26.9429 182.651 26.7355C182.753 26.3725 183.023 25.8721 183.494 25.4688C184.02 25.0155 184.807 24.6863 185.899 24.8141ZM183.744 26.4964C184.112 26.4758 184.421 26.3441 184.643 26.2158C184.989 26.0162 185.229 25.7645 185.364 25.5769C184.457 25.607 183.977 26.1105 183.744 26.4964Z" fill="white"/>
<path d="M187.532 27.9027C187.051 28.7909 186.173 29.3418 185.177 29.3753C184.929 29.3836 184.715 29.2221 184.695 29.0091C184.648 28.4794 184.814 27.6012 185.54 26.9802C185.901 26.6715 186.402 26.4257 187.083 26.3199C187.303 26.2865 187.514 26.3567 187.651 26.5056C188.033 26.9216 187.619 27.7419 187.532 27.9027ZM186.401 27.9878C186.657 27.7039 186.794 27.4036 186.852 27.189C186.006 27.4573 185.736 28.065 185.649 28.4942C185.99 28.3751 186.238 28.1664 186.401 27.9878Z" fill="white"/>
<path d="M185.313 35.6294C185.294 35.6491 185.279 35.6651 185.267 35.6758C184.522 36.4167 183.499 36.74 182.528 36.5409C182.285 36.4902 182.134 36.2859 182.181 36.0767C182.272 35.6904 182.54 35.1417 183.043 34.7116C183.506 34.3155 184.172 34.0182 185.082 34.0364C185.12 33.5516 185.252 33.0902 185.466 32.6667C184.559 32.8507 183.676 32.6947 183.035 32.2137C182.846 32.0737 182.822 31.8321 182.979 31.666C183.031 31.6107 183.091 31.5554 183.16 31.4965C183.848 30.9076 185.291 30.2435 186.888 31.1347C186.892 31.1383 186.898 31.1401 186.902 31.1437C187.666 30.6874 188.621 30.4516 189.717 30.4542C189.972 30.4548 190.18 30.6324 190.178 30.8489C190.179 31.0672 189.973 31.2439 189.72 31.2415C188.511 31.2387 187.521 31.5799 186.862 32.2261C186.305 32.7706 185.988 33.5411 185.99 34.3391C185.994 35.4521 186.627 36.5826 187.831 36.5854C188.333 36.5866 188.51 36.2738 188.509 36.0054C188.509 35.8194 188.422 35.6384 188.273 35.5075C188.091 35.3478 187.815 35.2648 187.476 35.2641C187.221 35.2635 187.013 35.0858 187.015 34.8693C187.014 34.651 187.22 34.4744 187.473 34.4767C188.222 34.4785 188.677 34.739 188.928 34.9579C189.251 35.2378 189.43 35.6121 189.431 36.0094C189.434 36.6893 188.886 37.3769 187.834 37.3763C186.552 37.3787 185.703 36.6127 185.313 35.6294ZM184.088 31.8583C184.431 31.9736 184.778 31.9708 185.044 31.9374C185.458 31.8847 185.802 31.7477 186.017 31.6283C185.184 31.3187 184.495 31.5962 184.088 31.8583ZM184.839 34.8321C183.936 34.8908 183.48 35.4105 183.264 35.8072C183.63 35.774 183.934 35.6316 184.149 35.4943C184.485 35.2822 184.713 35.0232 184.839 34.8321Z" fill="white"/>
<rect x="1.95557" y="1.01868" width="4.16673" height="3.05583" fill="white"/>
<rect x="1.95557" y="41.7631" width="4.16673" height="3.05583" fill="white"/>
<rect x="201.364" y="41.7631" width="4.16673" height="3.05583" fill="white"/>
<rect x="201.364" y="1.52795" width="4.16673" height="3.05583" fill="white"/>
<path d="M103.706 5.09302L99.3243 1.27323L108.088 1.27323L103.706 5.09302Z" fill="white"/>
<path d="M103.706 41.2537L108.088 45.0735H99.3241L103.706 41.2537Z" fill="white"/>
</svg>
