<svg width="352" height="263" viewBox="0 0 352 263" fill="none" xmlns="http://www.w3.org/2000/svg">
<g opacity="0.6" clip-path="url(#clip0_770_13714)">
<path d="M7.09562 255.879C5.00526 256.479 1.76462 255.837 1.20737 256.436C0.650118 257.035 3.82099 257.677 5.3541 257.206C6.88721 256.736 9.3613 257.378 9.50084 256.436C9.49994 256.436 9.18599 255.28 7.09562 255.879Z" fill="black"/>
<path d="M7.09562 258.319C5.00526 258.919 1.76462 258.277 1.20737 258.876C0.650118 259.475 3.82099 260.117 5.3541 259.646C6.88721 259.176 9.3613 259.818 9.50084 258.876C9.49994 258.876 9.18599 257.72 7.09562 258.319Z" fill="black"/>
<path d="M7.09562 260.802C5.00526 261.402 1.76462 260.759 1.20737 261.359C0.650118 261.958 3.82099 262.6 5.3541 262.129C6.88721 261.658 9.3613 262.301 9.50084 261.359C9.49994 261.359 9.18599 260.203 7.09562 260.802Z" fill="black"/>
<path d="M11.4079 255C11.4079 255 10.2003 255.301 10.8265 257.301C11.4526 259.302 10.7817 262.404 11.4079 262.937C12.034 263.471 12.7048 260.437 12.2129 258.969C11.7209 257.501 12.3918 255.134 11.4079 255Z" fill="black"/>
<path d="M13.9572 255C13.9572 255 12.7496 255.301 13.3758 257.301C14.0019 259.302 13.331 262.404 13.9572 262.937C14.5833 263.471 15.2541 260.437 14.7622 258.969C14.2702 257.501 14.9411 255.134 13.9572 255Z" fill="black"/>
<path d="M16.551 255C16.551 255 15.3435 255.301 15.9696 257.301C16.5958 259.302 15.9249 262.404 16.551 262.937C17.1772 263.471 17.848 260.437 17.3561 258.969C16.8641 257.501 17.535 255.134 16.551 255Z" fill="black"/>
<path d="M24.5823 255.879C22.492 256.479 19.2513 255.837 18.6941 256.436C18.1368 257.035 21.3077 257.677 22.8408 257.206C24.3739 256.736 26.848 257.378 26.9875 256.436C26.9866 256.436 26.6727 255.28 24.5823 255.879Z" fill="black"/>
<path d="M24.5823 258.319C22.492 258.919 19.2513 258.277 18.6941 258.876C18.1368 259.475 21.3077 260.117 22.8408 259.646C24.3739 259.176 26.848 259.818 26.9875 258.876C26.9866 258.876 26.6727 257.72 24.5823 258.319Z" fill="black"/>
<path d="M24.5823 260.802C22.492 261.402 19.2513 260.759 18.6941 261.359C18.1368 261.958 21.3077 262.6 22.8408 262.129C24.3739 261.658 26.848 262.301 26.9875 261.359C26.9866 261.359 26.6727 260.203 24.5823 260.802Z" fill="black"/>
<path d="M28.984 255C28.984 255 27.7765 255.301 28.4026 257.301C29.0287 259.302 28.3579 262.404 28.984 262.937C29.6101 263.471 30.281 260.437 29.789 258.969C29.2971 257.501 29.9679 255.134 28.984 255Z" fill="black"/>
<path d="M31.5332 255C31.5332 255 30.3257 255.301 30.9518 257.301C31.5779 259.302 30.9071 262.404 31.5332 262.937C32.1593 263.471 32.8302 260.437 32.3382 258.969C31.8463 257.501 32.5171 255.134 31.5332 255Z" fill="black"/>
<path d="M34.1271 255C34.1271 255 32.9196 255.301 33.5457 257.301C34.1718 259.302 33.501 262.404 34.1271 262.937C34.7532 263.471 35.4241 260.437 34.9321 258.969C34.4402 257.501 35.111 255.134 34.1271 255Z" fill="black"/>
<path d="M42.1586 255.879C40.0683 256.479 36.8276 255.837 36.2704 256.436C35.7131 257.035 38.884 257.677 40.4171 257.206C41.9502 256.736 44.4243 257.378 44.5638 256.436C44.5629 256.436 44.249 255.28 42.1586 255.879Z" fill="black"/>
<path d="M42.1586 258.319C40.0683 258.919 36.8276 258.277 36.2704 258.876C35.7131 259.475 38.884 260.117 40.4171 259.646C41.9502 259.176 44.4243 259.818 44.5638 258.876C44.5629 258.876 44.249 257.72 42.1586 258.319Z" fill="black"/>
<path d="M42.1586 260.802C40.0683 261.402 36.8276 260.759 36.2704 261.359C35.7131 261.958 38.884 262.6 40.4171 262.129C41.9502 261.658 44.4243 262.301 44.5638 261.359C44.5629 261.359 44.249 260.203 42.1586 260.802Z" fill="black"/>
<path d="M46.4708 255C46.4708 255 45.2633 255.301 45.8894 257.301C46.5156 259.302 45.8447 262.404 46.4708 262.937C47.097 263.471 47.7678 260.437 47.2759 258.969C46.7839 257.501 47.4548 255.134 46.4708 255Z" fill="black"/>
<path d="M49.0199 255C49.0199 255 47.8124 255.301 48.4385 257.301C49.0646 259.302 48.3938 262.404 49.0199 262.937C49.646 263.471 50.3169 260.437 49.8249 258.969C49.333 257.501 50.0038 255.134 49.0199 255Z" fill="black"/>
<path d="M51.6139 255C51.6139 255 50.4064 255.301 51.0325 257.301C51.6586 259.302 50.9878 262.404 51.6139 262.937C52.24 263.471 52.9109 260.437 52.4189 258.969C51.927 257.501 52.5978 255.134 51.6139 255Z" fill="black"/>
<path d="M59.6453 255.879C57.5549 256.479 54.3143 255.837 53.7571 256.436C53.1998 257.035 56.3707 257.677 57.9038 257.206C59.4369 256.736 61.911 257.378 62.0505 256.436C62.0496 256.436 61.7357 255.28 59.6453 255.879Z" fill="black"/>
<path d="M59.6453 258.319C57.5549 258.919 54.3143 258.277 53.7571 258.876C53.1998 259.475 56.3707 260.117 57.9038 259.646C59.4369 259.176 61.911 259.818 62.0505 258.876C62.0496 258.876 61.7357 257.72 59.6453 258.319Z" fill="black"/>
<path d="M59.6453 260.802C57.5549 261.402 54.3143 260.759 53.7571 261.359C53.1998 261.958 56.3707 262.6 57.9038 262.129C59.4369 261.658 61.911 262.301 62.0505 261.359C62.0496 261.359 61.7357 260.203 59.6453 260.802Z" fill="black"/>
<path d="M64.0766 255C64.0766 255 62.869 255.301 63.4952 257.301C64.1213 259.302 63.4504 262.404 64.0766 262.937C64.7027 263.471 65.3735 260.437 64.8816 258.969C64.3896 257.501 65.0605 255.134 64.0766 255Z" fill="black"/>
<path d="M66.6259 255C66.6259 255 65.4183 255.301 66.0445 257.301C66.6706 259.302 65.9997 262.404 66.6259 262.937C67.252 263.471 67.9228 260.437 67.4309 258.969C66.9389 257.501 67.6098 255.134 66.6259 255Z" fill="black"/>
<path d="M69.2197 255C69.2197 255 68.0122 255.301 68.6383 257.301C69.2645 259.302 68.5936 262.404 69.2197 262.937C69.8459 263.471 70.5167 260.437 70.0247 258.969C69.5328 257.501 70.2036 255.134 69.2197 255Z" fill="black"/>
<path d="M77.2512 255.879C75.1608 256.479 71.9201 255.837 71.3629 256.436C70.8056 257.035 73.9765 257.677 75.5096 257.206C77.0427 256.736 79.5168 257.378 79.6555 256.436C79.6546 256.436 79.3415 255.28 77.2512 255.879Z" fill="black"/>
<path d="M77.2512 258.319C75.1608 258.919 71.9201 258.277 71.3629 258.876C70.8056 259.475 73.9765 260.117 75.5096 259.646C77.0427 259.176 79.5168 259.818 79.6555 258.876C79.6546 258.876 79.3415 257.72 77.2512 258.319Z" fill="black"/>
<path d="M77.2512 260.802C75.1608 261.402 71.9201 260.759 71.3629 261.359C70.8056 261.958 73.9765 262.6 75.5096 262.129C77.0427 261.658 79.5168 262.301 79.6555 261.359C79.6546 261.359 79.3415 260.203 77.2512 260.802Z" fill="black"/>
<path d="M81.5634 255C81.5634 255 80.3559 255.301 80.982 257.301C81.6081 259.302 80.9372 262.404 81.5634 262.937C82.1895 263.471 82.8603 260.437 82.3684 258.969C81.8764 257.501 82.5473 255.134 81.5634 255Z" fill="black"/>
<path d="M84.1126 255C84.1126 255 82.905 255.301 83.5312 257.301C84.1573 259.302 83.4864 262.404 84.1126 262.937C84.7387 263.471 85.4095 260.437 84.9176 258.969C84.4256 257.501 85.0965 255.134 84.1126 255Z" fill="black"/>
<path d="M86.7064 255C86.7064 255 85.4989 255.301 86.125 257.301C86.7512 259.302 86.0803 262.404 86.7064 262.937C87.3326 263.471 88.0034 260.437 87.5115 258.969C87.0195 257.501 87.6903 255.134 86.7064 255Z" fill="black"/>
<path d="M94.7378 255.879C92.6475 256.479 89.4068 255.837 88.8496 256.436C88.2923 257.035 91.4632 257.677 92.9963 257.206C94.5294 256.736 97.0035 257.378 97.143 256.436C97.1412 256.436 96.8282 255.28 94.7378 255.879Z" fill="black"/>
<path d="M94.7378 258.319C92.6475 258.919 89.4068 258.277 88.8496 258.876C88.2923 259.475 91.4632 260.117 92.9963 259.646C94.5294 259.176 97.0035 259.818 97.143 258.876C97.1412 258.876 96.8282 257.72 94.7378 258.319Z" fill="black"/>
<path d="M94.7378 260.802C92.6475 261.402 89.4068 260.759 88.8496 261.359C88.2923 261.958 91.4632 262.6 92.9963 262.129C94.5294 261.658 97.0035 262.301 97.143 261.359C97.1412 261.359 96.8282 260.203 94.7378 260.802Z" fill="black"/>
<path d="M99.1395 255C99.1395 255 97.932 255.301 98.5581 257.301C99.1843 259.302 98.5134 262.404 99.1395 262.937C99.7657 263.471 100.437 260.437 99.9446 258.969C99.4526 257.501 100.123 255.134 99.1395 255Z" fill="black"/>
<path d="M101.689 255C101.689 255 100.481 255.301 101.107 257.301C101.733 259.302 101.063 262.404 101.689 262.937C102.315 263.471 102.986 260.437 102.494 258.969C102.002 257.501 102.673 255.134 101.689 255Z" fill="black"/>
<path d="M104.283 255C104.283 255 103.075 255.301 103.701 257.301C104.327 259.302 103.657 262.404 104.283 262.937C104.909 263.471 105.58 260.437 105.088 258.969C104.596 257.501 105.267 255.134 104.283 255Z" fill="black"/>
<path d="M112.314 255.879C110.224 256.479 106.983 255.837 106.426 256.436C105.869 257.035 109.039 257.677 110.572 257.206C112.106 256.736 114.58 257.378 114.719 256.436C114.717 256.436 114.404 255.28 112.314 255.879Z" fill="black"/>
<path d="M112.314 258.319C110.224 258.919 106.983 258.277 106.426 258.876C105.869 259.475 109.039 260.117 110.572 259.646C112.106 259.176 114.58 259.818 114.719 258.876C114.717 258.876 114.404 257.72 112.314 258.319Z" fill="black"/>
<path d="M112.314 260.802C110.224 261.402 106.983 260.759 106.426 261.359C105.869 261.958 109.039 262.6 110.572 262.129C112.106 261.658 114.58 262.301 114.719 261.359C114.717 261.359 114.404 260.203 112.314 260.802Z" fill="black"/>
<path d="M116.626 255C116.626 255 115.419 255.301 116.045 257.301C116.671 259.302 116 262.404 116.626 262.937C117.252 263.471 117.923 260.437 117.431 258.969C116.939 257.501 117.61 255.134 116.626 255Z" fill="black"/>
<path d="M119.176 255C119.176 255 117.968 255.301 118.594 257.301C119.22 259.302 118.549 262.404 119.176 262.937C119.802 263.471 120.473 260.437 119.981 258.969C119.489 257.501 120.159 255.134 119.176 255Z" fill="black"/>
<path d="M121.769 255C121.769 255 120.562 255.301 121.188 257.301C121.814 259.302 121.143 262.404 121.769 262.937C122.396 263.471 123.066 260.437 122.574 258.969C122.082 257.501 122.753 255.134 121.769 255Z" fill="black"/>
<path d="M129.801 255.879C127.71 256.479 124.47 255.837 123.913 256.436C123.355 257.035 126.526 257.677 128.059 257.206C129.592 256.736 132.067 257.378 132.206 256.436C132.204 256.436 131.891 255.28 129.801 255.879Z" fill="black"/>
<path d="M129.801 258.319C127.71 258.919 124.47 258.277 123.913 258.876C123.355 259.475 126.526 260.117 128.059 259.646C129.592 259.176 132.067 259.818 132.206 258.876C132.204 258.876 131.891 257.72 129.801 258.319Z" fill="black"/>
<path d="M129.801 260.802C127.71 261.402 124.47 260.759 123.913 261.359C123.355 261.958 126.526 262.6 128.059 262.129C129.592 261.658 132.067 262.301 132.206 261.359C132.204 261.359 131.891 260.203 129.801 260.802Z" fill="black"/>
<path d="M134.095 255C134.095 255 132.888 255.301 133.514 257.301C134.14 259.302 133.469 262.404 134.095 262.937C134.721 263.471 135.392 260.437 134.9 258.969C134.408 257.501 135.079 255.134 134.095 255Z" fill="black"/>
<path d="M136.644 255C136.644 255 135.437 255.301 136.063 257.301C136.689 259.302 136.018 262.404 136.644 262.937C137.27 263.471 137.941 260.437 137.449 258.969C136.957 257.501 137.628 255.134 136.644 255Z" fill="black"/>
<path d="M139.238 255C139.238 255 138.031 255.301 138.657 257.301C139.283 259.302 138.612 262.404 139.238 262.937C139.864 263.471 140.535 260.437 140.043 258.969C139.551 257.501 140.222 255.134 139.238 255Z" fill="black"/>
<path d="M147.27 255.879C145.179 256.479 141.939 255.837 141.381 256.436C140.824 257.035 143.995 257.677 145.528 257.206C147.061 256.736 149.535 257.378 149.675 256.436C149.673 256.436 149.36 255.28 147.27 255.879Z" fill="black"/>
<path d="M147.27 258.319C145.179 258.919 141.939 258.277 141.381 258.876C140.824 259.475 143.995 260.117 145.528 259.646C147.061 259.176 149.535 259.818 149.675 258.876C149.673 258.876 149.36 257.72 147.27 258.319Z" fill="black"/>
<path d="M147.27 260.802C145.179 261.402 141.939 260.759 141.381 261.359C140.824 261.958 143.995 262.6 145.528 262.129C147.061 261.658 149.535 262.301 149.675 261.359C149.673 261.359 149.36 260.203 147.27 260.802Z" fill="black"/>
<path d="M151.582 255C151.582 255 150.374 255.301 151 257.301C151.627 259.302 150.956 262.404 151.582 262.937C152.208 263.471 152.879 260.437 152.387 258.969C151.895 257.501 152.566 255.134 151.582 255Z" fill="black"/>
<path d="M154.131 255C154.131 255 152.924 255.301 153.55 257.301C154.176 259.302 153.505 262.404 154.131 262.937C154.757 263.471 155.428 260.437 154.936 258.969C154.444 257.501 155.115 255.134 154.131 255Z" fill="black"/>
<path d="M156.725 255C156.725 255 155.517 255.301 156.144 257.301C156.77 259.302 156.099 262.404 156.725 262.937C157.351 263.471 158.022 260.437 157.53 258.969C157.038 257.501 157.709 255.134 156.725 255Z" fill="black"/>
<path d="M163.014 257.206C164.547 256.736 167.021 257.378 167.161 256.436C167.161 256.436 166.847 255.28 164.757 255.879C162.666 256.479 159.426 255.837 158.868 256.436C158.311 257.035 161.481 257.677 163.014 257.206Z" fill="black"/>
<path d="M164.756 258.319C162.666 258.919 159.425 258.277 158.868 258.876C158.311 259.475 161.482 260.117 163.015 259.646C164.548 259.176 167.022 259.818 167.162 258.876C167.16 258.876 166.847 257.72 164.756 258.319Z" fill="black"/>
<path d="M164.756 260.802C162.666 261.402 159.425 260.759 158.868 261.359C158.311 261.958 161.482 262.6 163.015 262.129C164.548 261.658 167.022 262.301 167.162 261.359C167.16 261.359 166.847 260.203 164.756 260.802Z" fill="black"/>
</g>
<g opacity="0.6" clip-path="url(#clip1_770_13714)">
<path d="M1.92104 0C1.92104 0 0.713513 0.300514 1.33964 2.30137C1.96576 4.30223 1.29491 7.40411 1.92104 7.9375C2.54716 8.47089 3.21801 5.43664 2.72606 3.96918C2.2341 2.50086 2.90495 0.133562 1.92104 0Z" fill="black"/>
<path d="M4.47023 0C4.47023 0 3.26271 0.300514 3.88883 2.30137C4.51496 4.30223 3.84411 7.40411 4.47023 7.9375C5.09636 8.47089 5.76721 5.43664 5.27525 3.96918C4.7833 2.50086 5.45414 0.133562 4.47023 0Z" fill="black"/>
<path d="M7.06411 0C7.06411 0 5.85658 0.300514 6.4827 2.30137C7.10883 4.30223 6.43798 7.40411 7.06411 7.9375C7.69023 8.47089 8.36108 5.43664 7.86912 3.96918C7.37717 2.50086 8.04801 0.133562 7.06411 0Z" fill="black"/>
<path d="M15.0956 0.879412C13.0053 1.47873 9.76462 0.836604 9.20737 1.43592C8.65012 2.03523 11.821 2.67736 13.3541 2.20647C14.8872 1.73558 17.3613 2.3777 17.5008 1.43592C17.4999 1.43592 17.186 0.280097 15.0956 0.879412Z" fill="black"/>
<path d="M15.0956 3.31935C13.0053 3.91867 9.76462 3.27655 9.20737 3.87586C8.65012 4.47518 11.821 5.1173 13.3541 4.64641C14.8872 4.17552 17.3613 4.81764 17.5008 3.87586C17.4999 3.87586 17.186 2.72004 15.0956 3.31935Z" fill="black"/>
<path d="M15.0956 5.80226C13.0053 6.40158 9.76462 5.75946 9.20737 6.35877C8.65012 6.95808 11.821 7.60021 13.3541 7.12932C14.8872 6.65843 17.3613 7.30055 17.5008 6.35877C17.4999 6.35877 17.186 5.20295 15.0956 5.80226Z" fill="black"/>
<path d="M19.4079 0C19.4079 0 18.2003 0.300514 18.8265 2.30137C19.4526 4.30223 18.7817 7.40411 19.4079 7.9375C20.034 8.47089 20.7048 5.43664 20.2129 3.96918C19.7209 2.50086 20.3918 0.133562 19.4079 0Z" fill="black"/>
<path d="M21.9569 0C21.9569 0 20.7494 0.300514 21.3755 2.30137C22.0016 4.30223 21.3308 7.40411 21.9569 7.9375C22.583 8.47089 23.2539 5.43664 22.7619 3.96918C22.27 2.50086 22.9408 0.133562 21.9569 0Z" fill="black"/>
<path d="M24.5509 0C24.5509 0 23.3434 0.300514 23.9695 2.30137C24.5956 4.30223 23.9248 7.40411 24.5509 7.9375C25.177 8.47089 25.8479 5.43664 25.3559 3.96918C24.864 2.50086 25.5348 0.133562 24.5509 0Z" fill="black"/>
<path d="M32.5824 0.879412C30.4921 1.47873 27.2514 0.836604 26.6942 1.43592C26.1369 2.03523 29.3078 2.67736 30.8409 2.20647C32.374 1.73558 34.8481 2.3777 34.9877 1.43592C34.9868 1.43592 34.6728 0.280097 32.5824 0.879412Z" fill="black"/>
<path d="M32.5823 3.31935C30.492 3.91867 27.2513 3.27655 26.6941 3.87586C26.1368 4.47518 29.3077 5.1173 30.8408 4.64641C32.3739 4.17552 34.848 4.81764 34.9875 3.87586C34.9866 3.87586 34.6727 2.72004 32.5823 3.31935Z" fill="black"/>
<path d="M32.5823 5.80226C30.492 6.40158 27.2513 5.75946 26.6941 6.35877C26.1368 6.95808 29.3077 7.60021 30.8408 7.12932C32.3739 6.65843 34.848 7.30055 34.9875 6.35877C34.9866 6.35877 34.6727 5.20295 32.5823 5.80226Z" fill="black"/>
<path d="M36.984 0C36.984 0 35.7765 0.300514 36.4026 2.30137C37.0287 4.30223 36.3579 7.40411 36.984 7.9375C37.6101 8.47089 38.281 5.43664 37.789 3.96918C37.2971 2.50086 37.9679 0.133562 36.984 0Z" fill="black"/>
<path d="M39.5333 0C39.5333 0 38.3258 0.300514 38.9519 2.30137C39.5781 4.30223 38.9072 7.40411 39.5333 7.9375C40.1595 8.47089 40.8303 5.43664 40.3384 3.96918C39.8464 2.50086 40.5173 0.133562 39.5333 0Z" fill="black"/>
<path d="M42.1272 0C42.1272 0 40.9197 0.300514 41.5458 2.30137C42.1719 4.30223 41.5011 7.40411 42.1272 7.9375C42.7533 8.47089 43.4242 5.43664 42.9322 3.96918C42.4403 2.50086 43.1111 0.133562 42.1272 0Z" fill="black"/>
<path d="M50.1586 0.879412C48.0683 1.47873 44.8276 0.836604 44.2704 1.43592C43.7131 2.03523 46.884 2.67736 48.4171 2.20647C49.9502 1.73558 52.4243 2.3777 52.5638 1.43592C52.5629 1.43592 52.249 0.280097 50.1586 0.879412Z" fill="black"/>
<path d="M50.1586 3.31935C48.0683 3.91867 44.8276 3.27655 44.2704 3.87586C43.7131 4.47518 46.884 5.1173 48.4171 4.64641C49.9502 4.17552 52.4243 4.81764 52.5638 3.87586C52.5629 3.87586 52.249 2.72004 50.1586 3.31935Z" fill="black"/>
<path d="M50.1586 5.80226C48.0683 6.40158 44.8276 5.75946 44.2704 6.35877C43.7131 6.95808 46.884 7.60021 48.4171 7.12932C49.9502 6.65843 52.4243 7.30055 52.5638 6.35877C52.5629 6.35877 52.249 5.20295 50.1586 5.80226Z" fill="black"/>
<path d="M54.4707 0C54.4707 0 53.2632 0.300514 53.8893 2.30137C54.5154 4.30223 53.8446 7.40411 54.4707 7.9375C55.0968 8.47089 55.7677 5.43664 55.2757 3.96918C54.7838 2.50086 55.4546 0.133562 54.4707 0Z" fill="black"/>
<path d="M57.02 0C57.02 0 55.8125 0.300514 56.4386 2.30137C57.0648 4.30223 56.3939 7.40411 57.02 7.9375C57.6462 8.47089 58.317 5.43664 57.8251 3.96918C57.3331 2.50086 58.0039 0.133562 57.02 0Z" fill="black"/>
<path d="M59.6139 0C59.6139 0 58.4064 0.300514 59.0325 2.30137C59.6586 4.30223 58.9878 7.40411 59.6139 7.9375C60.24 8.47089 60.9109 5.43664 60.4189 3.96918C59.927 2.50086 60.5978 0.133562 59.6139 0Z" fill="black"/>
<path d="M67.6454 0.879412C65.5551 1.47873 62.3144 0.836604 61.7572 1.43592C61.1999 2.03523 64.3708 2.67736 65.9039 2.20647C67.437 1.73558 69.9111 2.3777 70.0506 1.43592C70.0497 1.43592 69.7358 0.280097 67.6454 0.879412Z" fill="black"/>
<path d="M67.6453 3.31935C65.5549 3.91867 62.3143 3.27655 61.7571 3.87586C61.1998 4.47518 64.3707 5.1173 65.9038 4.64641C67.4369 4.17552 69.911 4.81764 70.0505 3.87586C70.0496 3.87586 69.7357 2.72004 67.6453 3.31935Z" fill="black"/>
<path d="M67.6453 5.80226C65.5549 6.40158 62.3143 5.75946 61.7571 6.35877C61.1998 6.95808 64.3707 7.60021 65.9038 7.12932C67.4369 6.65843 69.911 7.30055 70.0505 6.35877C70.0496 6.35877 69.7357 5.20295 67.6453 5.80226Z" fill="black"/>
<path d="M72.0766 0C72.0766 0 70.869 0.300514 71.4952 2.30137C72.1213 4.30223 71.4504 7.40411 72.0766 7.9375C72.7027 8.47089 73.3735 5.43664 72.8816 3.96918C72.3896 2.50086 73.0605 0.133562 72.0766 0Z" fill="black"/>
<path d="M74.6256 0C74.6256 0 73.4181 0.300514 74.0442 2.30137C74.6703 4.30223 73.9995 7.40411 74.6256 7.9375C75.2517 8.47089 75.9226 5.43664 75.4306 3.96918C74.9387 2.50086 75.6095 0.133562 74.6256 0Z" fill="black"/>
<path d="M77.2197 0C77.2197 0 76.0122 0.300514 76.6383 2.30137C77.2645 4.30223 76.5936 7.40411 77.2197 7.9375C77.8459 8.47089 78.5167 5.43664 78.0247 3.96918C77.5328 2.50086 78.2036 0.133562 77.2197 0Z" fill="black"/>
<path d="M85.2512 0.879412C83.1608 1.47873 79.9201 0.836604 79.3629 1.43592C78.8056 2.03523 81.9765 2.67736 83.5096 2.20647C85.0427 1.73558 87.5168 2.3777 87.6555 1.43592C87.6546 1.43592 87.3415 0.280097 85.2512 0.879412Z" fill="black"/>
<path d="M85.251 3.31935C83.1607 3.91867 79.92 3.27655 79.3628 3.87586C78.8055 4.47518 81.9764 5.1173 83.5095 4.64641C85.0426 4.17552 87.5167 4.81764 87.6554 3.87586C87.6545 3.87586 87.3414 2.72004 85.251 3.31935Z" fill="black"/>
<path d="M85.251 5.80226C83.1607 6.40158 79.92 5.75946 79.3628 6.35877C78.8055 6.95808 81.9764 7.60021 83.5095 7.12932C85.0426 6.65843 87.5167 7.30055 87.6554 6.35877C87.6545 6.35877 87.3414 5.20295 85.251 5.80226Z" fill="black"/>
<path d="M89.5632 0C89.5632 0 88.3557 0.300514 88.9818 2.30137C89.608 4.30223 88.9371 7.40411 89.5632 7.9375C90.1894 8.47089 90.8602 5.43664 90.3682 3.96918C89.8763 2.50086 90.5471 0.133562 89.5632 0Z" fill="black"/>
<path d="M92.1126 0C92.1126 0 90.905 0.300514 91.5312 2.30137C92.1573 4.30223 91.4864 7.40411 92.1126 7.9375C92.7387 8.47089 93.4095 5.43664 92.9176 3.96918C92.4256 2.50086 93.0965 0.133562 92.1126 0Z" fill="black"/>
<path d="M94.7064 0C94.7064 0 93.4989 0.300514 94.125 2.30137C94.7512 4.30223 94.0803 7.40411 94.7064 7.9375C95.3326 8.47089 96.0034 5.43664 95.5115 3.96918C95.0195 2.50086 95.6903 0.133562 94.7064 0Z" fill="black"/>
<path d="M102.738 0.879412C100.648 1.47873 97.407 0.836604 96.8497 1.43592C96.2925 2.03523 99.4633 2.67736 100.996 2.20647C102.53 1.73558 105.004 2.3777 105.143 1.43592C105.141 1.43592 104.828 0.280097 102.738 0.879412Z" fill="black"/>
<path d="M102.738 3.31935C100.648 3.91867 97.407 3.27655 96.8497 3.87586C96.2925 4.47518 99.4633 5.1173 100.996 4.64641C102.53 4.17552 105.004 4.81764 105.143 3.87586C105.141 3.87586 104.828 2.72004 102.738 3.31935Z" fill="black"/>
<path d="M102.738 5.80226C100.648 6.40158 97.407 5.75946 96.8497 6.35877C96.2925 6.95808 99.4633 7.60021 100.996 7.12932C102.53 6.65843 105.004 7.30055 105.143 6.35877C105.141 6.35877 104.828 5.20295 102.738 5.80226Z" fill="black"/>
<path d="M107.139 0C107.139 0 105.932 0.300514 106.558 2.30137C107.184 4.30223 106.513 7.40411 107.139 7.9375C107.766 8.47089 108.436 5.43664 107.944 3.96918C107.452 2.50086 108.123 0.133562 107.139 0Z" fill="black"/>
<path d="M109.689 0C109.689 0 108.481 0.300514 109.107 2.30137C109.733 4.30223 109.062 7.40411 109.689 7.9375C110.315 8.47089 110.986 5.43664 110.494 3.96918C110.002 2.50086 110.673 0.133562 109.689 0Z" fill="black"/>
<path d="M112.283 0C112.283 0 111.075 0.300514 111.701 2.30137C112.327 4.30223 111.656 7.40411 112.283 7.9375C112.909 8.47089 113.58 5.43664 113.088 3.96918C112.596 2.50086 113.267 0.133562 112.283 0Z" fill="black"/>
<path d="M120.314 0.879412C118.224 1.47873 114.983 0.836604 114.426 1.43592C113.869 2.03523 117.04 2.67736 118.573 2.20647C120.106 1.73558 122.58 2.3777 122.719 1.43592C122.718 1.43592 122.404 0.280097 120.314 0.879412Z" fill="black"/>
<path d="M120.314 3.31935C118.224 3.91867 114.983 3.27655 114.426 3.87586C113.869 4.47518 117.039 5.1173 118.572 4.64641C120.106 4.17552 122.58 4.81764 122.719 3.87586C122.717 3.87586 122.404 2.72004 120.314 3.31935Z" fill="black"/>
<path d="M120.314 5.80226C118.224 6.40158 114.983 5.75946 114.426 6.35877C113.869 6.95808 117.039 7.60021 118.572 7.12932C120.106 6.65843 122.58 7.30055 122.719 6.35877C122.717 6.35877 122.404 5.20295 120.314 5.80226Z" fill="black"/>
<path d="M124.626 0C124.626 0 123.419 0.300514 124.045 2.30137C124.671 4.30223 124 7.40411 124.626 7.9375C125.252 8.47089 125.923 5.43664 125.431 3.96918C124.939 2.50086 125.61 0.133562 124.626 0Z" fill="black"/>
<path d="M127.175 0C127.175 0 125.968 0.300514 126.594 2.30137C127.22 4.30223 126.549 7.40411 127.175 7.9375C127.802 8.47089 128.472 5.43664 127.98 3.96918C127.488 2.50086 128.159 0.133562 127.175 0Z" fill="black"/>
<path d="M129.769 0C129.769 0 128.562 0.300514 129.188 2.30137C129.814 4.30223 129.143 7.40411 129.769 7.9375C130.396 8.47089 131.066 5.43664 130.574 3.96918C130.082 2.50086 130.753 0.133562 129.769 0Z" fill="black"/>
<path d="M137.801 0.879412C135.71 1.47873 132.47 0.836604 131.912 1.43592C131.355 2.03523 134.526 2.67736 136.059 2.20647C137.592 1.73558 140.066 2.3777 140.206 1.43592C140.204 1.43592 139.891 0.280097 137.801 0.879412Z" fill="black"/>
<path d="M137.801 3.31935C135.71 3.91867 132.47 3.27655 131.913 3.87586C131.355 4.47518 134.526 5.1173 136.059 4.64641C137.592 4.17552 140.067 4.81764 140.206 3.87586C140.204 3.87586 139.891 2.72004 137.801 3.31935Z" fill="black"/>
<path d="M137.801 5.80226C135.71 6.40158 132.47 5.75946 131.913 6.35877C131.355 6.95808 134.526 7.60021 136.059 7.12932C137.592 6.65843 140.067 7.30055 140.206 6.35877C140.204 6.35877 139.891 5.20295 137.801 5.80226Z" fill="black"/>
<path d="M142.095 0C142.095 0 140.888 0.300514 141.514 2.30137C142.14 4.30223 141.469 7.40411 142.095 7.9375C142.721 8.47089 143.392 5.43664 142.9 3.96918C142.408 2.50086 143.079 0.133562 142.095 0Z" fill="black"/>
<path d="M144.644 0C144.644 0 143.437 0.300514 144.063 2.30137C144.689 4.30223 144.018 7.40411 144.644 7.9375C145.271 8.47089 145.941 5.43664 145.449 3.96918C144.958 2.50086 145.628 0.133562 144.644 0Z" fill="black"/>
<path d="M147.238 0C147.238 0 146.031 0.300514 146.657 2.30137C147.283 4.30223 146.612 7.40411 147.238 7.9375C147.864 8.47089 148.535 5.43664 148.043 3.96918C147.551 2.50086 148.222 0.133562 147.238 0Z" fill="black"/>
<path d="M155.27 0.879412C153.179 1.47873 149.939 0.836604 149.381 1.43592C148.824 2.03523 151.995 2.67736 153.528 2.20647C155.061 1.73558 157.535 2.3777 157.675 1.43592C157.673 1.43592 157.36 0.280097 155.27 0.879412Z" fill="black"/>
<path d="M155.27 3.31935C153.179 3.91867 149.939 3.27655 149.381 3.87586C148.824 4.47518 151.995 5.1173 153.528 4.64641C155.061 4.17552 157.535 4.81764 157.675 3.87586C157.673 3.87586 157.36 2.72004 155.27 3.31935Z" fill="black"/>
<path d="M155.27 5.80226C153.179 6.40158 149.939 5.75946 149.381 6.35877C148.824 6.95808 151.995 7.60021 153.528 7.12932C155.061 6.65843 157.535 7.30055 157.675 6.35877C157.673 6.35877 157.36 5.20295 155.27 5.80226Z" fill="black"/>
<path d="M159.582 0C159.582 0 158.374 0.300514 159 2.30137C159.627 4.30223 158.956 7.40411 159.582 7.9375C160.208 8.47089 160.879 5.43664 160.387 3.96918C159.895 2.50086 160.566 0.133562 159.582 0Z" fill="black"/>
<path d="M162.131 0C162.131 0 160.924 0.300514 161.55 2.30137C162.176 4.30223 161.505 7.40411 162.131 7.9375C162.757 8.47089 163.428 5.43664 162.936 3.96918C162.444 2.50086 163.115 0.133562 162.131 0Z" fill="black"/>
<path d="M164.725 0C164.725 0 163.517 0.300514 164.144 2.30137C164.77 4.30223 164.099 7.40411 164.725 7.9375C165.351 8.47089 166.022 5.43664 165.53 3.96918C165.038 2.50086 165.709 0.133562 164.725 0Z" fill="black"/>
<path d="M171.014 2.20647C172.547 1.73558 175.021 2.3777 175.161 1.43592C175.161 1.43592 174.847 0.280097 172.756 0.879412C170.666 1.47873 167.425 0.836604 166.868 1.43592C166.311 2.03523 169.481 2.67736 171.014 2.20647Z" fill="black"/>
<path d="M172.757 3.31935C170.666 3.91867 167.426 3.27655 166.868 3.87586C166.311 4.47518 169.482 5.1173 171.015 4.64641C172.548 4.17552 175.022 4.81764 175.162 3.87586C175.16 3.87586 174.847 2.72004 172.757 3.31935Z" fill="black"/>
<path d="M172.757 5.80226C170.666 6.40158 167.426 5.75946 166.868 6.35877C166.311 6.95808 169.482 7.60021 171.015 7.12932C172.548 6.65843 175.022 7.30055 175.162 6.35877C175.16 6.35877 174.847 5.20295 172.757 5.80226Z" fill="black"/>
</g>
<g opacity="0.6" clip-path="url(#clip2_770_13714)">
<path d="M177.921 0C177.921 0 176.714 0.300514 177.34 2.30137C177.966 4.30223 177.295 7.40411 177.921 7.9375C178.547 8.47089 179.218 5.43664 178.726 3.96918C178.234 2.50086 178.905 0.133562 177.921 0Z" fill="black"/>
<path d="M180.47 0C180.47 0 179.263 0.300514 179.889 2.30137C180.515 4.30223 179.844 7.40411 180.47 7.9375C181.096 8.47089 181.767 5.43664 181.275 3.96918C180.783 2.50086 181.454 0.133562 180.47 0Z" fill="black"/>
<path d="M183.064 0C183.064 0 181.857 0.300514 182.483 2.30137C183.109 4.30223 182.438 7.40411 183.064 7.9375C183.69 8.47089 184.361 5.43664 183.869 3.96918C183.377 2.50086 184.048 0.133562 183.064 0Z" fill="black"/>
<path d="M191.096 0.879412C189.005 1.47873 185.765 0.836604 185.207 1.43592C184.65 2.03523 187.821 2.67736 189.354 2.20647C190.887 1.73558 193.361 2.3777 193.501 1.43592C193.5 1.43592 193.186 0.280097 191.096 0.879412Z" fill="black"/>
<path d="M191.096 3.31935C189.005 3.91867 185.765 3.27655 185.207 3.87586C184.65 4.47518 187.821 5.1173 189.354 4.64641C190.887 4.17552 193.361 4.81764 193.501 3.87586C193.5 3.87586 193.186 2.72004 191.096 3.31935Z" fill="black"/>
<path d="M191.096 5.80226C189.005 6.40158 185.765 5.75946 185.207 6.35877C184.65 6.95808 187.821 7.60021 189.354 7.12932C190.887 6.65843 193.361 7.30055 193.501 6.35877C193.5 6.35877 193.186 5.20295 191.096 5.80226Z" fill="black"/>
<path d="M195.408 0C195.408 0 194.2 0.300514 194.826 2.30137C195.453 4.30223 194.782 7.40411 195.408 7.9375C196.034 8.47089 196.705 5.43664 196.213 3.96918C195.721 2.50086 196.392 0.133562 195.408 0Z" fill="black"/>
<path d="M197.957 0C197.957 0 196.749 0.300514 197.376 2.30137C198.002 4.30223 197.331 7.40411 197.957 7.9375C198.583 8.47089 199.254 5.43664 198.762 3.96918C198.27 2.50086 198.941 0.133562 197.957 0Z" fill="black"/>
<path d="M200.551 0C200.551 0 199.343 0.300514 199.97 2.30137C200.596 4.30223 199.925 7.40411 200.551 7.9375C201.177 8.47089 201.848 5.43664 201.356 3.96918C200.864 2.50086 201.535 0.133562 200.551 0Z" fill="black"/>
<path d="M208.582 0.879412C206.492 1.47873 203.251 0.836604 202.694 1.43592C202.137 2.03523 205.308 2.67736 206.841 2.20647C208.374 1.73558 210.848 2.3777 210.988 1.43592C210.987 1.43592 210.673 0.280097 208.582 0.879412Z" fill="black"/>
<path d="M208.582 3.31935C206.492 3.91867 203.251 3.27655 202.694 3.87586C202.137 4.47518 205.308 5.1173 206.841 4.64641C208.374 4.17552 210.848 4.81764 210.988 3.87586C210.987 3.87586 210.673 2.72004 208.582 3.31935Z" fill="black"/>
<path d="M208.582 5.80226C206.492 6.40158 203.251 5.75946 202.694 6.35877C202.137 6.95808 205.308 7.60021 206.841 7.12932C208.374 6.65843 210.848 7.30055 210.988 6.35877C210.987 6.35877 210.673 5.20295 208.582 5.80226Z" fill="black"/>
<path d="M212.984 0C212.984 0 211.777 0.300514 212.403 2.30137C213.029 4.30223 212.358 7.40411 212.984 7.9375C213.61 8.47089 214.281 5.43664 213.789 3.96918C213.297 2.50086 213.968 0.133562 212.984 0Z" fill="black"/>
<path d="M215.533 0C215.533 0 214.326 0.300514 214.952 2.30137C215.578 4.30223 214.907 7.40411 215.533 7.9375C216.159 8.47089 216.83 5.43664 216.338 3.96918C215.846 2.50086 216.517 0.133562 215.533 0Z" fill="black"/>
<path d="M218.127 0C218.127 0 216.92 0.300514 217.546 2.30137C218.172 4.30223 217.501 7.40411 218.127 7.9375C218.753 8.47089 219.424 5.43664 218.932 3.96918C218.44 2.50086 219.111 0.133562 218.127 0Z" fill="black"/>
<path d="M226.159 0.879412C224.068 1.47873 220.828 0.836604 220.27 1.43592C219.713 2.03523 222.884 2.67736 224.417 2.20647C225.95 1.73558 228.424 2.3777 228.564 1.43592C228.563 1.43592 228.249 0.280097 226.159 0.879412Z" fill="black"/>
<path d="M226.159 3.31935C224.068 3.91867 220.828 3.27655 220.27 3.87586C219.713 4.47518 222.884 5.1173 224.417 4.64641C225.95 4.17552 228.424 4.81764 228.564 3.87586C228.563 3.87586 228.249 2.72004 226.159 3.31935Z" fill="black"/>
<path d="M226.159 5.80226C224.068 6.40158 220.828 5.75946 220.27 6.35877C219.713 6.95808 222.884 7.60021 224.417 7.12932C225.95 6.65843 228.424 7.30055 228.564 6.35877C228.563 6.35877 228.249 5.20295 226.159 5.80226Z" fill="black"/>
<path d="M230.471 0C230.471 0 229.263 0.300514 229.889 2.30137C230.515 4.30223 229.845 7.40411 230.471 7.9375C231.097 8.47089 231.768 5.43664 231.276 3.96918C230.784 2.50086 231.455 0.133562 230.471 0Z" fill="black"/>
<path d="M233.02 0C233.02 0 231.813 0.300514 232.439 2.30137C233.065 4.30223 232.394 7.40411 233.02 7.9375C233.646 8.47089 234.317 5.43664 233.825 3.96918C233.333 2.50086 234.004 0.133562 233.02 0Z" fill="black"/>
<path d="M235.614 0C235.614 0 234.406 0.300514 235.033 2.30137C235.659 4.30223 234.988 7.40411 235.614 7.9375C236.24 8.47089 236.911 5.43664 236.419 3.96918C235.927 2.50086 236.598 0.133562 235.614 0Z" fill="black"/>
<path d="M243.645 0.879412C241.555 1.47873 238.314 0.836604 237.757 1.43592C237.2 2.03523 240.371 2.67736 241.904 2.20647C243.437 1.73558 245.911 2.3777 246.051 1.43592C246.05 1.43592 245.736 0.280097 243.645 0.879412Z" fill="black"/>
<path d="M243.645 3.31935C241.555 3.91867 238.314 3.27655 237.757 3.87586C237.2 4.47518 240.371 5.1173 241.904 4.64641C243.437 4.17552 245.911 4.81764 246.051 3.87586C246.05 3.87586 245.736 2.72004 243.645 3.31935Z" fill="black"/>
<path d="M243.645 5.80226C241.555 6.40158 238.314 5.75946 237.757 6.35877C237.2 6.95808 240.371 7.60021 241.904 7.12932C243.437 6.65843 245.911 7.30055 246.051 6.35877C246.05 6.35877 245.736 5.20295 243.645 5.80226Z" fill="black"/>
<path d="M248.077 0C248.077 0 246.869 0.300514 247.495 2.30137C248.121 4.30223 247.45 7.40411 248.077 7.9375C248.703 8.47089 249.374 5.43664 248.882 3.96918C248.39 2.50086 249.06 0.133562 248.077 0Z" fill="black"/>
<path d="M250.626 0C250.626 0 249.418 0.300514 250.044 2.30137C250.67 4.30223 249.999 7.40411 250.626 7.9375C251.252 8.47089 251.922 5.43664 251.431 3.96918C250.939 2.50086 251.609 0.133562 250.626 0Z" fill="black"/>
<path d="M253.22 0C253.22 0 252.012 0.300514 252.638 2.30137C253.264 4.30223 252.594 7.40411 253.22 7.9375C253.846 8.47089 254.517 5.43664 254.025 3.96918C253.533 2.50086 254.204 0.133562 253.22 0Z" fill="black"/>
<path d="M261.251 0.879412C259.161 1.47873 255.92 0.836604 255.363 1.43592C254.806 2.03523 257.977 2.67736 259.51 2.20647C261.043 1.73558 263.517 2.3777 263.656 1.43592C263.655 1.43592 263.342 0.280097 261.251 0.879412Z" fill="black"/>
<path d="M261.251 3.31935C259.161 3.91867 255.92 3.27655 255.363 3.87586C254.806 4.47518 257.976 5.1173 259.51 4.64641C261.043 4.17552 263.517 4.81764 263.655 3.87586C263.654 3.87586 263.341 2.72004 261.251 3.31935Z" fill="black"/>
<path d="M261.251 5.80226C259.161 6.40158 255.92 5.75946 255.363 6.35877C254.806 6.95808 257.976 7.60021 259.51 7.12932C261.043 6.65843 263.517 7.30055 263.655 6.35877C263.654 6.35877 263.341 5.20295 261.251 5.80226Z" fill="black"/>
<path d="M265.563 0C265.563 0 264.356 0.300514 264.982 2.30137C265.608 4.30223 264.937 7.40411 265.563 7.9375C266.189 8.47089 266.86 5.43664 266.368 3.96918C265.876 2.50086 266.547 0.133562 265.563 0Z" fill="black"/>
<path d="M268.113 0C268.113 0 266.905 0.300514 267.531 2.30137C268.157 4.30223 267.486 7.40411 268.113 7.9375C268.739 8.47089 269.41 5.43664 268.918 3.96918C268.426 2.50086 269.096 0.133562 268.113 0Z" fill="black"/>
<path d="M270.707 0C270.707 0 269.499 0.300514 270.125 2.30137C270.751 4.30223 270.08 7.40411 270.707 7.9375C271.333 8.47089 272.004 5.43664 271.512 3.96918C271.02 2.50086 271.69 0.133562 270.707 0Z" fill="black"/>
<path d="M278.738 0.879412C276.648 1.47873 273.407 0.836604 272.85 1.43592C272.293 2.03523 275.463 2.67736 276.997 2.20647C278.53 1.73558 281.004 2.3777 281.143 1.43592C281.141 1.43592 280.828 0.280097 278.738 0.879412Z" fill="black"/>
<path d="M278.738 3.31935C276.648 3.91867 273.407 3.27655 272.85 3.87586C272.293 4.47518 275.463 5.1173 276.997 4.64641C278.53 4.17552 281.004 4.81764 281.143 3.87586C281.141 3.87586 280.828 2.72004 278.738 3.31935Z" fill="black"/>
<path d="M278.738 5.80226C276.648 6.40158 273.407 5.75946 272.85 6.35877C272.293 6.95808 275.463 7.60021 276.997 7.12932C278.53 6.65843 281.004 7.30055 281.143 6.35877C281.141 6.35877 280.828 5.20295 278.738 5.80226Z" fill="black"/>
<path d="M283.139 0C283.139 0 281.932 0.300514 282.558 2.30137C283.184 4.30223 282.513 7.40411 283.139 7.9375C283.766 8.47089 284.436 5.43664 283.944 3.96918C283.452 2.50086 284.123 0.133562 283.139 0Z" fill="black"/>
<path d="M285.689 0C285.689 0 284.481 0.300514 285.107 2.30137C285.733 4.30223 285.062 7.40411 285.689 7.9375C286.315 8.47089 286.986 5.43664 286.494 3.96918C286.002 2.50086 286.673 0.133562 285.689 0Z" fill="black"/>
<path d="M288.283 0C288.283 0 287.075 0.300514 287.701 2.30137C288.327 4.30223 287.656 7.40411 288.283 7.9375C288.909 8.47089 289.58 5.43664 289.088 3.96918C288.596 2.50086 289.267 0.133562 288.283 0Z" fill="black"/>
<path d="M296.314 0.879412C294.224 1.47873 290.983 0.836604 290.426 1.43592C289.869 2.03523 293.04 2.67736 294.573 2.20647C296.106 1.73558 298.58 2.3777 298.719 1.43592C298.718 1.43592 298.405 0.280097 296.314 0.879412Z" fill="black"/>
<path d="M296.314 3.31935C294.224 3.91867 290.983 3.27655 290.426 3.87586C289.869 4.47518 293.039 5.1173 294.572 4.64641C296.106 4.17552 298.58 4.81764 298.719 3.87586C298.717 3.87586 298.404 2.72004 296.314 3.31935Z" fill="black"/>
<path d="M296.314 5.80226C294.224 6.40158 290.983 5.75946 290.426 6.35877C289.869 6.95808 293.039 7.60021 294.572 7.12932C296.106 6.65843 298.58 7.30055 298.719 6.35877C298.717 6.35877 298.404 5.20295 296.314 5.80226Z" fill="black"/>
<path d="M300.626 0C300.626 0 299.419 0.300514 300.045 2.30137C300.671 4.30223 300 7.40411 300.626 7.9375C301.253 8.47089 301.923 5.43664 301.431 3.96918C300.94 2.50086 301.61 0.133562 300.626 0Z" fill="black"/>
<path d="M303.175 0C303.175 0 301.968 0.300514 302.594 2.30137C303.22 4.30223 302.549 7.40411 303.175 7.9375C303.802 8.47089 304.472 5.43664 303.98 3.96918C303.488 2.50086 304.159 0.133562 303.175 0Z" fill="black"/>
<path d="M305.769 0C305.769 0 304.562 0.300514 305.188 2.30137C305.814 4.30223 305.143 7.40411 305.769 7.9375C306.396 8.47089 307.066 5.43664 306.574 3.96918C306.082 2.50086 306.753 0.133562 305.769 0Z" fill="black"/>
<path d="M313.801 0.879412C311.71 1.47873 308.47 0.836604 307.912 1.43592C307.355 2.03523 310.526 2.67736 312.059 2.20647C313.592 1.73558 316.066 2.3777 316.206 1.43592C316.204 1.43592 315.891 0.280097 313.801 0.879412Z" fill="black"/>
<path d="M313.801 3.31935C311.71 3.91867 308.47 3.27655 307.913 3.87586C307.355 4.47518 310.526 5.1173 312.059 4.64641C313.592 4.17552 316.067 4.81764 316.206 3.87586C316.204 3.87586 315.891 2.72004 313.801 3.31935Z" fill="black"/>
<path d="M313.801 5.80226C311.71 6.40158 308.47 5.75946 307.913 6.35877C307.355 6.95808 310.526 7.60021 312.059 7.12932C313.592 6.65843 316.067 7.30055 316.206 6.35877C316.204 6.35877 315.891 5.20295 313.801 5.80226Z" fill="black"/>
<path d="M318.095 0C318.095 0 316.888 0.300514 317.514 2.30137C318.14 4.30223 317.469 7.40411 318.095 7.9375C318.721 8.47089 319.392 5.43664 318.9 3.96918C318.408 2.50086 319.079 0.133562 318.095 0Z" fill="black"/>
<path d="M320.645 0C320.645 0 319.437 0.300514 320.063 2.30137C320.689 4.30223 320.018 7.40411 320.645 7.9375C321.271 8.47089 321.942 5.43664 321.45 3.96918C320.958 2.50086 321.628 0.133562 320.645 0Z" fill="black"/>
<path d="M323.238 0C323.238 0 322.031 0.300514 322.657 2.30137C323.283 4.30223 322.612 7.40411 323.238 7.9375C323.864 8.47089 324.535 5.43664 324.043 3.96918C323.551 2.50086 324.222 0.133562 323.238 0Z" fill="black"/>
<path d="M331.27 0.879412C329.179 1.47873 325.939 0.836604 325.382 1.43592C324.824 2.03523 327.995 2.67736 329.528 2.20647C331.061 1.73558 333.535 2.3777 333.675 1.43592C333.673 1.43592 333.36 0.280097 331.27 0.879412Z" fill="black"/>
<path d="M331.27 3.31935C329.179 3.91867 325.939 3.27655 325.381 3.87586C324.824 4.47518 327.995 5.1173 329.528 4.64641C331.061 4.17552 333.535 4.81764 333.675 3.87586C333.673 3.87586 333.36 2.72004 331.27 3.31935Z" fill="black"/>
<path d="M331.27 5.80226C329.179 6.40158 325.939 5.75946 325.381 6.35877C324.824 6.95808 327.995 7.60021 329.528 7.12932C331.061 6.65843 333.535 7.30055 333.675 6.35877C333.673 6.35877 333.36 5.20295 331.27 5.80226Z" fill="black"/>
<path d="M335.582 0C335.582 0 334.374 0.300514 335 2.30137C335.627 4.30223 334.956 7.40411 335.582 7.9375C336.208 8.47089 336.879 5.43664 336.387 3.96918C335.895 2.50086 336.566 0.133562 335.582 0Z" fill="black"/>
<path d="M338.131 0C338.131 0 336.924 0.300514 337.55 2.30137C338.176 4.30223 337.505 7.40411 338.131 7.9375C338.757 8.47089 339.428 5.43664 338.936 3.96918C338.444 2.50086 339.115 0.133562 338.131 0Z" fill="black"/>
<path d="M340.725 0C340.725 0 339.518 0.300514 340.144 2.30137C340.77 4.30223 340.099 7.40411 340.725 7.9375C341.351 8.47089 342.022 5.43664 341.53 3.96918C341.038 2.50086 341.709 0.133562 340.725 0Z" fill="black"/>
<path d="M347.014 2.20647C348.547 1.73558 351.021 2.3777 351.16 1.43592C351.16 1.43592 350.847 0.280097 348.756 0.879412C346.666 1.47873 343.425 0.836604 342.868 1.43592C342.311 2.03523 345.481 2.67736 347.014 2.20647Z" fill="black"/>
<path d="M348.757 3.31935C346.666 3.91867 343.426 3.27655 342.868 3.87586C342.311 4.47518 345.482 5.1173 347.015 4.64641C348.548 4.17552 351.022 4.81764 351.162 3.87586C351.16 3.87586 350.847 2.72004 348.757 3.31935Z" fill="black"/>
<path d="M348.757 5.80226C346.666 6.40158 343.426 5.75946 342.868 6.35877C342.311 6.95808 345.482 7.60021 347.015 7.12932C348.548 6.65843 351.022 7.30055 351.162 6.35877C351.16 6.35877 350.847 5.20295 348.757 5.80226Z" fill="black"/>
</g>
<g opacity="0.6" clip-path="url(#clip3_770_13714)">
<path d="M350.281 15.9356C349.681 13.8452 350.324 10.6046 349.724 10.0473C349.125 9.49008 348.483 12.661 348.954 14.1941C349.425 15.7272 348.782 18.2013 349.724 18.3408C349.724 18.3399 350.88 18.026 350.281 15.9356Z" fill="black"/>
<path d="M347.841 15.9356C347.241 13.8452 347.883 10.6046 347.284 10.0473C346.685 9.49008 346.043 12.661 346.514 14.1941C346.984 15.7272 346.342 18.2013 347.284 18.3408C347.284 18.3399 348.44 18.026 347.841 15.9356Z" fill="black"/>
<path d="M345.358 15.9356C344.758 13.8452 345.4 10.6046 344.801 10.0473C344.202 9.49008 343.56 12.661 344.031 14.1941C344.501 15.7272 343.859 18.2013 344.801 18.3408C344.801 18.3399 345.957 18.026 345.358 15.9356Z" fill="black"/>
<path d="M351.16 20.2478C351.16 20.2478 350.859 19.0403 348.859 19.6664C346.858 20.2925 343.756 19.6217 343.222 20.2478C342.689 20.8739 345.723 21.5448 347.191 21.0528C348.659 20.5609 351.026 21.2317 351.16 20.2478Z" fill="black"/>
<path d="M351.16 22.7971C351.16 22.7971 350.859 21.5896 348.859 22.2157C346.858 22.8419 343.756 22.171 343.222 22.7971C342.689 23.4233 345.723 24.0941 347.191 23.6021C348.659 23.1102 351.026 23.781 351.16 22.7971Z" fill="black"/>
<path d="M351.16 25.3909C351.16 25.3909 350.859 24.1834 348.859 24.8095C346.858 25.4356 343.756 24.7648 343.222 25.3909C342.689 26.017 345.723 26.6879 347.191 26.1959C348.659 25.7039 351.026 26.3748 351.16 25.3909Z" fill="black"/>
<path d="M350.281 33.4224C349.681 31.332 350.324 28.0914 349.724 27.5342C349.125 26.9769 348.483 30.1478 348.954 31.6809C349.425 33.214 348.782 35.6881 349.724 35.8276C349.724 35.8267 350.88 35.5128 350.281 33.4224Z" fill="black"/>
<path d="M347.841 33.4224C347.241 31.332 347.883 28.0914 347.284 27.5342C346.685 26.9769 346.043 30.1478 346.514 31.6809C346.984 33.214 346.342 35.6881 347.284 35.8276C347.284 35.8267 348.44 35.5128 347.841 33.4224Z" fill="black"/>
<path d="M345.358 33.4224C344.758 31.332 345.4 28.0914 344.801 27.5342C344.202 26.9769 343.56 30.1478 344.031 31.6809C344.501 33.214 343.859 35.6881 344.801 35.8276C344.801 35.8267 345.957 35.5128 345.358 33.4224Z" fill="black"/>
<path d="M351.16 37.824C351.16 37.824 350.859 36.6165 348.859 37.2426C346.858 37.8687 343.756 37.1979 343.222 37.824C342.689 38.4501 345.723 39.121 347.191 38.629C348.659 38.137 351.026 38.8079 351.16 37.824Z" fill="black"/>
<path d="M351.16 40.3733C351.16 40.3733 350.859 39.1658 348.859 39.7919C346.858 40.418 343.756 39.7472 343.222 40.3733C342.689 40.9994 345.723 41.6703 347.191 41.1783C348.659 40.6864 351.026 41.3572 351.16 40.3733Z" fill="black"/>
<path d="M351.16 42.9671C351.16 42.9671 350.859 41.7595 348.859 42.3857C346.858 43.0118 343.756 42.3409 343.222 42.9671C342.689 43.5932 345.723 44.264 347.191 43.7721C348.659 43.2801 351.026 43.951 351.16 42.9671Z" fill="black"/>
<path d="M350.281 50.9986C349.681 48.9082 350.324 45.6676 349.724 45.1103C349.125 44.5531 348.483 47.7239 348.954 49.2571C349.425 50.7902 348.782 53.2643 349.724 53.4038C349.724 53.4029 350.88 53.0889 350.281 50.9986Z" fill="black"/>
<path d="M347.841 50.9986C347.241 48.9082 347.883 45.6676 347.284 45.1103C346.685 44.5531 346.043 47.7239 346.514 49.2571C346.984 50.7902 346.342 53.2643 347.284 53.4038C347.284 53.4029 348.44 53.0889 347.841 50.9986Z" fill="black"/>
<path d="M345.358 50.9986C344.758 48.9082 345.4 45.6676 344.801 45.1103C344.202 44.5531 343.56 47.7239 344.031 49.2571C344.501 50.7902 343.859 53.2643 344.801 53.4038C344.801 53.4029 345.957 53.0889 345.358 50.9986Z" fill="black"/>
<path d="M351.16 55.3108C351.16 55.3108 350.859 54.1033 348.859 54.7294C346.858 55.3555 343.756 54.6847 343.222 55.3108C342.689 55.9369 345.723 56.6078 347.191 56.1158C348.659 55.6239 351.026 56.2947 351.16 55.3108Z" fill="black"/>
<path d="M351.16 57.8601C351.16 57.8601 350.859 56.6526 348.859 57.2787C346.858 57.9048 343.756 57.234 343.222 57.8601C342.689 58.4863 345.723 59.1571 347.191 58.6651C348.659 58.1732 351.026 58.844 351.16 57.8601Z" fill="black"/>
<path d="M351.16 60.4539C351.16 60.4539 350.859 59.2464 348.859 59.8725C346.858 60.4986 343.756 59.8278 343.222 60.4539C342.689 61.08 345.723 61.7508 347.191 61.2589C348.659 60.7669 351.026 61.4378 351.16 60.4539Z" fill="black"/>
<path d="M350.281 68.4854C349.681 66.395 350.324 63.1544 349.724 62.5971C349.125 62.0399 348.483 65.2108 348.954 66.7439C349.425 68.277 348.782 70.7511 349.724 70.8906C349.724 70.8897 350.88 70.5757 350.281 68.4854Z" fill="black"/>
<path d="M347.841 68.4854C347.241 66.395 347.883 63.1544 347.284 62.5971C346.685 62.0399 346.043 65.2108 346.514 66.7439C346.984 68.277 346.342 70.7511 347.284 70.8906C347.284 70.8897 348.44 70.5757 347.841 68.4854Z" fill="black"/>
<path d="M345.358 68.4854C344.758 66.395 345.4 63.1544 344.801 62.5971C344.202 62.0399 343.56 65.2108 344.031 66.7439C344.501 68.277 343.859 70.7511 344.801 70.8906C344.801 70.8897 345.957 70.5757 345.358 68.4854Z" fill="black"/>
<path d="M351.16 72.9163C351.16 72.9163 350.859 71.7088 348.859 72.3349C346.858 72.961 343.756 72.2902 343.222 72.9163C342.689 73.5424 345.723 74.2133 347.191 73.7213C348.659 73.2293 351.026 73.9002 351.16 72.9163Z" fill="black"/>
<path d="M351.16 75.4656C351.16 75.4656 350.859 74.2581 348.859 74.8842C346.858 75.5103 343.756 74.8395 343.222 75.4656C342.689 76.0917 345.723 76.7626 347.191 76.2706C348.659 75.7787 351.026 76.4495 351.16 75.4656Z" fill="black"/>
<path d="M351.16 78.0598C351.16 78.0598 350.859 76.8523 348.859 77.4784C346.858 78.1045 343.756 77.4337 343.222 78.0598C342.689 78.6859 345.723 79.3568 347.191 78.8648C348.659 78.3729 351.026 79.0437 351.16 78.0598Z" fill="black"/>
<path d="M350.28 86.0909C349.681 84.0005 350.323 80.7599 349.724 80.2026C349.125 79.6454 348.483 82.8162 348.953 84.3493C349.424 85.8825 348.782 88.3566 349.724 88.4952C349.724 88.4943 350.88 88.1812 350.28 86.0909Z" fill="black"/>
<path d="M347.841 86.0909C347.241 84.0005 347.883 80.7599 347.284 80.2026C346.685 79.6454 346.043 82.8162 346.514 84.3493C346.984 85.8825 346.342 88.3566 347.284 88.4952C347.284 88.4943 348.44 88.1812 347.841 86.0909Z" fill="black"/>
<path d="M345.358 86.0909C344.758 84.0005 345.4 80.7599 344.801 80.2026C344.202 79.6454 343.56 82.8162 344.031 84.3493C344.501 85.8825 343.859 88.3566 344.801 88.4952C344.801 88.4943 345.957 88.1812 345.358 86.0909Z" fill="black"/>
<path d="M351.16 90.4031C351.16 90.4031 350.859 89.1956 348.859 89.8217C346.858 90.4478 343.756 89.777 343.222 90.4031C342.689 91.0292 345.723 91.7 347.191 91.2081C348.659 90.7161 351.026 91.387 351.16 90.4031Z" fill="black"/>
<path d="M351.16 92.9524C351.16 92.9524 350.859 91.7449 348.859 92.371C346.858 92.9971 343.756 92.3263 343.222 92.9524C342.689 93.5785 345.723 94.2494 347.191 93.7574C348.659 93.2655 351.026 93.9363 351.16 92.9524Z" fill="black"/>
<path d="M351.16 95.5466C351.16 95.5466 350.859 94.3391 348.859 94.9652C346.858 95.5914 343.756 94.9205 343.222 95.5466C342.689 96.1728 345.723 96.8436 347.191 96.3517C348.659 95.8597 351.026 96.5306 351.16 95.5466Z" fill="black"/>
<path d="M350.28 103.578C349.681 101.487 350.323 98.2467 349.724 97.6894C349.125 97.1322 348.483 100.303 348.953 101.836C349.424 103.369 348.782 105.843 349.724 105.983C349.724 105.981 350.88 105.668 350.28 103.578Z" fill="black"/>
<path d="M347.841 103.578C347.241 101.487 347.883 98.2467 347.284 97.6894C346.685 97.1322 346.043 100.303 346.514 101.836C346.984 103.369 346.342 105.843 347.284 105.983C347.284 105.981 348.44 105.668 347.841 103.578Z" fill="black"/>
<path d="M345.358 103.578C344.758 101.487 345.4 98.2467 344.801 97.6894C344.202 97.1322 343.56 100.303 344.031 101.836C344.501 103.369 343.859 105.843 344.801 105.983C344.801 105.981 345.957 105.668 345.358 103.578Z" fill="black"/>
<path d="M351.16 107.979C351.16 107.979 350.859 106.772 348.859 107.398C346.858 108.024 343.756 107.353 343.222 107.979C342.689 108.605 345.723 109.276 347.191 108.784C348.659 108.292 351.026 108.963 351.16 107.979Z" fill="black"/>
<path d="M351.16 110.529C351.16 110.529 350.859 109.321 348.859 109.947C346.858 110.573 343.756 109.902 343.222 110.529C342.689 111.155 345.723 111.826 347.191 111.334C348.659 110.842 351.026 111.513 351.16 110.529Z" fill="black"/>
<path d="M351.16 113.123C351.16 113.123 350.859 111.915 348.859 112.541C346.858 113.168 343.756 112.497 343.222 113.123C342.689 113.749 345.723 114.42 347.191 113.928C348.659 113.436 351.026 114.107 351.16 113.123Z" fill="black"/>
<path d="M350.28 121.154C349.681 119.063 350.323 115.823 349.724 115.266C349.125 114.708 348.483 117.879 348.953 119.412C349.424 120.945 348.782 123.42 349.724 123.559C349.724 123.557 350.88 123.244 350.28 121.154Z" fill="black"/>
<path d="M347.841 121.154C347.241 119.063 347.883 115.823 347.284 115.266C346.685 114.708 346.043 117.879 346.514 119.412C346.984 120.945 346.342 123.42 347.284 123.559C347.284 123.557 348.44 123.244 347.841 121.154Z" fill="black"/>
<path d="M345.358 121.154C344.758 119.063 345.4 115.823 344.801 115.266C344.202 114.708 343.56 117.879 344.031 119.412C344.501 120.945 343.859 123.42 344.801 123.559C344.801 123.557 345.957 123.244 345.358 121.154Z" fill="black"/>
<path d="M351.16 125.466C351.16 125.466 350.859 124.259 348.859 124.885C346.858 125.511 343.756 124.84 343.222 125.466C342.689 126.092 345.723 126.763 347.191 126.271C348.659 125.779 351.026 126.45 351.16 125.466Z" fill="black"/>
<path d="M351.16 128.015C351.16 128.015 350.859 126.808 348.859 127.434C346.858 128.06 343.756 127.389 343.222 128.015C342.689 128.642 345.723 129.312 347.191 128.82C348.659 128.328 351.026 128.999 351.16 128.015Z" fill="black"/>
<path d="M351.16 130.609C351.16 130.609 350.859 129.402 348.859 130.028C346.858 130.654 343.756 129.983 343.222 130.609C342.689 131.235 345.723 131.906 347.191 131.414C348.659 130.922 351.026 131.593 351.16 130.609Z" fill="black"/>
<path d="M350.281 138.641C349.681 136.55 350.324 133.31 349.724 132.752C349.125 132.195 348.483 135.366 348.954 136.899C349.425 138.432 348.782 140.906 349.724 141.046C349.724 141.044 350.88 140.731 350.281 138.641Z" fill="black"/>
<path d="M347.841 138.641C347.241 136.55 347.883 133.31 347.284 132.752C346.685 132.195 346.043 135.366 346.514 136.899C346.984 138.432 346.342 140.906 347.284 141.046C347.284 141.044 348.44 140.731 347.841 138.641Z" fill="black"/>
<path d="M345.358 138.641C344.758 136.55 345.4 133.31 344.801 132.752C344.202 132.195 343.56 135.366 344.031 136.899C344.501 138.432 343.859 140.906 344.801 141.046C344.801 141.044 345.957 140.731 345.358 138.641Z" fill="black"/>
<path d="M351.16 142.935C351.16 142.935 350.859 141.728 348.859 142.354C346.858 142.98 343.756 142.309 343.222 142.935C342.689 143.561 345.723 144.232 347.191 143.74C348.659 143.248 351.026 143.919 351.16 142.935Z" fill="black"/>
<path d="M351.16 145.484C351.16 145.484 350.859 144.277 348.859 144.903C346.858 145.529 343.756 144.858 343.222 145.484C342.689 146.11 345.723 146.781 347.191 146.289C348.659 145.797 351.026 146.468 351.16 145.484Z" fill="black"/>
<path d="M351.16 148.078C351.16 148.078 350.859 146.871 348.859 147.497C346.858 148.123 343.756 147.452 343.222 148.078C342.689 148.705 345.723 149.375 347.191 148.883C348.659 148.391 351.026 149.062 351.16 148.078Z" fill="black"/>
<path d="M350.281 156.109C349.681 154.019 350.324 150.778 349.724 150.221C349.125 149.664 348.483 152.835 348.954 154.368C349.425 155.901 348.782 158.375 349.724 158.515C349.724 158.513 350.88 158.2 350.281 156.109Z" fill="black"/>
<path d="M347.841 156.109C347.241 154.019 347.883 150.778 347.284 150.221C346.685 149.664 346.043 152.835 346.514 154.368C346.984 155.901 346.342 158.375 347.284 158.515C347.284 158.513 348.44 158.2 347.841 156.109Z" fill="black"/>
<path d="M345.358 156.109C344.758 154.019 345.4 150.778 344.801 150.221C344.202 149.664 343.56 152.835 344.031 154.368C344.501 155.901 343.859 158.375 344.801 158.515C344.801 158.513 345.957 158.2 345.358 156.109Z" fill="black"/>
<path d="M351.16 160.422C351.16 160.422 350.859 159.214 348.859 159.84C346.858 160.466 343.756 159.796 343.222 160.422C342.689 161.048 345.723 161.719 347.191 161.227C348.659 160.735 351.026 161.406 351.16 160.422Z" fill="black"/>
<path d="M351.16 162.971C351.16 162.971 350.859 161.763 348.859 162.39C346.858 163.016 343.756 162.345 343.222 162.971C342.689 163.597 345.723 164.268 347.191 163.776C348.659 163.284 351.026 163.955 351.16 162.971Z" fill="black"/>
<path d="M351.16 165.565C351.16 165.565 350.859 164.358 348.859 164.984C346.858 165.61 343.756 164.939 343.222 165.565C342.689 166.191 345.723 166.862 347.191 166.37C348.659 165.878 351.026 166.549 351.16 165.565Z" fill="black"/>
<path d="M348.954 171.854C349.425 173.387 348.782 175.861 349.724 176.001C349.724 176.001 350.88 175.687 350.281 173.596C349.681 171.506 350.324 168.265 349.724 167.708C349.125 167.151 348.483 170.321 348.954 171.854Z" fill="black"/>
<path d="M347.841 173.596C347.241 171.506 347.883 168.265 347.284 167.708C346.685 167.151 346.043 170.322 346.514 171.855C346.984 173.388 346.342 175.862 347.284 176.001C347.284 176 348.44 175.687 347.841 173.596Z" fill="black"/>
<path d="M345.358 173.596C344.758 171.506 345.4 168.265 344.801 167.708C344.202 167.151 343.56 170.322 344.031 171.855C344.501 173.388 343.859 175.862 344.801 176.001C344.801 176 345.957 175.687 345.358 173.596Z" fill="black"/>
</g>
<g opacity="0.6" clip-path="url(#clip4_770_13714)">
<path d="M351.16 177.248C351.16 177.248 350.859 176.04 348.859 176.666C346.858 177.293 343.756 176.622 343.222 177.248C342.689 177.874 345.723 178.545 347.191 178.053C348.659 177.561 351.026 178.232 351.16 177.248Z" fill="black"/>
<path d="M351.16 179.797C351.16 179.797 350.859 178.59 348.859 179.216C346.858 179.842 343.756 179.171 343.222 179.797C342.689 180.423 345.723 181.094 347.191 180.602C348.659 180.11 351.026 180.781 351.16 179.797Z" fill="black"/>
<path d="M351.16 182.391C351.16 182.391 350.859 181.183 348.859 181.809C346.858 182.436 343.756 181.765 343.222 182.391C342.689 183.017 345.723 183.688 347.191 183.196C348.659 182.704 351.026 183.375 351.16 182.391Z" fill="black"/>
<path d="M350.281 190.422C349.681 188.332 350.324 185.091 349.724 184.534C349.125 183.977 348.483 187.148 348.954 188.681C349.425 190.214 348.782 192.688 349.724 192.828C349.724 192.827 350.88 192.513 350.281 190.422Z" fill="black"/>
<path d="M347.841 190.422C347.241 188.332 347.883 185.091 347.284 184.534C346.685 183.977 346.043 187.148 346.514 188.681C346.984 190.214 346.342 192.688 347.284 192.828C347.284 192.827 348.44 192.513 347.841 190.422Z" fill="black"/>
<path d="M345.358 190.422C344.758 188.332 345.4 185.091 344.801 184.534C344.202 183.977 343.56 187.148 344.031 188.681C344.501 190.214 343.859 192.688 344.801 192.828C344.801 192.827 345.957 192.513 345.358 190.422Z" fill="black"/>
<path d="M351.16 194.824C351.16 194.824 350.859 193.616 348.859 194.243C346.858 194.869 343.756 194.198 343.222 194.824C342.689 195.45 345.723 196.121 347.191 195.629C348.659 195.137 351.026 195.808 351.16 194.824Z" fill="black"/>
<path d="M351.16 197.373C351.16 197.373 350.859 196.166 348.859 196.792C346.858 197.418 343.756 196.747 343.222 197.373C342.689 197.999 345.723 198.67 347.191 198.178C348.659 197.686 351.026 198.357 351.16 197.373Z" fill="black"/>
<path d="M351.16 199.967C351.16 199.967 350.859 198.76 348.859 199.386C346.858 200.012 343.756 199.341 343.222 199.967C342.689 200.593 345.723 201.264 347.191 200.772C348.659 200.28 351.026 200.951 351.16 199.967Z" fill="black"/>
<path d="M350.281 207.999C349.681 205.908 350.324 202.668 349.724 202.11C349.125 201.553 348.483 204.724 348.954 206.257C349.425 207.79 348.782 210.264 349.724 210.404C349.724 210.403 350.88 210.089 350.281 207.999Z" fill="black"/>
<path d="M347.841 207.999C347.241 205.908 347.883 202.668 347.284 202.11C346.685 201.553 346.043 204.724 346.514 206.257C346.984 207.79 346.342 210.264 347.284 210.404C347.284 210.403 348.44 210.089 347.841 207.999Z" fill="black"/>
<path d="M345.358 207.999C344.758 205.908 345.4 202.668 344.801 202.11C344.202 201.553 343.56 204.724 344.031 206.257C344.501 207.79 343.859 210.264 344.801 210.404C344.801 210.403 345.957 210.089 345.358 207.999Z" fill="black"/>
<path d="M351.16 212.311C351.16 212.311 350.859 211.103 348.859 211.729C346.858 212.356 343.756 211.685 343.222 212.311C342.689 212.937 345.723 213.608 347.191 213.116C348.659 212.624 351.026 213.295 351.16 212.311Z" fill="black"/>
<path d="M351.16 214.86C351.16 214.86 350.859 213.653 348.859 214.279C346.858 214.905 343.756 214.234 343.222 214.86C342.689 215.486 345.723 216.157 347.191 215.665C348.659 215.173 351.026 215.844 351.16 214.86Z" fill="black"/>
<path d="M351.16 217.454C351.16 217.454 350.859 216.246 348.859 216.872C346.858 217.499 343.756 216.828 343.222 217.454C342.689 218.08 345.723 218.751 347.191 218.259C348.659 217.767 351.026 218.438 351.16 217.454Z" fill="black"/>
<path d="M350.281 225.485C349.681 223.395 350.324 220.154 349.724 219.597C349.125 219.04 348.483 222.211 348.954 223.744C349.425 225.277 348.782 227.751 349.724 227.891C349.724 227.89 350.88 227.576 350.281 225.485Z" fill="black"/>
<path d="M347.841 225.485C347.241 223.395 347.883 220.154 347.284 219.597C346.685 219.04 346.043 222.211 346.514 223.744C346.984 225.277 346.342 227.751 347.284 227.891C347.284 227.89 348.44 227.576 347.841 225.485Z" fill="black"/>
<path d="M345.358 225.485C344.758 223.395 345.4 220.154 344.801 219.597C344.202 219.04 343.56 222.211 344.031 223.744C344.501 225.277 343.859 227.751 344.801 227.891C344.801 227.89 345.957 227.576 345.358 225.485Z" fill="black"/>
<path d="M351.16 229.916C351.16 229.916 350.859 228.709 348.859 229.335C346.858 229.961 343.756 229.29 343.222 229.916C342.689 230.542 345.723 231.213 347.191 230.721C348.659 230.229 351.026 230.9 351.16 229.916Z" fill="black"/>
<path d="M351.16 232.466C351.16 232.466 350.859 231.258 348.859 231.884C346.858 232.51 343.756 231.839 343.222 232.466C342.689 233.092 345.723 233.763 347.191 233.271C348.659 232.779 351.026 233.449 351.16 232.466Z" fill="black"/>
<path d="M351.16 235.06C351.16 235.06 350.859 233.852 348.859 234.478C346.858 235.105 343.756 234.434 343.222 235.06C342.689 235.686 345.723 236.357 347.191 235.865C348.659 235.373 351.026 236.044 351.16 235.06Z" fill="black"/>
<path d="M350.28 243.091C349.681 241.001 350.323 237.76 349.724 237.203C349.125 236.645 348.483 239.816 348.953 241.349C349.424 242.882 348.782 245.357 349.724 245.495C349.724 245.494 350.88 245.181 350.28 243.091Z" fill="black"/>
<path d="M347.841 243.091C347.241 241.001 347.883 237.76 347.284 237.203C346.685 236.645 346.043 239.816 346.514 241.349C346.984 242.882 346.342 245.357 347.284 245.495C347.284 245.494 348.44 245.181 347.841 243.091Z" fill="black"/>
<path d="M345.358 243.091C344.758 241.001 345.4 237.76 344.801 237.203C344.202 236.645 343.56 239.816 344.031 241.349C344.501 242.882 343.859 245.357 344.801 245.495C344.801 245.494 345.957 245.181 345.358 243.091Z" fill="black"/>
<path d="M351.16 247.403C351.16 247.403 350.859 246.196 348.859 246.822C346.858 247.448 343.756 246.777 343.222 247.403C342.689 248.029 345.723 248.7 347.191 248.208C348.659 247.716 351.026 248.387 351.16 247.403Z" fill="black"/>
<path d="M351.16 249.952C351.16 249.952 350.859 248.745 348.859 249.371C346.858 249.997 343.756 249.326 343.222 249.952C342.689 250.579 345.723 251.249 347.191 250.757C348.659 250.265 351.026 250.936 351.16 249.952Z" fill="black"/>
<path d="M351.16 252.547C351.16 252.547 350.859 251.339 348.859 251.965C346.858 252.591 343.756 251.921 343.222 252.547C342.689 253.173 345.723 253.844 347.191 253.352C348.659 252.86 351.026 253.531 351.16 252.547Z" fill="black"/>
</g>
<g opacity="0.6" clip-path="url(#clip5_770_13714)">
<path d="M168.921 255C168.921 255 167.714 255.301 168.34 257.301C168.966 259.302 168.295 262.404 168.921 262.937C169.547 263.471 170.218 260.437 169.726 258.969C169.234 257.501 169.905 255.134 168.921 255Z" fill="black"/>
<path d="M171.47 255C171.47 255 170.263 255.301 170.889 257.301C171.515 259.302 170.844 262.404 171.47 262.937C172.096 263.471 172.767 260.437 172.275 258.969C171.783 257.501 172.454 255.134 171.47 255Z" fill="black"/>
<path d="M174.064 255C174.064 255 172.857 255.301 173.483 257.301C174.109 259.302 173.438 262.404 174.064 262.937C174.69 263.471 175.361 260.437 174.869 258.969C174.377 257.501 175.048 255.134 174.064 255Z" fill="black"/>
<path d="M182.096 255.879C180.005 256.479 176.765 255.837 176.207 256.436C175.65 257.035 178.821 257.677 180.354 257.206C181.887 256.736 184.361 257.378 184.501 256.436C184.5 256.436 184.186 255.28 182.096 255.879Z" fill="black"/>
<path d="M182.096 258.319C180.005 258.919 176.765 258.277 176.207 258.876C175.65 259.475 178.821 260.117 180.354 259.646C181.887 259.176 184.361 259.818 184.501 258.876C184.5 258.876 184.186 257.72 182.096 258.319Z" fill="black"/>
<path d="M182.096 260.802C180.005 261.402 176.765 260.759 176.207 261.359C175.65 261.958 178.821 262.6 180.354 262.129C181.887 261.658 184.361 262.301 184.501 261.359C184.5 261.359 184.186 260.203 182.096 260.802Z" fill="black"/>
<path d="M186.408 255C186.408 255 185.2 255.301 185.826 257.301C186.453 259.302 185.782 262.404 186.408 262.937C187.034 263.471 187.705 260.437 187.213 258.969C186.721 257.501 187.392 255.134 186.408 255Z" fill="black"/>
<path d="M188.957 255C188.957 255 187.749 255.301 188.376 257.301C189.002 259.302 188.331 262.404 188.957 262.937C189.583 263.471 190.254 260.437 189.762 258.969C189.27 257.501 189.941 255.134 188.957 255Z" fill="black"/>
<path d="M191.551 255C191.551 255 190.343 255.301 190.97 257.301C191.596 259.302 190.925 262.404 191.551 262.937C192.177 263.471 192.848 260.437 192.356 258.969C191.864 257.501 192.535 255.134 191.551 255Z" fill="black"/>
<path d="M199.582 255.879C197.492 256.479 194.251 255.837 193.694 256.436C193.137 257.035 196.308 257.677 197.841 257.206C199.374 256.736 201.848 257.378 201.988 256.436C201.987 256.436 201.673 255.28 199.582 255.879Z" fill="black"/>
<path d="M199.582 258.319C197.492 258.919 194.251 258.277 193.694 258.876C193.137 259.475 196.308 260.117 197.841 259.646C199.374 259.176 201.848 259.818 201.988 258.876C201.987 258.876 201.673 257.72 199.582 258.319Z" fill="black"/>
<path d="M199.582 260.802C197.492 261.402 194.251 260.759 193.694 261.359C193.137 261.958 196.308 262.6 197.841 262.129C199.374 261.658 201.848 262.301 201.988 261.359C201.987 261.359 201.673 260.203 199.582 260.802Z" fill="black"/>
<path d="M203.984 255C203.984 255 202.777 255.301 203.403 257.301C204.029 259.302 203.358 262.404 203.984 262.937C204.61 263.471 205.281 260.437 204.789 258.969C204.297 257.501 204.968 255.134 203.984 255Z" fill="black"/>
<path d="M206.533 255C206.533 255 205.326 255.301 205.952 257.301C206.578 259.302 205.907 262.404 206.533 262.937C207.159 263.471 207.83 260.437 207.338 258.969C206.846 257.501 207.517 255.134 206.533 255Z" fill="black"/>
<path d="M209.127 255C209.127 255 207.92 255.301 208.546 257.301C209.172 259.302 208.501 262.404 209.127 262.937C209.753 263.471 210.424 260.437 209.932 258.969C209.44 257.501 210.111 255.134 209.127 255Z" fill="black"/>
<path d="M217.159 255.879C215.068 256.479 211.828 255.837 211.27 256.436C210.713 257.035 213.884 257.677 215.417 257.206C216.95 256.736 219.424 257.378 219.564 256.436C219.563 256.436 219.249 255.28 217.159 255.879Z" fill="black"/>
<path d="M217.159 258.319C215.068 258.919 211.828 258.277 211.27 258.876C210.713 259.475 213.884 260.117 215.417 259.646C216.95 259.176 219.424 259.818 219.564 258.876C219.563 258.876 219.249 257.72 217.159 258.319Z" fill="black"/>
<path d="M217.159 260.802C215.068 261.402 211.828 260.759 211.27 261.359C210.713 261.958 213.884 262.6 215.417 262.129C216.95 261.658 219.424 262.301 219.564 261.359C219.563 261.359 219.249 260.203 217.159 260.802Z" fill="black"/>
<path d="M221.471 255C221.471 255 220.263 255.301 220.889 257.301C221.515 259.302 220.845 262.404 221.471 262.937C222.097 263.471 222.768 260.437 222.276 258.969C221.784 257.501 222.455 255.134 221.471 255Z" fill="black"/>
<path d="M224.02 255C224.02 255 222.813 255.301 223.439 257.301C224.065 259.302 223.394 262.404 224.02 262.937C224.646 263.471 225.317 260.437 224.825 258.969C224.333 257.501 225.004 255.134 224.02 255Z" fill="black"/>
<path d="M226.614 255C226.614 255 225.406 255.301 226.033 257.301C226.659 259.302 225.988 262.404 226.614 262.937C227.24 263.471 227.911 260.437 227.419 258.969C226.927 257.501 227.598 255.134 226.614 255Z" fill="black"/>
<path d="M234.645 255.879C232.555 256.479 229.314 255.837 228.757 256.436C228.2 257.035 231.371 257.677 232.904 257.206C234.437 256.736 236.911 257.378 237.051 256.436C237.05 256.436 236.736 255.28 234.645 255.879Z" fill="black"/>
<path d="M234.645 258.319C232.555 258.919 229.314 258.277 228.757 258.876C228.2 259.475 231.371 260.117 232.904 259.646C234.437 259.176 236.911 259.818 237.051 258.876C237.05 258.876 236.736 257.72 234.645 258.319Z" fill="black"/>
<path d="M234.645 260.802C232.555 261.402 229.314 260.759 228.757 261.359C228.2 261.958 231.371 262.6 232.904 262.129C234.437 261.658 236.911 262.301 237.051 261.359C237.05 261.359 236.736 260.203 234.645 260.802Z" fill="black"/>
<path d="M239.077 255C239.077 255 237.869 255.301 238.495 257.301C239.121 259.302 238.45 262.404 239.077 262.937C239.703 263.471 240.374 260.437 239.882 258.969C239.39 257.501 240.06 255.134 239.077 255Z" fill="black"/>
<path d="M241.626 255C241.626 255 240.418 255.301 241.044 257.301C241.67 259.302 240.999 262.404 241.626 262.937C242.252 263.471 242.922 260.437 242.431 258.969C241.939 257.501 242.609 255.134 241.626 255Z" fill="black"/>
<path d="M244.22 255C244.22 255 243.012 255.301 243.638 257.301C244.264 259.302 243.594 262.404 244.22 262.937C244.846 263.471 245.517 260.437 245.025 258.969C244.533 257.501 245.204 255.134 244.22 255Z" fill="black"/>
<path d="M252.251 255.879C250.161 256.479 246.92 255.837 246.363 256.436C245.806 257.035 248.977 257.677 250.51 257.206C252.043 256.736 254.517 257.378 254.656 256.436C254.655 256.436 254.342 255.28 252.251 255.879Z" fill="black"/>
<path d="M252.251 258.319C250.161 258.919 246.92 258.277 246.363 258.876C245.806 259.475 248.976 260.117 250.51 259.646C252.043 259.176 254.517 259.818 254.655 258.876C254.654 258.876 254.341 257.72 252.251 258.319Z" fill="black"/>
<path d="M252.251 260.802C250.161 261.402 246.92 260.759 246.363 261.359C245.806 261.958 248.976 262.6 250.51 262.129C252.043 261.658 254.517 262.301 254.655 261.359C254.654 261.359 254.341 260.203 252.251 260.802Z" fill="black"/>
<path d="M256.563 255C256.563 255 255.356 255.301 255.982 257.301C256.608 259.302 255.937 262.404 256.563 262.937C257.189 263.471 257.86 260.437 257.368 258.969C256.876 257.501 257.547 255.134 256.563 255Z" fill="black"/>
<path d="M259.113 255C259.113 255 257.905 255.301 258.531 257.301C259.157 259.302 258.486 262.404 259.113 262.937C259.739 263.471 260.41 260.437 259.918 258.969C259.426 257.501 260.096 255.134 259.113 255Z" fill="black"/>
<path d="M261.707 255C261.707 255 260.499 255.301 261.125 257.301C261.751 259.302 261.08 262.404 261.707 262.937C262.333 263.471 263.004 260.437 262.512 258.969C262.02 257.501 262.69 255.134 261.707 255Z" fill="black"/>
<path d="M269.738 255.879C267.648 256.479 264.407 255.837 263.85 256.436C263.293 257.035 266.463 257.677 267.997 257.206C269.53 256.736 272.004 257.378 272.143 256.436C272.141 256.436 271.828 255.28 269.738 255.879Z" fill="black"/>
<path d="M269.738 258.319C267.648 258.919 264.407 258.277 263.85 258.876C263.293 259.475 266.463 260.117 267.997 259.646C269.53 259.176 272.004 259.818 272.143 258.876C272.141 258.876 271.828 257.72 269.738 258.319Z" fill="black"/>
<path d="M269.738 260.802C267.648 261.402 264.407 260.759 263.85 261.359C263.293 261.958 266.463 262.6 267.997 262.129C269.53 261.658 272.004 262.301 272.143 261.359C272.141 261.359 271.828 260.203 269.738 260.802Z" fill="black"/>
<path d="M274.139 255C274.139 255 272.932 255.301 273.558 257.301C274.184 259.302 273.513 262.404 274.139 262.937C274.766 263.471 275.436 260.437 274.944 258.969C274.452 257.501 275.123 255.134 274.139 255Z" fill="black"/>
<path d="M276.689 255C276.689 255 275.481 255.301 276.107 257.301C276.733 259.302 276.062 262.404 276.689 262.937C277.315 263.471 277.986 260.437 277.494 258.969C277.002 257.501 277.673 255.134 276.689 255Z" fill="black"/>
<path d="M279.283 255C279.283 255 278.075 255.301 278.701 257.301C279.327 259.302 278.656 262.404 279.283 262.937C279.909 263.471 280.58 260.437 280.088 258.969C279.596 257.501 280.267 255.134 279.283 255Z" fill="black"/>
<path d="M287.314 255.879C285.224 256.479 281.983 255.837 281.426 256.436C280.869 257.035 284.04 257.677 285.573 257.206C287.106 256.736 289.58 257.378 289.719 256.436C289.718 256.436 289.405 255.28 287.314 255.879Z" fill="black"/>
<path d="M287.314 258.319C285.224 258.919 281.983 258.277 281.426 258.876C280.869 259.475 284.039 260.117 285.572 259.646C287.106 259.176 289.58 259.818 289.719 258.876C289.717 258.876 289.404 257.72 287.314 258.319Z" fill="black"/>
<path d="M287.314 260.802C285.224 261.402 281.983 260.759 281.426 261.359C280.869 261.958 284.039 262.6 285.572 262.129C287.106 261.658 289.58 262.301 289.719 261.359C289.717 261.359 289.404 260.203 287.314 260.802Z" fill="black"/>
<path d="M291.626 255C291.626 255 290.419 255.301 291.045 257.301C291.671 259.302 291 262.404 291.626 262.937C292.253 263.471 292.923 260.437 292.431 258.969C291.94 257.501 292.61 255.134 291.626 255Z" fill="black"/>
<path d="M294.175 255C294.175 255 292.968 255.301 293.594 257.301C294.22 259.302 293.549 262.404 294.175 262.937C294.802 263.471 295.472 260.437 294.98 258.969C294.488 257.501 295.159 255.134 294.175 255Z" fill="black"/>
<path d="M296.769 255C296.769 255 295.562 255.301 296.188 257.301C296.814 259.302 296.143 262.404 296.769 262.937C297.396 263.471 298.066 260.437 297.574 258.969C297.082 257.501 297.753 255.134 296.769 255Z" fill="black"/>
<path d="M304.801 255.879C302.71 256.479 299.47 255.837 298.912 256.436C298.355 257.035 301.526 257.677 303.059 257.206C304.592 256.736 307.066 257.378 307.206 256.436C307.204 256.436 306.891 255.28 304.801 255.879Z" fill="black"/>
<path d="M304.801 258.319C302.71 258.919 299.47 258.277 298.913 258.876C298.355 259.475 301.526 260.117 303.059 259.646C304.592 259.176 307.067 259.818 307.206 258.876C307.204 258.876 306.891 257.72 304.801 258.319Z" fill="black"/>
<path d="M304.801 260.802C302.71 261.402 299.47 260.759 298.913 261.359C298.355 261.958 301.526 262.6 303.059 262.129C304.592 261.658 307.067 262.301 307.206 261.359C307.204 261.359 306.891 260.203 304.801 260.802Z" fill="black"/>
<path d="M309.095 255C309.095 255 307.888 255.301 308.514 257.301C309.14 259.302 308.469 262.404 309.095 262.937C309.721 263.471 310.392 260.437 309.9 258.969C309.408 257.501 310.079 255.134 309.095 255Z" fill="black"/>
<path d="M311.645 255C311.645 255 310.437 255.301 311.063 257.301C311.689 259.302 311.018 262.404 311.645 262.937C312.271 263.471 312.942 260.437 312.45 258.969C311.958 257.501 312.628 255.134 311.645 255Z" fill="black"/>
<path d="M314.238 255C314.238 255 313.031 255.301 313.657 257.301C314.283 259.302 313.612 262.404 314.238 262.937C314.864 263.471 315.535 260.437 315.043 258.969C314.551 257.501 315.222 255.134 314.238 255Z" fill="black"/>
<path d="M322.27 255.879C320.179 256.479 316.939 255.837 316.382 256.436C315.824 257.035 318.995 257.677 320.528 257.206C322.061 256.736 324.535 257.378 324.675 256.436C324.673 256.436 324.36 255.28 322.27 255.879Z" fill="black"/>
<path d="M322.27 258.319C320.179 258.919 316.939 258.277 316.381 258.876C315.824 259.475 318.995 260.117 320.528 259.646C322.061 259.176 324.535 259.818 324.675 258.876C324.673 258.876 324.36 257.72 322.27 258.319Z" fill="black"/>
<path d="M322.27 260.802C320.179 261.402 316.939 260.759 316.381 261.359C315.824 261.958 318.995 262.6 320.528 262.129C322.061 261.658 324.535 262.301 324.675 261.359C324.673 261.359 324.36 260.203 322.27 260.802Z" fill="black"/>
<path d="M326.582 255C326.582 255 325.374 255.301 326 257.301C326.627 259.302 325.956 262.404 326.582 262.937C327.208 263.471 327.879 260.437 327.387 258.969C326.895 257.501 327.566 255.134 326.582 255Z" fill="black"/>
<path d="M329.131 255C329.131 255 327.924 255.301 328.55 257.301C329.176 259.302 328.505 262.404 329.131 262.937C329.757 263.471 330.428 260.437 329.936 258.969C329.444 257.501 330.115 255.134 329.131 255Z" fill="black"/>
<path d="M331.725 255C331.725 255 330.518 255.301 331.144 257.301C331.77 259.302 331.099 262.404 331.725 262.937C332.351 263.471 333.022 260.437 332.53 258.969C332.038 257.501 332.709 255.134 331.725 255Z" fill="black"/>
<path d="M338.014 257.206C339.547 256.736 342.021 257.378 342.16 256.436C342.16 256.436 341.847 255.28 339.756 255.879C337.666 256.479 334.425 255.837 333.868 256.436C333.311 257.035 336.481 257.677 338.014 257.206Z" fill="black"/>
<path d="M339.757 258.319C337.666 258.919 334.426 258.277 333.868 258.876C333.311 259.475 336.482 260.117 338.015 259.646C339.548 259.176 342.022 259.818 342.162 258.876C342.16 258.876 341.847 257.72 339.757 258.319Z" fill="black"/>
<path d="M339.757 260.802C337.666 261.402 334.426 260.759 333.868 261.359C333.311 261.958 336.482 262.6 338.015 262.129C339.548 261.658 342.022 262.301 342.162 261.359C342.16 261.359 341.847 260.203 339.757 260.802Z" fill="black"/>
</g>
<path d="M344.921 255C344.921 255 343.714 255.301 344.34 257.301C344.966 259.302 344.295 262.404 344.921 262.937C345.548 263.471 346.218 260.437 345.726 258.969C345.234 257.501 345.905 255.134 344.921 255Z" fill="#5E5C5C"/>
<path d="M347.471 255C347.471 255 346.263 255.301 346.889 257.301C347.515 259.302 346.845 262.404 347.471 262.937C348.097 263.471 348.768 260.437 348.276 258.969C347.784 257.501 348.455 255.134 347.471 255Z" fill="#5E5C5C"/>
<path d="M350.064 255C350.064 255 348.857 255.301 349.483 257.301C350.109 259.302 349.438 262.404 350.064 262.937C350.691 263.471 351.361 260.437 350.869 258.969C350.378 257.501 351.048 255.134 350.064 255Z" fill="#5E5C5C"/>
<defs>
<clipPath id="clip0_770_13714">
<rect width="167" height="8" fill="white" transform="translate(0.159912 255)"/>
</clipPath>
<clipPath id="clip1_770_13714">
<rect width="174" height="8" fill="white" transform="translate(1.15991)"/>
</clipPath>
<clipPath id="clip2_770_13714">
<rect width="174" height="8" fill="white" transform="translate(177.16)"/>
</clipPath>
<clipPath id="clip3_770_13714">
<rect width="168" height="7.99999" fill="white" transform="translate(351.16 8) rotate(90)"/>
</clipPath>
<clipPath id="clip4_770_13714">
<rect width="78" height="8" fill="white" transform="translate(351.16 176) rotate(90)"/>
</clipPath>
<clipPath id="clip5_770_13714">
<rect width="174" height="8" fill="white" transform="translate(168.16 255)"/>
</clipPath>
</defs>
</svg>
