<?xml version="1.0" encoding="utf-8"?>
<!-- Generator: Adobe Illustrator 21.1.0, SVG Export Plug-In . SVG Version: 6.00 Build 0)  -->
<svg version="1.1" id="Layer_1" xmlns="http://www.w3.org/2000/svg" xmlns:xlink="http://www.w3.org/1999/xlink" x="0px" y="0px"
	 viewBox="0 0 148 211" style="enable-background:new 0 0 148 211;" xml:space="preserve">
<style type="text/css">
	.st0{fill:#FFFFFF;}
	.st1{fill:none;stroke:#FFFFFF;stroke-miterlimit:10;}
</style>
<path class="st0" d="M17.7,17.3c-0.1,0-0.1,0.1-0.1,0.1c0,0-0.1,0.1-0.1,0.1c-0.4,0.6,0.2,1.6,0.4,1.8c0.7,1.1,1.8,1.7,2.9,1.6
	c0.1,0,0.2-0.1,0.3-0.1c0.1-0.1,0.1-0.2,0.1-0.3c0.1-1.1-0.5-2.2-1.6-2.9C19.4,17.6,18.3,17,17.7,17.3z M19.5,19
	c0.2,0.2,0.5,0.5,0.6,0.9c0,0,0,0,0,0c0,0,0,0,0,0c-0.4-0.1-0.7-0.3-0.9-0.6c-0.3-0.3-0.5-0.7-0.6-1c0,0,0,0,0,0c0,0,0,0,0,0
	C18.8,18.4,19.2,18.6,19.5,19z"/>
<path class="st0" d="M21,16.9c0.8,0,1.5-0.3,1.9-0.5c0.2-0.1,0.3-0.5,0.2-0.7c-0.6-1-1.7-1.5-3-1.5c-0.2,0-1.4,0.1-1.7,0.7
	c-0.1,0.2-0.1,0.5,0.1,0.7C19.2,16.6,20.1,16.9,21,16.9z M20.7,15.3c0.3,0.1,0.7,0.2,1,0.5c-0.6,0.2-1.4,0.3-2.2-0.4
	C19.8,15.2,20.3,15.2,20.7,15.3z"/>
<path class="st0" d="M23.3,11.9c-0.8-0.8-2.1-1-3.3-0.5c-0.2,0.1-1.3,0.5-1.4,1.2c0,0.2,0.1,0.5,0.3,0.6c0.7,0.4,1.3,0.6,1.9,0.6
	c1.2,0,2.1-0.7,2.6-1.2C23.5,12.4,23.5,12.1,23.3,11.9z M19.9,12.6c0.3-0.2,0.6-0.3,1.1-0.4c0.3,0,0.7,0,1.1,0.1
	C21.6,12.6,20.8,13,19.9,12.6z"/>
<path class="st0" d="M29.2,5.9C29.2,5.9,29.1,5.9,29.2,5.9c0.5-1.2,0.6-2.6-0.5-3.7c-0.8-0.8-1.9-0.6-2.6,0
	c-0.4,0.4-0.6,0.9-0.6,1.4c0,0.4,0.1,1,0.7,1.6c0.2,0.2,0.5,0.2,0.7,0c0.2-0.2,0.2-0.5,0-0.7c-0.3-0.3-0.4-0.6-0.4-0.9
	c0-0.2,0.1-0.5,0.3-0.7c0.3-0.3,0.7-0.4,1.1,0c1,1,0.4,2.5-0.6,3.6c-0.8,0.7-1.7,1.2-2.7,1.3c-1.1,0.1-2.3-0.4-3.2-1.4
	c-0.2-0.2-0.5-0.2-0.7,0c-0.2,0.2-0.2,0.5,0,0.7c0.9,0.9,1.9,1.4,2.9,1.6c0,0,0,0,0,0c0.4,2.1,2.2,2.6,3.4,2.6c0.1,0,0.2,0,0.3,0
	c0.3,0,0.5-0.3,0.5-0.6c-0.1-1-0.6-1.8-1.5-2.4c0.6-0.2,1.1-0.6,1.6-1c0.7,0.7,1.5,1,2.3,1c0.8,0,1.6-0.3,2-0.6
	c0.2-0.2,0.3-0.5,0.2-0.7C31.6,6.3,30.5,5.8,29.2,5.9z M26.5,10.4c-0.6-0.1-1.4-0.4-1.8-1.3c0.3,0.1,0.7,0.2,1.1,0.5
	C26.1,9.8,26.4,10,26.5,10.4z M28.7,7C29,6.9,29.5,6.9,29.9,7c0.3,0,0.7,0.2,1,0.4C30.4,7.6,29.5,7.7,28.7,7z"/>
<path class="st0" d="M0.1,0v51.8h1.1V39.6l1.6-3.6c0-0.1,0-0.1,0-0.2c0-0.1,0-0.2-0.1-0.2c-0.1-0.1-0.2-0.2-0.4-0.3
	c-0.7-0.5-1.2-1-1.2-1.9V4.5l3.5,0l0-3.4h29.1c0.9,0,1.4,0.6,1.9,1.2c0.1,0.1,0.1,0.3,0.3,0.4c0.1,0,0.2,0.1,0.2,0.1
	c0.1,0,0.1,0,0.2,0l3.6-1.6h12.2V0H0.1z"/>
<path class="st0" d="M16.4,16.7l0.5,0l0-0.5c0-0.1,0.1-2.6-1.4-4.2s-4.1-1.4-4.2-1.4l-0.5,0l0,0.5c0,0.1-0.1,2.6,1.4,4.2
	C13.7,16.9,16.3,16.8,16.4,16.7z M12.9,14.6c-0.8-0.8-1.1-2.1-1.1-2.9c0.7,0,2,0.3,2.9,1.1c0.8,0.8,1.1,2.2,1.1,2.9
	C15.1,15.6,13.8,15.4,12.9,14.6z"/>
<path class="st0" d="M3.5,20.9c0.1,1.3,0.7,2.4,1.7,2.8c0.3,0.1,0.6,0,0.7-0.2c0.2-0.4,0.4-1,0.4-1.6c0-0.5-0.1-1.1-0.4-1.6
	c0.4-0.1,0.8-0.3,1.1-0.6c0.3-0.4,0.5-0.9,0.5-1.4c0,0,0,0,0,0c0.1-0.6,0.5-1.1,1-1.5c0.5-0.3,1.2-0.5,1.8-0.3
	c0.6,0.1,1.1,0.8,0.9,1.4c0,0.1-0.1,0.2-0.2,0.3c-0.1,0.1-0.2,0.1-0.3,0.1c0.2-0.1,0.3-0.2,0.3-0.4c0.1-0.3-0.1-0.6-0.4-0.6
	c-0.2,0-0.5,0-0.7,0.1c-0.2,0.1-0.3,0.3-0.4,0.6c-0.1,0.3,0,0.6,0.2,0.8c0.2,0.3,0.4,0.4,0.7,0.5c0.4,0.1,0.8,0,1.2-0.2
	c0.3-0.2,0.6-0.6,0.7-1c0-0.1,0-0.3,0-0.5c0-0.4-0.1-0.9-0.4-1.2c-0.3-0.5-0.8-0.8-1.4-1c-0.9-0.2-1.8,0-2.6,0.5
	c-0.4,0.3-0.7,0.6-1,1c-0.3-0.3-0.8-0.4-1.3-0.3c-0.3,0.1-0.5,0.2-0.7,0.5c-0.2,0.2-0.2,0.5-0.2,0.8c0.1,0.3,0.3,0.5,0.6,0.4
	c0.3-0.1,0.5-0.3,0.4-0.6c0,0,0-0.1,0.1-0.1c0.3-0.1,0.5,0.1,0.6,0.4c0.1,0.4,0,0.8-0.3,1.1c-0.1,0.1-0.3,0.3-0.5,0.3
	c-0.8,0-1.3-0.8-1.6-1.4c-0.4-0.9-0.7-2.2-0.7-3.6c0-2.6,0.8-5.4,2.6-6.3c-0.7,1.3-0.6,2.7,0.5,3.9c0.8,0.9,2.3,1,3.2,0.2
	c0.3-0.3,0.5-0.7,0.5-1.1c0,0,0-0.1,0-0.1c0-0.4-0.1-0.7-0.4-1C9.4,9.3,8.6,9.2,8.2,9.6C8,9.8,7.9,10,7.9,10.3
	c0,0.2,0.1,0.5,0.2,0.6c0.2,0.2,0.5,0.2,0.7,0C9,10.8,9,10.6,9,10.4c0.1,0.1,0.1,0.2,0.1,0.4c0,0.1-0.1,0.3-0.2,0.3
	c-0.5,0.4-1.3,0.4-1.7-0.1c-0.9-1-0.8-2.3,0.2-3.4c0.1-0.1,0.1-0.1,0.1-0.2c0.1,0,0.1-0.1,0.2-0.1c1.1-1.1,2.4-1.1,3.4-0.2
	c0.5,0.4,0.6,1.2,0.1,1.7C11.2,8.9,11.1,9,10.9,9c-0.1,0-0.3,0-0.4-0.1c0.2,0,0.4,0,0.5-0.2c0.2-0.2,0.2-0.5,0-0.7
	c-0.2-0.2-0.4-0.2-0.6-0.2c-0.2,0-0.5,0.1-0.6,0.3C9.3,8.5,9.4,9.2,9.9,9.7c0.3,0.3,0.7,0.4,1,0.4c0,0,0.1,0,0.1,0
	c0.4,0,0.8-0.2,1.1-0.5c0.8-0.9,0.7-2.4-0.2-3.2c-1.1-1-2.6-1.1-3.9-0.5c0.9-1.8,3.7-2.6,6.3-2.6c1.4,0,2.7,0.2,3.7,0.7
	c0.6,0.3,1.4,0.8,1.4,1.6c0,0.3-0.2,0.4-0.3,0.5c-0.3,0.2-0.7,0.3-1.1,0.3c-0.3-0.1-0.4-0.3-0.4-0.6c0,0,0-0.1,0.1-0.1
	c0.3,0.1,0.6-0.1,0.6-0.4c0.1-0.3-0.1-0.6-0.4-0.6c-0.3-0.1-0.6,0-0.8,0.2c-0.3,0.2-0.4,0.4-0.5,0.7c-0.1,0.5,0,0.9,0.3,1.3
	c-0.4,0.3-0.7,0.6-1,1c-0.5,0.8-0.7,1.7-0.5,2.5c0.1,0.6,0.5,1.1,1,1.4c0.4,0.2,0.8,0.4,1.2,0.4c0.1,0,0.3,0,0.5,0
	c0.4-0.1,0.8-0.3,1-0.7c0.2-0.3,0.3-0.8,0.2-1.2C19.2,10,19,9.8,18.8,9.6c-0.3-0.2-0.6-0.2-0.9-0.2c-0.2,0-0.4,0.2-0.6,0.4
	c-0.1,0.2-0.2,0.4-0.1,0.7c0.1,0.3,0.3,0.5,0.6,0.4c0.2,0,0.3-0.2,0.4-0.3c0,0.1,0,0.2-0.1,0.3c-0.1,0.1-0.2,0.2-0.3,0.2
	c-0.6,0.1-1.3-0.3-1.4-0.9c-0.1-0.6,0-1.2,0.3-1.8c0.3-0.5,0.9-0.9,1.5-1c0,0,0,0,0,0c0.5,0,1-0.2,1.4-0.5c0.4-0.3,0.6-0.7,0.6-1.1
	c0.5,0.3,1.1,0.4,1.6,0.4c0.7,0,1.2-0.2,1.6-0.4c0.3-0.1,0.4-0.4,0.2-0.7c-0.5-1-1.5-1.7-2.9-1.7c-0.2,0-1,0-1.5,0.3
	c-1.1-1-3.3-1.5-5.3-1.5c-3.5,0-7.2,1.4-7.6,4.4c-3,0.4-4.4,4.1-4.4,7.6c0,2,0.5,4.1,1.5,5.2C3.5,19.9,3.5,20.7,3.5,20.9z M4.6,20.3
	c0.8,0.7,0.7,1.6,0.6,2.1c-0.3-0.3-0.5-0.7-0.5-0.9C4.6,21,4.6,20.6,4.6,20.3z M21.6,4.6c0.3,0.1,0.7,0.2,1,0.5
	c-0.6,0.1-1.4,0.1-2.1-0.6C20.7,4.5,21.2,4.5,21.6,4.6z"/>
<path class="st0" d="M15.7,18.2c-0.2-0.2-0.5-0.2-0.7-0.1c-0.6,0.3-0.7,1.5-0.7,1.7c0,1.3,0.5,2.4,1.5,3c0.2,0.1,0.6,0.1,0.7-0.2
	c0.3-0.4,0.5-1.1,0.5-1.9C17,20,16.7,19,15.7,18.2z M15.8,21.6c-0.3-0.3-0.4-0.7-0.5-1c-0.1-0.5,0-0.9,0-1.2
	C16.1,20.2,16,21,15.8,21.6z"/>
<path class="st0" d="M11.5,19.8c-0.4,1.2-0.3,2.5,0.5,3.3c0.2,0.2,0.5,0.2,0.7,0c0.5-0.5,1.2-1.4,1.2-2.6c0-0.6-0.2-1.2-0.6-1.9
	c-0.1-0.2-0.4-0.3-0.6-0.3C12,18.5,11.5,19.6,11.5,19.8z M12.3,20.8c0.1-0.5,0.2-0.9,0.4-1.1c0.4,0.9,0.1,1.7-0.3,2.2
	C12.3,21.5,12.3,21.1,12.3,20.8z"/>
<path class="st0" d="M6,28.9C6,28.9,6,29,6,28.9c-0.1,1.4,0.4,2.5,1.4,3.1c0.2,0.1,0.6,0.1,0.7-0.2c0.3-0.4,0.6-1.2,0.6-2
	c0-0.7-0.3-1.6-1-2.3c0.4-0.5,0.8-1,1-1.6c0.6,0.9,1.4,1.5,2.4,1.5c0.3,0,0.5-0.2,0.6-0.5c0-0.1,0-0.2,0-0.3c0-1.1-0.5-2.9-2.7-3.3
	c0,0,0,0,0,0c-0.2-1-0.7-2-1.6-2.9c-0.2-0.2-0.5-0.2-0.7,0c-0.2,0.2-0.2,0.5,0,0.7c1,1,1.5,2.1,1.4,3.2c-0.1,1-0.5,1.9-1.3,2.7
	c-1.1,1-2.6,1.6-3.6,0.6c-0.4-0.4-0.3-0.8,0-1.1c0.2-0.2,0.4-0.3,0.7-0.3c0.3,0,0.6,0.1,0.9,0.4c0.2,0.2,0.5,0.2,0.7,0
	c0.2-0.2,0.2-0.5,0-0.7c-0.6-0.6-1.2-0.7-1.6-0.7c-0.5,0-1,0.2-1.4,0.6c-0.6,0.6-0.8,1.7,0,2.6C3.3,29.6,4.7,29.5,6,28.9z
	 M10.5,26.3c-0.4-0.2-0.7-0.5-0.8-0.7c-0.3-0.4-0.4-0.8-0.5-1.1C10.1,24.9,10.4,25.8,10.5,26.3z M7.1,28.5c0.7,0.8,0.6,1.6,0.4,2.2
	c-0.3-0.3-0.4-0.7-0.4-1C7,29.2,7,28.8,7.1,28.5z"/>
<path class="st0" d="M130.6,17.7c0-0.1-0.1-0.1-0.1-0.1c0,0-0.1-0.1-0.1-0.1c-0.6-0.4-1.6,0.2-1.8,0.4c-1.1,0.7-1.7,1.8-1.6,2.9
	c0,0.1,0.1,0.2,0.1,0.3c0.1,0.1,0.2,0.1,0.3,0.1c1.1,0.1,2.2-0.5,2.9-1.6C130.4,19.3,131,18.3,130.6,17.7z M129,19.5
	c-0.2,0.2-0.5,0.5-0.9,0.6c0,0,0,0,0,0c0,0,0,0,0,0c0.1-0.4,0.3-0.7,0.6-0.9c0.3-0.3,0.7-0.5,1-0.6c0,0,0,0,0,0c0,0,0,0,0,0
	C129.5,18.8,129.3,19.1,129,19.5z"/>
<path class="st0" d="M131.1,20.9c0,0.8,0.3,1.5,0.5,1.9c0.1,0.2,0.5,0.3,0.7,0.2c1-0.6,1.6-1.7,1.5-3c0-0.2-0.1-1.4-0.7-1.7
	c-0.2-0.1-0.5-0.1-0.7,0.1C131.4,19.1,131.1,20.1,131.1,20.9z M132.7,20.7c-0.1,0.3-0.2,0.7-0.5,1c-0.2-0.6-0.3-1.4,0.4-2.2
	C132.8,19.8,132.8,20.2,132.7,20.7z"/>
<path class="st0" d="M136.1,23.2c0.8-0.8,1-2.1,0.5-3.3c-0.1-0.2-0.5-1.3-1.2-1.4c-0.2,0-0.5,0.1-0.6,0.3c-0.4,0.7-0.6,1.3-0.6,1.9
	c0,1.2,0.7,2.1,1.2,2.6C135.6,23.5,135.9,23.4,136.1,23.2z M135.4,19.8c0.2,0.2,0.3,0.6,0.4,1.1c0,0.3,0,0.7-0.1,1.1
	C135.3,21.5,135,20.8,135.4,19.8z"/>
<path class="st0" d="M142.1,29.1C142.1,29.1,142.1,29.1,142.1,29.1c1.2,0.5,2.6,0.6,3.7-0.5c0.9-0.8,0.6-1.9,0-2.6
	c-0.4-0.4-0.9-0.6-1.4-0.6c-0.4,0-1,0.1-1.6,0.7c-0.2,0.2-0.2,0.5,0,0.7c0.2,0.2,0.5,0.2,0.7,0c0.3-0.3,0.6-0.4,0.9-0.4
	c0.2,0,0.5,0.1,0.7,0.3c0.3,0.3,0.4,0.7,0,1.1c-1,1-2.5,0.4-3.6-0.6c-0.8-0.8-1.2-1.7-1.3-2.7c-0.1-1.1,0.4-2.3,1.4-3.2
	c0.2-0.2,0.2-0.5,0-0.7c-0.2-0.2-0.5-0.2-0.7,0c-0.9,0.9-1.4,1.9-1.6,2.9c0,0,0,0,0,0c-2.1,0.4-2.7,2.2-2.7,3.4c0,0.1,0,0.2,0,0.3
	c0,0.3,0.3,0.5,0.6,0.5c1-0.1,1.8-0.6,2.4-1.5c0.2,0.6,0.6,1.1,1,1.6c-0.7,0.7-1,1.5-1,2.3c0,0.8,0.3,1.5,0.6,2
	c0.2,0.2,0.5,0.3,0.7,0.2C141.7,31.5,142.2,30.4,142.1,29.1z M137.6,26.5c0.1-0.6,0.4-1.4,1.3-1.8c-0.1,0.3-0.2,0.7-0.5,1.1
	C138.2,26,138,26.3,137.6,26.5z M141,28.7c0.1,0.3,0.1,0.7,0.1,1.2c0,0.3-0.2,0.7-0.4,1C140.4,30.3,140.3,29.4,141,28.7z"/>
<path class="st0" d="M148,0.1H96v1.1h12.3l3.6,1.6c0.1,0,0.1,0,0.2,0c0.1,0,0.2,0,0.2-0.1c0.1-0.1,0.2-0.2,0.3-0.4
	c0.5-0.7,1-1.2,1.9-1.2h29l0,3.4l3.4,0v29c0,0.9-0.6,1.4-1.2,1.9c-0.1,0.1-0.3,0.1-0.4,0.3c0,0.1-0.1,0.2-0.1,0.2c0,0.1,0,0.1,0,0.2
	l1.6,3.6v12.1h1.1V0.1z"/>
<path class="st0" d="M131.2,16.4l0,0.5l0.5,0c0.1,0,2.6,0.1,4.2-1.4c1.5-1.5,1.4-4.1,1.4-4.2l0-0.5l-0.5,0c-0.1,0-2.6-0.1-4.2,1.4
	C131.1,13.7,131.2,16.2,131.2,16.4z M133.4,12.9c0.8-0.8,2.1-1,2.9-1.1c0,0.7-0.3,2-1.1,2.9c-0.8,0.8-2.2,1.1-2.9,1.1
	C132.3,15.1,132.5,13.8,133.4,12.9z"/>
<path class="st0" d="M127.1,3.5c-1.3,0.1-2.4,0.7-2.8,1.7c-0.1,0.3,0,0.6,0.2,0.7c0.4,0.2,1,0.4,1.6,0.4c0.5,0,1.1-0.1,1.6-0.4
	c0.1,0.4,0.3,0.8,0.6,1.1c0.4,0.3,0.9,0.5,1.4,0.5c0,0,0,0,0,0c0.6,0.1,1.1,0.5,1.5,1c0.3,0.5,0.5,1.1,0.3,1.8
	c-0.1,0.6-0.8,1.1-1.4,0.9c-0.1,0-0.2-0.1-0.3-0.2c-0.1-0.1-0.1-0.2-0.1-0.3c0.1,0.2,0.2,0.3,0.4,0.3c0.3,0.1,0.6-0.1,0.6-0.4
	c0-0.2,0-0.5-0.1-0.7c-0.1-0.2-0.3-0.3-0.6-0.4c-0.3-0.1-0.6,0-0.9,0.2c-0.3,0.2-0.4,0.4-0.5,0.7c-0.1,0.4,0,0.8,0.2,1.2
	c0.2,0.3,0.6,0.6,1,0.7c0.1,0,0.3,0,0.5,0c0.4,0,0.9-0.1,1.2-0.4c0.5-0.3,0.8-0.8,1-1.4c0.2-0.9,0-1.8-0.5-2.6c-0.3-0.4-0.6-0.7-1-1
	c0.3-0.3,0.4-0.8,0.3-1.3c-0.1-0.3-0.2-0.5-0.5-0.7c-0.2-0.2-0.5-0.2-0.8-0.2c-0.3,0.1-0.5,0.3-0.4,0.6c0.1,0.3,0.3,0.5,0.6,0.4
	c0,0,0.1,0,0.1,0.1c0.1,0.3-0.1,0.5-0.4,0.6c-0.4,0.1-0.8,0-1.1-0.3c-0.1-0.1-0.3-0.3-0.3-0.5c0-0.8,0.8-1.3,1.4-1.6
	c0.9-0.4,2.2-0.7,3.7-0.7c2.6,0,5.4,0.8,6.3,2.6c-1.3-0.7-2.7-0.5-3.9,0.5c-0.9,0.8-1,2.3-0.2,3.2c0.3,0.3,0.7,0.5,1.1,0.5
	c0,0,0.1,0,0.1,0c0.4,0,0.7-0.1,1-0.4c0.5-0.4,0.5-1.1,0.1-1.6c-0.2-0.2-0.4-0.3-0.6-0.3c-0.2,0-0.5,0.1-0.6,0.2
	c-0.2,0.2-0.2,0.5,0,0.7c0.1,0.1,0.3,0.2,0.5,0.2c-0.1,0.1-0.2,0.1-0.4,0.1c-0.1,0-0.3-0.1-0.4-0.2c-0.4-0.5-0.4-1.3,0.1-1.7
	c1-0.9,2.3-0.8,3.4,0.2c0.1,0.1,0.1,0.1,0.2,0.1c0,0.1,0.1,0.1,0.1,0.2c1.1,1.1,1.2,2.4,0.2,3.4c-0.4,0.5-1.2,0.5-1.7,0.1
	c-0.1-0.1-0.2-0.2-0.2-0.4c0-0.1,0-0.3,0.1-0.4c0,0.2,0,0.4,0.2,0.5c0.2,0.2,0.5,0.2,0.7,0c0.2-0.2,0.2-0.4,0.2-0.6
	c0-0.2-0.1-0.5-0.3-0.6c-0.5-0.4-1.2-0.4-1.6,0.1c-0.3,0.3-0.4,0.7-0.4,1c0,0,0,0.1,0,0.1c0,0.4,0.2,0.8,0.5,1.1
	c0.9,0.8,2.4,0.7,3.2-0.2c1-1.1,1.2-2.6,0.5-3.9c1.8,0.9,2.6,3.6,2.6,6.3c0,1.4-0.2,2.7-0.7,3.6c-0.3,0.6-0.8,1.4-1.6,1.4
	c-0.3,0-0.4-0.2-0.5-0.3c-0.2-0.3-0.3-0.7-0.3-1.1c0.1-0.3,0.3-0.4,0.6-0.4c0,0,0.1,0,0.1,0.1c-0.1,0.3,0.1,0.6,0.4,0.6
	c0.3,0.1,0.6-0.1,0.6-0.4c0.1-0.3,0-0.6-0.2-0.8c-0.2-0.2-0.4-0.4-0.7-0.5c-0.5-0.1-0.9,0-1.3,0.3c-0.3-0.4-0.6-0.7-1-1
	c-0.8-0.5-1.7-0.7-2.6-0.5c-0.6,0.1-1.1,0.5-1.4,1c-0.2,0.4-0.4,0.8-0.4,1.2c0,0.1,0,0.3,0,0.5c0.1,0.4,0.3,0.8,0.7,1
	c0.3,0.2,0.8,0.3,1.2,0.2c0.3-0.1,0.5-0.2,0.7-0.5c0.2-0.3,0.2-0.6,0.2-0.8c0-0.2-0.2-0.4-0.4-0.6c-0.2-0.1-0.4-0.2-0.7-0.1
	c-0.3,0.1-0.5,0.3-0.4,0.6c0,0.2,0.2,0.3,0.3,0.4c-0.1,0-0.2,0-0.3-0.1c-0.1-0.1-0.2-0.2-0.2-0.3c-0.1-0.6,0.3-1.3,0.9-1.4
	c0.6-0.1,1.2,0,1.8,0.3c0.5,0.3,0.9,0.9,1,1.5c0,0,0,0,0,0c0,0.5,0.2,1,0.5,1.4c0.3,0.4,0.7,0.6,1.1,0.6c-0.3,0.5-0.4,1.1-0.4,1.6
	c0,0.7,0.2,1.2,0.4,1.6c0.1,0.3,0.4,0.4,0.7,0.2c1-0.5,1.7-1.5,1.7-2.8c0-0.2,0-1-0.3-1.5c1.1-1.1,1.5-3.2,1.5-5.3
	c0-3.5-1.4-7.2-4.4-7.6c-0.4-3-4.1-4.4-7.6-4.4c-2,0-4.1,0.5-5.3,1.5C128.1,3.5,127.3,3.5,127.1,3.5z M127.7,4.6
	c-0.7,0.8-1.6,0.7-2.1,0.6c0.3-0.3,0.7-0.5,1-0.5C126.9,4.6,127.4,4.6,127.7,4.6z M143.4,21.6c-0.1,0.3-0.2,0.7-0.5,0.9
	c-0.1-0.6-0.1-1.4,0.6-2.1C143.5,20.7,143.5,21.1,143.4,21.6z"/>
<path class="st0" d="M129.7,15.7c0.2-0.2,0.2-0.5,0.1-0.7c-0.3-0.6-1.5-0.7-1.7-0.7c-1.3,0-2.4,0.5-3,1.5c-0.1,0.2-0.1,0.6,0.2,0.7
	c0.4,0.3,1.1,0.5,1.9,0.5C128,17,128.9,16.7,129.7,15.7z M126.4,15.8c0.3-0.3,0.7-0.4,1-0.5c0.5-0.1,0.9,0,1.2,0
	C127.8,16.1,126.9,16,126.4,15.8z"/>
<path class="st0" d="M128.1,11.4c-1.2-0.4-2.5-0.3-3.3,0.5c-0.2,0.2-0.2,0.5,0,0.7c0.5,0.5,1.4,1.2,2.6,1.2c0.6,0,1.2-0.2,1.9-0.6
	c0.2-0.1,0.3-0.4,0.3-0.6C129.4,12,128.3,11.5,128.1,11.4z M127.1,12.3c0.5,0.1,0.9,0.2,1.1,0.4c-0.9,0.4-1.7,0.1-2.2-0.3
	C126.4,12.2,126.8,12.2,127.1,12.3z"/>
<path class="st0" d="M119,6C119,6,118.9,6,119,6c-1.4-0.1-2.5,0.4-3.1,1.4c-0.1,0.2-0.1,0.6,0.2,0.7c0.4,0.3,1.2,0.6,2,0.6
	c0.7,0,1.6-0.3,2.3-1c0.5,0.4,1,0.8,1.6,1c-0.9,0.6-1.5,1.4-1.5,2.4c0,0.3,0.2,0.5,0.5,0.6c0.1,0,0.2,0,0.3,0c1.1,0,2.9-0.5,3.4-2.7
	c0,0,0,0,0,0c1-0.2,2-0.7,2.9-1.6c0.2-0.2,0.2-0.5,0-0.7c-0.2-0.2-0.5-0.2-0.7,0c-1,1-2.1,1.4-3.2,1.4c-1-0.1-1.9-0.5-2.7-1.3
	c-1-1-1.6-2.6-0.6-3.6c0.4-0.4,0.8-0.3,1.1,0c0.2,0.2,0.3,0.4,0.3,0.7c0,0.3-0.1,0.6-0.4,0.9c-0.2,0.2-0.2,0.5,0,0.7
	c0.2,0.2,0.5,0.2,0.7,0c0.6-0.6,0.7-1.2,0.7-1.6c0-0.5-0.2-1-0.6-1.4c-0.6-0.6-1.7-0.8-2.6,0C118.4,3.3,118.4,4.7,119,6z
	 M121.6,10.5c0.2-0.4,0.5-0.7,0.7-0.8c0.4-0.3,0.8-0.4,1.1-0.5C123,10.1,122.2,10.4,121.6,10.5z M119.4,7.1
	c-0.8,0.7-1.6,0.5-2.2,0.4c0.3-0.3,0.7-0.4,1-0.4C118.7,7,119.1,7,119.4,7.1z"/>
<path class="st0" d="M130.3,193.5c0.1,0,0.1-0.1,0.1-0.1c0,0,0.1-0.1,0.1-0.1c0.4-0.6-0.2-1.6-0.4-1.8c-0.7-1.1-1.8-1.7-2.9-1.6
	c-0.1,0-0.2,0.1-0.3,0.1c-0.1,0.1-0.1,0.2-0.1,0.3c-0.1,1.1,0.5,2.2,1.6,2.9C128.7,193.3,129.7,193.9,130.3,193.5z M128.5,191.9
	c-0.2-0.2-0.5-0.5-0.6-0.9c0,0,0,0,0,0c0,0,0,0,0,0c0.4,0.1,0.7,0.3,0.9,0.6c0.3,0.3,0.5,0.7,0.6,1c0,0,0,0,0,0c0,0,0,0,0,0
	C129.3,192.4,128.9,192.2,128.5,191.9z"/>
<path class="st0" d="M127.1,194c-0.8,0-1.5,0.3-1.9,0.5c-0.2,0.1-0.3,0.5-0.2,0.7c0.6,1,1.7,1.5,3,1.5c0.2,0,1.4-0.1,1.7-0.7
	c0.1-0.2,0.1-0.5-0.1-0.7C128.9,194.3,128,194,127.1,194z M127.3,195.6c-0.3-0.1-0.7-0.2-1-0.5c0.6-0.2,1.4-0.3,2.2,0.4
	C128.2,195.6,127.8,195.7,127.3,195.6z"/>
<path class="st0" d="M124.8,199c0.8,0.8,2.1,1,3.3,0.5c0.2-0.1,1.3-0.5,1.4-1.2c0-0.2-0.1-0.5-0.3-0.6c-0.7-0.4-1.3-0.6-1.9-0.6
	c-1.2,0-2.1,0.7-2.6,1.2C124.5,198.5,124.6,198.8,124.8,199z M128.2,198.3c-0.2,0.2-0.6,0.3-1.1,0.4c-0.3,0-0.7,0-1.1-0.1
	C126.5,198.2,127.3,197.9,128.2,198.3z"/>
<path class="st0" d="M118.9,205C118.9,205,118.9,205,118.9,205c-0.5,1.2-0.6,2.6,0.5,3.7c0.8,0.8,1.9,0.6,2.6,0
	c0.4-0.4,0.6-0.9,0.6-1.4c0-0.4-0.1-1-0.7-1.6c-0.2-0.2-0.5-0.2-0.7,0c-0.2,0.2-0.2,0.5,0,0.7c0.3,0.3,0.4,0.6,0.4,0.9
	c0,0.2-0.1,0.5-0.3,0.7c-0.3,0.3-0.7,0.4-1.1,0c-1-1-0.4-2.5,0.6-3.6c0.8-0.8,1.7-1.2,2.7-1.3c1.1-0.1,2.3,0.4,3.2,1.4
	c0.2,0.2,0.5,0.2,0.7,0c0.2-0.2,0.2-0.5,0-0.7c-0.9-0.9-1.9-1.4-2.9-1.6c0,0,0,0,0,0c-0.4-2.1-2.2-2.6-3.4-2.6c-0.1,0-0.2,0-0.3,0
	c-0.3,0-0.5,0.3-0.5,0.6c0.1,1,0.6,1.8,1.5,2.4c-0.6,0.2-1.1,0.6-1.6,1c-0.7-0.7-1.5-1-2.3-1c-0.8,0-1.6,0.3-2,0.6
	c-0.2,0.2-0.3,0.5-0.2,0.7C116.4,204.5,117.6,205.1,118.9,205z M121.5,200.4c0.6,0.1,1.4,0.4,1.8,1.3c-0.3-0.1-0.7-0.2-1.1-0.5
	C122,201.1,121.7,200.8,121.5,200.4z M119.3,203.8c-0.3,0.1-0.7,0.1-1.2,0.1c-0.3,0-0.7-0.2-1-0.4
	C117.7,203.3,118.5,203.2,119.3,203.8z"/>
<path class="st0" d="M148,210.8V159h-1.1v12.2l-1.6,3.6c0,0.1,0,0.1,0,0.2c0,0.1,0,0.2,0.1,0.2c0.1,0.1,0.2,0.2,0.4,0.3
	c0.7,0.5,1.2,1,1.2,1.9v28.9l-3.5,0l0,3.4h-29.1c-0.9,0-1.4-0.6-1.9-1.2c-0.1-0.1-0.1-0.3-0.3-0.4c-0.1,0-0.2-0.1-0.2-0.1
	c-0.1,0-0.1,0-0.2,0l-3.6,1.6H96v1H148z"/>
<path class="st0" d="M131.7,194.1l-0.5,0l0,0.5c0,0.1-0.1,2.6,1.4,4.2c1.5,1.5,4.1,1.4,4.2,1.4l0.5,0l0-0.5c0-0.1,0.1-2.6-1.4-4.2
	C134.3,194,131.8,194.1,131.7,194.1z M135.1,196.2c0.8,0.8,1.1,2.1,1.1,2.9c-0.7,0-2-0.3-2.9-1.1c-0.8-0.8-1.1-2.2-1.1-2.9
	C133,195.2,134.3,195.4,135.1,196.2z"/>
<path class="st0" d="M144.5,190c-0.1-1.3-0.7-2.4-1.7-2.8c-0.3-0.1-0.6,0-0.7,0.2c-0.2,0.4-0.4,1-0.4,1.6c0,0.5,0.1,1.1,0.4,1.6
	c-0.4,0.1-0.8,0.3-1.1,0.6c-0.3,0.4-0.5,0.9-0.5,1.4c0,0,0,0,0,0c-0.1,0.6-0.5,1.1-1,1.5c-0.5,0.3-1.2,0.5-1.8,0.3
	c-0.6-0.1-1.1-0.8-0.9-1.4c0-0.1,0.1-0.2,0.2-0.3c0.1-0.1,0.2-0.1,0.3-0.1c-0.2,0.1-0.3,0.2-0.3,0.4c-0.1,0.3,0.1,0.6,0.4,0.6
	c0.2,0,0.5,0,0.7-0.1c0.2-0.1,0.3-0.3,0.4-0.6c0.1-0.3,0-0.6-0.2-0.8c-0.2-0.3-0.4-0.4-0.7-0.5c-0.4-0.1-0.8,0-1.2,0.2
	c-0.3,0.2-0.6,0.6-0.7,1c0,0.1,0,0.3,0,0.4c0,0.4,0.1,0.9,0.4,1.2c0.3,0.5,0.8,0.8,1.4,1c0.9,0.2,1.8,0,2.6-0.5c0.4-0.3,0.7-0.6,1-1
	c0.3,0.3,0.8,0.4,1.3,0.3c0.3-0.1,0.5-0.2,0.7-0.5c0.2-0.2,0.2-0.5,0.2-0.8c-0.1-0.3-0.3-0.5-0.6-0.4c-0.3,0.1-0.5,0.3-0.4,0.6
	c0,0,0,0.1-0.1,0.1c-0.3,0.1-0.5-0.1-0.6-0.4c-0.1-0.4,0-0.8,0.3-1.1c0.1-0.1,0.3-0.3,0.5-0.3c0.8,0,1.3,0.8,1.6,1.4
	c0.4,0.9,0.7,2.2,0.7,3.6c0,2.6-0.8,5.4-2.6,6.3c0.7-1.3,0.6-2.7-0.5-3.9c-0.8-0.9-2.3-1-3.2-0.2c-0.3,0.3-0.5,0.7-0.5,1.1
	c0,0,0,0.1,0,0.1c0,0.4,0.1,0.7,0.4,1c0.4,0.5,1.1,0.5,1.6,0.1c0.2-0.2,0.3-0.4,0.3-0.6c0-0.2-0.1-0.5-0.2-0.6
	c-0.2-0.2-0.5-0.2-0.7,0c-0.1,0.1-0.2,0.3-0.2,0.5c-0.1-0.1-0.1-0.2-0.1-0.4c0-0.1,0.1-0.3,0.2-0.3c0.5-0.4,1.3-0.4,1.7,0.1
	c0.9,1,0.8,2.3-0.2,3.4c-0.1,0.1-0.1,0.1-0.1,0.2c-0.1,0-0.1,0.1-0.2,0.1c-1.1,1.1-2.4,1.1-3.4,0.2c-0.5-0.4-0.6-1.2-0.1-1.7
	c0.1-0.1,0.2-0.2,0.4-0.2c0.1,0,0.3,0,0.4,0.1c-0.2,0-0.4,0-0.5,0.2c-0.2,0.2-0.2,0.5,0,0.7c0.2,0.2,0.4,0.2,0.6,0.2
	c0.2,0,0.5-0.1,0.6-0.3c0.4-0.5,0.4-1.2-0.1-1.6c-0.3-0.3-0.7-0.4-1-0.4c0,0-0.1,0-0.1,0c-0.4,0-0.8,0.2-1.1,0.5
	c-0.8,0.9-0.7,2.4,0.2,3.2c1.1,1,2.6,1.1,3.9,0.5c-0.9,1.8-3.7,2.6-6.3,2.6c-1.4,0-2.7-0.2-3.7-0.7c-0.6-0.3-1.4-0.8-1.4-1.6
	c0-0.3,0.2-0.4,0.3-0.5c0.3-0.2,0.7-0.3,1.1-0.3c0.3,0.1,0.4,0.3,0.4,0.6c0,0,0,0.1-0.1,0.1c-0.3-0.1-0.6,0.1-0.6,0.4
	c-0.1,0.3,0.1,0.6,0.4,0.6c0.3,0.1,0.6,0,0.8-0.2c0.2-0.2,0.4-0.4,0.5-0.7c0.1-0.5,0-0.9-0.3-1.3c0.4-0.3,0.7-0.6,1-1
	c0.5-0.8,0.7-1.7,0.5-2.5c-0.1-0.6-0.5-1.1-1-1.4c-0.4-0.2-0.8-0.4-1.2-0.4c-0.1,0-0.3,0-0.5,0c-0.4,0.1-0.8,0.3-1,0.7
	c-0.2,0.3-0.3,0.8-0.2,1.2c0.1,0.3,0.2,0.5,0.5,0.7c0.3,0.2,0.6,0.2,0.9,0.2c0.2,0,0.4-0.2,0.6-0.4c0.1-0.2,0.2-0.4,0.1-0.7
	c-0.1-0.3-0.3-0.5-0.6-0.4c-0.2,0-0.3,0.2-0.4,0.3c0-0.1,0-0.2,0.1-0.3c0.1-0.1,0.2-0.2,0.3-0.2c0.6-0.1,1.3,0.3,1.4,0.9
	c0.1,0.6,0,1.2-0.3,1.8c-0.3,0.5-0.9,0.9-1.5,1c0,0,0,0,0,0c-0.5,0-1,0.2-1.4,0.5c-0.4,0.3-0.6,0.7-0.6,1.1
	c-0.5-0.3-1.1-0.4-1.6-0.4c-0.7,0-1.2,0.2-1.6,0.4c-0.3,0.1-0.4,0.4-0.2,0.7c0.5,1,1.5,1.7,2.9,1.7c0.2,0,1,0,1.5-0.3
	c1.1,1,3.3,1.5,5.3,1.5c3.5,0,7.2-1.4,7.6-4.4c3-0.4,4.4-4.1,4.4-7.5c0-2-0.5-4.1-1.5-5.2C144.5,191,144.5,190.2,144.5,190z
	 M143.4,190.6c-0.8-0.7-0.7-1.6-0.6-2.1c0.3,0.3,0.5,0.7,0.5,0.9C143.5,189.8,143.5,190.3,143.4,190.6z M126.4,206.2
	c-0.3-0.1-0.7-0.2-1-0.5c0.6-0.1,1.4-0.1,2.1,0.6C127.3,206.3,126.9,206.4,126.4,206.2z"/>
<path class="st0" d="M132.4,192.6c0.2,0.2,0.5,0.2,0.7,0.1c0.6-0.3,0.7-1.5,0.7-1.7c0-1.3-0.5-2.4-1.5-3c-0.2-0.1-0.6-0.1-0.7,0.2
	c-0.3,0.4-0.5,1.1-0.5,1.9C131.1,190.9,131.4,191.8,132.4,192.6z M132.2,189.3c0.3,0.3,0.4,0.7,0.5,1c0.1,0.5,0,0.9,0,1.2
	C132,190.7,132,189.8,132.2,189.3z"/>
<path class="st0" d="M136.6,191c0.4-1.2,0.3-2.5-0.5-3.3c-0.2-0.2-0.5-0.2-0.7,0c-0.5,0.5-1.2,1.4-1.2,2.6c0,0.6,0.2,1.2,0.6,1.9
	c0.1,0.2,0.4,0.3,0.6,0.3C136.1,192.3,136.5,191.2,136.6,191z M135.8,190c-0.1,0.5-0.2,0.9-0.4,1.1c-0.4-0.9-0.1-1.7,0.3-2.2
	C135.8,189.3,135.8,189.7,135.8,190z"/>
<path class="st0" d="M142.1,181.9C142.1,181.9,142.1,181.9,142.1,181.9c0.1-1.4-0.4-2.5-1.4-3.1c-0.2-0.1-0.6-0.1-0.7,0.2
	c-0.3,0.4-0.6,1.2-0.6,2c0,0.7,0.3,1.6,1,2.3c-0.4,0.5-0.8,1-1,1.6c-0.6-0.9-1.4-1.5-2.4-1.5c-0.3,0-0.5,0.2-0.6,0.5
	c0,0.1,0,0.2,0,0.3c0,1.1,0.5,2.9,2.7,3.3c0,0,0,0,0,0c0.2,1,0.7,2,1.6,2.9c0.2,0.2,0.5,0.2,0.7,0c0.2-0.2,0.2-0.5,0-0.7
	c-1-1-1.5-2.1-1.4-3.2c0.1-1,0.5-1.9,1.3-2.7c1.1-1,2.6-1.6,3.6-0.6c0.4,0.4,0.3,0.8,0,1.1c-0.2,0.2-0.4,0.3-0.7,0.3
	c-0.3,0-0.6-0.1-0.9-0.4c-0.2-0.2-0.5-0.2-0.7,0c-0.2,0.2-0.2,0.5,0,0.7c0.6,0.6,1.2,0.7,1.6,0.7c0.5,0,1-0.2,1.4-0.6
	c0.6-0.6,0.8-1.7,0-2.6C144.7,181.3,143.3,181.3,142.1,181.9z M137.5,184.5c0.4,0.2,0.7,0.5,0.8,0.7c0.3,0.4,0.4,0.8,0.5,1.1
	C137.9,185.9,137.6,185.1,137.5,184.5z M141,182.3c-0.7-0.8-0.6-1.6-0.4-2.2c0.3,0.3,0.4,0.7,0.4,1C141.1,181.6,141,182,141,182.3z"
	/>
<path class="st0" d="M17.4,193.3c0,0.1,0.1,0.1,0.1,0.1c0,0,0.1,0.1,0.1,0.1c0.6,0.4,1.6-0.2,1.8-0.4c1.1-0.7,1.7-1.8,1.6-2.9
	c0-0.1-0.1-0.2-0.1-0.3c-0.1-0.1-0.2-0.1-0.3-0.1c-1.1-0.1-2.2,0.5-2.9,1.6C17.6,191.7,17,192.7,17.4,193.3z M19,191.5
	c0.2-0.2,0.5-0.5,0.9-0.6c0,0,0,0,0,0c0,0,0,0,0,0c-0.1,0.4-0.4,0.7-0.6,0.9c-0.3,0.3-0.7,0.5-1,0.6c0,0,0,0,0,0c0,0,0,0,0,0
	C18.5,192.3,18.7,191.9,19,191.5z"/>
<path class="st0" d="M16.9,190.1c0-0.8-0.3-1.5-0.5-1.9c-0.1-0.2-0.5-0.3-0.7-0.2c-1,0.6-1.6,1.7-1.5,3c0,0.2,0.1,1.4,0.7,1.7
	c0.2,0.1,0.5,0.1,0.7-0.1C16.6,191.9,16.9,191,16.9,190.1z M15.3,190.3c0.1-0.3,0.2-0.7,0.5-1c0.2,0.6,0.3,1.4-0.4,2.2
	C15.2,191.2,15.2,190.8,15.3,190.3z"/>
<path class="st0" d="M11.9,187.8c-0.8,0.8-1,2.1-0.5,3.3c0.1,0.2,0.5,1.3,1.2,1.4c0.2,0,0.5-0.1,0.6-0.3c0.4-0.7,0.6-1.3,0.6-1.9
	c0-1.2-0.7-2.1-1.2-2.6C12.4,187.6,12.1,187.6,11.9,187.8z M12.6,191.2c-0.2-0.2-0.3-0.6-0.4-1.1c0-0.3,0-0.7,0.1-1.1
	C12.7,189.5,13,190.3,12.6,191.2z"/>
<path class="st0" d="M5.9,181.9C5.9,181.9,5.9,182,5.9,181.9c-1.2-0.5-2.6-0.6-3.7,0.5c-0.8,0.8-0.6,1.9,0,2.6
	c0.4,0.4,0.9,0.6,1.4,0.6c0.4,0,1-0.1,1.6-0.7c0.2-0.2,0.2-0.5,0-0.7c-0.2-0.2-0.5-0.2-0.7,0c-0.3,0.3-0.6,0.4-0.9,0.4
	c-0.2,0-0.5-0.1-0.7-0.3c-0.3-0.3-0.4-0.7,0-1.1c1-1,2.5-0.4,3.6,0.6c0.8,0.8,1.2,1.7,1.3,2.7c0.1,1.1-0.4,2.3-1.4,3.2
	c-0.2,0.2-0.2,0.5,0,0.7c0.2,0.2,0.5,0.2,0.7,0c0.9-0.9,1.4-1.9,1.6-2.9c0,0,0,0,0,0c2.1-0.4,2.7-2.2,2.7-3.4c0-0.1,0-0.2,0-0.3
	c0-0.3-0.3-0.5-0.6-0.5c-1,0.1-1.8,0.6-2.4,1.5c-0.2-0.6-0.6-1.1-1-1.6c0.7-0.7,1-1.5,1-2.3c0-0.8-0.3-1.5-0.6-2
	c-0.2-0.2-0.5-0.3-0.7-0.2C6.3,179.5,5.8,180.6,5.9,181.9z M10.4,184.6c-0.1,0.6-0.4,1.4-1.3,1.8c0.1-0.3,0.2-0.7,0.5-1.1
	C9.8,185,10,184.7,10.4,184.6z M7,182.4c-0.1-0.3-0.1-0.7-0.1-1.2c0-0.3,0.2-0.7,0.4-1C7.6,180.7,7.7,181.6,7,182.4z"/>
<path class="st0" d="M0,210.9h52v-1.1H39.7l-3.6-1.6c-0.1,0-0.1,0-0.2,0c-0.1,0-0.2,0-0.2,0.1c-0.1,0.1-0.2,0.2-0.3,0.4
	c-0.5,0.7-1,1.2-1.9,1.2h-29l0-3.4l-3.4,0v-29c0-0.9,0.6-1.4,1.2-1.9c0.1-0.1,0.3-0.1,0.4-0.3c0-0.1,0.1-0.2,0.1-0.2
	c0-0.1,0-0.1,0-0.2l-1.6-3.6v-12.1H0V210.9z"/>
<path class="st0" d="M16.8,194.7l0-0.5l-0.5,0c-0.1,0-2.6-0.1-4.2,1.4c-1.5,1.5-1.4,4.1-1.4,4.2l0,0.5l0.5,0c0.1,0,2.6,0.1,4.2-1.4
	C16.9,197.3,16.8,194.8,16.8,194.7z M14.6,198.1c-0.8,0.8-2.1,1-2.9,1.1c0-0.7,0.3-2,1.1-2.9c0.8-0.8,2.2-1.1,2.9-1.1
	C15.7,195.9,15.5,197.3,14.6,198.1z"/>
<path class="st0" d="M20.9,207.5c1.3-0.1,2.4-0.7,2.8-1.7c0.1-0.3,0-0.6-0.2-0.7c-0.4-0.2-1-0.4-1.6-0.4c-0.5,0-1.1,0.1-1.6,0.4
	c-0.1-0.4-0.3-0.8-0.6-1.1c-0.4-0.3-0.9-0.5-1.4-0.5c0,0,0,0,0,0c-0.6-0.1-1.1-0.5-1.5-1c-0.3-0.5-0.5-1.1-0.3-1.8
	c0.1-0.6,0.8-1.1,1.4-0.9c0.1,0,0.2,0.1,0.3,0.2c0.1,0.1,0.1,0.2,0.1,0.3c-0.1-0.2-0.2-0.3-0.4-0.3c-0.3-0.1-0.6,0.1-0.6,0.4
	c0,0.2,0,0.5,0.1,0.7c0.1,0.2,0.3,0.3,0.6,0.4c0.3,0.1,0.6,0,0.9-0.2c0.3-0.2,0.4-0.4,0.5-0.7c0.1-0.4,0-0.8-0.2-1.2
	c-0.2-0.3-0.6-0.6-1-0.7c-0.1,0-0.3,0-0.5,0c-0.4,0-0.9,0.1-1.2,0.4c-0.5,0.3-0.8,0.8-1,1.4c-0.2,0.9,0,1.8,0.5,2.6
	c0.3,0.4,0.6,0.7,1,1c-0.3,0.3-0.4,0.8-0.3,1.3c0.1,0.3,0.2,0.5,0.5,0.7c0.2,0.2,0.5,0.2,0.8,0.2c0.3-0.1,0.5-0.3,0.4-0.6
	c-0.1-0.3-0.3-0.5-0.6-0.4c0,0-0.1,0-0.1-0.1c-0.1-0.3,0.1-0.5,0.4-0.6c0.4-0.1,0.8,0,1.1,0.3c0.1,0.1,0.3,0.3,0.3,0.5
	c0,0.8-0.8,1.3-1.4,1.6c-0.9,0.4-2.2,0.7-3.7,0.7c-2.6,0-5.4-0.8-6.3-2.6c1.3,0.7,2.7,0.5,3.9-0.5c0.9-0.8,1-2.3,0.2-3.2
	c-0.3-0.3-0.7-0.5-1.1-0.5c0,0-0.1,0-0.1,0c-0.4,0-0.7,0.1-1,0.4c-0.5,0.4-0.5,1.1-0.1,1.6c0.2,0.2,0.4,0.3,0.6,0.3
	c0.2,0,0.5-0.1,0.6-0.2c0.2-0.2,0.2-0.5,0-0.7c-0.1-0.1-0.3-0.2-0.5-0.2c0.1-0.1,0.2-0.1,0.4-0.1c0.1,0,0.3,0.1,0.4,0.2
	c0.4,0.5,0.4,1.3-0.1,1.7c-1,0.9-2.3,0.8-3.4-0.2c-0.1-0.1-0.1-0.1-0.2-0.1c0-0.1-0.1-0.1-0.1-0.2c-1.1-1.1-1.2-2.4-0.2-3.4
	c0.4-0.5,1.2-0.5,1.7-0.1C9,199.9,9,200,9,200.1c0,0.1,0,0.3-0.1,0.4c0-0.2,0-0.4-0.2-0.5c-0.2-0.2-0.5-0.2-0.7,0
	c-0.2,0.2-0.2,0.4-0.2,0.6c0,0.2,0.1,0.5,0.3,0.6c0.5,0.4,1.2,0.4,1.6-0.1c0.3-0.3,0.4-0.6,0.4-1c0,0,0-0.1,0-0.1
	c0-0.4-0.2-0.8-0.5-1.1c-0.9-0.8-2.4-0.7-3.2,0.2c-1,1.1-1.2,2.6-0.5,3.9c-1.8-0.9-2.6-3.6-2.6-6.3c0-1.4,0.2-2.7,0.7-3.6
	c0.3-0.6,0.8-1.4,1.6-1.4c0.3,0,0.4,0.2,0.5,0.3c0.2,0.3,0.3,0.7,0.3,1.1c-0.1,0.3-0.3,0.4-0.6,0.4c0,0-0.1,0-0.1-0.1
	c0.1-0.3-0.1-0.6-0.4-0.6c-0.3-0.1-0.6,0.1-0.6,0.4c-0.1,0.3,0,0.6,0.2,0.8c0.2,0.2,0.4,0.4,0.7,0.5c0.5,0.1,0.9,0,1.3-0.3
	c0.3,0.4,0.6,0.7,1,1c0.8,0.5,1.7,0.7,2.6,0.5c0.6-0.1,1.1-0.5,1.4-1c0.2-0.4,0.4-0.8,0.4-1.2c0-0.1,0-0.3,0-0.5
	c-0.1-0.4-0.3-0.8-0.7-1c-0.3-0.2-0.8-0.3-1.2-0.2c-0.3,0.1-0.5,0.2-0.7,0.5c-0.2,0.3-0.2,0.6-0.2,0.8c0,0.2,0.2,0.4,0.4,0.6
	c0.2,0.1,0.4,0.2,0.7,0.1c0.3-0.1,0.5-0.3,0.4-0.6c0-0.2-0.2-0.3-0.3-0.4c0.1,0,0.2,0,0.3,0.1c0.1,0.1,0.2,0.2,0.2,0.3
	c0.1,0.6-0.3,1.3-0.9,1.4c-0.6,0.1-1.2,0-1.8-0.3c-0.5-0.3-0.9-0.9-1-1.5c0,0,0,0,0,0c0-0.5-0.2-1-0.5-1.4c-0.3-0.4-0.7-0.6-1.1-0.6
	c0.3-0.5,0.4-1.1,0.4-1.6c0-0.6-0.2-1.2-0.4-1.6c-0.1-0.3-0.4-0.4-0.7-0.2c-1,0.5-1.7,1.5-1.7,2.8c0,0.2,0,1,0.3,1.5
	c-1.1,1.1-1.5,3.2-1.5,5.3c0,3.5,1.4,7.2,4.4,7.6c0.4,3,4.1,4.4,7.6,4.4c2,0,4.1-0.5,5.3-1.5C19.9,207.5,20.7,207.5,20.9,207.5z
	 M20.3,206.4c0.7-0.8,1.6-0.7,2.1-0.6c-0.3,0.3-0.7,0.5-1,0.5C21,206.4,20.6,206.4,20.3,206.4z M4.6,189.4c0.1-0.3,0.2-0.7,0.5-0.9
	c0.1,0.6,0.1,1.4-0.6,2.1C4.5,190.3,4.5,189.9,4.6,189.4z"/>
<path class="st0" d="M18.3,195.4c-0.2,0.2-0.2,0.5-0.1,0.7c0.3,0.6,1.5,0.7,1.7,0.7c1.3,0,2.4-0.5,3-1.5c0.1-0.2,0.1-0.6-0.2-0.7
	c-0.4-0.3-1.1-0.5-1.9-0.5C20,194,19.1,194.4,18.3,195.4z M21.6,195.2c-0.3,0.3-0.7,0.4-1,0.5c-0.5,0.1-0.9,0-1.2,0
	C20.2,194.9,21.1,195,21.6,195.2z"/>
<path class="st0" d="M19.9,199.6c1.2,0.4,2.5,0.3,3.3-0.5c0.2-0.2,0.2-0.5,0-0.7c-0.5-0.5-1.4-1.2-2.6-1.2c-0.6,0-1.2,0.2-1.9,0.6
	c-0.2,0.1-0.3,0.4-0.3,0.6C18.6,199.1,19.7,199.5,19.9,199.6z M20.9,198.7c-0.5-0.1-0.9-0.2-1.1-0.4c0.9-0.4,1.7-0.1,2.2,0.3
	C21.6,198.8,21.2,198.8,20.9,198.7z"/>
<path class="st0" d="M29,205C29,205,29.1,205.1,29,205c1.4,0.1,2.5-0.4,3.1-1.4c0.1-0.2,0.1-0.6-0.2-0.7c-0.4-0.3-1.2-0.6-2-0.6
	c-0.7,0-1.6,0.3-2.3,1c-0.5-0.4-1-0.8-1.6-1c0.9-0.6,1.5-1.4,1.5-2.4c0-0.3-0.2-0.5-0.5-0.6c-0.1,0-0.2,0-0.3,0
	c-1.1,0-2.9,0.5-3.4,2.7c0,0,0,0,0,0c-1,0.2-2,0.7-2.9,1.6c-0.2,0.2-0.2,0.5,0,0.7c0.2,0.2,0.5,0.2,0.7,0c1-1,2.1-1.4,3.2-1.4
	c1,0.1,1.9,0.5,2.7,1.3c1,1,1.6,2.6,0.6,3.6c-0.4,0.4-0.8,0.3-1.1,0c-0.2-0.2-0.3-0.4-0.3-0.7c0-0.3,0.1-0.6,0.4-0.9
	c0.2-0.2,0.2-0.5,0-0.7c-0.2-0.2-0.5-0.2-0.7,0c-0.6,0.6-0.7,1.2-0.7,1.6c0,0.5,0.2,1,0.6,1.4c0.6,0.6,1.7,0.8,2.6,0
	C29.6,207.7,29.6,206.3,29,205z M26.4,200.5c-0.2,0.4-0.5,0.7-0.7,0.8c-0.4,0.3-0.8,0.4-1.1,0.5C25,200.9,25.8,200.6,26.4,200.5z
	 M28.6,203.9c0.8-0.7,1.6-0.5,2.2-0.4c-0.3,0.3-0.7,0.4-1,0.4C29.3,204.1,28.9,204,28.6,203.9z"/>
<path class="st1" d="M0.5,51v108.5"/>
<path class="st1" d="M147.5,51v109"/>
<path class="st1" d="M120.9,0.7L30.4,0.6"/>
<path class="st1" d="M120.9,210.2l-90.5-0.1"/>
</svg>
