<svg width="39" height="33" viewBox="0 0 39 33" fill="none" xmlns="http://www.w3.org/2000/svg">
<path d="M20.1809 16.2434C20.1682 16.2899 20.1618 16.3347 20.1617 16.3812C20.1594 16.4259 20.1677 16.4724 20.1801 16.5189C20.329 17.0303 21.3405 17.2534 21.5432 17.2941C22.6592 17.5134 23.7119 17.2587 24.3602 16.6076C24.4294 16.5377 24.4632 16.4553 24.4697 16.3712C24.4637 16.2871 24.4305 16.2049 24.3617 16.1353C23.7196 15.489 22.6664 15.2374 21.549 15.4618C21.346 15.5035 20.3331 15.7313 20.1809 16.2434ZM22.3247 16.1722C22.5945 16.1698 22.9373 16.2083 23.2568 16.3633C23.2484 16.3669 23.24 16.3705 23.2317 16.3741C23.24 16.3776 23.2484 16.3812 23.2567 16.3847C22.9384 16.5429 22.5932 16.5813 22.3255 16.5819C21.9051 16.5811 21.5437 16.4871 21.3097 16.3982C21.3223 16.391 21.3348 16.3874 21.3474 16.3802C21.3349 16.3731 21.3224 16.3695 21.3098 16.3624C21.5423 16.267 21.9064 16.1732 22.3247 16.1722Z" fill="white"/>
<path d="M21.9107 14.2853C22.3846 13.8798 22.6559 13.3763 22.7617 13.0146C22.8209 12.807 22.6793 12.5997 22.439 12.5412C21.4819 12.3144 20.4437 12.6067 19.6593 13.3278C19.5167 13.457 18.8224 14.1296 19.0299 14.6265C19.1046 14.8053 19.2799 14.9266 19.5015 14.9511C20.5949 15.072 21.3822 14.741 21.9107 14.2853ZM20.767 13.5435C20.9891 13.4142 21.3011 13.2793 21.6672 13.2587C21.4296 13.6476 20.947 14.1533 20.0414 14.1858C20.1779 13.9976 20.4192 13.7448 20.767 13.5435Z" fill="white"/>
<path d="M20.2517 10.3868C19.2561 10.4249 18.3739 10.9798 17.888 11.8702C17.7997 12.0315 17.3809 12.8537 17.7581 13.2698C17.8936 13.418 18.1046 13.4873 18.3243 13.4528C19.0064 13.3438 19.509 13.0957 19.8718 12.7853C20.6015 12.161 20.7737 11.2784 20.7294 10.7525C20.7092 10.5378 20.5005 10.3772 20.2517 10.3868ZM18.5633 12.5808C18.6247 12.3677 18.7636 12.0632 19.0197 11.7799C19.1834 11.597 19.4329 11.3907 19.772 11.2718C19.6849 11.6997 19.4091 12.3105 18.5633 12.5808Z" fill="white"/>
<path d="M20.2006 4.08489C20.188 4.09566 20.1712 4.11359 20.1544 4.13152C19.7707 3.15007 18.9261 2.38798 17.6421 2.39096C16.5922 2.39339 16.04 3.08356 16.0358 3.76531C16.0345 4.16254 16.2111 4.5361 16.5323 4.81449C16.7826 5.03221 17.2355 5.29061 17.9842 5.28887C18.2394 5.28828 18.447 5.11066 18.4455 4.89415C18.4462 4.67585 18.2398 4.49919 17.9867 4.50156C17.6479 4.50235 17.3742 4.41889 17.1907 4.26185C17.0426 4.13157 16.9575 3.95105 16.958 3.76496C16.9589 3.49656 17.1376 3.18301 17.6396 3.18185C18.8441 3.17906 19.47 4.30667 19.4665 5.41964C19.464 6.21768 19.1416 6.98963 18.5815 7.53667C17.9165 8.18774 16.9262 8.53179 15.7175 8.53459C15.4623 8.53519 15.2547 8.71281 15.2561 8.92931C15.2555 9.14761 15.4619 9.32428 15.715 9.3219C16.8108 9.31936 17.7694 9.07737 18.5341 8.61932C18.5383 8.62289 18.5425 8.62646 18.5487 8.62823C20.1374 9.51385 21.5867 8.84128 22.2787 8.2492C22.3458 8.19179 22.4066 8.1326 22.4611 8.07879C22.6206 7.9138 22.5963 7.67051 22.4085 7.53138C21.7701 7.05332 20.8881 6.90148 19.9799 7.08968C20.1966 6.66511 20.3319 6.20315 20.3732 5.71814C21.2828 5.73214 21.9488 5.43357 22.4164 5.03346C22.9218 4.60107 23.1933 4.05112 23.2865 3.6644C23.3374 3.45672 23.1854 3.25131 22.9429 3.20177C21.9774 3.01076 20.9516 3.33879 20.2006 4.08489ZM21.3575 7.89884C20.9489 8.16282 20.2579 8.44355 19.4286 8.1395C19.6444 8.01911 19.9899 7.88053 20.4041 7.8259C20.6678 7.7895 21.0149 7.78511 21.3575 7.89884ZM20.6245 4.92847C20.7506 4.73493 20.9815 4.47673 21.3188 4.26302C21.5347 4.12474 21.8425 3.98267 22.2065 3.94604C21.9878 4.34378 21.5282 4.86554 20.6245 4.92847Z" fill="white"/>
<path d="M19.0001 16.6469L19.2749 16.3833L19.0017 16.1209C18.9392 16.0602 17.4421 14.6537 15.5286 14.6599C13.6151 14.6661 12.1132 16.0832 12.0524 16.1423L11.786 16.3988L12.0508 16.6541C12.1133 16.7148 13.6041 18.1231 15.5176 18.1205C17.4312 18.1178 18.9372 16.7043 19.0001 16.6469ZM15.5222 17.3314C14.4787 17.332 13.5415 16.7526 13.0679 16.3977C13.5438 16.0405 14.4825 15.455 15.5282 15.4526C16.5759 15.4483 17.5172 16.0348 17.9929 16.388C17.515 16.7434 16.57 17.3307 15.5222 17.3314Z" fill="white"/>
<path d="M13.572 25.649C14.4147 26.3091 15.4764 26.5285 16.4122 26.2311C16.6445 26.1572 16.7707 25.9387 16.6919 25.7348C16.5716 25.4238 16.3156 25.0146 15.9131 24.6702C15.5877 24.3918 15.1681 24.1548 14.6436 24.0433C14.8619 23.7851 14.9612 23.4682 14.9205 23.1248C14.8777 22.7473 14.674 22.3792 14.3612 22.0972C14.357 22.09 14.3549 22.0847 14.3487 22.0793C14.0446 21.6864 13.9394 21.216 14.0517 20.7559C14.1619 20.294 14.4769 19.896 14.9378 19.6337C15.4175 19.3624 16.0634 19.4737 16.38 19.8809C16.4425 19.9631 16.4651 20.0614 16.4439 20.1581C16.4227 20.244 16.3702 20.3175 16.2906 20.3714C16.3495 20.2532 16.3395 20.1154 16.252 20.0011C16.1125 19.8207 15.8261 19.7695 15.6124 19.8916C15.4386 19.9904 15.321 20.141 15.2786 20.3129C15.2383 20.4866 15.2775 20.6636 15.392 20.8119C15.5378 21.0012 15.7612 21.1277 16.0204 21.1736C16.2795 21.2195 16.5453 21.1742 16.7673 21.0484C17.069 20.876 17.2769 20.616 17.349 20.3117C17.421 20.0073 17.353 19.6979 17.1551 19.4425C17.0822 19.3478 16.9989 19.2586 16.905 19.1783C16.636 18.9481 16.2935 18.7914 15.9131 18.7243C15.3989 18.636 14.8758 18.7231 14.438 18.9728C13.7718 19.3501 13.3182 19.9274 13.1551 20.5952C13.0682 20.9514 13.0754 21.3129 13.1643 21.658C12.771 21.6875 12.3982 21.8638 12.1609 22.1667C12.016 22.3549 11.9631 22.5787 12.0146 22.7987C12.0662 23.0186 12.2141 23.2062 12.4312 23.3309C12.642 23.4503 12.9287 23.4013 13.0715 23.2185C13.2122 23.0375 13.1565 22.7924 12.9436 22.6713C12.9164 22.6552 12.9082 22.623 12.9271 22.5997C13.0551 22.4366 13.3125 22.3913 13.5025 22.5C13.7759 22.655 13.9716 22.9301 14.0042 23.202C14.0185 23.3255 14.0012 23.5009 13.8397 23.639C13.3344 24.0714 12.5359 23.948 11.9572 23.7686C11.1006 23.5022 10.1467 22.9444 9.27489 22.1984C7.65437 20.8119 6.4496 18.8947 7.03336 17.478C7.39185 18.5204 8.37674 19.2124 9.71284 19.279C10.8064 19.3356 11.7539 18.6176 11.8238 17.6799C11.8478 17.3667 11.7275 17.0663 11.4856 16.8343C11.4668 16.8147 11.4481 16.7986 11.4272 16.7807C11.1915 16.5791 10.8803 16.4599 10.5458 16.4428C9.99377 16.4155 9.51791 16.7762 9.48296 17.2487C9.46984 17.4277 9.53622 17.5993 9.67591 17.7331C9.81352 17.8652 10.0036 17.9453 10.2127 17.9556C10.4678 17.9693 10.6879 17.8024 10.7032 17.5858C10.7141 17.4409 10.6309 17.3087 10.4973 17.2338C10.6123 17.2425 10.7167 17.2852 10.7938 17.362C10.8731 17.4369 10.9104 17.537 10.9038 17.639C10.8666 18.1419 10.3572 18.5242 9.77388 18.4952C8.55696 18.4336 7.80644 17.6945 7.81001 16.5673C7.81019 16.51 7.79573 16.4546 7.7687 16.4063C7.79395 16.3561 7.81085 16.3024 7.81103 16.2452C7.8146 15.1179 8.5719 14.3736 9.78713 14.3081C10.3749 14.2763 10.8798 14.6581 10.9116 15.159C10.9176 15.261 10.8775 15.3595 10.7999 15.4366C10.7223 15.5102 10.6176 15.5569 10.5025 15.5661C10.6366 15.4907 10.7207 15.3581 10.7107 15.2132C10.6967 14.9967 10.4777 14.8308 10.2225 14.8457C10.0133 14.8569 9.82069 14.9397 9.68434 15.0706C9.5438 15.2051 9.47633 15.3771 9.48832 15.556C9.52028 16.0283 9.99596 16.385 10.5461 16.3569C10.8807 16.3383 11.1927 16.2177 11.4296 16.0149C11.4506 15.997 11.4695 15.9808 11.4884 15.9611C11.7296 15.7261 11.8519 15.4252 11.8319 15.1139C11.7659 14.1783 10.825 13.4665 9.73106 13.5245C8.39451 13.5974 7.40313 14.2958 7.04014 15.338C6.46533 13.924 7.68226 12.0012 9.31159 10.6071C10.1881 9.85714 11.1456 9.29486 12.0039 9.02448C12.5837 8.84241 13.383 8.71531 13.8856 9.14537C14.0441 9.28099 14.0624 9.45809 14.0474 9.58159C14.0151 9.85185 13.8156 10.1297 13.5411 10.286C13.3505 10.3956 13.0913 10.3496 12.9663 10.1889C12.9476 10.1657 12.9561 10.1334 12.9833 10.1173C13.1949 9.9969 13.2563 9.75162 13.1147 9.56944C12.9752 9.38904 12.6888 9.33781 12.4751 9.45998C12.2551 9.58395 12.1061 9.77576 12.0552 9.99417C12.0022 10.2144 12.0538 10.4379 12.1975 10.6255C12.4307 10.9255 12.8045 11.1018 13.1976 11.1295C13.1066 11.4751 13.0992 11.8348 13.1817 12.1924C13.3385 12.8613 13.7905 13.4346 14.4543 13.8088C14.8906 14.0565 15.4132 14.1412 15.9279 14.0505C16.3108 13.9834 16.6522 13.8234 16.9227 13.592C17.015 13.513 17.101 13.4251 17.1745 13.3266C17.3761 13.0684 17.4461 12.7587 17.3738 12.4565C17.3016 12.1543 17.0975 11.8935 16.7969 11.7224C16.5756 11.5977 16.3122 11.5553 16.0507 11.6007C15.7912 11.6478 15.567 11.7754 15.42 11.9654C15.3046 12.1141 15.2643 12.2914 15.3034 12.4649C15.3447 12.6401 15.4634 12.7884 15.6346 12.8846C15.8455 13.004 16.1321 12.955 16.2749 12.7722C16.3631 12.6574 16.374 12.5196 16.3158 12.4017C16.3951 12.4552 16.4493 12.5302 16.4678 12.6143C16.4905 12.7126 16.4693 12.8093 16.4021 12.8917C16.0829 13.3005 15.4385 13.4165 14.9583 13.1456C14.4991 12.8854 14.1866 12.4889 14.0794 12.0275C13.9721 11.5661 14.0802 11.0953 14.3847 10.7027C14.3889 10.6955 14.391 10.6902 14.3973 10.6848C14.7098 10.4031 14.918 10.0323 14.9631 9.65462C15.0039 9.31276 14.9087 8.99448 14.6921 8.73732C15.2152 8.62159 15.6384 8.38442 15.9655 8.10453C16.3703 7.75825 16.6288 7.3479 16.7511 7.03627C16.8291 6.8339 16.7085 6.61588 16.4745 6.54127C15.5427 6.24998 14.4775 6.47253 13.6306 7.13655C13.509 7.23345 13.012 7.64436 12.8894 8.06335C11.532 8.11122 9.91276 8.97564 8.66298 10.045C6.50104 11.8948 5.0411 14.6108 6.68751 16.407C5.03178 18.2163 6.47454 20.9256 8.6248 22.7654C9.86783 23.8289 11.4817 24.6859 12.8388 24.7274C12.9566 25.1441 13.4531 25.5545 13.572 25.649ZM13.8801 24.768C14.7836 24.7372 15.307 25.2102 15.5777 25.5746C15.2117 25.5772 14.89 25.467 14.6583 25.3549C14.2949 25.1768 14.0322 24.9448 13.8801 24.768ZM14.715 7.43285C14.9475 7.31959 15.2699 7.2079 15.6359 7.20884C15.3628 7.5745 14.8343 8.05168 13.9331 8.02335C14.0884 7.84406 14.3506 7.60905 14.715 7.43285Z" fill="white"/>
<path d="M19.4921 17.8141C19.2704 17.8397 19.0943 17.9618 19.0185 18.1409C18.8099 18.637 19.4999 19.3064 19.6396 19.4367C20.4195 20.1542 21.4559 20.4417 22.4144 20.2104C22.653 20.1526 22.7979 19.9429 22.74 19.7355C22.6387 19.3725 22.3684 18.8721 21.8971 18.4688C21.3715 18.0155 20.5842 17.6863 19.4921 17.8141ZM21.6471 19.4964C21.2791 19.4758 20.97 19.3441 20.7487 19.2158C20.4022 19.0162 20.1625 18.7645 20.0272 18.5769C20.9347 18.607 21.4141 19.1105 21.6471 19.4964Z" fill="white"/>
<path d="M17.8597 20.9027C18.34 21.7909 19.2187 22.3418 20.214 22.3753C20.4628 22.3836 20.6767 22.2221 20.6962 22.0091C20.7438 21.4794 20.5772 20.6012 19.8514 19.9802C19.4906 19.6715 18.9895 19.4257 18.3081 19.3199C18.0886 19.2865 17.8772 19.3567 17.7408 19.5056C17.3588 19.9216 17.7724 20.7419 17.8597 20.9027ZM18.9908 20.9878C18.7345 20.7039 18.5974 20.4036 18.5396 20.189C19.3857 20.4573 19.6556 21.065 19.7421 21.4942C19.4016 21.3751 19.1534 21.1664 18.9908 20.9878Z" fill="white"/>
<path d="M20.0788 28.6294C20.0976 28.6491 20.1122 28.6651 20.1247 28.6758C20.8689 29.4167 21.8926 29.74 22.8636 29.5409C23.1063 29.4902 23.2575 29.2859 23.2101 29.0767C23.1193 28.6904 22.8513 28.1417 22.3486 27.7116C21.8856 27.3155 21.2195 27.0182 20.3097 27.0364C20.2715 26.5516 20.1391 26.0902 19.9251 25.6667C20.8321 25.8507 21.7151 25.6947 22.3566 25.2137C22.5452 25.0737 22.569 24.8321 22.4127 24.666C22.3606 24.6107 22.3001 24.5554 22.2313 24.4965C21.543 23.9076 20.1 23.2435 18.5037 24.1347C18.4995 24.1383 18.4932 24.1401 18.489 24.1437C17.7251 23.6874 16.7701 23.4516 15.6743 23.4542C15.4191 23.4548 15.2115 23.6324 15.2129 23.8489C15.2123 24.0672 15.4187 24.2439 15.6718 24.2415C16.8805 24.2387 17.8707 24.5799 18.5295 25.2261C19.0862 25.7706 19.4037 26.5411 19.4011 27.3391C19.3976 28.4521 18.7646 29.5826 17.56 29.5854C17.0581 29.5866 16.8813 29.2738 16.8822 29.0054C16.8828 28.8194 16.9691 28.6384 17.118 28.5075C17.3004 28.3478 17.5767 28.2648 17.9155 28.2641C18.1707 28.2635 18.3782 28.0858 18.3768 27.8693C18.3775 27.651 18.1711 27.4744 17.918 27.4767C17.1693 27.4785 16.7147 27.739 16.4631 27.9579C16.1401 28.2378 15.9612 28.6121 15.9599 29.0094C15.9578 29.6893 16.5056 30.3769 17.5575 30.3763C18.8394 30.3787 19.6888 29.6127 20.0788 28.6294ZM21.3037 24.8583C20.9604 24.9736 20.6132 24.9708 20.3477 24.9374C19.9338 24.8847 19.5892 24.7477 19.3742 24.6283C20.2075 24.3187 20.8967 24.5962 21.3037 24.8583ZM20.5519 27.8321C21.4551 27.8908 21.9115 28.4105 22.1277 28.8072C21.7618 28.774 21.4569 28.6316 21.242 28.4943C20.906 28.2822 20.6788 28.0232 20.5519 27.8321Z" fill="white"/>
</svg>
