<svg width="184" height="8" viewBox="0 0 184 8" fill="none" xmlns="http://www.w3.org/2000/svg">
<g opacity="0.6" clip-path="url(#clip0_770_14013)">
<path d="M0.921039 0C0.921039 0 -0.286487 0.300514 0.339638 2.30137C0.965762 4.30223 0.294915 7.40411 0.921039 7.9375C1.54716 8.47089 2.21801 5.43664 1.72606 3.96918C1.2341 2.50086 1.90495 0.133562 0.921039 0Z" fill="black"/>
<path d="M3.47023 0C3.47023 0 2.26271 0.300514 2.88883 2.30137C3.51496 4.30223 2.84411 7.40411 3.47023 7.9375C4.09636 8.47089 4.76721 5.43664 4.27525 3.96918C3.7833 2.50086 4.45414 0.133562 3.47023 0Z" fill="black"/>
<path d="M6.06411 0C6.06411 0 4.85658 0.300514 5.4827 2.30137C6.10883 4.30223 5.43798 7.40411 6.06411 7.9375C6.69023 8.47089 7.36108 5.43664 6.86912 3.96918C6.37717 2.50086 7.04801 0.133562 6.06411 0Z" fill="black"/>
<path d="M14.0956 0.879412C12.0053 1.47873 8.76462 0.836604 8.20737 1.43592C7.65012 2.03523 10.821 2.67736 12.3541 2.20647C13.8872 1.73558 16.3613 2.3777 16.5008 1.43592C16.4999 1.43592 16.186 0.280097 14.0956 0.879412Z" fill="black"/>
<path d="M14.0956 3.31935C12.0053 3.91867 8.76462 3.27655 8.20737 3.87586C7.65012 4.47518 10.821 5.1173 12.3541 4.64641C13.8872 4.17552 16.3613 4.81764 16.5008 3.87586C16.4999 3.87586 16.186 2.72004 14.0956 3.31935Z" fill="black"/>
<path d="M14.0956 5.80226C12.0053 6.40158 8.76462 5.75946 8.20737 6.35877C7.65012 6.95808 10.821 7.60021 12.3541 7.12932C13.8872 6.65843 16.3613 7.30055 16.5008 6.35877C16.4999 6.35877 16.186 5.20295 14.0956 5.80226Z" fill="black"/>
<path d="M18.4079 0C18.4079 0 17.2003 0.300514 17.8265 2.30137C18.4526 4.30223 17.7817 7.40411 18.4079 7.9375C19.034 8.47089 19.7048 5.43664 19.2129 3.96918C18.7209 2.50086 19.3918 0.133562 18.4079 0Z" fill="black"/>
<path d="M20.9569 0C20.9569 0 19.7494 0.300514 20.3755 2.30137C21.0016 4.30223 20.3308 7.40411 20.9569 7.9375C21.583 8.47089 22.2539 5.43664 21.7619 3.96918C21.27 2.50086 21.9408 0.133562 20.9569 0Z" fill="black"/>
<path d="M23.5509 0C23.5509 0 22.3434 0.300514 22.9695 2.30137C23.5956 4.30223 22.9248 7.40411 23.5509 7.9375C24.177 8.47089 24.8479 5.43664 24.3559 3.96918C23.864 2.50086 24.5348 0.133562 23.5509 0Z" fill="black"/>
<path d="M31.5824 0.879412C29.4921 1.47873 26.2514 0.836604 25.6942 1.43592C25.1369 2.03523 28.3078 2.67736 29.8409 2.20647C31.374 1.73558 33.8481 2.3777 33.9877 1.43592C33.9868 1.43592 33.6728 0.280097 31.5824 0.879412Z" fill="black"/>
<path d="M31.5823 3.31935C29.492 3.91867 26.2513 3.27655 25.6941 3.87586C25.1368 4.47518 28.3077 5.1173 29.8408 4.64641C31.3739 4.17552 33.848 4.81764 33.9875 3.87586C33.9866 3.87586 33.6727 2.72004 31.5823 3.31935Z" fill="black"/>
<path d="M31.5823 5.80226C29.492 6.40158 26.2513 5.75946 25.6941 6.35877C25.1368 6.95808 28.3077 7.60021 29.8408 7.12932C31.3739 6.65843 33.848 7.30055 33.9875 6.35877C33.9866 6.35877 33.6727 5.20295 31.5823 5.80226Z" fill="black"/>
<path d="M35.984 0C35.984 0 34.7765 0.300514 35.4026 2.30137C36.0287 4.30223 35.3579 7.40411 35.984 7.9375C36.6101 8.47089 37.281 5.43664 36.789 3.96918C36.2971 2.50086 36.9679 0.133562 35.984 0Z" fill="black"/>
<path d="M38.5333 0C38.5333 0 37.3258 0.300514 37.9519 2.30137C38.5781 4.30223 37.9072 7.40411 38.5333 7.9375C39.1595 8.47089 39.8303 5.43664 39.3384 3.96918C38.8464 2.50086 39.5173 0.133562 38.5333 0Z" fill="black"/>
<path d="M41.1272 0C41.1272 0 39.9197 0.300514 40.5458 2.30137C41.1719 4.30223 40.5011 7.40411 41.1272 7.9375C41.7533 8.47089 42.4242 5.43664 41.9322 3.96918C41.4403 2.50086 42.1111 0.133562 41.1272 0Z" fill="black"/>
<path d="M49.1586 0.879412C47.0683 1.47873 43.8276 0.836604 43.2704 1.43592C42.7131 2.03523 45.884 2.67736 47.4171 2.20647C48.9502 1.73558 51.4243 2.3777 51.5638 1.43592C51.5629 1.43592 51.249 0.280097 49.1586 0.879412Z" fill="black"/>
<path d="M49.1586 3.31935C47.0683 3.91867 43.8276 3.27655 43.2704 3.87586C42.7131 4.47518 45.884 5.1173 47.4171 4.64641C48.9502 4.17552 51.4243 4.81764 51.5638 3.87586C51.5629 3.87586 51.249 2.72004 49.1586 3.31935Z" fill="black"/>
<path d="M49.1586 5.80226C47.0683 6.40158 43.8276 5.75946 43.2704 6.35877C42.7131 6.95808 45.884 7.60021 47.4171 7.12932C48.9502 6.65843 51.4243 7.30055 51.5638 6.35877C51.5629 6.35877 51.249 5.20295 49.1586 5.80226Z" fill="black"/>
<path d="M53.4707 0C53.4707 0 52.2632 0.300514 52.8893 2.30137C53.5154 4.30223 52.8446 7.40411 53.4707 7.9375C54.0968 8.47089 54.7677 5.43664 54.2757 3.96918C53.7838 2.50086 54.4546 0.133562 53.4707 0Z" fill="black"/>
<path d="M56.02 0C56.02 0 54.8125 0.300514 55.4386 2.30137C56.0648 4.30223 55.3939 7.40411 56.02 7.9375C56.6462 8.47089 57.317 5.43664 56.8251 3.96918C56.3331 2.50086 57.0039 0.133562 56.02 0Z" fill="black"/>
<path d="M58.6139 0C58.6139 0 57.4064 0.300514 58.0325 2.30137C58.6586 4.30223 57.9878 7.40411 58.6139 7.9375C59.24 8.47089 59.9109 5.43664 59.4189 3.96918C58.927 2.50086 59.5978 0.133562 58.6139 0Z" fill="black"/>
<path d="M66.6454 0.879412C64.5551 1.47873 61.3144 0.836604 60.7572 1.43592C60.1999 2.03523 63.3708 2.67736 64.9039 2.20647C66.437 1.73558 68.9111 2.3777 69.0506 1.43592C69.0497 1.43592 68.7358 0.280097 66.6454 0.879412Z" fill="black"/>
<path d="M66.6453 3.31935C64.5549 3.91867 61.3143 3.27655 60.7571 3.87586C60.1998 4.47518 63.3707 5.1173 64.9038 4.64641C66.4369 4.17552 68.911 4.81764 69.0505 3.87586C69.0496 3.87586 68.7357 2.72004 66.6453 3.31935Z" fill="black"/>
<path d="M66.6453 5.80226C64.5549 6.40158 61.3143 5.75946 60.7571 6.35877C60.1998 6.95808 63.3707 7.60021 64.9038 7.12932C66.4369 6.65843 68.911 7.30055 69.0505 6.35877C69.0496 6.35877 68.7357 5.20295 66.6453 5.80226Z" fill="black"/>
<path d="M71.0766 0C71.0766 0 69.869 0.300514 70.4952 2.30137C71.1213 4.30223 70.4504 7.40411 71.0766 7.9375C71.7027 8.47089 72.3735 5.43664 71.8816 3.96918C71.3896 2.50086 72.0605 0.133562 71.0766 0Z" fill="black"/>
<path d="M73.6255 0C73.6255 0 72.418 0.300514 73.0441 2.30137C73.6702 4.30223 72.9994 7.40411 73.6255 7.9375C74.2516 8.47089 74.9225 5.43664 74.4305 3.96918C73.9386 2.50086 74.6094 0.133562 73.6255 0Z" fill="black"/>
<path d="M76.2197 0C76.2197 0 75.0122 0.300514 75.6383 2.30137C76.2645 4.30223 75.5936 7.40411 76.2197 7.9375C76.8459 8.47089 77.5167 5.43664 77.0247 3.96918C76.5328 2.50086 77.2036 0.133562 76.2197 0Z" fill="black"/>
<path d="M84.2513 0.879412C82.1609 1.47873 78.9203 0.836604 78.363 1.43592C77.8058 2.03523 80.9766 2.67736 82.5097 2.20647C84.0429 1.73558 86.517 2.3777 86.6556 1.43592C86.6547 1.43592 86.3416 0.280097 84.2513 0.879412Z" fill="black"/>
<path d="M84.251 3.31935C82.1607 3.91867 78.92 3.27655 78.3628 3.87586C77.8055 4.47518 80.9764 5.1173 82.5095 4.64641C84.0426 4.17552 86.5167 4.81764 86.6554 3.87586C86.6545 3.87586 86.3414 2.72004 84.251 3.31935Z" fill="black"/>
<path d="M84.251 5.80226C82.1607 6.40158 78.92 5.75946 78.3628 6.35877C77.8055 6.95808 80.9764 7.60021 82.5095 7.12932C84.0426 6.65843 86.5167 7.30055 86.6554 6.35877C86.6545 6.35877 86.3414 5.20295 84.251 5.80226Z" fill="black"/>
<path d="M88.5632 0C88.5632 0 87.3557 0.300514 87.9818 2.30137C88.608 4.30223 87.9371 7.40411 88.5632 7.9375C89.1894 8.47089 89.8602 5.43664 89.3682 3.96918C88.8763 2.50086 89.5471 0.133562 88.5632 0Z" fill="black"/>
<path d="M91.1126 0C91.1126 0 89.905 0.300514 90.5312 2.30137C91.1573 4.30223 90.4864 7.40411 91.1126 7.9375C91.7387 8.47089 92.4095 5.43664 91.9176 3.96918C91.4256 2.50086 92.0965 0.133562 91.1126 0Z" fill="black"/>
<path d="M93.7066 0C93.7066 0 92.499 0.300514 93.1252 2.30137C93.7513 4.30223 93.0804 7.40411 93.7066 7.9375C94.3327 8.47089 95.0035 5.43664 94.5116 3.96918C94.0196 2.50086 94.6905 0.133562 93.7066 0Z" fill="black"/>
<path d="M101.738 0.879412C99.6477 1.47873 96.4071 0.836604 95.8498 1.43592C95.2926 2.03523 98.4634 2.67736 99.9965 2.20647C101.53 1.73558 104.004 2.3777 104.143 1.43592C104.141 1.43592 103.828 0.280097 101.738 0.879412Z" fill="black"/>
<path d="M101.738 3.31935C99.6477 3.91867 96.4071 3.27655 95.8498 3.87586C95.2926 4.47518 98.4634 5.1173 99.9965 4.64641C101.53 4.17552 104.004 4.81764 104.143 3.87586C104.141 3.87586 103.828 2.72004 101.738 3.31935Z" fill="black"/>
<path d="M101.738 5.80226C99.6477 6.40158 96.4071 5.75946 95.8498 6.35877C95.2926 6.95808 98.4634 7.60021 99.9965 7.12932C101.53 6.65843 104.004 7.30055 104.143 6.35877C104.141 6.35877 103.828 5.20295 101.738 5.80226Z" fill="black"/>
<path d="M106.139 0C106.139 0 104.932 0.300514 105.558 2.30137C106.184 4.30223 105.513 7.40411 106.139 7.9375C106.766 8.47089 107.436 5.43664 106.944 3.96918C106.452 2.50086 107.123 0.133562 106.139 0Z" fill="black"/>
<path d="M108.689 0C108.689 0 107.481 0.300514 108.107 2.30137C108.733 4.30223 108.062 7.40411 108.689 7.9375C109.315 8.47089 109.986 5.43664 109.494 3.96918C109.002 2.50086 109.673 0.133562 108.689 0Z" fill="black"/>
<path d="M111.283 0C111.283 0 110.075 0.300514 110.701 2.30137C111.327 4.30223 110.656 7.40411 111.283 7.9375C111.909 8.47089 112.58 5.43664 112.088 3.96918C111.596 2.50086 112.267 0.133562 111.283 0Z" fill="black"/>
<path d="M119.314 0.879412C117.224 1.47873 113.983 0.836604 113.426 1.43592C112.869 2.03523 116.04 2.67736 117.573 2.20647C119.106 1.73558 121.58 2.3777 121.719 1.43592C121.718 1.43592 121.405 0.280097 119.314 0.879412Z" fill="black"/>
<path d="M119.314 3.31935C117.224 3.91867 113.983 3.27655 113.426 3.87586C112.869 4.47518 116.039 5.1173 117.572 4.64641C119.106 4.17552 121.58 4.81764 121.719 3.87586C121.717 3.87586 121.404 2.72004 119.314 3.31935Z" fill="black"/>
<path d="M119.314 5.80226C117.224 6.40158 113.983 5.75946 113.426 6.35877C112.869 6.95808 116.039 7.60021 117.572 7.12932C119.106 6.65843 121.58 7.30055 121.719 6.35877C121.717 6.35877 121.404 5.20295 119.314 5.80226Z" fill="black"/>
<path d="M123.626 0C123.626 0 122.419 0.300514 123.045 2.30137C123.671 4.30223 123 7.40411 123.626 7.9375C124.253 8.47089 124.923 5.43664 124.431 3.96918C123.94 2.50086 124.61 0.133562 123.626 0Z" fill="black"/>
<path d="M126.175 0C126.175 0 124.968 0.300514 125.594 2.30137C126.22 4.30223 125.549 7.40411 126.175 7.9375C126.802 8.47089 127.472 5.43664 126.98 3.96918C126.488 2.50086 127.159 0.133562 126.175 0Z" fill="black"/>
<path d="M128.769 0C128.769 0 127.562 0.300514 128.188 2.30137C128.814 4.30223 128.143 7.40411 128.769 7.9375C129.396 8.47089 130.066 5.43664 129.574 3.96918C129.082 2.50086 129.753 0.133562 128.769 0Z" fill="black"/>
<path d="M136.801 0.879412C134.71 1.47873 131.47 0.836604 130.912 1.43592C130.355 2.03523 133.526 2.67736 135.059 2.20647C136.592 1.73558 139.066 2.3777 139.206 1.43592C139.204 1.43592 138.891 0.280097 136.801 0.879412Z" fill="black"/>
<path d="M136.801 3.31935C134.71 3.91867 131.47 3.27655 130.913 3.87586C130.355 4.47518 133.526 5.1173 135.059 4.64641C136.592 4.17552 139.067 4.81764 139.206 3.87586C139.204 3.87586 138.891 2.72004 136.801 3.31935Z" fill="black"/>
<path d="M136.801 5.80226C134.71 6.40158 131.47 5.75946 130.913 6.35877C130.355 6.95808 133.526 7.60021 135.059 7.12932C136.592 6.65843 139.067 7.30055 139.206 6.35877C139.204 6.35877 138.891 5.20295 136.801 5.80226Z" fill="black"/>
<path d="M141.095 0C141.095 0 139.888 0.300514 140.514 2.30137C141.14 4.30223 140.469 7.40411 141.095 7.9375C141.721 8.47089 142.392 5.43664 141.9 3.96918C141.408 2.50086 142.079 0.133562 141.095 0Z" fill="black"/>
<path d="M143.645 0C143.645 0 142.437 0.300514 143.063 2.30137C143.689 4.30223 143.018 7.40411 143.645 7.9375C144.271 8.47089 144.942 5.43664 144.45 3.96918C143.958 2.50086 144.628 0.133562 143.645 0Z" fill="black"/>
<path d="M146.238 0C146.238 0 145.031 0.300514 145.657 2.30137C146.283 4.30223 145.612 7.40411 146.238 7.9375C146.864 8.47089 147.535 5.43664 147.043 3.96918C146.551 2.50086 147.222 0.133562 146.238 0Z" fill="black"/>
<path d="M154.27 0.879412C152.179 1.47873 148.939 0.836604 148.382 1.43592C147.824 2.03523 150.995 2.67736 152.528 2.20647C154.061 1.73558 156.535 2.3777 156.675 1.43592C156.673 1.43592 156.36 0.280097 154.27 0.879412Z" fill="black"/>
<path d="M154.27 3.31935C152.179 3.91867 148.939 3.27655 148.381 3.87586C147.824 4.47518 150.995 5.1173 152.528 4.64641C154.061 4.17552 156.535 4.81764 156.675 3.87586C156.673 3.87586 156.36 2.72004 154.27 3.31935Z" fill="black"/>
<path d="M154.27 5.80226C152.179 6.40158 148.939 5.75946 148.381 6.35877C147.824 6.95808 150.995 7.60021 152.528 7.12932C154.061 6.65843 156.535 7.30055 156.675 6.35877C156.673 6.35877 156.36 5.20295 154.27 5.80226Z" fill="black"/>
<path d="M158.582 0C158.582 0 157.374 0.300514 158 2.30137C158.627 4.30223 157.956 7.40411 158.582 7.9375C159.208 8.47089 159.879 5.43664 159.387 3.96918C158.895 2.50086 159.566 0.133562 158.582 0Z" fill="black"/>
<path d="M161.131 0C161.131 0 159.924 0.300514 160.55 2.30137C161.176 4.30223 160.505 7.40411 161.131 7.9375C161.757 8.47089 162.428 5.43664 161.936 3.96918C161.444 2.50086 162.115 0.133562 161.131 0Z" fill="black"/>
<path d="M163.725 0C163.725 0 162.518 0.300514 163.144 2.30137C163.77 4.30223 163.099 7.40411 163.725 7.9375C164.351 8.47089 165.022 5.43664 164.53 3.96918C164.038 2.50086 164.709 0.133562 163.725 0Z" fill="black"/>
<path d="M170.014 2.20647C171.547 1.73558 174.021 2.3777 174.16 1.43592C174.16 1.43592 173.847 0.280097 171.756 0.879412C169.666 1.47873 166.425 0.836604 165.868 1.43592C165.311 2.03523 168.481 2.67736 170.014 2.20647Z" fill="black"/>
<path d="M171.757 3.31935C169.666 3.91867 166.426 3.27655 165.868 3.87586C165.311 4.47518 168.482 5.1173 170.015 4.64641C171.548 4.17552 174.022 4.81764 174.162 3.87586C174.16 3.87586 173.847 2.72004 171.757 3.31935Z" fill="black"/>
<path d="M171.757 5.80226C169.666 6.40158 166.426 5.75946 165.868 6.35877C165.311 6.95808 168.482 7.60021 170.015 7.12932C171.548 6.65843 174.022 7.30055 174.162 6.35877C174.16 6.35877 173.847 5.20295 171.757 5.80226Z" fill="black"/>
</g>
<path d="M176.921 0C176.921 0 175.714 0.300514 176.34 2.30137C176.966 4.30223 176.295 7.40411 176.921 7.9375C177.548 8.47089 178.218 5.43664 177.726 3.96918C177.234 2.50086 177.905 0.133562 176.921 0Z" fill="#5E5C5C"/>
<path d="M179.471 0C179.471 0 178.263 0.300514 178.889 2.30137C179.515 4.30223 178.845 7.40411 179.471 7.9375C180.097 8.47089 180.768 5.43664 180.276 3.96918C179.784 2.50086 180.455 0.133562 179.471 0Z" fill="#5E5C5C"/>
<path d="M182.064 0C182.064 0 180.857 0.300514 181.483 2.30137C182.109 4.30223 181.438 7.40411 182.064 7.9375C182.691 8.47089 183.361 5.43664 182.869 3.96918C182.378 2.50086 183.048 0.133562 182.064 0Z" fill="#5E5C5C"/>
<defs>
<clipPath id="clip0_770_14013">
<rect width="174" height="8" fill="white" transform="translate(0.159912)"/>
</clipPath>
</defs>
</svg>
