<svg width="494" height="109" viewBox="0 0 494 109" fill="none" xmlns="http://www.w3.org/2000/svg">
<path d="M53.4287 54.6144C53.3941 54.7411 53.3767 54.8629 53.3763 54.9895C53.3702 55.1113 53.3925 55.2378 53.4263 55.3644C53.8317 56.7563 56.5847 57.3636 57.1365 57.4743C60.1741 58.0712 63.0394 57.3778 64.8039 55.6059C64.9923 55.4155 65.0841 55.1913 65.1019 54.9623C65.0855 54.7335 64.9952 54.5096 64.8079 54.3201C63.0604 52.5612 60.1938 51.8763 57.1523 52.4872C56.5998 52.6005 53.8429 53.2205 53.4287 54.6144ZM59.2636 54.4206C59.9979 54.4141 60.931 54.5191 61.8006 54.9408C61.7778 54.9505 61.755 54.9603 61.7322 54.9701C61.7549 54.9798 61.7777 54.9895 61.8004 54.9992C60.9338 55.4298 59.9943 55.5342 59.2658 55.5359C58.1217 55.5337 57.1378 55.2779 56.501 55.0358C56.5352 55.0163 56.5694 55.0064 56.6036 54.9869C56.5695 54.9675 56.5354 54.9578 56.5013 54.9384C57.134 54.6788 58.1252 54.4233 59.2636 54.4206Z" fill="white"/>
<path d="M58.1366 49.2849C59.4265 48.1812 60.1651 46.811 60.4528 45.8265C60.614 45.2612 60.2287 44.6972 59.5746 44.538C56.9696 43.9206 54.1439 44.7162 52.0089 46.6789C51.6207 47.0305 49.7308 48.8612 50.2958 50.2138C50.4991 50.7003 50.9762 51.0304 51.5794 51.0972C54.5552 51.4263 56.6983 50.5252 58.1366 49.2849ZM55.0238 47.2661C55.6282 46.914 56.4775 46.5468 57.4738 46.4909C56.8272 47.5493 55.5137 48.9257 53.0488 49.0142C53.4204 48.502 54.0772 47.8138 55.0238 47.2661Z" fill="white"/>
<path d="M53.6208 38.6738C50.9111 38.7775 48.5099 40.288 47.1874 42.7115C46.947 43.1504 45.8072 45.3884 46.8338 46.5208C47.2025 46.9242 47.7768 47.1128 48.3748 47.0189C50.2313 46.7224 51.5995 46.0471 52.5869 45.2023C54.5731 43.5028 55.0418 41.1007 54.9211 39.6692C54.866 39.0849 54.2982 38.6479 53.6208 38.6738ZM49.0255 44.6456C49.1924 44.0656 49.5707 43.2368 50.2676 42.4657C50.7131 41.9679 51.3923 41.4063 52.3154 41.0827C52.0783 42.2472 51.3274 43.9097 49.0255 44.6456Z" fill="white"/>
<path d="M53.4822 21.5212C53.448 21.5505 53.4023 21.5993 53.3566 21.6481C52.312 18.9768 50.0133 16.9025 46.5184 16.9106C43.661 16.9172 42.158 18.7957 42.1465 20.6513C42.143 21.7325 42.6236 22.7493 43.4978 23.507C44.179 24.0996 45.4119 24.8029 47.4497 24.7982C48.1441 24.7966 48.7092 24.3131 48.7053 23.7238C48.7072 23.1297 48.1452 22.6488 47.4565 22.6553C46.5344 22.6574 45.7894 22.4302 45.2899 22.0028C44.8869 21.6482 44.655 21.1569 44.6566 20.6504C44.659 19.9198 45.1455 19.0664 46.5116 19.0633C49.7902 19.0557 51.4938 22.1248 51.4842 25.1541C51.4773 27.3262 50.5998 29.4273 49.0753 30.9162C47.2653 32.6883 44.57 33.6248 41.28 33.6324C40.5856 33.634 40.0206 34.1175 40.0244 34.7068C40.0225 35.3009 40.5845 35.7818 41.2732 35.7753C44.2559 35.7684 46.8649 35.1097 48.9464 33.863C48.9578 33.8727 48.9691 33.8824 48.9862 33.8873C53.3102 36.2977 57.2549 34.4671 59.1383 32.8556C59.321 32.6993 59.4866 32.5382 59.635 32.3918C60.069 31.9427 60.0028 31.2805 59.4917 30.9018C57.7541 29.6007 55.3534 29.1874 52.8814 29.6996C53.4714 28.544 53.8396 27.2866 53.952 25.9666C56.4279 26.0047 58.2405 25.192 59.5133 24.103C60.8888 22.9261 61.6278 21.4292 61.8815 20.3767C62.0199 19.8114 61.6062 19.2523 60.9463 19.1175C58.3183 18.5976 55.5264 19.4904 53.4822 21.5212ZM56.6312 31.902C55.519 32.6205 53.6382 33.3846 51.3811 32.557C51.9684 32.2294 52.9088 31.8522 54.0362 31.7035C54.7538 31.6044 55.6987 31.5925 56.6312 31.902ZM54.6361 23.8172C54.9793 23.2904 55.6076 22.5877 56.5259 22.006C57.1134 21.6296 57.9513 21.2429 58.942 21.1432C58.3466 22.2258 57.0956 23.6459 54.6361 23.8172Z" fill="white"/>
<path d="M50.2145 55.7127L50.9624 54.9951L50.219 54.2809C50.0488 54.1157 45.974 50.2874 40.7658 50.3043C35.5575 50.3213 31.4698 54.1782 31.3042 54.3393L30.5791 55.0374L31.2998 55.7322C31.4701 55.8974 35.5277 59.7306 40.7359 59.7234C45.9442 59.7162 50.0432 55.8689 50.2145 55.7127ZM40.7484 57.5756C37.9081 57.5773 35.3574 56.0004 34.0684 55.0342C35.3635 54.062 37.9186 52.4684 40.7646 52.4618C43.6164 52.4504 46.1784 54.0467 47.4731 55.008C46.1723 55.9753 43.6001 57.5738 40.7484 57.5756Z" fill="white"/>
<path d="M35.4401 80.2151C37.734 82.0117 40.6236 82.6089 43.1705 81.7995C43.803 81.5983 44.1464 81.0034 43.9319 80.4487C43.6044 79.602 42.9078 78.4883 41.8122 77.5509C40.9267 76.7932 39.7846 76.1481 38.3569 75.8446C38.9511 75.1419 39.2213 74.2793 39.1104 73.3445C38.9942 72.3171 38.4395 71.3152 37.5881 70.5476C37.5768 70.5282 37.5712 70.5136 37.5541 70.499C36.7265 69.4295 36.4403 68.1493 36.7459 66.8969C37.0459 65.6397 37.9031 64.5566 39.1576 63.8426C40.4634 63.1042 42.2213 63.4069 43.083 64.5153C43.253 64.739 43.3148 65.0067 43.257 65.2698C43.1994 65.5037 43.0564 65.7037 42.8397 65.8503C43.0001 65.5285 42.9728 65.1536 42.7347 64.8424C42.3549 64.3514 41.5755 64.212 40.9939 64.5445C40.5206 64.8135 40.2006 65.2233 40.0852 65.6911C39.9756 66.1638 40.0822 66.6457 40.394 67.0492C40.7908 67.5645 41.3988 67.9089 42.1042 68.0339C42.8096 68.1589 43.5329 68.0354 44.1373 67.6931C44.9584 67.2237 45.5242 66.5162 45.7203 65.6878C45.9165 64.8594 45.7313 64.0173 45.1928 63.3221C44.9944 63.0645 44.7675 62.8215 44.512 62.6029C43.7797 61.9763 42.8476 61.5499 41.8122 61.3673C40.4127 61.127 38.989 61.3641 37.7972 62.0438C35.9839 63.0707 34.7494 64.6418 34.3054 66.4594C34.069 67.4291 34.0886 68.4129 34.3304 69.3522C33.26 69.4326 32.2454 69.9123 31.5995 70.7368C31.2052 71.2491 31.0609 71.8582 31.2014 72.4569C31.3418 73.0557 31.7443 73.5661 32.3352 73.9056C32.909 74.2306 33.6893 74.0973 34.0779 73.5996C34.4608 73.1069 34.3092 72.44 33.7297 72.1102C33.6558 72.0665 33.6334 71.9789 33.6848 71.9155C34.0334 71.4715 34.7339 71.3481 35.2509 71.644C35.9953 72.066 36.5279 72.8147 36.6167 73.5548C36.6555 73.8908 36.6084 74.3681 36.1689 74.7442C34.7934 75.9211 32.6201 75.5852 31.045 75.097C28.7136 74.3718 26.1171 72.8535 23.7443 70.8232C19.3335 67.0493 16.0544 61.8312 17.6433 57.9752C18.619 60.8122 21.2997 62.6957 24.9363 62.8772C27.9127 63.031 30.4917 61.0769 30.6819 58.5245C30.7473 57.6721 30.4197 56.8546 29.7614 56.223C29.7104 56.1696 29.6593 56.1259 29.6025 56.0773C28.9611 55.5285 28.114 55.2041 27.2034 55.1575C25.7009 55.0831 24.4058 56.065 24.3106 57.351C24.2749 57.8381 24.4556 58.3052 24.8358 58.6696C25.2103 59.0291 25.7276 59.247 26.2967 59.2749C26.991 59.3123 27.5901 58.858 27.6318 58.2686C27.6615 57.874 27.435 57.5142 27.0714 57.3105C27.3843 57.3341 27.6686 57.4503 27.8785 57.6592C28.0942 57.8633 28.1958 58.1358 28.1778 58.4134C28.0767 59.7822 26.6903 60.8228 25.1024 60.7436C21.7902 60.576 19.7475 58.5645 19.7572 55.4962C19.7577 55.3404 19.7183 55.1895 19.6447 55.0582C19.7135 54.9216 19.7595 54.7754 19.76 54.6196C19.7697 51.5513 21.8309 49.5254 25.1385 49.3473C26.7382 49.2608 28.1124 50.2998 28.1992 51.6633C28.2154 51.9409 28.1064 52.209 27.8951 52.4189C27.6839 52.619 27.3989 52.7463 27.0857 52.7714C27.4507 52.566 27.6795 52.2051 27.6523 51.8107C27.6143 51.2215 27.0181 50.7699 26.3235 50.8105C25.7542 50.841 25.2298 51.0663 24.8587 51.4227C24.4762 51.7888 24.2926 52.2568 24.3252 52.7437C24.4122 54.0292 25.7069 55.0003 27.2041 54.9238C28.115 54.8729 28.9642 54.5447 29.6091 53.9928C29.6662 53.944 29.7176 53.9001 29.769 53.8464C30.4256 53.2069 30.7583 52.3879 30.7041 51.5406C30.5243 48.9939 27.9633 47.0566 24.9859 47.2145C21.3481 47.4129 18.6497 49.3136 17.6617 52.1504C16.0972 48.3017 19.4095 43.0683 23.8442 39.2739C26.2299 37.2326 28.836 35.7022 31.172 34.9662C32.7503 34.4707 34.9257 34.1247 36.2938 35.2953C36.7252 35.6644 36.7749 36.1464 36.734 36.4826C36.6463 37.2182 36.1032 37.9743 35.3562 38.3998C34.8373 38.6981 34.1319 38.5731 33.7917 38.1355C33.7407 38.0723 33.7637 37.9846 33.8379 37.9406C34.4138 37.613 34.581 36.9454 34.1955 36.4495C33.8157 35.9585 33.0363 35.8191 32.4547 36.1516C31.856 36.489 31.4502 37.0111 31.3117 37.6056C31.1675 38.2049 31.3079 38.8134 31.699 39.3238C32.3339 40.1406 33.3513 40.6204 34.4211 40.6958C34.1734 41.6363 34.1532 42.6153 34.3778 43.5888C34.8046 45.4093 36.0349 46.9697 37.8417 47.9883C39.0292 48.6625 40.4515 48.893 41.8525 48.6462C42.8947 48.4636 43.8239 48.028 44.5602 47.398C44.8113 47.1832 45.0454 46.944 45.2455 46.6757C45.7941 45.9731 45.9846 45.1301 45.788 44.3075C45.5914 43.4849 45.0358 42.7751 44.2177 42.3095C43.6154 41.97 42.8986 41.8547 42.1867 41.9781C41.4804 42.1064 40.8703 42.4536 40.4702 42.9708C40.1559 43.3757 40.0462 43.8581 40.1529 44.3303C40.2652 44.8073 40.5884 45.2108 41.0543 45.4727C41.6281 45.7977 42.4084 45.6644 42.797 45.1667C43.037 44.8545 43.0667 44.4794 42.9083 44.1583C43.1242 44.3039 43.2715 44.5081 43.322 44.7369C43.3838 45.0046 43.326 45.2678 43.1432 45.4922C42.2745 46.6046 40.5203 46.9204 39.2135 46.1831C37.9635 45.475 37.1131 44.3958 36.8211 43.1399C36.5291 41.8841 36.8235 40.6026 37.6522 39.5341C37.6636 39.5146 37.6694 39.4999 37.6865 39.4853C38.537 38.7187 39.1037 37.7093 39.2265 36.6814C39.3376 35.7509 39.0785 34.8846 38.4888 34.1847C39.9128 33.8697 41.0646 33.2241 41.955 32.4623C43.0565 31.5198 43.7602 30.4029 44.093 29.5547C44.3053 29.0039 43.9771 28.4105 43.3402 28.2074C40.8041 27.4146 37.9049 28.0203 35.5996 29.8277C35.2687 30.0914 33.9161 31.2098 33.5824 32.3502C29.8878 32.4805 25.4805 34.8333 22.0788 37.7438C16.1944 42.7787 12.2207 50.1711 16.7019 55.0601C12.1954 59.9846 16.1223 67.3587 21.9749 72.3663C25.3582 75.2611 29.7507 77.5935 33.4445 77.7067C33.7653 78.8407 35.1165 79.9577 35.4401 80.2151ZM36.2787 77.817C38.7379 77.7334 40.1626 79.0207 40.8994 80.0125C39.9033 80.0197 39.0276 79.7197 38.3968 79.4144C37.4079 78.9297 36.6927 78.2982 36.2787 77.817ZM38.5512 30.6341C39.184 30.3258 40.0615 30.0219 41.0576 30.0244C40.3145 31.0197 38.876 32.3185 36.423 32.2414C36.8458 31.7534 37.5593 31.1137 38.5512 30.6341Z" fill="white"/>
<path d="M51.5539 58.8897C50.9503 58.9593 50.4711 59.2916 50.2646 59.7791C49.6969 61.1294 51.5751 62.9514 51.9554 63.3061C54.078 65.259 56.8988 66.0414 59.5077 65.412C60.1571 65.2546 60.5517 64.6839 60.3941 64.1193C60.1183 63.1313 59.3826 61.7693 58.0997 60.6716C56.6692 59.4379 54.5262 58.5419 51.5539 58.8897ZM57.4192 63.4687C56.4176 63.4126 55.5763 63.0542 54.9741 62.7049C54.0309 62.1616 53.3785 61.4764 53.0101 60.9659C55.4802 61.0479 56.785 62.4182 57.4192 63.4687Z" fill="white"/>
<path d="M47.1108 67.2963C48.418 69.7138 50.8096 71.2131 53.5187 71.3043C54.196 71.327 54.778 70.8874 54.8311 70.3077C54.9609 68.8658 54.5074 66.4756 52.5319 64.7853C51.5498 63.9451 50.1859 63.2761 48.3312 62.9882C47.7338 62.8971 47.1583 63.0884 46.787 63.4934C45.7475 64.6257 46.8732 66.8585 47.1108 67.2963ZM50.1895 67.5278C49.4918 66.7551 49.1187 65.9378 48.9612 65.3537C51.2642 66.0838 51.9989 67.7379 52.2342 68.9062C51.3075 68.5821 50.6319 68.0138 50.1895 67.5278Z" fill="white"/>
<path d="M53.1512 88.3267C53.2023 88.3802 53.242 88.4239 53.2761 88.4531C55.3017 90.4695 58.088 91.3494 60.7308 90.8076C61.3916 90.6697 61.8031 90.1135 61.674 89.544C61.4269 88.4926 60.6974 86.9991 59.3293 85.8286C58.0691 84.7503 56.2559 83.9412 53.7797 83.9908C53.6757 82.6712 53.3154 81.4155 52.7328 80.2626C55.2015 80.7634 57.6049 80.339 59.3508 79.0298C59.8643 78.6487 59.929 77.9911 59.5035 77.5391C59.3617 77.3885 59.1971 77.2379 59.0098 77.0776C57.1365 75.4748 53.209 73.6673 48.864 76.093C48.8526 76.1028 48.8355 76.1077 48.8241 76.1174C46.7448 74.8755 44.1456 74.2338 41.1629 74.2407C40.4685 74.2423 39.9035 74.7257 39.9073 75.315C39.9054 75.9092 40.4674 76.39 41.1561 76.3836C44.4461 76.376 47.1412 77.3048 48.9343 79.0636C50.4494 80.5455 51.3136 82.6426 51.3068 84.8147C51.2972 87.844 49.5741 90.9211 46.2955 90.9287C44.9294 90.9319 44.4483 90.0807 44.4506 89.3501C44.4522 88.8436 44.6871 88.3512 45.0924 87.9947C45.589 87.5601 46.341 87.3344 47.2632 87.3322C47.9576 87.3306 48.5226 86.8472 48.5188 86.2579C48.5207 85.6637 47.9587 85.1829 47.2699 85.1893C45.2322 85.1941 43.9948 85.9031 43.3099 86.4989C42.4309 87.2606 41.9438 88.2796 41.9404 89.3608C41.9345 91.2115 43.4256 93.0831 46.2887 93.0813C49.7779 93.0879 52.0898 91.0029 53.1512 88.3267ZM56.4851 78.0624C55.5506 78.3762 54.6058 78.3687 53.8832 78.2778C52.7566 78.1343 51.8186 77.7615 51.2334 77.4365C53.5015 76.5936 55.3774 77.349 56.4851 78.0624ZM54.4388 86.1565C56.8973 86.3164 58.1393 87.7307 58.7279 88.8106C57.7321 88.7203 56.9023 88.3326 56.3172 87.959C55.4026 87.3816 54.7844 86.6768 54.4388 86.1565Z" fill="white"/>
<path d="M436.764 71.1776C439.656 71.067 442.217 69.4555 443.628 66.8697C443.885 66.4014 445.101 64.0135 444.006 62.8053C443.612 62.3749 442.999 62.1736 442.361 62.2738C440.381 62.5901 438.921 63.3106 437.867 64.212C435.748 66.0251 435.248 68.5881 435.377 70.1155C435.424 70.739 436.042 71.2052 436.764 71.1776ZM441.667 64.806C441.489 65.4248 441.086 66.3091 440.342 67.1318C439.867 67.6629 439.142 68.2622 438.157 68.6074C438.404 67.3701 439.205 65.5963 441.667 64.806Z" fill="white"/>
<path d="M436.957 54.1698C436.994 54.0346 437.012 53.9047 437.013 53.7696C437.019 53.6397 436.995 53.5046 436.959 53.3696C436.527 51.8844 433.589 51.2364 433.001 51.1182C429.759 50.4813 426.702 51.221 424.82 53.1116C424.619 53.3147 424.521 53.554 424.502 53.7982C424.519 54.0424 424.616 54.2812 424.816 54.4834C426.68 56.3602 429.739 57.0911 432.984 56.4393C433.573 56.3185 436.515 55.657 436.957 54.1698ZM430.737 54.3815C429.954 54.3885 428.958 54.2765 428.036 53.8213C428.061 53.8108 428.085 53.8004 428.109 53.79C428.085 53.7796 428.061 53.7693 428.037 53.7589C428.961 53.2995 429.964 53.1881 430.741 53.1864C431.962 53.1888 433.011 53.4618 433.691 53.72C433.654 53.7409 433.618 53.7514 433.581 53.7722C433.618 53.793 433.654 53.8032 433.691 53.8239C433.009 54.0957 431.958 54.3735 430.737 54.3815Z" fill="white"/>
<path d="M431.935 59.8558C430.559 61.0333 429.771 62.4953 429.464 63.5457C429.292 64.1488 429.703 64.7507 430.401 64.9206C433.181 65.5793 436.202 64.7254 438.474 62.6365C438.888 62.2614 440.904 60.3081 440.301 58.8649C440.084 58.3458 439.575 57.9936 438.932 57.9223C435.762 57.5658 433.476 58.5376 431.935 59.8558ZM435.263 62.0151C434.618 62.3907 433.712 62.7825 432.649 62.8421C433.338 61.7129 434.74 60.2443 437.37 60.1499C436.967 60.6913 436.267 61.4256 435.263 62.0151Z" fill="white"/>
<path d="M436.901 89.4792C436.938 89.4479 436.986 89.3959 437.035 89.3438C438.15 92.194 440.602 94.4072 444.331 94.3987C447.386 94.3969 448.984 92.3875 448.996 90.4076C449 89.254 448.487 88.1692 447.554 87.3607C446.827 86.7284 445.512 85.9779 443.337 85.9829C442.596 85.9846 441.994 86.5004 441.998 87.1292C441.996 87.7631 442.595 88.2762 443.33 88.2693C444.314 88.267 445.109 88.5095 445.642 88.9655C446.072 89.3439 446.319 89.8681 446.318 90.4085C446.315 91.188 445.796 92.0986 444.339 92.1019C440.84 92.1099 439.023 88.8352 439.033 85.603C439.04 83.2855 439.976 81.0437 441.603 79.4551C443.534 77.5644 446.41 76.5653 449.92 76.5572C450.661 76.5556 451.264 76.0397 451.26 75.411C451.262 74.777 450.662 74.264 449.927 74.2709C446.745 74.2782 443.961 74.9808 441.74 76.311C441.728 76.3006 441.716 76.2902 441.698 76.2851C437.084 73.7131 432.875 75.6661 430.866 77.3855C430.671 77.5523 430.494 77.7242 430.336 77.8804C429.873 78.3595 429.943 79.0661 430.489 79.4701C432.343 80.8585 434.904 81.2995 437.542 80.7531C436.912 81.986 436.519 83.3276 436.4 84.7361C433.758 84.6954 431.824 85.5624 430.466 86.7243C428.998 87.98 428.21 89.577 427.939 90.7001C427.792 91.3032 428.233 91.8998 428.937 92.0436C431.741 92.5984 434.72 91.6458 436.901 89.4792ZM433.547 78.4083C434.733 77.6417 436.74 76.8265 439.148 77.7095C438.522 78.0591 437.519 78.4615 436.316 78.6202C435.55 78.7259 434.542 78.7386 433.547 78.4083ZM435.67 87.0293C435.304 87.5914 434.633 88.3412 433.653 88.9618C433.027 89.3633 432.133 89.7759 431.076 89.8823C431.717 88.7324 433.052 87.2172 435.67 87.0293Z" fill="white"/>
<path d="M440.393 53.0031L439.595 53.7688L440.388 54.5308C440.57 54.7071 444.918 58.7919 450.475 58.7739C456.032 58.756 460.393 54.6409 460.57 54.469L461.343 53.7242L460.574 52.9829C460.393 52.8066 456.063 48.7166 450.506 48.7241C444.943 48.7265 440.576 52.826 440.393 53.0031ZM450.493 51.0054C453.523 51.0036 456.245 52.6862 457.62 53.7171C456.239 54.7543 453.512 56.4546 450.476 56.4616C447.433 56.4737 444.699 54.7704 443.324 53.7499C444.706 52.723 447.444 51.0123 450.493 51.0054Z" fill="white"/>
<path d="M456.149 26.8556C453.701 24.9385 450.618 24.3012 447.9 25.1648C447.226 25.3794 446.859 26.0142 447.088 26.6061C447.438 27.5095 448.181 28.6977 449.35 29.6979C450.295 30.5064 451.513 31.1947 453.037 31.5186C452.403 32.2683 452.114 33.1887 452.233 34.1862C452.357 35.2823 452.955 36.3462 453.857 37.1703C453.869 37.1911 453.875 37.2067 453.893 37.2222C454.776 38.3634 455.082 39.7293 454.756 41.0655C454.436 42.4069 453.521 43.5626 452.183 44.3243C450.79 45.1122 448.914 44.7891 447.995 43.6064C447.813 43.3678 447.747 43.0822 447.809 42.8014C447.87 42.5519 448.023 42.3385 448.254 42.182C448.083 42.5254 448.112 42.9255 448.366 43.2574C448.771 43.7813 449.603 43.9301 450.224 43.5754C450.728 43.2884 451.07 42.8511 451.193 42.352C451.31 41.8477 451.196 41.3335 450.863 40.903C450.44 40.3531 449.797 39.9805 449.039 39.8523C448.286 39.7189 447.514 39.8506 446.869 40.2158C445.993 40.7167 445.39 41.4715 445.181 42.3554C444.965 43.234 445.169 44.1377 445.744 44.8795C445.955 45.1544 446.197 45.4137 446.47 45.6469C447.251 46.3154 448.246 46.7704 449.351 46.9654C450.844 47.2218 452.363 46.9689 453.634 46.2437C455.569 45.148 456.886 43.4718 457.36 41.5324C457.612 40.4978 457.591 39.4482 457.333 38.4459C458.475 38.3601 459.558 37.8484 460.247 36.9686C460.667 36.4221 460.821 35.7722 460.671 35.1334C460.522 34.4946 460.092 33.9499 459.462 33.5876C458.849 33.2409 458.017 33.3831 457.602 33.9141C457.194 34.4398 457.355 35.1513 457.974 35.5033C458.053 35.5499 458.077 35.6434 458.022 35.711C457.65 36.1847 456.902 36.3164 456.351 36.0007C455.557 35.5504 454.988 34.7515 454.893 33.9618C454.852 33.6034 454.902 33.094 455.371 32.6928C456.839 31.4372 459.158 31.7956 460.838 32.3166C463.326 33.0903 466.096 34.7104 468.628 36.8767C473.334 40.9035 476.833 46.4711 475.138 50.5853C474.097 47.5582 471.237 45.5486 467.356 45.3548C464.181 45.1906 461.429 47.2755 461.226 49.9988C461.157 50.9083 461.506 51.7805 462.209 52.4544C462.263 52.5115 462.318 52.5581 462.378 52.6099C463.063 53.1956 463.966 53.5416 464.938 53.5914C466.541 53.6709 467.923 52.6232 468.024 51.2512C468.062 50.7314 467.87 50.233 467.464 49.8442C467.064 49.4606 466.512 49.228 465.905 49.1983C465.164 49.1584 464.525 49.6431 464.481 50.272C464.449 50.6929 464.691 51.0769 465.079 51.2943C464.745 51.2691 464.441 51.145 464.217 50.9221C463.987 50.7044 463.879 50.4136 463.898 50.1174C464.006 48.657 465.485 47.5468 467.179 47.6313C470.713 47.8102 472.893 49.9565 472.883 53.2302C472.882 53.3965 472.924 53.5575 473.003 53.6976C472.929 53.8433 472.88 53.9993 472.88 54.1656C472.87 57.4393 470.67 59.6008 467.141 59.7908C465.434 59.883 463.968 58.7744 463.876 57.3196C463.858 57.0234 463.975 56.7374 464.2 56.5134C464.425 56.2998 464.729 56.164 465.064 56.1373C464.674 56.3564 464.43 56.7415 464.459 57.1624C464.5 57.791 465.136 58.2728 465.877 58.2296C466.484 58.197 467.044 57.9567 467.44 57.5764C467.848 57.1858 468.044 56.6865 468.009 56.1669C467.916 54.7953 466.535 53.7592 464.937 53.8408C463.965 53.895 463.059 54.2452 462.371 54.834C462.31 54.8861 462.255 54.933 462.201 54.9903C461.5 55.6726 461.145 56.5464 461.203 57.4504C461.395 60.1676 464.127 62.2347 467.298 62.0612C471.18 61.8497 474.059 59.8217 475.113 56.795C476.782 60.9015 473.248 66.4853 468.517 70.5337C465.971 72.7115 463.191 74.3443 460.698 75.1295C459.014 75.6582 456.693 76.0272 455.234 74.7783C454.773 74.3844 454.72 73.8701 454.764 73.5114C454.857 72.7266 455.437 71.9198 456.234 71.4659C456.787 71.1477 457.54 71.2811 457.903 71.7479C457.957 71.8153 457.933 71.9089 457.854 71.9559C457.239 72.3054 457.061 73.0177 457.472 73.5468C457.878 74.0707 458.709 74.2195 459.33 73.8647C459.969 73.5047 460.401 72.9477 460.549 72.3134C460.703 71.6739 460.553 71.0247 460.136 70.4801C459.458 69.6086 458.373 69.0967 457.231 69.0162C457.496 68.0127 457.517 66.9681 457.277 65.9294C456.822 63.987 455.509 62.322 453.581 61.2352C452.314 60.5158 450.797 60.2699 449.302 60.5331C448.19 60.7279 447.199 61.1927 446.413 61.8648C446.145 62.094 445.895 62.3492 445.682 62.6355C445.097 63.3851 444.893 64.2846 445.103 65.1623C445.313 66.04 445.906 66.7973 446.779 67.2941C447.421 67.6564 448.186 67.7793 448.946 67.6477C449.699 67.5109 450.35 67.1405 450.777 66.5887C451.112 66.1566 451.229 65.6419 451.116 65.1381C450.996 64.6291 450.651 64.1986 450.154 63.9192C449.542 63.5724 448.709 63.7146 448.294 64.2456C448.038 64.5788 448.007 64.9789 448.176 65.3215C447.945 65.1661 447.788 64.9483 447.734 64.7042C447.668 64.4185 447.73 64.1378 447.925 63.8983C448.852 62.7114 450.723 62.3745 452.118 63.1612C453.452 63.9168 454.359 65.0683 454.671 66.4083C454.982 67.7482 454.668 69.1156 453.784 70.2556C453.772 70.2764 453.766 70.292 453.747 70.3076C452.84 71.1255 452.235 72.2026 452.104 73.2993C451.986 74.2921 452.262 75.2164 452.892 75.9632C451.372 76.2992 450.143 76.988 449.193 77.8008C448.018 78.8064 447.267 79.998 446.912 80.903C446.686 81.4907 447.036 82.1239 447.716 82.3406C450.422 83.1866 453.515 82.5403 455.974 80.6121C456.328 80.3307 457.771 79.1374 458.127 77.9206C462.069 77.7817 466.771 75.2715 470.4 72.1662C476.679 66.7944 480.918 58.907 476.137 53.6904C480.945 48.4467 476.761 40.5839 470.516 35.2407C466.906 32.152 462.219 29.6633 458.278 29.5424C457.942 28.3168 456.506 27.1301 456.149 26.8556ZM455.254 29.4142C452.63 29.5034 451.11 28.1298 450.324 27.0716C451.387 27.0639 452.321 27.384 452.994 27.7098C454.055 28.2218 454.812 28.9008 455.254 29.4142ZM452.837 79.7618C452.162 80.0907 451.226 80.4151 450.163 80.4123C450.956 79.3505 452.491 77.9647 455.108 78.0471C454.663 78.5625 453.896 79.2398 452.837 79.7618Z" fill="white"/>
<path d="M438.963 49.6135C439.607 49.5393 440.118 49.1848 440.338 48.6646C440.944 47.2239 438.94 45.2798 438.534 44.9014C436.269 42.8177 433.26 41.9828 430.476 42.6543C429.783 42.8222 429.362 43.4311 429.53 44.0335C429.825 45.0877 430.61 46.5409 431.978 47.7121C433.511 49.0233 435.785 49.9794 438.963 49.6135ZM432.698 44.7225C433.767 44.7824 434.665 45.1649 435.307 45.5376C436.314 46.1173 437.01 46.8484 437.403 47.3931C434.773 47.3108 433.381 45.8486 432.698 44.7225Z" fill="white"/>
<path d="M443.71 40.6384C442.315 38.059 439.763 36.4592 436.872 36.3619C436.15 36.3376 435.529 36.8067 435.472 37.4251C435.334 38.9636 435.818 41.5139 437.926 43.3174C438.974 44.214 440.429 44.9277 442.408 45.235C443.045 45.3323 443.659 45.1282 444.055 44.696C445.158 43.4931 443.957 41.1107 443.71 40.6384ZM440.419 40.3965C441.163 41.221 441.561 42.0931 441.729 42.7163C439.272 41.9373 438.488 40.1723 438.237 38.9258C439.226 39.2717 439.941 39.8728 440.419 40.3965Z" fill="white"/>
<path d="M437.258 18.2051C437.203 18.1481 437.161 18.1014 437.124 18.0703C434.963 15.9188 431.99 14.9799 429.17 15.5579C428.465 15.705 428.026 16.2984 428.164 16.9061C428.428 18.0279 429.206 19.6214 430.666 20.8703C432.011 22.0208 433.945 22.8842 436.587 22.8314C436.698 24.2394 437.083 25.5791 437.704 26.8092C435.064 26.2697 432.506 26.7276 430.643 28.1245C430.095 28.5311 430.026 29.2327 430.48 29.7149C430.632 29.8757 430.807 30.0364 431.007 30.2074C433.006 31.9176 437.197 33.8463 441.832 31.2583C441.845 31.2478 441.863 31.2426 441.875 31.2322C444.094 32.5573 446.867 33.2421 450.049 33.2348C450.79 33.2331 451.393 32.7173 451.389 32.0886C451.391 31.4546 450.791 30.9415 450.056 30.9484C446.546 30.9565 443.671 29.9653 441.757 28.0886C440.141 26.5075 439.218 24.27 439.226 21.9524C439.236 18.7202 441.074 15.4371 444.572 15.4291C446.03 15.4258 446.543 16.334 446.541 17.1134C446.539 17.6538 446.289 18.1792 445.856 18.5596C445.326 19.0232 444.524 19.2641 443.54 19.2664C442.799 19.2681 442.196 19.7839 442.2 20.4126C442.198 21.0466 442.798 21.5597 443.533 21.5528C445.707 21.5478 447.027 20.7913 447.758 20.1557C448.696 19.3429 449.216 18.2557 449.219 17.1021C449.225 15.1275 447.634 13.1305 444.579 13.1323C440.863 13.1201 438.39 15.3497 437.258 18.2051ZM433.701 29.1568C434.698 28.8219 435.706 28.83 436.477 28.927C437.679 29.0801 438.68 29.4779 439.304 29.8246C436.878 30.7188 434.889 29.9127 433.701 29.1568ZM435.884 20.5206C433.261 20.35 431.935 18.8409 431.307 17.6887C432.37 17.785 433.255 18.1987 433.88 18.5974C434.856 19.2135 435.515 19.9655 435.884 20.5206Z" fill="white"/>
<rect x="2.5" y="1.5" width="484.174" height="106" stroke="white" stroke-width="3"/>
<rect x="5.59961" y="2.3956" width="9.79947" height="7.18681" fill="white"/>
<rect x="5.59961" y="98.2198" width="9.79947" height="7.18681" fill="white"/>
<rect x="474.574" y="98.2198" width="9.79947" height="7.18681" fill="white"/>
<rect x="474.574" y="3.59341" width="9.79947" height="7.18681" fill="white"/>
<path d="M244.899 11.978L234.594 2.9945L255.205 2.99451L244.899 11.978Z" fill="white"/>
<path d="M244.899 97.022L255.205 106.005H234.594L244.899 97.022Z" fill="white"/>
</svg>
