<svg width="512" height="9" viewBox="0 0 512 9" fill="none" xmlns="http://www.w3.org/2000/svg">
<mask id="path-1-inside-1_202_2" fill="white">
<path d="M301.856 9C245.784 9 56.951 9 22.087 9H6.31516C2.86089 9 0.799034 7.75068 0.15638 5.31016C-0.432721 3.07301 0.691925 0.835857 2.70022 0.167618C3.5571 -0.122921 4.44075 -0.035759 5.21729 0.429104C5.99383 0.893966 6.55615 1.62031 6.79715 2.55004C7.01137 3.33449 6.93103 4.17706 6.58293 4.9034C6.23483 5.62975 5.61895 6.15272 4.89596 6.38515C4.25331 6.58852 3.61065 6.53042 3.02155 6.18177C2.43245 5.83312 2.03079 5.2811 1.81657 4.58381C1.46847 3.36355 2.11112 2.05612 3.26255 1.67842C3.5571 1.59126 3.85165 1.76559 3.93198 2.05612C4.01231 2.37572 3.85165 2.69531 3.58387 2.78247C3.02155 2.9568 2.70022 3.62503 2.86089 4.23517C2.96799 4.61287 3.20899 4.93245 3.53032 5.13583C3.85165 5.33921 4.22653 5.36826 4.60141 5.25205C5.05662 5.10678 5.43151 4.78719 5.64572 4.32232C5.85994 3.88652 5.9135 3.36355 5.77961 2.86963C5.61895 2.2595 5.24406 1.76558 4.70852 1.44598C4.19975 1.15545 3.58387 1.06829 3.02155 1.27167C1.57558 1.73653 0.772257 3.36355 1.20069 4.96151C1.70946 6.87907 3.36965 7.80879 6.34193 7.80879H22.1138C79.2565 7.80879 504.319 7.80879 505.685 7.80879C508.63 7.80879 510.317 6.87907 510.826 4.96151C511.254 3.36355 510.451 1.73653 509.005 1.27167C508.443 1.09735 507.854 1.15545 507.318 1.44598C506.809 1.73652 506.408 2.2595 506.247 2.86963C506.113 3.36355 506.167 3.88652 506.381 4.32232C506.595 4.75813 506.97 5.10678 507.425 5.25205C507.773 5.36826 508.148 5.33921 508.496 5.13583C508.818 4.93245 509.059 4.61287 509.166 4.23517C509.327 3.62503 509.005 2.9568 508.443 2.78247C508.148 2.69531 507.988 2.37572 508.095 2.05612C508.175 1.73653 508.47 1.56221 508.764 1.67842C509.889 2.05612 510.558 3.36355 510.21 4.58381C510.023 5.2811 509.594 5.83312 509.005 6.18177C508.416 6.53042 507.747 6.58852 507.131 6.38515C506.408 6.15272 505.819 5.62975 505.444 4.9034C505.096 4.17706 505.015 3.33449 505.23 2.55004C505.471 1.64936 506.033 0.893966 506.809 0.429104C507.586 -0.00670433 508.47 -0.122921 509.3 0.167618C511.308 0.835857 512.433 3.07301 511.844 5.31016C511.201 7.77974 509.139 9 505.685 9C505.149 9 337.684 9 301.856 9Z"/>
</mask>
<path d="M301.856 9C245.784 9 56.951 9 22.087 9H6.31516C2.86089 9 0.799034 7.75068 0.15638 5.31016C-0.432721 3.07301 0.691925 0.835857 2.70022 0.167618C3.5571 -0.122921 4.44075 -0.035759 5.21729 0.429104C5.99383 0.893966 6.55615 1.62031 6.79715 2.55004C7.01137 3.33449 6.93103 4.17706 6.58293 4.9034C6.23483 5.62975 5.61895 6.15272 4.89596 6.38515C4.25331 6.58852 3.61065 6.53042 3.02155 6.18177C2.43245 5.83312 2.03079 5.2811 1.81657 4.58381C1.46847 3.36355 2.11112 2.05612 3.26255 1.67842C3.5571 1.59126 3.85165 1.76559 3.93198 2.05612C4.01231 2.37572 3.85165 2.69531 3.58387 2.78247C3.02155 2.9568 2.70022 3.62503 2.86089 4.23517C2.96799 4.61287 3.20899 4.93245 3.53032 5.13583C3.85165 5.33921 4.22653 5.36826 4.60141 5.25205C5.05662 5.10678 5.43151 4.78719 5.64572 4.32232C5.85994 3.88652 5.9135 3.36355 5.77961 2.86963C5.61895 2.2595 5.24406 1.76558 4.70852 1.44598C4.19975 1.15545 3.58387 1.06829 3.02155 1.27167C1.57558 1.73653 0.772257 3.36355 1.20069 4.96151C1.70946 6.87907 3.36965 7.80879 6.34193 7.80879H22.1138C79.2565 7.80879 504.319 7.80879 505.685 7.80879C508.63 7.80879 510.317 6.87907 510.826 4.96151C511.254 3.36355 510.451 1.73653 509.005 1.27167C508.443 1.09735 507.854 1.15545 507.318 1.44598C506.809 1.73652 506.408 2.2595 506.247 2.86963C506.113 3.36355 506.167 3.88652 506.381 4.32232C506.595 4.75813 506.97 5.10678 507.425 5.25205C507.773 5.36826 508.148 5.33921 508.496 5.13583C508.818 4.93245 509.059 4.61287 509.166 4.23517C509.327 3.62503 509.005 2.9568 508.443 2.78247C508.148 2.69531 507.988 2.37572 508.095 2.05612C508.175 1.73653 508.47 1.56221 508.764 1.67842C509.889 2.05612 510.558 3.36355 510.21 4.58381C510.023 5.2811 509.594 5.83312 509.005 6.18177C508.416 6.53042 507.747 6.58852 507.131 6.38515C506.408 6.15272 505.819 5.62975 505.444 4.9034C505.096 4.17706 505.015 3.33449 505.23 2.55004C505.471 1.64936 506.033 0.893966 506.809 0.429104C507.586 -0.00670433 508.47 -0.122921 509.3 0.167618C511.308 0.835857 512.433 3.07301 511.844 5.31016C511.201 7.77974 509.139 9 505.685 9C505.149 9 337.684 9 301.856 9Z" fill="black" fill-opacity="0.6"/>
<path d="M0.15638 5.31016L2.09045 4.80086L0.15638 5.31016ZM2.70022 0.167618L3.34246 2.06173L3.33166 2.06532L2.70022 0.167618ZM6.79715 2.55004L4.86779 3.0769L4.86438 3.06441L4.86113 3.05187L6.79715 2.55004ZM4.89596 6.38515L5.50809 8.28919L5.49939 8.29194L4.89596 6.38515ZM1.81657 4.58381L-0.0952429 5.17115L-0.101167 5.15186L-0.106701 5.13246L1.81657 4.58381ZM3.26255 1.67842L2.63917 -0.221948L2.66698 -0.23107L2.69504 -0.239374L3.26255 1.67842ZM3.93198 2.05612L5.85965 1.52314L5.86591 1.54579L5.87164 1.56858L3.93198 2.05612ZM3.58387 2.78247L4.20291 4.68426L4.18953 4.68861L4.17608 4.69278L3.58387 2.78247ZM2.86089 4.23517L0.936758 4.78081L0.931616 4.76268L0.926817 4.74446L2.86089 4.23517ZM4.60141 5.25205L5.20945 7.15738L5.20154 7.1599L5.19362 7.16236L4.60141 5.25205ZM5.64572 4.32232L3.82931 3.48528L3.83979 3.46254L3.85084 3.44006L5.64572 4.32232ZM5.77961 2.86963L3.84927 3.39289L3.84738 3.38591L3.84554 3.37892L5.77961 2.86963ZM4.70852 1.44598L5.70032 -0.290775L5.71696 -0.281271L5.73342 -0.27145L4.70852 1.44598ZM3.02155 1.27167L3.70177 3.15244L3.66793 3.16468L3.63367 3.17569L3.02155 1.27167ZM1.20069 4.96151L3.13247 4.44358L3.13381 4.44862L1.20069 4.96151ZM510.826 4.96151L508.893 4.44861L508.894 4.44358L510.826 4.96151ZM509.005 1.27167L509.597 -0.638643L509.607 -0.635551L509.617 -0.632356L509.005 1.27167ZM507.318 1.44598L506.326 -0.290775L506.345 -0.301584L506.365 -0.311978L507.318 1.44598ZM506.247 2.86963L508.181 3.37892L508.179 3.38591L508.177 3.39289L506.247 2.86963ZM507.425 5.25205L508.033 3.34671L508.046 3.35076L508.059 3.35498L507.425 5.25205ZM508.496 5.13583L509.566 6.82578L509.536 6.84478L509.505 6.8627L508.496 5.13583ZM509.166 4.23517L511.1 4.74446L511.095 4.76268L511.09 4.78081L509.166 4.23517ZM508.443 2.78247L509.01 0.864676L509.023 0.868339L509.035 0.87216L508.443 2.78247ZM508.095 2.05612L510.034 2.54367L510.016 2.61851L509.991 2.69167L508.095 2.05612ZM508.764 1.67842L508.127 3.57436L508.078 3.55786L508.03 3.53885L508.764 1.67842ZM510.21 4.58381L508.279 4.06462L508.283 4.04985L508.287 4.03516L510.21 4.58381ZM507.131 6.38515L507.743 4.48112L507.75 4.48354L507.758 4.48602L507.131 6.38515ZM505.444 4.9034L503.667 5.82068L503.653 5.79442L503.64 5.76777L505.444 4.9034ZM505.23 2.55004L507.162 3.067L507.159 3.0769L505.23 2.55004ZM506.809 0.429104L505.782 -1.28692L505.806 -1.3013L505.831 -1.315L506.809 0.429104ZM509.3 0.167618L508.668 2.06532L508.654 2.06044L508.639 2.05533L509.3 0.167618ZM511.844 5.31016L509.908 4.80647L509.91 4.80086L511.844 5.31016ZM505.685 9V11V9ZM301.856 11C301.747 11 301.637 11 301.526 11C301.415 11 301.304 11 301.193 11C301.081 11 300.969 11 300.857 11C300.744 11 300.631 11 300.518 11C300.404 11 300.29 11 300.176 11C300.061 11 299.946 11 299.831 11C299.715 11 299.599 11 299.483 11C299.366 11 299.249 11 299.132 11C299.014 11 298.896 11 298.778 11C298.659 11 298.54 11 298.421 11C298.301 11 298.182 11 298.061 11C297.941 11 297.82 11 297.698 11C297.577 11 297.455 11 297.333 11C297.211 11 297.088 11 296.965 11C296.841 11 296.717 11 296.593 11C296.469 11 296.344 11 296.219 11C296.094 11 295.968 11 295.842 11C295.716 11 295.59 11 295.462 11C295.335 11 295.208 11 295.08 11C294.952 11 294.823 11 294.695 11C294.566 11 294.436 11 294.306 11C294.177 11 294.046 11 293.915 11C293.785 11 293.654 11 293.522 11C293.39 11 293.258 11 293.125 11C292.993 11 292.86 11 292.726 11C292.593 11 292.459 11 292.324 11C292.19 11 292.055 11 291.92 11C291.785 11 291.649 11 291.513 11C291.376 11 291.24 11 291.103 11C290.966 11 290.828 11 290.69 11C290.552 11 290.414 11 290.275 11C290.136 11 289.997 11 289.857 11C289.717 11 289.577 11 289.436 11C289.296 11 289.155 11 289.013 11C288.872 11 288.73 11 288.587 11C288.445 11 288.302 11 288.159 11C288.016 11 287.872 11 287.728 11C287.584 11 287.44 11 287.295 11C287.15 11 287.004 11 286.859 11C286.713 11 286.567 11 286.42 11C286.273 11 286.126 11 285.979 11C285.832 11 285.684 11 285.535 11C285.387 11 285.238 11 285.089 11C284.94 11 284.791 11 284.641 11C284.491 11 284.34 11 284.19 11C284.039 11 283.888 11 283.736 11C283.584 11 283.432 11 283.28 11C283.128 11 282.975 11 282.822 11C282.668 11 282.515 11 282.361 11C282.207 11 282.052 11 281.898 11C281.743 11 281.588 11 281.432 11C281.276 11 281.12 11 280.964 11C280.807 11 280.651 11 280.493 11C280.336 11 280.179 11 280.021 11C279.863 11 279.704 11 279.546 11C279.387 11 279.228 11 279.068 11C278.909 11 278.749 11 278.588 11C278.428 11 278.267 11 278.106 11C277.945 11 277.784 11 277.622 11C277.46 11 277.298 11 277.135 11C276.973 11 276.81 11 276.646 11C276.483 11 276.319 11 276.155 11C275.991 11 275.827 11 275.662 11C275.497 11 275.332 11 275.166 11C275 11 274.835 11 274.668 11C274.502 11 274.335 11 274.168 11C274.001 11 273.834 11 273.666 11C273.498 11 273.33 11 273.161 11C272.993 11 272.824 11 272.655 11C272.486 11 272.316 11 272.146 11C271.976 11 271.806 11 271.635 11C271.464 11 271.293 11 271.122 11C270.951 11 270.779 11 270.607 11C270.435 11 270.262 11 270.09 11C269.917 11 269.744 11 269.57 11C269.397 11 269.223 11 269.049 11C268.875 11 268.7 11 268.525 11C268.35 11 268.175 11 268 11C267.824 11 267.648 11 267.472 11C267.296 11 267.119 11 266.943 11C266.766 11 266.588 11 266.411 11C266.233 11 266.056 11 265.877 11C265.699 11 265.521 11 265.342 11C265.163 11 264.984 11 264.804 11C264.625 11 264.445 11 264.265 11C264.084 11 263.904 11 263.723 11C263.542 11 263.361 11 263.18 11C262.998 11 262.816 11 262.634 11C262.452 11 262.27 11 262.087 11C261.904 11 261.721 11 261.538 11C261.354 11 261.171 11 260.987 11C260.803 11 260.618 11 260.434 11C260.249 11 260.064 11 259.879 11C259.694 11 259.508 11 259.322 11C259.137 11 258.95 11 258.764 11C258.577 11 258.391 11 258.204 11C258.017 11 257.829 11 257.642 11C257.454 11 257.266 11 257.078 11C256.889 11 256.701 11 256.512 11C256.323 11 256.134 11 255.945 11C255.755 11 255.565 11 255.375 11C255.185 11 254.995 11 254.804 11C254.614 11 254.423 11 254.232 11C254.041 11 253.849 11 253.657 11C253.466 11 253.274 11 253.081 11C252.889 11 252.696 11 252.503 11C252.311 11 252.117 11 251.924 11C251.731 11 251.537 11 251.343 11C251.149 11 250.955 11 250.76 11C250.566 11 250.371 11 250.176 11C249.981 11 249.785 11 249.59 11C249.394 11 249.198 11 249.002 11C248.806 11 248.609 11 248.413 11C248.216 11 248.019 11 247.822 11C247.624 11 247.427 11 247.229 11C247.032 11 246.834 11 246.635 11C246.437 11 246.238 11 246.04 11C245.841 11 245.642 11 245.443 11C245.243 11 245.044 11 244.844 11C244.644 11 244.444 11 244.244 11C244.044 11 243.843 11 243.642 11C243.441 11 243.24 11 243.039 11C242.838 11 242.636 11 242.434 11C242.233 11 242.031 11 241.828 11C241.626 11 241.424 11 241.221 11C241.018 11 240.815 11 240.612 11C240.409 11 240.205 11 240.001 11C239.798 11 239.594 11 239.39 11C239.186 11 238.981 11 238.777 11C238.572 11 238.367 11 238.162 11C237.957 11 237.752 11 237.546 11C237.34 11 237.135 11 236.929 11C236.723 11 236.516 11 236.31 11C236.104 11 235.897 11 235.69 11C235.483 11 235.276 11 235.069 11C234.861 11 234.654 11 234.446 11C234.238 11 234.03 11 233.822 11C233.614 11 233.406 11 233.197 11C232.988 11 232.78 11 232.571 11C232.362 11 232.152 11 231.943 11C231.733 11 231.524 11 231.314 11C231.104 11 230.894 11 230.684 11C230.473 11 230.263 11 230.052 11C229.842 11 229.631 11 229.42 11C229.209 11 228.997 11 228.786 11C228.574 11 228.363 11 228.151 11C227.939 11 227.727 11 227.515 11C227.302 11 227.09 11 226.877 11C226.665 11 226.452 11 226.239 11C226.026 11 225.813 11 225.599 11C225.386 11 225.172 11 224.959 11C224.745 11 224.531 11 224.317 11C224.103 11 223.888 11 223.674 11C223.459 11 223.245 11 223.03 11C222.815 11 222.6 11 222.385 11C222.17 11 221.954 11 221.739 11C221.523 11 221.308 11 221.092 11C220.876 11 220.66 11 220.444 11C220.227 11 220.011 11 219.794 11C219.578 11 219.361 11 219.144 11C218.927 11 218.71 11 218.493 11C218.276 11 218.058 11 217.841 11C217.623 11 217.406 11 217.188 11C216.97 11 216.752 11 216.534 11C216.316 11 216.097 11 215.879 11C215.66 11 215.442 11 215.223 11C215.004 11 214.785 11 214.566 11C214.347 11 214.128 11 213.908 11C213.689 11 213.469 11 213.25 11C213.03 11 212.81 11 212.59 11C212.37 11 212.15 11 211.93 11C211.71 11 211.489 11 211.269 11C211.048 11 210.828 11 210.607 11C210.386 11 210.165 11 209.944 11C209.723 11 209.502 11 209.28 11C209.059 11 208.838 11 208.616 11C208.394 11 208.173 11 207.951 11C207.729 11 207.507 11 207.285 11C207.063 11 206.84 11 206.618 11C206.396 11 206.173 11 205.95 11C205.728 11 205.505 11 205.282 11C205.059 11 204.836 11 204.613 11C204.39 11 204.167 11 203.944 11C203.72 11 203.497 11 203.273 11C203.05 11 202.826 11 202.602 11C202.379 11 202.155 11 201.931 11C201.707 11 201.482 11 201.258 11C201.034 11 200.81 11 200.585 11C200.361 11 200.136 11 199.912 11C199.687 11 199.462 11 199.237 11C199.013 11 198.788 11 198.563 11C198.338 11 198.112 11 197.887 11C197.662 11 197.437 11 197.211 11C196.986 11 196.76 11 196.535 11C196.309 11 196.083 11 195.858 11C195.632 11 195.406 11 195.18 11C194.954 11 194.728 11 194.502 11C194.276 11 194.049 11 193.823 11C193.597 11 193.37 11 193.144 11C192.917 11 192.691 11 192.464 11C192.237 11 192.011 11 191.784 11C191.557 11 191.33 11 191.103 11C190.876 11 190.649 11 190.422 11C190.195 11 189.968 11 189.741 11C189.514 11 189.286 11 189.059 11C188.831 11 188.604 11 188.376 11C188.149 11 187.921 11 187.694 11C187.466 11 187.238 11 187.011 11C186.783 11 186.555 11 186.327 11C186.099 11 185.871 11 185.643 11C185.415 11 185.187 11 184.959 11C184.731 11 184.503 11 184.275 11C184.046 11 183.818 11 183.59 11C183.361 11 183.133 11 182.905 11C182.676 11 182.448 11 182.219 11C181.991 11 181.762 11 181.533 11C181.305 11 181.076 11 180.847 11C180.619 11 180.39 11 180.161 11C179.932 11 179.703 11 179.475 11C179.246 11 179.017 11 178.788 11C178.559 11 178.33 11 178.101 11C177.872 11 177.643 11 177.414 11C177.185 11 176.955 11 176.726 11C176.497 11 176.268 11 176.039 11C175.809 11 175.58 11 175.351 11C175.122 11 174.892 11 174.663 11C174.434 11 174.204 11 173.975 11C173.746 11 173.516 11 173.287 11C173.058 11 172.828 11 172.599 11C172.369 11 172.14 11 171.91 11C171.681 11 171.451 11 171.222 11C170.992 11 170.763 11 170.533 11C170.304 11 170.074 11 169.845 11C169.615 11 169.386 11 169.156 11C168.927 11 168.697 11 168.467 11C168.238 11 168.008 11 167.779 11C167.549 11 167.32 11 167.09 11C166.86 11 166.631 11 166.401 11C166.172 11 165.942 11 165.713 11C165.483 11 165.253 11 165.024 11C164.794 11 164.565 11 164.335 11C164.106 11 163.876 11 163.647 11C163.417 11 163.188 11 162.958 11C162.729 11 162.499 11 162.27 11C162.04 11 161.811 11 161.581 11C161.352 11 161.122 11 160.893 11C160.664 11 160.434 11 160.205 11C159.975 11 159.746 11 159.517 11C159.287 11 159.058 11 158.829 11C158.6 11 158.37 11 158.141 11C157.912 11 157.683 11 157.454 11C157.224 11 156.995 11 156.766 11C156.537 11 156.308 11 156.079 11C155.85 11 155.621 11 155.392 11C155.163 11 154.934 11 154.705 11C154.476 11 154.247 11 154.019 11C153.79 11 153.561 11 153.332 11C153.104 11 152.875 11 152.646 11C152.418 11 152.189 11 151.961 11C151.732 11 151.503 11 151.275 11C151.047 11 150.818 11 150.59 11C150.361 11 150.133 11 149.905 11C149.677 11 149.449 11 149.22 11C148.992 11 148.764 11 148.536 11C148.308 11 148.08 11 147.852 11C147.624 11 147.396 11 147.169 11C146.941 11 146.713 11 146.485 11C146.258 11 146.03 11 145.803 11C145.575 11 145.348 11 145.12 11C144.893 11 144.666 11 144.438 11C144.211 11 143.984 11 143.757 11C143.53 11 143.303 11 143.076 11C142.849 11 142.622 11 142.395 11C142.168 11 141.941 11 141.715 11C141.488 11 141.261 11 141.035 11C140.808 11 140.582 11 140.356 11C140.129 11 139.903 11 139.677 11C139.451 11 139.225 11 138.999 11C138.773 11 138.547 11 138.321 11C138.095 11 137.869 11 137.644 11C137.418 11 137.193 11 136.967 11C136.742 11 136.516 11 136.291 11C136.066 11 135.841 11 135.616 11C135.391 11 135.166 11 134.941 11C134.716 11 134.491 11 134.266 11C134.042 11 133.817 11 133.593 11C133.368 11 133.144 11 132.92 11C132.695 11 132.471 11 132.247 11C132.023 11 131.799 11 131.575 11C131.352 11 131.128 11 130.904 11C130.681 11 130.457 11 130.234 11C130.011 11 129.787 11 129.564 11C129.341 11 129.118 11 128.895 11C128.672 11 128.449 11 128.227 11C128.004 11 127.782 11 127.559 11C127.337 11 127.115 11 126.892 11C126.67 11 126.448 11 126.226 11C126.004 11 125.783 11 125.561 11C125.339 11 125.118 11 124.896 11C124.675 11 124.454 11 124.233 11C124.012 11 123.791 11 123.57 11C123.349 11 123.128 11 122.908 11C122.687 11 122.467 11 122.246 11C122.026 11 121.806 11 121.586 11C121.366 11 121.146 11 120.926 11C120.707 11 120.487 11 120.268 11C120.048 11 119.829 11 119.61 11C119.391 11 119.172 11 118.953 11C118.734 11 118.515 11 118.297 11C118.078 11 117.86 11 117.642 11C117.424 11 117.205 11 116.988 11C116.77 11 116.552 11 116.334 11C116.117 11 115.899 11 115.682 11C115.465 11 115.248 11 115.031 11C114.814 11 114.597 11 114.381 11C114.164 11 113.947 11 113.731 11C113.515 11 113.299 11 113.083 11C112.867 11 112.651 11 112.436 11C112.22 11 112.005 11 111.789 11C111.574 11 111.359 11 111.144 11C110.929 11 110.715 11 110.5 11C110.286 11 110.071 11 109.857 11C109.643 11 109.429 11 109.215 11C109.001 11 108.788 11 108.574 11C108.361 11 108.148 11 107.935 11C107.722 11 107.509 11 107.296 11C107.083 11 106.871 11 106.659 11C106.446 11 106.234 11 106.022 11C105.81 11 105.599 11 105.387 11C105.176 11 104.964 11 104.753 11C104.542 11 104.331 11 104.12 11C103.91 11 103.699 11 103.489 11C103.278 11 103.068 11 102.858 11C102.648 11 102.439 11 102.229 11C102.02 11 101.81 11 101.601 11C101.392 11 101.183 11 100.975 11C100.766 11 100.558 11 100.349 11C100.141 11 99.9331 11 99.7253 11C99.5175 11 99.3099 11 99.1025 11C98.8952 11 98.688 11 98.4811 11C98.2741 11 98.0674 11 97.8609 11C97.6544 11 97.4481 11 97.2421 11C97.036 11 96.8302 11 96.6246 11C96.419 11 96.2136 11 96.0085 11C95.8033 11 95.5984 11 95.3937 11C95.189 11 94.9846 11 94.7803 11C94.5761 11 94.3721 11 94.1684 11C93.9646 11 93.7611 11 93.5578 11C93.3545 11 93.1515 11 92.9487 11C92.7458 11 92.5433 11 92.341 11C92.1386 11 91.9365 11 91.7347 11C91.5329 11 91.3312 11 91.1299 11C90.9285 11 90.7274 11 90.5266 11C90.3257 11 90.1251 11 89.9247 11C89.7244 11 89.5242 11 89.3244 11C89.1245 11 88.9249 11 88.7256 11C88.5262 11 88.3271 11 88.1283 11C87.9294 11 87.7308 11 87.5325 11C87.3342 11 87.1361 11 86.9383 11C86.7404 11 86.5429 11 86.3456 11C86.1483 11 85.9513 11 85.7545 11C85.5578 11 85.3613 11 85.165 11C84.9688 11 84.7728 11 84.5771 11C84.3815 11 84.186 11 83.9909 11C83.7957 11 83.6008 11 83.4062 11C83.2116 11 83.0173 11 82.8232 11C82.6292 11 82.4354 11 82.2419 11C82.0484 11 81.8551 11 81.6622 11C81.4692 11 81.2766 11 81.0842 11C80.8918 11 80.6997 11 80.5078 11C80.316 11 80.1245 11 79.9332 11C79.742 11 79.551 11 79.3603 11C79.1696 11 78.9792 11 78.7892 11C78.5991 11 78.4092 11 78.2197 11C78.0302 11 77.841 11 77.652 11C77.4631 11 77.2745 11 77.0861 11C76.8978 11 76.7098 11 76.522 11C76.3343 11 76.1468 11 75.9597 11C75.7725 11 75.5857 11 75.3992 11C75.2126 11 75.0264 11 74.8405 11C74.6545 11 74.4689 11 74.2836 11C74.0983 11 73.9133 11 73.7286 11C73.5439 11 73.3595 11 73.1754 11C72.9913 11 72.8075 11 72.6241 11C72.4406 11 72.2575 11 72.0747 11C71.8919 11 71.7094 11 71.5272 11C71.345 11 71.1631 11 70.9815 11C70.8 11 70.6188 11 70.4379 11C70.257 11 70.0764 11 69.8961 11C69.7158 11 69.5359 11 69.3563 11C69.1767 11 68.9974 11 68.8185 11C68.6395 11 68.4609 11 68.2826 11C68.1043 11 67.9263 11 67.7487 11C67.5711 11 67.3938 11 67.2168 11C67.0398 11 66.8632 11 66.6869 11C66.5106 11 66.3347 11 66.1591 11C65.9835 11 65.8082 11 65.6333 11C65.4583 11 65.2837 11 65.1095 11C64.9352 11 64.7613 11 64.5878 11C64.4142 11 64.241 11 64.0682 11C63.8953 11 63.7228 11 63.5506 11C63.3785 11 63.2066 11 63.0352 11C62.8637 11 62.6926 11 62.5219 11C62.3511 11 62.1807 11 62.0107 11C61.8406 11 61.6709 11 61.5016 11C61.3323 11 61.1633 11 60.9947 11C60.8261 11 60.6579 11 60.49 11C60.3221 11 60.1546 11 59.9874 11C59.8203 11 59.6535 11 59.487 11C59.3206 11 59.1546 11 58.9889 11C58.8232 11 58.6579 11 58.4929 11C58.328 11 58.1634 11 57.9992 11C57.835 11 57.6712 11 57.5077 11C57.3443 11 57.1812 11 57.0185 11C56.8558 11 56.6935 11 56.5316 11C56.3696 11 56.2081 11 56.0469 11C55.8857 11 55.7249 11 55.5645 11C55.4041 11 55.2441 11 55.0844 11C54.9248 11 54.7655 11 54.6067 11C54.4478 11 54.2893 11 54.1313 11C53.9732 11 53.8155 11 53.6582 11C53.5009 11 53.344 11 53.1875 11C53.0309 11 52.8748 11 52.7191 11C52.5634 11 52.4081 11 52.2531 11C52.0982 11 51.9437 11 51.7896 11C51.6355 11 51.4817 11 51.3284 11C51.1751 11 51.0222 11 50.8697 11C50.7172 11 50.5651 11 50.4134 11C50.2617 11 50.1104 11 49.9595 11C49.8086 11 49.6582 11 49.5081 11C49.3581 11 49.2084 11 49.0592 11C48.91 11 48.7612 11 48.6128 11C48.4644 11 48.3164 11 48.1688 11C48.0213 11 47.8741 11 47.7274 11C47.5807 11 47.4344 11 47.2885 11C47.1426 11 46.9972 11 46.8521 11C46.7071 11 46.5625 11 46.4183 11C46.2741 11 46.1304 11 45.9871 11C45.8437 11 45.7008 11 45.5584 11C45.4159 11 45.2739 11 45.1323 11C44.9907 11 44.8495 11 44.7088 11C44.5681 11 44.4278 11 44.2879 11C44.1481 11 44.0087 11 43.8697 11C43.7307 11 43.5922 11 43.4541 11C43.316 11 43.1783 11 43.0411 11C42.9039 11 42.7671 11 42.6308 11C42.4945 11 42.3586 11 42.2232 11C42.0878 11 41.9528 11 41.8183 11C41.6838 11 41.5497 11 41.4161 11C41.2824 11 41.1493 11 41.0166 11C40.8839 11 40.7516 11 40.6198 11C40.488 11 40.3567 11 40.2258 11C40.0949 11 39.9645 11 39.8345 11C39.7045 11 39.575 11 39.446 11C39.3169 11 39.1884 11 39.0603 11C38.9321 11 38.8045 11 38.6773 11C38.5502 11 38.4234 11 38.2972 11C38.171 11 38.0452 11 37.9199 11C37.7946 11 37.6698 11 37.5454 11C37.4211 11 37.2972 11 37.1738 11C37.0504 11 36.9275 11 36.805 11C36.6826 11 36.5606 11 36.4391 11C36.3176 11 36.1966 11 36.0761 11C35.9556 11 35.8355 11 35.716 11C35.5964 11 35.4773 11 35.3588 11C35.2402 11 35.1221 11 35.0045 11C34.8869 11 34.7697 11 34.6531 11C34.5365 11 34.4203 11 34.3047 11C34.189 11 34.0739 11 33.9592 11C33.8446 11 33.7304 11 33.6168 11C33.5031 11 33.3899 11 33.2773 11C33.1646 11 33.0524 11 32.9408 11C32.8291 11 32.718 11 32.6073 11C32.4966 11 32.3865 11 32.2768 11C32.1672 11 32.058 11 31.9494 11C31.8408 11 31.7327 11 31.625 11C31.5174 11 31.4103 11 31.3037 11C31.1971 11 31.0911 11 30.9855 11C30.8799 11 30.7749 11 30.6704 11C30.5658 11 30.4618 11 30.3583 11C30.2548 11 30.1518 11 30.0494 11C29.9469 11 29.845 11 29.7436 11C29.6422 11 29.5413 11 29.4409 11C29.3406 11 29.2407 11 29.1414 11C29.0421 11 28.9433 11 28.8451 11C28.7468 11 28.6491 11 28.5519 11C28.4547 11 28.358 11 28.2619 11C28.1658 11 28.0702 11 27.9751 11C27.8801 11 27.7856 11 27.6916 11C27.5976 11 27.5042 11 27.4113 11C27.3183 11 27.226 11 27.1342 11C27.0423 11 26.9511 11 26.8603 11C26.7696 11 26.6794 11 26.5898 11C26.5001 11 26.411 11 26.3225 11C26.2339 11 26.1459 11 26.0585 11C25.9711 11 25.8842 11 25.7978 11C25.7115 11 25.6257 11 25.5405 11C25.4552 11 25.3705 11 25.2864 11C25.2023 11 25.1187 11 25.0357 11C24.9527 11 24.8703 11 24.7884 11C24.7065 11 24.6252 11 24.5444 11C24.4637 11 24.3835 11 24.3039 11C24.2242 11 24.1452 11 24.0667 11C23.9882 11 23.9103 11 23.8329 11C23.7556 11 23.6788 11 23.6026 11C23.5263 11 23.4507 11 23.3756 11C23.3006 11 23.2261 11 23.1522 11C23.0783 11 23.0049 11 22.9322 11C22.8594 11 22.7872 11 22.7156 11C22.644 11 22.573 11 22.5026 11C22.4321 11 22.3623 11 22.293 11C22.2238 11 22.1551 11 22.087 11V7C22.1551 7 22.2238 7 22.293 7C22.3623 7 22.4321 7 22.5026 7C22.573 7 22.644 7 22.7156 7C22.7872 7 22.8594 7 22.9322 7C23.0049 7 23.0783 7 23.1522 7C23.2261 7 23.3006 7 23.3756 7C23.4507 7 23.5263 7 23.6026 7C23.6788 7 23.7556 7 23.8329 7C23.9103 7 23.9882 7 24.0667 7C24.1452 7 24.2242 7 24.3039 7C24.3835 7 24.4637 7 24.5444 7C24.6252 7 24.7065 7 24.7884 7C24.8703 7 24.9527 7 25.0357 7C25.1187 7 25.2023 7 25.2864 7C25.3705 7 25.4552 7 25.5405 7C25.6257 7 25.7115 7 25.7978 7C25.8842 7 25.9711 7 26.0585 7C26.1459 7 26.2339 7 26.3225 7C26.411 7 26.5001 7 26.5898 7C26.6794 7 26.7696 7 26.8603 7C26.9511 7 27.0423 7 27.1342 7C27.226 7 27.3183 7 27.4113 7C27.5042 7 27.5976 7 27.6916 7C27.7856 7 27.8801 7 27.9751 7C28.0702 7 28.1658 7 28.2619 7C28.358 7 28.4547 7 28.5519 7C28.6491 7 28.7468 7 28.8451 7C28.9433 7 29.0421 7 29.1414 7C29.2407 7 29.3406 7 29.4409 7C29.5413 7 29.6422 7 29.7436 7C29.845 7 29.9469 7 30.0494 7C30.1518 7 30.2548 7 30.3583 7C30.4618 7 30.5658 7 30.6704 7C30.7749 7 30.8799 7 30.9855 7C31.0911 7 31.1971 7 31.3037 7C31.4103 7 31.5174 7 31.625 7C31.7327 7 31.8408 7 31.9494 7C32.058 7 32.1672 7 32.2768 7C32.3865 7 32.4966 7 32.6073 7C32.718 7 32.8291 7 32.9408 7C33.0524 7 33.1646 7 33.2773 7C33.3899 7 33.5031 7 33.6168 7C33.7304 7 33.8446 7 33.9592 7C34.0739 7 34.189 7 34.3047 7C34.4203 7 34.5365 7 34.6531 7C34.7697 7 34.8869 7 35.0045 7C35.1221 7 35.2402 7 35.3588 7C35.4773 7 35.5964 7 35.716 7C35.8355 7 35.9556 7 36.0761 7C36.1966 7 36.3176 7 36.4391 7C36.5606 7 36.6826 7 36.805 7C36.9275 7 37.0504 7 37.1738 7C37.2972 7 37.4211 7 37.5454 7C37.6698 7 37.7946 7 37.9199 7C38.0452 7 38.171 7 38.2972 7C38.4234 7 38.5502 7 38.6773 7C38.8045 7 38.9321 7 39.0603 7C39.1884 7 39.3169 7 39.446 7C39.575 7 39.7045 7 39.8345 7C39.9645 7 40.0949 7 40.2258 7C40.3567 7 40.488 7 40.6198 7C40.7516 7 40.8839 7 41.0166 7C41.1493 7 41.2824 7 41.4161 7C41.5497 7 41.6838 7 41.8183 7C41.9528 7 42.0878 7 42.2232 7C42.3586 7 42.4945 7 42.6308 7C42.7671 7 42.9039 7 43.0411 7C43.1783 7 43.316 7 43.4541 7C43.5922 7 43.7307 7 43.8697 7C44.0087 7 44.1481 7 44.2879 7C44.4278 7 44.5681 7 44.7088 7C44.8495 7 44.9907 7 45.1323 7C45.2739 7 45.4159 7 45.5584 7C45.7008 7 45.8437 7 45.9871 7C46.1304 7 46.2741 7 46.4183 7C46.5625 7 46.7071 7 46.8521 7C46.9972 7 47.1426 7 47.2885 7C47.4344 7 47.5807 7 47.7274 7C47.8741 7 48.0213 7 48.1688 7C48.3164 7 48.4644 7 48.6128 7C48.7612 7 48.91 7 49.0592 7C49.2084 7 49.3581 7 49.5081 7C49.6582 7 49.8086 7 49.9595 7C50.1104 7 50.2617 7 50.4134 7C50.5651 7 50.7172 7 50.8697 7C51.0222 7 51.1751 7 51.3284 7C51.4817 7 51.6355 7 51.7896 7C51.9437 7 52.0982 7 52.2531 7C52.4081 7 52.5634 7 52.7191 7C52.8748 7 53.0309 7 53.1875 7C53.344 7 53.5009 7 53.6582 7C53.8155 7 53.9732 7 54.1313 7C54.2893 7 54.4478 7 54.6067 7C54.7655 7 54.9248 7 55.0844 7C55.2441 7 55.4041 7 55.5645 7C55.7249 7 55.8857 7 56.0469 7C56.2081 7 56.3696 7 56.5316 7C56.6935 7 56.8558 7 57.0185 7C57.1812 7 57.3443 7 57.5077 7C57.6712 7 57.835 7 57.9992 7C58.1634 7 58.328 7 58.4929 7C58.6579 7 58.8232 7 58.9889 7C59.1546 7 59.3206 7 59.487 7C59.6535 7 59.8203 7 59.9874 7C60.1546 7 60.3221 7 60.49 7C60.6579 7 60.8261 7 60.9947 7C61.1633 7 61.3323 7 61.5016 7C61.6709 7 61.8406 7 62.0107 7C62.1807 7 62.3511 7 62.5219 7C62.6926 7 62.8637 7 63.0352 7C63.2066 7 63.3785 7 63.5506 7C63.7228 7 63.8953 7 64.0682 7C64.241 7 64.4142 7 64.5878 7C64.7613 7 64.9352 7 65.1095 7C65.2837 7 65.4583 7 65.6333 7C65.8082 7 65.9835 7 66.1591 7C66.3347 7 66.5106 7 66.6869 7C66.8632 7 67.0398 7 67.2168 7C67.3938 7 67.5711 7 67.7487 7C67.9263 7 68.1043 7 68.2826 7C68.4609 7 68.6395 7 68.8185 7C68.9974 7 69.1767 7 69.3563 7C69.5359 7 69.7158 7 69.8961 7C70.0764 7 70.257 7 70.4379 7C70.6188 7 70.8 7 70.9815 7C71.1631 7 71.345 7 71.5272 7C71.7094 7 71.8919 7 72.0747 7C72.2575 7 72.4406 7 72.6241 7C72.8075 7 72.9913 7 73.1754 7C73.3595 7 73.5439 7 73.7286 7C73.9133 7 74.0983 7 74.2836 7C74.4689 7 74.6545 7 74.8405 7C75.0264 7 75.2126 7 75.3992 7C75.5857 7 75.7725 7 75.9597 7C76.1468 7 76.3343 7 76.522 7C76.7098 7 76.8978 7 77.0861 7C77.2745 7 77.4631 7 77.652 7C77.841 7 78.0302 7 78.2197 7C78.4092 7 78.5991 7 78.7892 7C78.9792 7 79.1696 7 79.3603 7C79.551 7 79.742 7 79.9332 7C80.1245 7 80.316 7 80.5078 7C80.6997 7 80.8918 7 81.0842 7C81.2766 7 81.4692 7 81.6622 7C81.8551 7 82.0484 7 82.2419 7C82.4354 7 82.6292 7 82.8232 7C83.0173 7 83.2116 7 83.4062 7C83.6008 7 83.7957 7 83.9909 7C84.186 7 84.3815 7 84.5771 7C84.7728 7 84.9688 7 85.165 7C85.3613 7 85.5578 7 85.7545 7C85.9513 7 86.1483 7 86.3456 7C86.5429 7 86.7404 7 86.9383 7C87.1361 7 87.3342 7 87.5325 7C87.7308 7 87.9294 7 88.1283 7C88.3271 7 88.5262 7 88.7256 7C88.9249 7 89.1245 7 89.3244 7C89.5242 7 89.7244 7 89.9247 7C90.1251 7 90.3257 7 90.5266 7C90.7274 7 90.9285 7 91.1299 7C91.3312 7 91.5329 7 91.7347 7C91.9365 7 92.1386 7 92.341 7C92.5433 7 92.7458 7 92.9487 7C93.1515 7 93.3545 7 93.5578 7C93.7611 7 93.9646 7 94.1684 7C94.3721 7 94.5761 7 94.7803 7C94.9846 7 95.189 7 95.3937 7C95.5984 7 95.8033 7 96.0085 7C96.2136 7 96.419 7 96.6246 7C96.8302 7 97.036 7 97.2421 7C97.4481 7 97.6544 7 97.8609 7C98.0674 7 98.2741 7 98.4811 7C98.688 7 98.8952 7 99.1025 7C99.3099 7 99.5175 7 99.7253 7C99.9331 7 100.141 7 100.349 7C100.558 7 100.766 7 100.975 7C101.183 7 101.392 7 101.601 7C101.81 7 102.02 7 102.229 7C102.439 7 102.648 7 102.858 7C103.068 7 103.278 7 103.489 7C103.699 7 103.91 7 104.12 7C104.331 7 104.542 7 104.753 7C104.964 7 105.176 7 105.387 7C105.599 7 105.81 7 106.022 7C106.234 7 106.446 7 106.659 7C106.871 7 107.083 7 107.296 7C107.509 7 107.722 7 107.935 7C108.148 7 108.361 7 108.574 7C108.788 7 109.001 7 109.215 7C109.429 7 109.643 7 109.857 7C110.071 7 110.286 7 110.5 7C110.715 7 110.929 7 111.144 7C111.359 7 111.574 7 111.789 7C112.005 7 112.22 7 112.436 7C112.651 7 112.867 7 113.083 7C113.299 7 113.515 7 113.731 7C113.947 7 114.164 7 114.381 7C114.597 7 114.814 7 115.031 7C115.248 7 115.465 7 115.682 7C115.899 7 116.117 7 116.334 7C116.552 7 116.77 7 116.988 7C117.205 7 117.424 7 117.642 7C117.86 7 118.078 7 118.297 7C118.515 7 118.734 7 118.953 7C119.172 7 119.391 7 119.61 7C119.829 7 120.048 7 120.268 7C120.487 7 120.707 7 120.926 7C121.146 7 121.366 7 121.586 7C121.806 7 122.026 7 122.246 7C122.467 7 122.687 7 122.908 7C123.128 7 123.349 7 123.57 7C123.791 7 124.012 7 124.233 7C124.454 7 124.675 7 124.896 7C125.118 7 125.339 7 125.561 7C125.783 7 126.004 7 126.226 7C126.448 7 126.67 7 126.892 7C127.115 7 127.337 7 127.559 7C127.782 7 128.004 7 128.227 7C128.449 7 128.672 7 128.895 7C129.118 7 129.341 7 129.564 7C129.787 7 130.011 7 130.234 7C130.457 7 130.681 7 130.904 7C131.128 7 131.352 7 131.575 7C131.799 7 132.023 7 132.247 7C132.471 7 132.695 7 132.92 7C133.144 7 133.368 7 133.593 7C133.817 7 134.042 7 134.266 7C134.491 7 134.716 7 134.941 7C135.166 7 135.391 7 135.616 7C135.841 7 136.066 7 136.291 7C136.516 7 136.742 7 136.967 7C137.193 7 137.418 7 137.644 7C137.869 7 138.095 7 138.321 7C138.547 7 138.773 7 138.999 7C139.225 7 139.451 7 139.677 7C139.903 7 140.129 7 140.356 7C140.582 7 140.808 7 141.035 7C141.261 7 141.488 7 141.715 7C141.941 7 142.168 7 142.395 7C142.622 7 142.849 7 143.076 7C143.303 7 143.53 7 143.757 7C143.984 7 144.211 7 144.438 7C144.666 7 144.893 7 145.12 7C145.348 7 145.575 7 145.803 7C146.03 7 146.258 7 146.485 7C146.713 7 146.941 7 147.169 7C147.396 7 147.624 7 147.852 7C148.08 7 148.308 7 148.536 7C148.764 7 148.992 7 149.22 7C149.449 7 149.677 7 149.905 7C150.133 7 150.361 7 150.59 7C150.818 7 151.047 7 151.275 7C151.503 7 151.732 7 151.961 7C152.189 7 152.418 7 152.646 7C152.875 7 153.104 7 153.332 7C153.561 7 153.79 7 154.019 7C154.247 7 154.476 7 154.705 7C154.934 7 155.163 7 155.392 7C155.621 7 155.85 7 156.079 7C156.308 7 156.537 7 156.766 7C156.995 7 157.224 7 157.454 7C157.683 7 157.912 7 158.141 7C158.37 7 158.6 7 158.829 7C159.058 7 159.287 7 159.517 7C159.746 7 159.975 7 160.205 7C160.434 7 160.664 7 160.893 7C161.122 7 161.352 7 161.581 7C161.811 7 162.04 7 162.27 7C162.499 7 162.729 7 162.958 7C163.188 7 163.417 7 163.647 7C163.876 7 164.106 7 164.335 7C164.565 7 164.794 7 165.024 7C165.253 7 165.483 7 165.713 7C165.942 7 166.172 7 166.401 7C166.631 7 166.86 7 167.09 7C167.32 7 167.549 7 167.779 7C168.008 7 168.238 7 168.467 7C168.697 7 168.927 7 169.156 7C169.386 7 169.615 7 169.845 7C170.074 7 170.304 7 170.533 7C170.763 7 170.992 7 171.222 7C171.451 7 171.681 7 171.91 7C172.14 7 172.369 7 172.599 7C172.828 7 173.058 7 173.287 7C173.516 7 173.746 7 173.975 7C174.204 7 174.434 7 174.663 7C174.892 7 175.122 7 175.351 7C175.58 7 175.809 7 176.039 7C176.268 7 176.497 7 176.726 7C176.955 7 177.185 7 177.414 7C177.643 7 177.872 7 178.101 7C178.33 7 178.559 7 178.788 7C179.017 7 179.246 7 179.475 7C179.703 7 179.932 7 180.161 7C180.39 7 180.619 7 180.847 7C181.076 7 181.305 7 181.533 7C181.762 7 181.991 7 182.219 7C182.448 7 182.676 7 182.905 7C183.133 7 183.361 7 183.59 7C183.818 7 184.046 7 184.275 7C184.503 7 184.731 7 184.959 7C185.187 7 185.415 7 185.643 7C185.871 7 186.099 7 186.327 7C186.555 7 186.783 7 187.011 7C187.238 7 187.466 7 187.694 7C187.921 7 188.149 7 188.376 7C188.604 7 188.831 7 189.059 7C189.286 7 189.514 7 189.741 7C189.968 7 190.195 7 190.422 7C190.649 7 190.876 7 191.103 7C191.33 7 191.557 7 191.784 7C192.011 7 192.237 7 192.464 7C192.691 7 192.917 7 193.144 7C193.37 7 193.597 7 193.823 7C194.049 7 194.276 7 194.502 7C194.728 7 194.954 7 195.18 7C195.406 7 195.632 7 195.858 7C196.083 7 196.309 7 196.535 7C196.76 7 196.986 7 197.211 7C197.437 7 197.662 7 197.887 7C198.112 7 198.338 7 198.563 7C198.788 7 199.013 7 199.237 7C199.462 7 199.687 7 199.912 7C200.136 7 200.361 7 200.585 7C200.81 7 201.034 7 201.258 7C201.482 7 201.707 7 201.931 7C202.155 7 202.379 7 202.602 7C202.826 7 203.05 7 203.273 7C203.497 7 203.72 7 203.944 7C204.167 7 204.39 7 204.613 7C204.836 7 205.059 7 205.282 7C205.505 7 205.728 7 205.95 7C206.173 7 206.396 7 206.618 7C206.84 7 207.063 7 207.285 7C207.507 7 207.729 7 207.951 7C208.173 7 208.394 7 208.616 7C208.838 7 209.059 7 209.28 7C209.502 7 209.723 7 209.944 7C210.165 7 210.386 7 210.607 7C210.828 7 211.048 7 211.269 7C211.489 7 211.71 7 211.93 7C212.15 7 212.37 7 212.59 7C212.81 7 213.03 7 213.25 7C213.469 7 213.689 7 213.908 7C214.128 7 214.347 7 214.566 7C214.785 7 215.004 7 215.223 7C215.442 7 215.66 7 215.879 7C216.097 7 216.316 7 216.534 7C216.752 7 216.97 7 217.188 7C217.406 7 217.623 7 217.841 7C218.058 7 218.276 7 218.493 7C218.71 7 218.927 7 219.144 7C219.361 7 219.578 7 219.794 7C220.011 7 220.227 7 220.444 7C220.66 7 220.876 7 221.092 7C221.308 7 221.523 7 221.739 7C221.954 7 222.17 7 222.385 7C222.6 7 222.815 7 223.03 7C223.245 7 223.459 7 223.674 7C223.888 7 224.103 7 224.317 7C224.531 7 224.745 7 224.959 7C225.172 7 225.386 7 225.599 7C225.813 7 226.026 7 226.239 7C226.452 7 226.665 7 226.877 7C227.09 7 227.302 7 227.515 7C227.727 7 227.939 7 228.151 7C228.363 7 228.574 7 228.786 7C228.997 7 229.209 7 229.42 7C229.631 7 229.842 7 230.052 7C230.263 7 230.473 7 230.684 7C230.894 7 231.104 7 231.314 7C231.524 7 231.733 7 231.943 7C232.152 7 232.362 7 232.571 7C232.78 7 232.988 7 233.197 7C233.406 7 233.614 7 233.822 7C234.03 7 234.238 7 234.446 7C234.654 7 234.861 7 235.069 7C235.276 7 235.483 7 235.69 7C235.897 7 236.104 7 236.31 7C236.516 7 236.723 7 236.929 7C237.135 7 237.34 7 237.546 7C237.752 7 237.957 7 238.162 7C238.367 7 238.572 7 238.777 7C238.981 7 239.186 7 239.39 7C239.594 7 239.798 7 240.001 7C240.205 7 240.409 7 240.612 7C240.815 7 241.018 7 241.221 7C241.424 7 241.626 7 241.828 7C242.031 7 242.233 7 242.434 7C242.636 7 242.838 7 243.039 7C243.24 7 243.441 7 243.642 7C243.843 7 244.044 7 244.244 7C244.444 7 244.644 7 244.844 7C245.044 7 245.243 7 245.443 7C245.642 7 245.841 7 246.04 7C246.238 7 246.437 7 246.635 7C246.834 7 247.032 7 247.229 7C247.427 7 247.624 7 247.822 7C248.019 7 248.216 7 248.413 7C248.609 7 248.806 7 249.002 7C249.198 7 249.394 7 249.59 7C249.785 7 249.981 7 250.176 7C250.371 7 250.566 7 250.76 7C250.955 7 251.149 7 251.343 7C251.537 7 251.731 7 251.924 7C252.117 7 252.311 7 252.503 7C252.696 7 252.889 7 253.081 7C253.274 7 253.466 7 253.657 7C253.849 7 254.041 7 254.232 7C254.423 7 254.614 7 254.804 7C254.995 7 255.185 7 255.375 7C255.565 7 255.755 7 255.945 7C256.134 7 256.323 7 256.512 7C256.701 7 256.889 7 257.078 7C257.266 7 257.454 7 257.642 7C257.829 7 258.017 7 258.204 7C258.391 7 258.577 7 258.764 7C258.95 7 259.137 7 259.322 7C259.508 7 259.694 7 259.879 7C260.064 7 260.249 7 260.434 7C260.618 7 260.803 7 260.987 7C261.171 7 261.354 7 261.538 7C261.721 7 261.904 7 262.087 7C262.27 7 262.452 7 262.634 7C262.816 7 262.998 7 263.18 7C263.361 7 263.542 7 263.723 7C263.904 7 264.084 7 264.265 7C264.445 7 264.625 7 264.804 7C264.984 7 265.163 7 265.342 7C265.521 7 265.699 7 265.877 7C266.056 7 266.233 7 266.411 7C266.588 7 266.766 7 266.943 7C267.119 7 267.296 7 267.472 7C267.648 7 267.824 7 268 7C268.175 7 268.35 7 268.525 7C268.7 7 268.875 7 269.049 7C269.223 7 269.397 7 269.57 7C269.744 7 269.917 7 270.09 7C270.262 7 270.435 7 270.607 7C270.779 7 270.951 7 271.122 7C271.293 7 271.464 7 271.635 7C271.806 7 271.976 7 272.146 7C272.316 7 272.486 7 272.655 7C272.824 7 272.993 7 273.161 7C273.33 7 273.498 7 273.666 7C273.834 7 274.001 7 274.168 7C274.335 7 274.502 7 274.668 7C274.835 7 275 7 275.166 7C275.332 7 275.497 7 275.662 7C275.827 7 275.991 7 276.155 7C276.319 7 276.483 7 276.646 7C276.81 7 276.973 7 277.135 7C277.298 7 277.46 7 277.622 7C277.784 7 277.945 7 278.106 7C278.267 7 278.428 7 278.588 7C278.749 7 278.909 7 279.068 7C279.228 7 279.387 7 279.546 7C279.704 7 279.863 7 280.021 7C280.179 7 280.336 7 280.493 7C280.651 7 280.807 7 280.964 7C281.12 7 281.276 7 281.432 7C281.588 7 281.743 7 281.898 7C282.052 7 282.207 7 282.361 7C282.515 7 282.668 7 282.822 7C282.975 7 283.128 7 283.28 7C283.432 7 283.584 7 283.736 7C283.888 7 284.039 7 284.19 7C284.34 7 284.491 7 284.641 7C284.791 7 284.94 7 285.089 7C285.238 7 285.387 7 285.535 7C285.684 7 285.832 7 285.979 7C286.126 7 286.273 7 286.42 7C286.567 7 286.713 7 286.859 7C287.004 7 287.15 7 287.295 7C287.44 7 287.584 7 287.728 7C287.872 7 288.016 7 288.159 7C288.302 7 288.445 7 288.587 7C288.73 7 288.872 7 289.013 7C289.155 7 289.296 7 289.436 7C289.577 7 289.717 7 289.857 7C289.997 7 290.136 7 290.275 7C290.414 7 290.552 7 290.69 7C290.828 7 290.966 7 291.103 7C291.24 7 291.376 7 291.513 7C291.649 7 291.785 7 291.92 7C292.055 7 292.19 7 292.324 7C292.459 7 292.593 7 292.726 7C292.86 7 292.993 7 293.125 7C293.258 7 293.39 7 293.522 7C293.654 7 293.785 7 293.915 7C294.046 7 294.177 7 294.306 7C294.436 7 294.566 7 294.695 7C294.823 7 294.952 7 295.08 7C295.208 7 295.335 7 295.462 7C295.59 7 295.716 7 295.842 7C295.968 7 296.094 7 296.219 7C296.344 7 296.469 7 296.593 7C296.717 7 296.841 7 296.965 7C297.088 7 297.211 7 297.333 7C297.455 7 297.577 7 297.698 7C297.82 7 297.941 7 298.061 7C298.182 7 298.301 7 298.421 7C298.54 7 298.659 7 298.778 7C298.896 7 299.014 7 299.132 7C299.249 7 299.366 7 299.483 7C299.599 7 299.715 7 299.831 7C299.946 7 300.061 7 300.176 7C300.29 7 300.404 7 300.518 7C300.631 7 300.744 7 300.857 7C300.969 7 301.081 7 301.193 7C301.304 7 301.415 7 301.526 7C301.637 7 301.747 7 301.856 7V11ZM22.087 11H6.31516V7H22.087V11ZM6.31516 11C4.37234 11 2.59577 10.6525 1.15138 9.78464C-0.349317 8.88298 -1.3316 7.5135 -1.77769 5.81945L2.09045 4.80086C2.28702 5.54734 2.65698 6.02278 3.21144 6.35591C3.82221 6.72288 4.8037 7 6.31516 7V11ZM-1.77769 5.81945C-2.60255 2.68699 -1.05887 -0.689394 2.06878 -1.73009L3.33166 2.06532C2.44272 2.36111 1.73711 3.45903 2.09045 4.80086L-1.77769 5.81945ZM2.058 -1.72646C3.45912 -2.20154 4.95431 -2.0593 6.24455 -1.28692L4.19002 2.14512C3.92718 1.98778 3.65508 1.9557 3.34245 2.0617L2.058 -1.72646ZM6.24455 -1.28692C7.46545 -0.556046 8.3586 0.60317 8.73316 2.0482L4.86113 3.05187C4.75371 2.63745 4.5222 2.34398 4.19002 2.14512L6.24455 -1.28692ZM8.7265 2.02317C9.06867 3.27617 8.94025 4.61234 8.3865 5.76777L4.77936 4.03903C4.92182 3.74177 4.95406 3.39281 4.86779 3.0769L8.7265 2.02317ZM8.3865 5.76777C7.79945 6.99269 6.75093 7.88961 5.50808 8.28917L4.28384 4.48112C4.48697 4.41582 4.6702 4.26681 4.77936 4.03903L8.3865 5.76777ZM5.49939 8.29194C4.34366 8.65769 3.10761 8.55672 2.00292 7.90293L4.04018 4.46061C4.09675 4.49409 4.12906 4.49948 4.14533 4.50117C4.1637 4.50308 4.20929 4.50469 4.29253 4.47835L5.49939 8.29194ZM2.00292 7.90293C0.924716 7.26482 0.243097 6.27246 -0.0952429 5.17115L3.72839 3.99647C3.81848 4.28974 3.94018 4.40143 4.04018 4.46061L2.00292 7.90293ZM-0.106701 5.13246C-0.720961 2.97921 0.371116 0.522039 2.63917 -0.221948L3.88592 3.57879C3.86874 3.58442 3.81606 3.60882 3.7691 3.70353C3.72131 3.79993 3.70709 3.92035 3.73985 4.03516L-0.106701 5.13246ZM2.69504 -0.239374C4.11081 -0.65832 5.49489 0.203912 5.85965 1.52314L2.0043 2.58911C2.2084 3.32726 3.00338 3.84084 3.83005 3.59622L2.69504 -0.239374ZM5.87164 1.56858C6.1606 2.71816 5.6465 4.21436 4.20291 4.68426L2.96483 0.880687C2.05679 1.17626 1.86402 2.03328 1.99231 2.54367L5.87164 1.56858ZM4.17608 4.69278C4.49824 4.59291 4.67234 4.37754 4.74555 4.22887C4.81833 4.08106 4.8427 3.90717 4.79495 3.72587L0.926817 4.74446C0.540471 3.27728 1.23863 1.41561 2.99167 0.87216L4.17608 4.69278ZM4.78501 3.68952C4.75815 3.59478 4.69558 3.50642 4.59993 3.44588L2.4607 6.82578C1.7224 6.35849 1.17784 5.63095 0.936758 4.78081L4.78501 3.68952ZM4.59993 3.44588C4.49254 3.37791 4.36779 3.33607 4.24571 3.3238C4.12898 3.31208 4.04651 3.33017 4.0092 3.34174L5.19362 7.16236C4.35123 7.4235 3.35294 7.3905 2.4607 6.82578L4.59993 3.44588ZM3.99337 3.34671C3.9657 3.35555 3.92853 3.37405 3.89243 3.40583C3.85566 3.43819 3.83639 3.46992 3.82931 3.48528L7.46214 5.15937C7.01035 6.13975 6.19365 6.8433 5.20945 7.15738L3.99337 3.34671ZM3.85084 3.44006C3.84793 3.44597 3.8509 3.44202 3.85215 3.42886C3.85335 3.41621 3.85213 3.40342 3.84927 3.39289L7.70995 2.34637C7.96997 3.30559 7.87122 4.32854 7.44061 5.20459L3.85084 3.44006ZM3.84554 3.37892C3.81888 3.27768 3.77211 3.21623 3.68362 3.16342L5.73342 -0.27145C6.71601 0.314925 7.41901 1.24132 7.71368 2.36034L3.84554 3.37892ZM3.71672 3.18274C3.70273 3.17476 3.68979 3.16922 3.67906 3.16566C3.66836 3.16211 3.6616 3.16108 3.65948 3.16084C3.65752 3.16062 3.66088 3.1612 3.66903 3.16031C3.67751 3.15938 3.68898 3.15707 3.70177 3.15244L2.34133 -0.609101C3.52792 -1.03826 4.75354 -0.831444 5.70032 -0.290775L3.71672 3.18274ZM3.63367 3.17569C3.34156 3.2696 2.94085 3.7289 3.13247 4.44358L-0.731078 5.47945C-1.39634 2.9982 -0.190407 0.203459 2.40943 -0.632356L3.63367 3.17569ZM3.13381 4.44862C3.25431 4.90279 3.46222 5.15791 3.81847 5.35575C4.2538 5.5975 5.02896 5.80879 6.34193 5.80879V9.80879C4.68263 9.80879 3.14155 9.55522 1.87652 8.85272C0.532418 8.10631 -0.344156 6.93779 -0.732422 5.47441L3.13381 4.44862ZM6.34193 5.80879H22.1138V9.80879H6.34193V5.80879ZM22.1138 5.80879C22.2254 5.80879 22.3384 5.80879 22.4528 5.80879C22.5672 5.80879 22.683 5.80879 22.8002 5.80879C22.9174 5.80879 23.036 5.80879 23.156 5.80879C23.2759 5.80879 23.3973 5.80879 23.52 5.80879C23.6428 5.80879 23.7669 5.80879 23.8924 5.80879C24.0179 5.80879 24.1448 5.80879 24.273 5.80879C24.4012 5.80879 24.5308 5.80879 24.6618 5.80879C24.7928 5.80879 24.9251 5.80879 25.0588 5.80879C25.1925 5.80879 25.3275 5.80879 25.4639 5.80879C25.6003 5.80879 25.738 5.80879 25.8771 5.80879C26.0162 5.80879 26.1566 5.80879 26.2984 5.80879C26.4402 5.80879 26.5833 5.80879 26.7277 5.80879C26.8722 5.80879 27.0179 5.80879 27.165 5.80879C27.3121 5.80879 27.4606 5.80879 27.6103 5.80879C27.7601 5.80879 27.9111 5.80879 28.0635 5.80879C28.2159 5.80879 28.3696 5.80879 28.5246 5.80879C28.6796 5.80879 28.8359 5.80879 28.9936 5.80879C29.1512 5.80879 29.3101 5.80879 29.4703 5.80879C29.6306 5.80879 29.7921 5.80879 29.9549 5.80879C30.1177 5.80879 30.2818 5.80879 30.4472 5.80879C30.6126 5.80879 30.7793 5.80879 30.9472 5.80879C31.1152 5.80879 31.2844 5.80879 31.4549 5.80879C31.6254 5.80879 31.7972 5.80879 31.9702 5.80879C32.1433 5.80879 32.3176 5.80879 32.4932 5.80879C32.6688 5.80879 32.8456 5.80879 33.0237 5.80879C33.2018 5.80879 33.3811 5.80879 33.5617 5.80879C33.7423 5.80879 33.9242 5.80879 34.1073 5.80879C34.2904 5.80879 34.4747 5.80879 34.6603 5.80879C34.8459 5.80879 35.0327 5.80879 35.2208 5.80879C35.4088 5.80879 35.5981 5.80879 35.7886 5.80879C35.9791 5.80879 36.1708 5.80879 36.3638 5.80879C36.5567 5.80879 36.7509 5.80879 36.9463 5.80879C37.1417 5.80879 37.3383 5.80879 37.5361 5.80879C37.7339 5.80879 37.933 5.80879 38.1332 5.80879C38.3334 5.80879 38.5349 5.80879 38.7375 5.80879C38.9401 5.80879 39.1439 5.80879 39.3489 5.80879C39.554 5.80879 39.7602 5.80879 39.9676 5.80879C40.175 5.80879 40.3835 5.80879 40.5933 5.80879C40.803 5.80879 41.014 5.80879 41.2261 5.80879C41.4382 5.80879 41.6515 5.80879 41.8659 5.80879C42.0804 5.80879 42.296 5.80879 42.5128 5.80879C42.7296 5.80879 42.9475 5.80879 43.1666 5.80879C43.3857 5.80879 43.6059 5.80879 43.8273 5.80879C44.0488 5.80879 44.2713 5.80879 44.495 5.80879C44.7187 5.80879 44.9435 5.80879 45.1695 5.80879C45.3955 5.80879 45.6226 5.80879 45.8509 5.80879C46.0791 5.80879 46.3085 5.80879 46.539 5.80879C46.7695 5.80879 47.0011 5.80879 47.2339 5.80879C47.4666 5.80879 47.7005 5.80879 47.9355 5.80879C48.1705 5.80879 48.4066 5.80879 48.6438 5.80879C48.881 5.80879 49.1194 5.80879 49.3588 5.80879C49.5982 5.80879 49.8387 5.80879 50.0803 5.80879C50.322 5.80879 50.5647 5.80879 50.8085 5.80879C51.0523 5.80879 51.2972 5.80879 51.5432 5.80879C51.7892 5.80879 52.0363 5.80879 52.2844 5.80879C52.5326 5.80879 52.7818 5.80879 53.0321 5.80879C53.2824 5.80879 53.5338 5.80879 53.7862 5.80879C54.0387 5.80879 54.2922 5.80879 54.5467 5.80879C54.8013 5.80879 55.0569 5.80879 55.3136 5.80879C55.5703 5.80879 55.8281 5.80879 56.0869 5.80879C56.3457 5.80879 56.6055 5.80879 56.8664 5.80879C57.1273 5.80879 57.3892 5.80879 57.6522 5.80879C57.9151 5.80879 58.1792 5.80879 58.4442 5.80879C58.7092 5.80879 58.9753 5.80879 59.2424 5.80879C59.5095 5.80879 59.7776 5.80879 60.0468 5.80879C60.3159 5.80879 60.5861 5.80879 60.8573 5.80879C61.1284 5.80879 61.4006 5.80879 61.6738 5.80879C61.947 5.80879 62.2212 5.80879 62.4964 5.80879C62.7717 5.80879 63.0479 5.80879 63.3251 5.80879C63.6023 5.80879 63.8805 5.80879 64.1597 5.80879C64.4389 5.80879 64.7191 5.80879 65.0002 5.80879C65.2814 5.80879 65.5636 5.80879 65.8467 5.80879C66.1298 5.80879 66.414 5.80879 66.6991 5.80879C66.9841 5.80879 67.2702 5.80879 67.5572 5.80879C67.8443 5.80879 68.1322 5.80879 68.4212 5.80879C68.7102 5.80879 69.0001 5.80879 69.291 5.80879C69.5818 5.80879 69.8736 5.80879 70.1664 5.80879C70.4592 5.80879 70.7529 5.80879 71.0476 5.80879C71.3423 5.80879 71.6379 5.80879 71.9344 5.80879C72.231 5.80879 72.5285 5.80879 72.8269 5.80879C73.1253 5.80879 73.4247 5.80879 73.7249 5.80879C74.0252 5.80879 74.3264 5.80879 74.6285 5.80879C74.9307 5.80879 75.2337 5.80879 75.5377 5.80879C75.8416 5.80879 76.1465 5.80879 76.4523 5.80879C76.7581 5.80879 77.0648 5.80879 77.3723 5.80879C77.6799 5.80879 77.9884 5.80879 78.2978 5.80879C78.6072 5.80879 78.9175 5.80879 79.2287 5.80879C79.5398 5.80879 79.8519 5.80879 80.1648 5.80879C80.4778 5.80879 80.7916 5.80879 81.1063 5.80879C81.4211 5.80879 81.7366 5.80879 82.0531 5.80879C82.3696 5.80879 82.6869 5.80879 83.0051 5.80879C83.3233 5.80879 83.6424 5.80879 83.9623 5.80879C84.2822 5.80879 84.603 5.80879 84.9247 5.80879C85.2463 5.80879 85.5688 5.80879 85.8922 5.80879C86.2155 5.80879 86.5397 5.80879 86.8648 5.80879C87.1898 5.80879 87.5157 5.80879 87.8424 5.80879C88.1691 5.80879 88.4967 5.80879 88.8251 5.80879C89.1535 5.80879 89.4827 5.80879 89.8128 5.80879C90.1428 5.80879 90.4737 5.80879 90.8054 5.80879C91.1371 5.80879 91.4696 5.80879 91.8029 5.80879C92.1362 5.80879 92.4704 5.80879 92.8053 5.80879C93.1403 5.80879 93.476 5.80879 93.8126 5.80879C94.1492 5.80879 94.4865 5.80879 94.8247 5.80879C95.1628 5.80879 95.5018 5.80879 95.8415 5.80879C96.1813 5.80879 96.5218 5.80879 96.8631 5.80879C97.2044 5.80879 97.5465 5.80879 97.8894 5.80879C98.2323 5.80879 98.576 5.80879 98.9204 5.80879C99.2648 5.80879 99.61 5.80879 99.956 5.80879C100.302 5.80879 100.649 5.80879 100.996 5.80879C101.344 5.80879 101.692 5.80879 102.041 5.80879C102.39 5.80879 102.74 5.80879 103.09 5.80879C103.441 5.80879 103.792 5.80879 104.144 5.80879C104.496 5.80879 104.849 5.80879 105.202 5.80879C105.556 5.80879 105.91 5.80879 106.265 5.80879C106.62 5.80879 106.976 5.80879 107.332 5.80879C107.688 5.80879 108.046 5.80879 108.403 5.80879C108.761 5.80879 109.12 5.80879 109.479 5.80879C109.838 5.80879 110.198 5.80879 110.559 5.80879C110.92 5.80879 111.281 5.80879 111.643 5.80879C112.005 5.80879 112.368 5.80879 112.732 5.80879C113.095 5.80879 113.46 5.80879 113.824 5.80879C114.189 5.80879 114.555 5.80879 114.921 5.80879C115.287 5.80879 115.654 5.80879 116.022 5.80879C116.39 5.80879 116.758 5.80879 117.127 5.80879C117.496 5.80879 117.866 5.80879 118.236 5.80879C118.606 5.80879 118.977 5.80879 119.349 5.80879C119.721 5.80879 120.093 5.80879 120.466 5.80879C120.839 5.80879 121.213 5.80879 121.587 5.80879C121.961 5.80879 122.336 5.80879 122.712 5.80879C123.087 5.80879 123.463 5.80879 123.84 5.80879C124.217 5.80879 124.594 5.80879 124.973 5.80879C125.351 5.80879 125.729 5.80879 126.109 5.80879C126.488 5.80879 126.868 5.80879 127.249 5.80879C127.629 5.80879 128.011 5.80879 128.392 5.80879C128.774 5.80879 129.157 5.80879 129.54 5.80879C129.923 5.80879 130.307 5.80879 130.691 5.80879C131.075 5.80879 131.46 5.80879 131.845 5.80879C132.231 5.80879 132.617 5.80879 133.004 5.80879C133.39 5.80879 133.777 5.80879 134.165 5.80879C134.553 5.80879 134.942 5.80879 135.331 5.80879C135.719 5.80879 136.109 5.80879 136.499 5.80879C136.889 5.80879 137.28 5.80879 137.671 5.80879C138.063 5.80879 138.454 5.80879 138.847 5.80879C139.239 5.80879 139.632 5.80879 140.026 5.80879C140.419 5.80879 140.813 5.80879 141.208 5.80879C141.603 5.80879 141.998 5.80879 142.393 5.80879C142.789 5.80879 143.185 5.80879 143.582 5.80879C143.979 5.80879 144.376 5.80879 144.774 5.80879C145.172 5.80879 145.57 5.80879 145.969 5.80879C146.368 5.80879 146.768 5.80879 147.168 5.80879C147.568 5.80879 147.968 5.80879 148.369 5.80879C148.77 5.80879 149.171 5.80879 149.573 5.80879C149.975 5.80879 150.378 5.80879 150.781 5.80879C151.184 5.80879 151.588 5.80879 151.992 5.80879C152.396 5.80879 152.8 5.80879 153.205 5.80879C153.61 5.80879 154.015 5.80879 154.421 5.80879C154.827 5.80879 155.234 5.80879 155.641 5.80879C156.048 5.80879 156.455 5.80879 156.863 5.80879C157.271 5.80879 157.679 5.80879 158.088 5.80879C158.497 5.80879 158.906 5.80879 159.316 5.80879C159.726 5.80879 160.136 5.80879 160.546 5.80879C160.957 5.80879 161.368 5.80879 161.78 5.80879C162.191 5.80879 162.603 5.80879 163.016 5.80879C163.428 5.80879 163.841 5.80879 164.254 5.80879C164.668 5.80879 165.082 5.80879 165.496 5.80879C165.91 5.80879 166.325 5.80879 166.74 5.80879C167.155 5.80879 167.57 5.80879 167.986 5.80879C168.402 5.80879 168.818 5.80879 169.235 5.80879C169.652 5.80879 170.069 5.80879 170.486 5.80879C170.904 5.80879 171.322 5.80879 171.74 5.80879C172.158 5.80879 172.577 5.80879 172.996 5.80879C173.415 5.80879 173.835 5.80879 174.255 5.80879C174.675 5.80879 175.095 5.80879 175.516 5.80879C175.937 5.80879 176.358 5.80879 176.779 5.80879C177.201 5.80879 177.622 5.80879 178.045 5.80879C178.467 5.80879 178.889 5.80879 179.312 5.80879C179.735 5.80879 180.159 5.80879 180.582 5.80879C181.006 5.80879 181.43 5.80879 181.854 5.80879C182.279 5.80879 182.703 5.80879 183.129 5.80879C183.554 5.80879 183.979 5.80879 184.405 5.80879C184.831 5.80879 185.257 5.80879 185.683 5.80879C186.11 5.80879 186.536 5.80879 186.964 5.80879C187.391 5.80879 187.818 5.80879 188.246 5.80879C188.674 5.80879 189.102 5.80879 189.53 5.80879C189.959 5.80879 190.387 5.80879 190.816 5.80879C191.245 5.80879 191.675 5.80879 192.104 5.80879C192.534 5.80879 192.964 5.80879 193.394 5.80879C193.825 5.80879 194.255 5.80879 194.686 5.80879C195.117 5.80879 195.548 5.80879 195.979 5.80879C196.411 5.80879 196.843 5.80879 197.275 5.80879C197.707 5.80879 198.139 5.80879 198.572 5.80879C199.004 5.80879 199.437 5.80879 199.87 5.80879C200.303 5.80879 200.737 5.80879 201.17 5.80879C201.604 5.80879 202.038 5.80879 202.472 5.80879C202.906 5.80879 203.341 5.80879 203.775 5.80879C204.21 5.80879 204.645 5.80879 205.08 5.80879C205.516 5.80879 205.951 5.80879 206.387 5.80879C206.822 5.80879 207.258 5.80879 207.694 5.80879C208.131 5.80879 208.567 5.80879 209.004 5.80879C209.44 5.80879 209.877 5.80879 210.314 5.80879C210.751 5.80879 211.189 5.80879 211.626 5.80879C212.064 5.80879 212.501 5.80879 212.939 5.80879C213.377 5.80879 213.816 5.80879 214.254 5.80879C214.692 5.80879 215.131 5.80879 215.57 5.80879C216.008 5.80879 216.447 5.80879 216.887 5.80879C217.326 5.80879 217.765 5.80879 218.205 5.80879C218.644 5.80879 219.084 5.80879 219.524 5.80879C219.964 5.80879 220.404 5.80879 220.844 5.80879C221.285 5.80879 221.725 5.80879 222.166 5.80879C222.606 5.80879 223.047 5.80879 223.488 5.80879C223.929 5.80879 224.37 5.80879 224.812 5.80879C225.253 5.80879 225.694 5.80879 226.136 5.80879C226.578 5.80879 227.019 5.80879 227.461 5.80879C227.903 5.80879 228.345 5.80879 228.787 5.80879C229.23 5.80879 229.672 5.80879 230.114 5.80879C230.557 5.80879 230.999 5.80879 231.442 5.80879C231.885 5.80879 232.328 5.80879 232.771 5.80879C233.214 5.80879 233.657 5.80879 234.1 5.80879C234.543 5.80879 234.987 5.80879 235.43 5.80879C235.874 5.80879 236.317 5.80879 236.761 5.80879C237.205 5.80879 237.648 5.80879 238.092 5.80879C238.536 5.80879 238.98 5.80879 239.424 5.80879C239.868 5.80879 240.313 5.80879 240.757 5.80879C241.201 5.80879 241.645 5.80879 242.09 5.80879C242.534 5.80879 242.979 5.80879 243.423 5.80879C243.868 5.80879 244.313 5.80879 244.757 5.80879C245.202 5.80879 245.647 5.80879 246.092 5.80879C246.537 5.80879 246.982 5.80879 247.427 5.80879C247.872 5.80879 248.317 5.80879 248.762 5.80879C249.207 5.80879 249.652 5.80879 250.097 5.80879C250.543 5.80879 250.988 5.80879 251.433 5.80879C251.879 5.80879 252.324 5.80879 252.769 5.80879C253.215 5.80879 253.66 5.80879 254.105 5.80879C254.551 5.80879 254.996 5.80879 255.442 5.80879C255.887 5.80879 256.333 5.80879 256.778 5.80879C257.224 5.80879 257.67 5.80879 258.115 5.80879C258.561 5.80879 259.006 5.80879 259.452 5.80879C259.897 5.80879 260.343 5.80879 260.789 5.80879C261.234 5.80879 261.68 5.80879 262.125 5.80879C262.571 5.80879 263.016 5.80879 263.462 5.80879C263.908 5.80879 264.353 5.80879 264.799 5.80879C265.244 5.80879 265.69 5.80879 266.135 5.80879C266.581 5.80879 267.026 5.80879 267.472 5.80879C267.917 5.80879 268.362 5.80879 268.808 5.80879C269.253 5.80879 269.699 5.80879 270.144 5.80879C270.589 5.80879 271.034 5.80879 271.48 5.80879C271.925 5.80879 272.37 5.80879 272.815 5.80879C273.26 5.80879 273.705 5.80879 274.15 5.80879C274.595 5.80879 275.04 5.80879 275.485 5.80879C275.93 5.80879 276.375 5.80879 276.819 5.80879C277.264 5.80879 277.709 5.80879 278.153 5.80879C278.598 5.80879 279.043 5.80879 279.487 5.80879C279.931 5.80879 280.376 5.80879 280.82 5.80879C281.264 5.80879 281.708 5.80879 282.152 5.80879C282.596 5.80879 283.04 5.80879 283.484 5.80879C283.928 5.80879 284.372 5.80879 284.816 5.80879C285.259 5.80879 285.703 5.80879 286.146 5.80879C286.59 5.80879 287.033 5.80879 287.476 5.80879C287.92 5.80879 288.363 5.80879 288.806 5.80879C289.249 5.80879 289.691 5.80879 290.134 5.80879C290.577 5.80879 291.02 5.80879 291.462 5.80879C291.904 5.80879 292.347 5.80879 292.789 5.80879C293.231 5.80879 293.673 5.80879 294.115 5.80879C294.557 5.80879 294.999 5.80879 295.44 5.80879C295.882 5.80879 296.323 5.80879 296.765 5.80879C297.206 5.80879 297.647 5.80879 298.088 5.80879C298.529 5.80879 298.97 5.80879 299.41 5.80879C299.851 5.80879 300.291 5.80879 300.732 5.80879C301.172 5.80879 301.612 5.80879 302.052 5.80879C302.492 5.80879 302.931 5.80879 303.371 5.80879C303.811 5.80879 304.25 5.80879 304.689 5.80879C305.128 5.80879 305.567 5.80879 306.006 5.80879C306.445 5.80879 306.883 5.80879 307.322 5.80879C307.76 5.80879 308.198 5.80879 308.636 5.80879C309.074 5.80879 309.512 5.80879 309.949 5.80879C310.387 5.80879 310.824 5.80879 311.261 5.80879C311.698 5.80879 312.135 5.80879 312.571 5.80879C313.008 5.80879 313.444 5.80879 313.881 5.80879C314.317 5.80879 314.753 5.80879 315.188 5.80879C315.624 5.80879 316.059 5.80879 316.494 5.80879C316.93 5.80879 317.365 5.80879 317.799 5.80879C318.234 5.80879 318.668 5.80879 319.102 5.80879C319.537 5.80879 319.97 5.80879 320.404 5.80879C320.838 5.80879 321.271 5.80879 321.704 5.80879C322.137 5.80879 322.57 5.80879 323.003 5.80879C323.435 5.80879 323.867 5.80879 324.299 5.80879C324.731 5.80879 325.163 5.80879 325.594 5.80879C326.026 5.80879 326.457 5.80879 326.888 5.80879C327.319 5.80879 327.749 5.80879 328.179 5.80879C328.61 5.80879 329.04 5.80879 329.469 5.80879C329.899 5.80879 330.328 5.80879 330.757 5.80879C331.186 5.80879 331.615 5.80879 332.043 5.80879C332.471 5.80879 332.9 5.80879 333.327 5.80879C333.755 5.80879 334.182 5.80879 334.609 5.80879C335.036 5.80879 335.463 5.80879 335.89 5.80879C336.316 5.80879 336.742 5.80879 337.168 5.80879C337.594 5.80879 338.019 5.80879 338.444 5.80879C338.869 5.80879 339.294 5.80879 339.718 5.80879C340.142 5.80879 340.566 5.80879 340.99 5.80879C341.414 5.80879 341.837 5.80879 342.26 5.80879C342.683 5.80879 343.105 5.80879 343.527 5.80879C343.949 5.80879 344.371 5.80879 344.793 5.80879C345.214 5.80879 345.635 5.80879 346.056 5.80879C346.476 5.80879 346.897 5.80879 347.316 5.80879C347.736 5.80879 348.156 5.80879 348.575 5.80879C348.994 5.80879 349.413 5.80879 349.831 5.80879C350.249 5.80879 350.667 5.80879 351.085 5.80879C351.502 5.80879 351.919 5.80879 352.336 5.80879C352.752 5.80879 353.169 5.80879 353.584 5.80879C354 5.80879 354.416 5.80879 354.831 5.80879C355.246 5.80879 355.66 5.80879 356.074 5.80879C356.488 5.80879 356.902 5.80879 357.315 5.80879C357.729 5.80879 358.141 5.80879 358.554 5.80879C358.966 5.80879 359.378 5.80879 359.79 5.80879C360.201 5.80879 360.612 5.80879 361.023 5.80879C361.433 5.80879 361.843 5.80879 362.253 5.80879C362.663 5.80879 363.072 5.80879 363.481 5.80879C363.889 5.80879 364.298 5.80879 364.706 5.80879C365.113 5.80879 365.521 5.80879 365.928 5.80879C366.334 5.80879 366.741 5.80879 367.147 5.80879C367.553 5.80879 367.958 5.80879 368.363 5.80879C368.768 5.80879 369.172 5.80879 369.576 5.80879C369.98 5.80879 370.384 5.80879 370.786 5.80879C371.189 5.80879 371.592 5.80879 371.994 5.80879C372.396 5.80879 372.797 5.80879 373.198 5.80879C373.599 5.80879 373.999 5.80879 374.399 5.80879C374.799 5.80879 375.198 5.80879 375.597 5.80879C375.996 5.80879 376.394 5.80879 376.792 5.80879C377.19 5.80879 377.587 5.80879 377.984 5.80879C378.381 5.80879 378.777 5.80879 379.172 5.80879C379.568 5.80879 379.963 5.80879 380.358 5.80879C380.752 5.80879 381.146 5.80879 381.54 5.80879C381.933 5.80879 382.326 5.80879 382.718 5.80879C383.111 5.80879 383.502 5.80879 383.893 5.80879C384.285 5.80879 384.675 5.80879 385.065 5.80879C385.455 5.80879 385.845 5.80879 386.234 5.80879C386.623 5.80879 387.011 5.80879 387.399 5.80879C387.786 5.80879 388.174 5.80879 388.56 5.80879C388.947 5.80879 389.333 5.80879 389.718 5.80879C390.103 5.80879 390.488 5.80879 390.872 5.80879C391.257 5.80879 391.64 5.80879 392.023 5.80879C392.406 5.80879 392.789 5.80879 393.17 5.80879C393.552 5.80879 393.933 5.80879 394.314 5.80879C394.694 5.80879 395.074 5.80879 395.453 5.80879C395.833 5.80879 396.211 5.80879 396.589 5.80879C396.967 5.80879 397.345 5.80879 397.721 5.80879C398.098 5.80879 398.474 5.80879 398.85 5.80879C399.225 5.80879 399.6 5.80879 399.974 5.80879C400.348 5.80879 400.722 5.80879 401.095 5.80879C401.468 5.80879 401.84 5.80879 402.211 5.80879C402.583 5.80879 402.954 5.80879 403.324 5.80879C403.694 5.80879 404.064 5.80879 404.433 5.80879C404.802 5.80879 405.17 5.80879 405.537 5.80879C405.905 5.80879 406.272 5.80879 406.638 5.80879C407.004 5.80879 407.37 5.80879 407.734 5.80879C408.099 5.80879 408.463 5.80879 408.827 5.80879C409.19 5.80879 409.553 5.80879 409.915 5.80879C410.277 5.80879 410.638 5.80879 410.999 5.80879C411.359 5.80879 411.719 5.80879 412.078 5.80879C412.438 5.80879 412.796 5.80879 413.154 5.80879C413.512 5.80879 413.869 5.80879 414.225 5.80879C414.581 5.80879 414.937 5.80879 415.292 5.80879C415.647 5.80879 416.001 5.80879 416.354 5.80879C416.707 5.80879 417.06 5.80879 417.412 5.80879C417.764 5.80879 418.115 5.80879 418.465 5.80879C418.816 5.80879 419.165 5.80879 419.514 5.80879C419.863 5.80879 420.211 5.80879 420.559 5.80879C420.906 5.80879 421.253 5.80879 421.599 5.80879C421.944 5.80879 422.29 5.80879 422.634 5.80879C422.978 5.80879 423.322 5.80879 423.664 5.80879C424.007 5.80879 424.349 5.80879 424.69 5.80879C425.032 5.80879 425.372 5.80879 425.712 5.80879C426.051 5.80879 426.39 5.80879 426.728 5.80879C427.066 5.80879 427.403 5.80879 427.74 5.80879C428.076 5.80879 428.412 5.80879 428.747 5.80879C429.082 5.80879 429.416 5.80879 429.749 5.80879C430.082 5.80879 430.414 5.80879 430.746 5.80879C431.078 5.80879 431.408 5.80879 431.738 5.80879C432.068 5.80879 432.397 5.80879 432.725 5.80879C433.054 5.80879 433.381 5.80879 433.708 5.80879C434.034 5.80879 434.36 5.80879 434.685 5.80879C435.01 5.80879 435.334 5.80879 435.657 5.80879C435.98 5.80879 436.303 5.80879 436.624 5.80879C436.946 5.80879 437.267 5.80879 437.586 5.80879C437.906 5.80879 438.225 5.80879 438.543 5.80879C438.861 5.80879 439.178 5.80879 439.495 5.80879C439.811 5.80879 440.127 5.80879 440.441 5.80879C440.756 5.80879 441.069 5.80879 441.382 5.80879C441.695 5.80879 442.007 5.80879 442.318 5.80879C442.629 5.80879 442.939 5.80879 443.249 5.80879C443.558 5.80879 443.866 5.80879 444.174 5.80879C444.481 5.80879 444.788 5.80879 445.093 5.80879C445.399 5.80879 445.704 5.80879 446.007 5.80879C446.311 5.80879 446.614 5.80879 446.916 5.80879C447.218 5.80879 447.519 5.80879 447.819 5.80879C448.119 5.80879 448.419 5.80879 448.717 5.80879C449.015 5.80879 449.313 5.80879 449.609 5.80879C449.905 5.80879 450.201 5.80879 450.495 5.80879C450.79 5.80879 451.083 5.80879 451.376 5.80879C451.669 5.80879 451.96 5.80879 452.251 5.80879C452.542 5.80879 452.832 5.80879 453.12 5.80879C453.409 5.80879 453.697 5.80879 453.984 5.80879C454.271 5.80879 454.557 5.80879 454.842 5.80879C455.127 5.80879 455.411 5.80879 455.694 5.80879C455.977 5.80879 456.259 5.80879 456.54 5.80879C456.821 5.80879 457.101 5.80879 457.38 5.80879C457.659 5.80879 457.937 5.80879 458.214 5.80879C458.491 5.80879 458.767 5.80879 459.042 5.80879C459.317 5.80879 459.591 5.80879 459.864 5.80879C460.137 5.80879 460.409 5.80879 460.68 5.80879C460.951 5.80879 461.221 5.80879 461.49 5.80879C461.759 5.80879 462.027 5.80879 462.294 5.80879C462.561 5.80879 462.827 5.80879 463.092 5.80879C463.357 5.80879 463.621 5.80879 463.884 5.80879C464.146 5.80879 464.408 5.80879 464.669 5.80879C464.93 5.80879 465.189 5.80879 465.448 5.80879C465.707 5.80879 465.964 5.80879 466.221 5.80879C466.477 5.80879 466.733 5.80879 466.987 5.80879C467.242 5.80879 467.495 5.80879 467.747 5.80879C467.999 5.80879 468.251 5.80879 468.501 5.80879C468.751 5.80879 469 5.80879 469.248 5.80879C469.496 5.80879 469.743 5.80879 469.989 5.80879C470.235 5.80879 470.479 5.80879 470.723 5.80879C470.967 5.80879 471.209 5.80879 471.451 5.80879C471.692 5.80879 471.932 5.80879 472.172 5.80879C472.411 5.80879 472.649 5.80879 472.886 5.80879C473.123 5.80879 473.359 5.80879 473.594 5.80879C473.829 5.80879 474.062 5.80879 474.295 5.80879C474.528 5.80879 474.759 5.80879 474.989 5.80879C475.22 5.80879 475.449 5.80879 475.677 5.80879C475.905 5.80879 476.132 5.80879 476.358 5.80879C476.584 5.80879 476.808 5.80879 477.032 5.80879C477.255 5.80879 477.478 5.80879 477.699 5.80879C477.92 5.80879 478.14 5.80879 478.359 5.80879C478.578 5.80879 478.796 5.80879 479.013 5.80879C479.229 5.80879 479.445 5.80879 479.659 5.80879C479.873 5.80879 480.086 5.80879 480.298 5.80879C480.51 5.80879 480.721 5.80879 480.93 5.80879C481.14 5.80879 481.348 5.80879 481.556 5.80879C481.763 5.80879 481.969 5.80879 482.174 5.80879C482.379 5.80879 482.582 5.80879 482.785 5.80879C482.987 5.80879 483.188 5.80879 483.388 5.80879C483.588 5.80879 483.787 5.80879 483.985 5.80879C484.183 5.80879 484.379 5.80879 484.574 5.80879C484.769 5.80879 484.963 5.80879 485.156 5.80879C485.349 5.80879 485.54 5.80879 485.731 5.80879C485.921 5.80879 486.11 5.80879 486.298 5.80879C486.486 5.80879 486.673 5.80879 486.858 5.80879C487.043 5.80879 487.228 5.80879 487.41 5.80879C487.593 5.80879 487.775 5.80879 487.955 5.80879C488.136 5.80879 488.315 5.80879 488.493 5.80879C488.671 5.80879 488.847 5.80879 489.023 5.80879C489.198 5.80879 489.372 5.80879 489.545 5.80879C489.718 5.80879 489.89 5.80879 490.06 5.80879C490.23 5.80879 490.399 5.80879 490.567 5.80879C490.735 5.80879 490.901 5.80879 491.067 5.80879C491.232 5.80879 491.396 5.80879 491.558 5.80879C491.721 5.80879 491.882 5.80879 492.042 5.80879C492.202 5.80879 492.361 5.80879 492.518 5.80879C492.676 5.80879 492.832 5.80879 492.987 5.80879C493.142 5.80879 493.295 5.80879 493.447 5.80879C493.599 5.80879 493.75 5.80879 493.9 5.80879C494.049 5.80879 494.198 5.80879 494.345 5.80879C494.491 5.80879 494.637 5.80879 494.781 5.80879C494.926 5.80879 495.068 5.80879 495.21 5.80879C495.352 5.80879 495.492 5.80879 495.631 5.80879C495.77 5.80879 495.907 5.80879 496.043 5.80879C496.179 5.80879 496.314 5.80879 496.448 5.80879C496.581 5.80879 496.713 5.80879 496.844 5.80879C496.975 5.80879 497.104 5.80879 497.232 5.80879C497.36 5.80879 497.487 5.80879 497.612 5.80879C497.738 5.80879 497.862 5.80879 497.984 5.80879C498.107 5.80879 498.228 5.80879 498.348 5.80879C498.467 5.80879 498.586 5.80879 498.703 5.80879C498.82 5.80879 498.935 5.80879 499.049 5.80879C499.164 5.80879 499.276 5.80879 499.388 5.80879C499.499 5.80879 499.609 5.80879 499.718 5.80879C499.826 5.80879 499.934 5.80879 500.039 5.80879C500.145 5.80879 500.249 5.80879 500.352 5.80879C500.455 5.80879 500.557 5.80879 500.657 5.80879C500.757 5.80879 500.855 5.80879 500.953 5.80879C501.05 5.80879 501.146 5.80879 501.24 5.80879C501.334 5.80879 501.427 5.80879 501.519 5.80879C501.61 5.80879 501.7 5.80879 501.789 5.80879C501.877 5.80879 501.964 5.80879 502.05 5.80879C502.136 5.80879 502.22 5.80879 502.303 5.80879C502.385 5.80879 502.467 5.80879 502.546 5.80879C502.626 5.80879 502.704 5.80879 502.781 5.80879C502.858 5.80879 502.934 5.80879 503.007 5.80879C503.081 5.80879 503.154 5.80879 503.225 5.80879C503.296 5.80879 503.365 5.80879 503.433 5.80879C503.501 5.80879 503.567 5.80879 503.632 5.80879C503.697 5.80879 503.761 5.80879 503.823 5.80879C503.885 5.80879 503.945 5.80879 504.004 5.80879C504.063 5.80879 504.121 5.80879 504.176 5.80879C504.232 5.80879 504.287 5.80879 504.34 5.80879C504.392 5.80879 504.444 5.80879 504.494 5.80879C504.544 5.80879 504.592 5.80879 504.639 5.80879C504.685 5.80879 504.731 5.80879 504.774 5.80879C504.818 5.80879 504.86 5.80879 504.901 5.80879C504.941 5.80879 504.98 5.80879 505.018 5.80879C505.055 5.80879 505.091 5.80879 505.126 5.80879C505.16 5.80879 505.193 5.80879 505.224 5.80879C505.256 5.80879 505.285 5.80879 505.313 5.80879C505.342 5.80879 505.368 5.80879 505.393 5.80879C505.418 5.80879 505.442 5.80879 505.464 5.80879C505.485 5.80879 505.506 5.80879 505.524 5.80879C505.543 5.80879 505.56 5.80879 505.576 5.80879C505.591 5.80879 505.605 5.80879 505.617 5.80879C505.63 5.80879 505.64 5.80879 505.649 5.80879C505.659 5.80879 505.666 5.80879 505.672 5.80879C505.678 5.80879 505.682 5.80879 505.685 5.80879V9.80879C505.682 9.80879 505.678 9.80879 505.672 9.80879C505.666 9.80879 505.659 9.80879 505.649 9.80879C505.64 9.80879 505.63 9.80879 505.617 9.80879C505.605 9.80879 505.591 9.80879 505.576 9.80879C505.56 9.80879 505.543 9.80879 505.524 9.80879C505.506 9.80879 505.485 9.80879 505.464 9.80879C505.442 9.80879 505.418 9.80879 505.393 9.80879C505.368 9.80879 505.342 9.80879 505.313 9.80879C505.285 9.80879 505.256 9.80879 505.224 9.80879C505.193 9.80879 505.16 9.80879 505.126 9.80879C505.091 9.80879 505.055 9.80879 505.018 9.80879C504.98 9.80879 504.941 9.80879 504.901 9.80879C504.86 9.80879 504.818 9.80879 504.774 9.80879C504.731 9.80879 504.685 9.80879 504.639 9.80879C504.592 9.80879 504.544 9.80879 504.494 9.80879C504.444 9.80879 504.392 9.80879 504.34 9.80879C504.287 9.80879 504.232 9.80879 504.176 9.80879C504.121 9.80879 504.063 9.80879 504.004 9.80879C503.945 9.80879 503.885 9.80879 503.823 9.80879C503.761 9.80879 503.697 9.80879 503.632 9.80879C503.567 9.80879 503.501 9.80879 503.433 9.80879C503.365 9.80879 503.296 9.80879 503.225 9.80879C503.154 9.80879 503.081 9.80879 503.007 9.80879C502.934 9.80879 502.858 9.80879 502.781 9.80879C502.704 9.80879 502.626 9.80879 502.546 9.80879C502.467 9.80879 502.385 9.80879 502.303 9.80879C502.22 9.80879 502.136 9.80879 502.05 9.80879C501.964 9.80879 501.877 9.80879 501.789 9.80879C501.7 9.80879 501.61 9.80879 501.519 9.80879C501.427 9.80879 501.334 9.80879 501.24 9.80879C501.146 9.80879 501.05 9.80879 500.953 9.80879C500.855 9.80879 500.757 9.80879 500.657 9.80879C500.557 9.80879 500.455 9.80879 500.352 9.80879C500.249 9.80879 500.145 9.80879 500.039 9.80879C499.934 9.80879 499.826 9.80879 499.718 9.80879C499.609 9.80879 499.499 9.80879 499.388 9.80879C499.276 9.80879 499.164 9.80879 499.049 9.80879C498.935 9.80879 498.82 9.80879 498.703 9.80879C498.586 9.80879 498.467 9.80879 498.348 9.80879C498.228 9.80879 498.107 9.80879 497.984 9.80879C497.862 9.80879 497.738 9.80879 497.612 9.80879C497.487 9.80879 497.36 9.80879 497.232 9.80879C497.104 9.80879 496.975 9.80879 496.844 9.80879C496.713 9.80879 496.581 9.80879 496.448 9.80879C496.314 9.80879 496.179 9.80879 496.043 9.80879C495.907 9.80879 495.77 9.80879 495.631 9.80879C495.492 9.80879 495.352 9.80879 495.21 9.80879C495.068 9.80879 494.926 9.80879 494.781 9.80879C494.637 9.80879 494.491 9.80879 494.345 9.80879C494.198 9.80879 494.049 9.80879 493.9 9.80879C493.75 9.80879 493.599 9.80879 493.447 9.80879C493.295 9.80879 493.142 9.80879 492.987 9.80879C492.832 9.80879 492.676 9.80879 492.518 9.80879C492.361 9.80879 492.202 9.80879 492.042 9.80879C491.882 9.80879 491.721 9.80879 491.558 9.80879C491.396 9.80879 491.232 9.80879 491.067 9.80879C490.901 9.80879 490.735 9.80879 490.567 9.80879C490.399 9.80879 490.23 9.80879 490.06 9.80879C489.89 9.80879 489.718 9.80879 489.545 9.80879C489.372 9.80879 489.198 9.80879 489.023 9.80879C488.847 9.80879 488.671 9.80879 488.493 9.80879C488.315 9.80879 488.136 9.80879 487.955 9.80879C487.775 9.80879 487.593 9.80879 487.41 9.80879C487.228 9.80879 487.043 9.80879 486.858 9.80879C486.673 9.80879 486.486 9.80879 486.298 9.80879C486.11 9.80879 485.921 9.80879 485.731 9.80879C485.54 9.80879 485.349 9.80879 485.156 9.80879C484.963 9.80879 484.769 9.80879 484.574 9.80879C484.379 9.80879 484.183 9.80879 483.985 9.80879C483.787 9.80879 483.588 9.80879 483.388 9.80879C483.188 9.80879 482.987 9.80879 482.785 9.80879C482.582 9.80879 482.379 9.80879 482.174 9.80879C481.969 9.80879 481.763 9.80879 481.556 9.80879C481.348 9.80879 481.14 9.80879 480.93 9.80879C480.721 9.80879 480.51 9.80879 480.298 9.80879C480.086 9.80879 479.873 9.80879 479.659 9.80879C479.445 9.80879 479.229 9.80879 479.013 9.80879C478.796 9.80879 478.578 9.80879 478.359 9.80879C478.14 9.80879 477.92 9.80879 477.699 9.80879C477.478 9.80879 477.255 9.80879 477.032 9.80879C476.808 9.80879 476.584 9.80879 476.358 9.80879C476.132 9.80879 475.905 9.80879 475.677 9.80879C475.449 9.80879 475.22 9.80879 474.989 9.80879C474.759 9.80879 474.528 9.80879 474.295 9.80879C474.062 9.80879 473.829 9.80879 473.594 9.80879C473.359 9.80879 473.123 9.80879 472.886 9.80879C472.649 9.80879 472.411 9.80879 472.172 9.80879C471.932 9.80879 471.692 9.80879 471.451 9.80879C471.209 9.80879 470.967 9.80879 470.723 9.80879C470.479 9.80879 470.235 9.80879 469.989 9.80879C469.743 9.80879 469.496 9.80879 469.248 9.80879C469 9.80879 468.751 9.80879 468.501 9.80879C468.251 9.80879 467.999 9.80879 467.747 9.80879C467.495 9.80879 467.242 9.80879 466.987 9.80879C466.733 9.80879 466.477 9.80879 466.221 9.80879C465.964 9.80879 465.707 9.80879 465.448 9.80879C465.189 9.80879 464.93 9.80879 464.669 9.80879C464.408 9.80879 464.146 9.80879 463.884 9.80879C463.621 9.80879 463.357 9.80879 463.092 9.80879C462.827 9.80879 462.561 9.80879 462.294 9.80879C462.027 9.80879 461.759 9.80879 461.49 9.80879C461.221 9.80879 460.951 9.80879 460.68 9.80879C460.409 9.80879 460.137 9.80879 459.864 9.80879C459.591 9.80879 459.317 9.80879 459.042 9.80879C458.767 9.80879 458.491 9.80879 458.214 9.80879C457.937 9.80879 457.659 9.80879 457.38 9.80879C457.101 9.80879 456.821 9.80879 456.54 9.80879C456.259 9.80879 455.977 9.80879 455.694 9.80879C455.411 9.80879 455.127 9.80879 454.842 9.80879C454.557 9.80879 454.271 9.80879 453.984 9.80879C453.697 9.80879 453.409 9.80879 453.12 9.80879C452.832 9.80879 452.542 9.80879 452.251 9.80879C451.96 9.80879 451.669 9.80879 451.376 9.80879C451.083 9.80879 450.79 9.80879 450.495 9.80879C450.201 9.80879 449.905 9.80879 449.609 9.80879C449.313 9.80879 449.015 9.80879 448.717 9.80879C448.419 9.80879 448.119 9.80879 447.819 9.80879C447.519 9.80879 447.218 9.80879 446.916 9.80879C446.614 9.80879 446.311 9.80879 446.007 9.80879C445.704 9.80879 445.399 9.80879 445.093 9.80879C444.788 9.80879 444.481 9.80879 444.174 9.80879C443.866 9.80879 443.558 9.80879 443.249 9.80879C442.939 9.80879 442.629 9.80879 442.318 9.80879C442.007 9.80879 441.695 9.80879 441.382 9.80879C441.069 9.80879 440.756 9.80879 440.441 9.80879C440.127 9.80879 439.811 9.80879 439.495 9.80879C439.178 9.80879 438.861 9.80879 438.543 9.80879C438.225 9.80879 437.906 9.80879 437.586 9.80879C437.267 9.80879 436.946 9.80879 436.624 9.80879C436.303 9.80879 435.98 9.80879 435.657 9.80879C435.334 9.80879 435.01 9.80879 434.685 9.80879C434.36 9.80879 434.034 9.80879 433.708 9.80879C433.381 9.80879 433.054 9.80879 432.725 9.80879C432.397 9.80879 432.068 9.80879 431.738 9.80879C431.408 9.80879 431.078 9.80879 430.746 9.80879C430.414 9.80879 430.082 9.80879 429.749 9.80879C429.416 9.80879 429.082 9.80879 428.747 9.80879C428.412 9.80879 428.076 9.80879 427.74 9.80879C427.403 9.80879 427.066 9.80879 426.728 9.80879C426.39 9.80879 426.051 9.80879 425.712 9.80879C425.372 9.80879 425.032 9.80879 424.69 9.80879C424.349 9.80879 424.007 9.80879 423.664 9.80879C423.322 9.80879 422.978 9.80879 422.634 9.80879C422.29 9.80879 421.944 9.80879 421.599 9.80879C421.253 9.80879 420.906 9.80879 420.559 9.80879C420.211 9.80879 419.863 9.80879 419.514 9.80879C419.165 9.80879 418.816 9.80879 418.465 9.80879C418.115 9.80879 417.764 9.80879 417.412 9.80879C417.06 9.80879 416.707 9.80879 416.354 9.80879C416.001 9.80879 415.647 9.80879 415.292 9.80879C414.937 9.80879 414.581 9.80879 414.225 9.80879C413.869 9.80879 413.512 9.80879 413.154 9.80879C412.796 9.80879 412.438 9.80879 412.078 9.80879C411.719 9.80879 411.359 9.80879 410.999 9.80879C410.638 9.80879 410.277 9.80879 409.915 9.80879C409.553 9.80879 409.19 9.80879 408.827 9.80879C408.463 9.80879 408.099 9.80879 407.734 9.80879C407.37 9.80879 407.004 9.80879 406.638 9.80879C406.272 9.80879 405.905 9.80879 405.537 9.80879C405.17 9.80879 404.802 9.80879 404.433 9.80879C404.064 9.80879 403.694 9.80879 403.324 9.80879C402.954 9.80879 402.583 9.80879 402.211 9.80879C401.84 9.80879 401.468 9.80879 401.095 9.80879C400.722 9.80879 400.348 9.80879 399.974 9.80879C399.6 9.80879 399.225 9.80879 398.85 9.80879C398.474 9.80879 398.098 9.80879 397.721 9.80879C397.345 9.80879 396.967 9.80879 396.589 9.80879C396.211 9.80879 395.833 9.80879 395.453 9.80879C395.074 9.80879 394.694 9.80879 394.314 9.80879C393.933 9.80879 393.552 9.80879 393.17 9.80879C392.789 9.80879 392.406 9.80879 392.023 9.80879C391.64 9.80879 391.257 9.80879 390.872 9.80879C390.488 9.80879 390.103 9.80879 389.718 9.80879C389.333 9.80879 388.947 9.80879 388.56 9.80879C388.174 9.80879 387.786 9.80879 387.399 9.80879C387.011 9.80879 386.623 9.80879 386.234 9.80879C385.845 9.80879 385.455 9.80879 385.065 9.80879C384.675 9.80879 384.285 9.80879 383.893 9.80879C383.502 9.80879 383.111 9.80879 382.718 9.80879C382.326 9.80879 381.933 9.80879 381.54 9.80879C381.146 9.80879 380.752 9.80879 380.358 9.80879C379.963 9.80879 379.568 9.80879 379.172 9.80879C378.777 9.80879 378.381 9.80879 377.984 9.80879C377.587 9.80879 377.19 9.80879 376.792 9.80879C376.394 9.80879 375.996 9.80879 375.597 9.80879C375.198 9.80879 374.799 9.80879 374.399 9.80879C373.999 9.80879 373.599 9.80879 373.198 9.80879C372.797 9.80879 372.396 9.80879 371.994 9.80879C371.592 9.80879 371.189 9.80879 370.786 9.80879C370.384 9.80879 369.98 9.80879 369.576 9.80879C369.172 9.80879 368.768 9.80879 368.363 9.80879C367.958 9.80879 367.553 9.80879 367.147 9.80879C366.741 9.80879 366.334 9.80879 365.928 9.80879C365.521 9.80879 365.113 9.80879 364.706 9.80879C364.298 9.80879 363.889 9.80879 363.481 9.80879C363.072 9.80879 362.663 9.80879 362.253 9.80879C361.843 9.80879 361.433 9.80879 361.023 9.80879C360.612 9.80879 360.201 9.80879 359.79 9.80879C359.378 9.80879 358.966 9.80879 358.554 9.80879C358.141 9.80879 357.729 9.80879 357.315 9.80879C356.902 9.80879 356.488 9.80879 356.074 9.80879C355.66 9.80879 355.246 9.80879 354.831 9.80879C354.416 9.80879 354 9.80879 353.584 9.80879C353.169 9.80879 352.752 9.80879 352.336 9.80879C351.919 9.80879 351.502 9.80879 351.085 9.80879C350.667 9.80879 350.249 9.80879 349.831 9.80879C349.413 9.80879 348.994 9.80879 348.575 9.80879C348.156 9.80879 347.736 9.80879 347.316 9.80879C346.897 9.80879 346.476 9.80879 346.056 9.80879C345.635 9.80879 345.214 9.80879 344.793 9.80879C344.371 9.80879 343.949 9.80879 343.527 9.80879C343.105 9.80879 342.683 9.80879 342.26 9.80879C341.837 9.80879 341.414 9.80879 340.99 9.80879C340.566 9.80879 340.142 9.80879 339.718 9.80879C339.294 9.80879 338.869 9.80879 338.444 9.80879C338.019 9.80879 337.594 9.80879 337.168 9.80879C336.742 9.80879 336.316 9.80879 335.89 9.80879C335.463 9.80879 335.036 9.80879 334.609 9.80879C334.182 9.80879 333.755 9.80879 333.327 9.80879C332.9 9.80879 332.471 9.80879 332.043 9.80879C331.615 9.80879 331.186 9.80879 330.757 9.80879C330.328 9.80879 329.899 9.80879 329.469 9.80879C329.04 9.80879 328.61 9.80879 328.179 9.80879C327.749 9.80879 327.319 9.80879 326.888 9.80879C326.457 9.80879 326.026 9.80879 325.594 9.80879C325.163 9.80879 324.731 9.80879 324.299 9.80879C323.867 9.80879 323.435 9.80879 323.003 9.80879C322.57 9.80879 322.137 9.80879 321.704 9.80879C321.271 9.80879 320.838 9.80879 320.404 9.80879C319.97 9.80879 319.537 9.80879 319.102 9.80879C318.668 9.80879 318.234 9.80879 317.799 9.80879C317.365 9.80879 316.93 9.80879 316.494 9.80879C316.059 9.80879 315.624 9.80879 315.188 9.80879C314.753 9.80879 314.317 9.80879 313.881 9.80879C313.444 9.80879 313.008 9.80879 312.571 9.80879C312.135 9.80879 311.698 9.80879 311.261 9.80879C310.824 9.80879 310.387 9.80879 309.949 9.80879C309.512 9.80879 309.074 9.80879 308.636 9.80879C308.198 9.80879 307.76 9.80879 307.322 9.80879C306.883 9.80879 306.445 9.80879 306.006 9.80879C305.567 9.80879 305.128 9.80879 304.689 9.80879C304.25 9.80879 303.811 9.80879 303.371 9.80879C302.931 9.80879 302.492 9.80879 302.052 9.80879C301.612 9.80879 301.172 9.80879 300.732 9.80879C300.291 9.80879 299.851 9.80879 299.41 9.80879C298.97 9.80879 298.529 9.80879 298.088 9.80879C297.647 9.80879 297.206 9.80879 296.765 9.80879C296.323 9.80879 295.882 9.80879 295.44 9.80879C294.999 9.80879 294.557 9.80879 294.115 9.80879C293.673 9.80879 293.231 9.80879 292.789 9.80879C292.347 9.80879 291.904 9.80879 291.462 9.80879C291.02 9.80879 290.577 9.80879 290.134 9.80879C289.691 9.80879 289.249 9.80879 288.806 9.80879C288.363 9.80879 287.92 9.80879 287.476 9.80879C287.033 9.80879 286.59 9.80879 286.146 9.80879C285.703 9.80879 285.259 9.80879 284.816 9.80879C284.372 9.80879 283.928 9.80879 283.484 9.80879C283.04 9.80879 282.596 9.80879 282.152 9.80879C281.708 9.80879 281.264 9.80879 280.82 9.80879C280.376 9.80879 279.931 9.80879 279.487 9.80879C279.043 9.80879 278.598 9.80879 278.153 9.80879C277.709 9.80879 277.264 9.80879 276.819 9.80879C276.375 9.80879 275.93 9.80879 275.485 9.80879C275.04 9.80879 274.595 9.80879 274.15 9.80879C273.705 9.80879 273.26 9.80879 272.815 9.80879C272.37 9.80879 271.925 9.80879 271.48 9.80879C271.034 9.80879 270.589 9.80879 270.144 9.80879C269.699 9.80879 269.253 9.80879 268.808 9.80879C268.362 9.80879 267.917 9.80879 267.472 9.80879C267.026 9.80879 266.581 9.80879 266.135 9.80879C265.69 9.80879 265.244 9.80879 264.799 9.80879C264.353 9.80879 263.908 9.80879 263.462 9.80879C263.016 9.80879 262.571 9.80879 262.125 9.80879C261.68 9.80879 261.234 9.80879 260.789 9.80879C260.343 9.80879 259.897 9.80879 259.452 9.80879C259.006 9.80879 258.561 9.80879 258.115 9.80879C257.67 9.80879 257.224 9.80879 256.778 9.80879C256.333 9.80879 255.887 9.80879 255.442 9.80879C254.996 9.80879 254.551 9.80879 254.105 9.80879C253.66 9.80879 253.215 9.80879 252.769 9.80879C252.324 9.80879 251.879 9.80879 251.433 9.80879C250.988 9.80879 250.543 9.80879 250.097 9.80879C249.652 9.80879 249.207 9.80879 248.762 9.80879C248.317 9.80879 247.872 9.80879 247.427 9.80879C246.982 9.80879 246.537 9.80879 246.092 9.80879C245.647 9.80879 245.202 9.80879 244.757 9.80879C244.313 9.80879 243.868 9.80879 243.423 9.80879C242.979 9.80879 242.534 9.80879 242.09 9.80879C241.645 9.80879 241.201 9.80879 240.757 9.80879C240.313 9.80879 239.868 9.80879 239.424 9.80879C238.98 9.80879 238.536 9.80879 238.092 9.80879C237.648 9.80879 237.205 9.80879 236.761 9.80879C236.317 9.80879 235.874 9.80879 235.43 9.80879C234.987 9.80879 234.543 9.80879 234.1 9.80879C233.657 9.80879 233.214 9.80879 232.771 9.80879C232.328 9.80879 231.885 9.80879 231.442 9.80879C230.999 9.80879 230.557 9.80879 230.114 9.80879C229.672 9.80879 229.23 9.80879 228.787 9.80879C228.345 9.80879 227.903 9.80879 227.461 9.80879C227.019 9.80879 226.578 9.80879 226.136 9.80879C225.694 9.80879 225.253 9.80879 224.812 9.80879C224.37 9.80879 223.929 9.80879 223.488 9.80879C223.047 9.80879 222.606 9.80879 222.166 9.80879C221.725 9.80879 221.285 9.80879 220.844 9.80879C220.404 9.80879 219.964 9.80879 219.524 9.80879C219.084 9.80879 218.644 9.80879 218.205 9.80879C217.765 9.80879 217.326 9.80879 216.887 9.80879C216.447 9.80879 216.008 9.80879 215.57 9.80879C215.131 9.80879 214.692 9.80879 214.254 9.80879C213.816 9.80879 213.377 9.80879 212.939 9.80879C212.501 9.80879 212.064 9.80879 211.626 9.80879C211.189 9.80879 210.751 9.80879 210.314 9.80879C209.877 9.80879 209.44 9.80879 209.004 9.80879C208.567 9.80879 208.131 9.80879 207.694 9.80879C207.258 9.80879 206.822 9.80879 206.387 9.80879C205.951 9.80879 205.516 9.80879 205.08 9.80879C204.645 9.80879 204.21 9.80879 203.775 9.80879C203.341 9.80879 202.906 9.80879 202.472 9.80879C202.038 9.80879 201.604 9.80879 201.17 9.80879C200.737 9.80879 200.303 9.80879 199.87 9.80879C199.437 9.80879 199.004 9.80879 198.572 9.80879C198.139 9.80879 197.707 9.80879 197.275 9.80879C196.843 9.80879 196.411 9.80879 195.979 9.80879C195.548 9.80879 195.117 9.80879 194.686 9.80879C194.255 9.80879 193.825 9.80879 193.394 9.80879C192.964 9.80879 192.534 9.80879 192.104 9.80879C191.675 9.80879 191.245 9.80879 190.816 9.80879C190.387 9.80879 189.959 9.80879 189.53 9.80879C189.102 9.80879 188.674 9.80879 188.246 9.80879C187.818 9.80879 187.391 9.80879 186.964 9.80879C186.536 9.80879 186.11 9.80879 185.683 9.80879C185.257 9.80879 184.831 9.80879 184.405 9.80879C183.979 9.80879 183.554 9.80879 183.129 9.80879C182.703 9.80879 182.279 9.80879 181.854 9.80879C181.43 9.80879 181.006 9.80879 180.582 9.80879C180.159 9.80879 179.735 9.80879 179.312 9.80879C178.889 9.80879 178.467 9.80879 178.045 9.80879C177.622 9.80879 177.201 9.80879 176.779 9.80879C176.358 9.80879 175.937 9.80879 175.516 9.80879C175.095 9.80879 174.675 9.80879 174.255 9.80879C173.835 9.80879 173.415 9.80879 172.996 9.80879C172.577 9.80879 172.158 9.80879 171.74 9.80879C171.322 9.80879 170.904 9.80879 170.486 9.80879C170.069 9.80879 169.652 9.80879 169.235 9.80879C168.818 9.80879 168.402 9.80879 167.986 9.80879C167.57 9.80879 167.155 9.80879 166.74 9.80879C166.325 9.80879 165.91 9.80879 165.496 9.80879C165.082 9.80879 164.668 9.80879 164.254 9.80879C163.841 9.80879 163.428 9.80879 163.016 9.80879C162.603 9.80879 162.191 9.80879 161.78 9.80879C161.368 9.80879 160.957 9.80879 160.546 9.80879C160.136 9.80879 159.726 9.80879 159.316 9.80879C158.906 9.80879 158.497 9.80879 158.088 9.80879C157.679 9.80879 157.271 9.80879 156.863 9.80879C156.455 9.80879 156.048 9.80879 155.641 9.80879C155.234 9.80879 154.827 9.80879 154.421 9.80879C154.015 9.80879 153.61 9.80879 153.205 9.80879C152.8 9.80879 152.396 9.80879 151.992 9.80879C151.588 9.80879 151.184 9.80879 150.781 9.80879C150.378 9.80879 149.975 9.80879 149.573 9.80879C149.171 9.80879 148.77 9.80879 148.369 9.80879C147.968 9.80879 147.568 9.80879 147.168 9.80879C146.768 9.80879 146.368 9.80879 145.969 9.80879C145.57 9.80879 145.172 9.80879 144.774 9.80879C144.376 9.80879 143.979 9.80879 143.582 9.80879C143.185 9.80879 142.789 9.80879 142.393 9.80879C141.998 9.80879 141.603 9.80879 141.208 9.80879C140.813 9.80879 140.419 9.80879 140.026 9.80879C139.632 9.80879 139.239 9.80879 138.847 9.80879C138.454 9.80879 138.063 9.80879 137.671 9.80879C137.28 9.80879 136.889 9.80879 136.499 9.80879C136.109 9.80879 135.719 9.80879 135.331 9.80879C134.942 9.80879 134.553 9.80879 134.165 9.80879C133.777 9.80879 133.39 9.80879 133.004 9.80879C132.617 9.80879 132.231 9.80879 131.845 9.80879C131.46 9.80879 131.075 9.80879 130.691 9.80879C130.307 9.80879 129.923 9.80879 129.54 9.80879C129.157 9.80879 128.774 9.80879 128.392 9.80879C128.011 9.80879 127.629 9.80879 127.249 9.80879C126.868 9.80879 126.488 9.80879 126.109 9.80879C125.729 9.80879 125.351 9.80879 124.973 9.80879C124.594 9.80879 124.217 9.80879 123.84 9.80879C123.463 9.80879 123.087 9.80879 122.712 9.80879C122.336 9.80879 121.961 9.80879 121.587 9.80879C121.213 9.80879 120.839 9.80879 120.466 9.80879C120.093 9.80879 119.721 9.80879 119.349 9.80879C118.977 9.80879 118.606 9.80879 118.236 9.80879C117.866 9.80879 117.496 9.80879 117.127 9.80879C116.758 9.80879 116.39 9.80879 116.022 9.80879C115.654 9.80879 115.287 9.80879 114.921 9.80879C114.555 9.80879 114.189 9.80879 113.824 9.80879C113.46 9.80879 113.095 9.80879 112.732 9.80879C112.368 9.80879 112.005 9.80879 111.643 9.80879C111.281 9.80879 110.92 9.80879 110.559 9.80879C110.198 9.80879 109.838 9.80879 109.479 9.80879C109.12 9.80879 108.761 9.80879 108.403 9.80879C108.046 9.80879 107.688 9.80879 107.332 9.80879C106.976 9.80879 106.62 9.80879 106.265 9.80879C105.91 9.80879 105.556 9.80879 105.202 9.80879C104.849 9.80879 104.496 9.80879 104.144 9.80879C103.792 9.80879 103.441 9.80879 103.09 9.80879C102.74 9.80879 102.39 9.80879 102.041 9.80879C101.692 9.80879 101.344 9.80879 100.996 9.80879C100.649 9.80879 100.302 9.80879 99.956 9.80879C99.61 9.80879 99.2648 9.80879 98.9204 9.80879C98.576 9.80879 98.2323 9.80879 97.8894 9.80879C97.5465 9.80879 97.2044 9.80879 96.8631 9.80879C96.5218 9.80879 96.1813 9.80879 95.8415 9.80879C95.5018 9.80879 95.1628 9.80879 94.8247 9.80879C94.4865 9.80879 94.1492 9.80879 93.8126 9.80879C93.476 9.80879 93.1403 9.80879 92.8053 9.80879C92.4704 9.80879 92.1362 9.80879 91.8029 9.80879C91.4696 9.80879 91.1371 9.80879 90.8054 9.80879C90.4737 9.80879 90.1428 9.80879 89.8128 9.80879C89.4827 9.80879 89.1535 9.80879 88.8251 9.80879C88.4967 9.80879 88.1691 9.80879 87.8424 9.80879C87.5157 9.80879 87.1898 9.80879 86.8648 9.80879C86.5397 9.80879 86.2155 9.80879 85.8922 9.80879C85.5688 9.80879 85.2463 9.80879 84.9247 9.80879C84.603 9.80879 84.2822 9.80879 83.9623 9.80879C83.6424 9.80879 83.3233 9.80879 83.0051 9.80879C82.6869 9.80879 82.3696 9.80879 82.0531 9.80879C81.7366 9.80879 81.4211 9.80879 81.1063 9.80879C80.7916 9.80879 80.4778 9.80879 80.1648 9.80879C79.8519 9.80879 79.5398 9.80879 79.2287 9.80879C78.9175 9.80879 78.6072 9.80879 78.2978 9.80879C77.9884 9.80879 77.6799 9.80879 77.3723 9.80879C77.0648 9.80879 76.7581 9.80879 76.4523 9.80879C76.1465 9.80879 75.8416 9.80879 75.5377 9.80879C75.2337 9.80879 74.9307 9.80879 74.6285 9.80879C74.3264 9.80879 74.0252 9.80879 73.7249 9.80879C73.4247 9.80879 73.1253 9.80879 72.8269 9.80879C72.5285 9.80879 72.231 9.80879 71.9344 9.80879C71.6379 9.80879 71.3423 9.80879 71.0476 9.80879C70.7529 9.80879 70.4592 9.80879 70.1664 9.80879C69.8736 9.80879 69.5818 9.80879 69.291 9.80879C69.0001 9.80879 68.7102 9.80879 68.4212 9.80879C68.1322 9.80879 67.8443 9.80879 67.5572 9.80879C67.2702 9.80879 66.9841 9.80879 66.6991 9.80879C66.414 9.80879 66.1298 9.80879 65.8467 9.80879C65.5636 9.80879 65.2814 9.80879 65.0002 9.80879C64.7191 9.80879 64.4389 9.80879 64.1597 9.80879C63.8805 9.80879 63.6023 9.80879 63.3251 9.80879C63.0479 9.80879 62.7717 9.80879 62.4964 9.80879C62.2212 9.80879 61.947 9.80879 61.6738 9.80879C61.4006 9.80879 61.1284 9.80879 60.8573 9.80879C60.5861 9.80879 60.3159 9.80879 60.0468 9.80879C59.7776 9.80879 59.5095 9.80879 59.2424 9.80879C58.9753 9.80879 58.7092 9.80879 58.4442 9.80879C58.1792 9.80879 57.9151 9.80879 57.6522 9.80879C57.3892 9.80879 57.1273 9.80879 56.8664 9.80879C56.6055 9.80879 56.3457 9.80879 56.0869 9.80879C55.8281 9.80879 55.5703 9.80879 55.3136 9.80879C55.0569 9.80879 54.8013 9.80879 54.5467 9.80879C54.2922 9.80879 54.0387 9.80879 53.7862 9.80879C53.5338 9.80879 53.2824 9.80879 53.0321 9.80879C52.7818 9.80879 52.5326 9.80879 52.2844 9.80879C52.0363 9.80879 51.7892 9.80879 51.5432 9.80879C51.2972 9.80879 51.0523 9.80879 50.8085 9.80879C50.5647 9.80879 50.322 9.80879 50.0803 9.80879C49.8387 9.80879 49.5982 9.80879 49.3588 9.80879C49.1194 9.80879 48.881 9.80879 48.6438 9.80879C48.4066 9.80879 48.1705 9.80879 47.9355 9.80879C47.7005 9.80879 47.4666 9.80879 47.2339 9.80879C47.0011 9.80879 46.7695 9.80879 46.539 9.80879C46.3085 9.80879 46.0791 9.80879 45.8509 9.80879C45.6226 9.80879 45.3955 9.80879 45.1695 9.80879C44.9435 9.80879 44.7187 9.80879 44.495 9.80879C44.2713 9.80879 44.0488 9.80879 43.8273 9.80879C43.6059 9.80879 43.3857 9.80879 43.1666 9.80879C42.9475 9.80879 42.7296 9.80879 42.5128 9.80879C42.296 9.80879 42.0804 9.80879 41.8659 9.80879C41.6515 9.80879 41.4382 9.80879 41.2261 9.80879C41.014 9.80879 40.803 9.80879 40.5933 9.80879C40.3835 9.80879 40.175 9.80879 39.9676 9.80879C39.7602 9.80879 39.554 9.80879 39.3489 9.80879C39.1439 9.80879 38.9401 9.80879 38.7375 9.80879C38.5349 9.80879 38.3334 9.80879 38.1332 9.80879C37.933 9.80879 37.7339 9.80879 37.5361 9.80879C37.3383 9.80879 37.1417 9.80879 36.9463 9.80879C36.7509 9.80879 36.5567 9.80879 36.3638 9.80879C36.1708 9.80879 35.9791 9.80879 35.7886 9.80879C35.5981 9.80879 35.4088 9.80879 35.2208 9.80879C35.0327 9.80879 34.8459 9.80879 34.6603 9.80879C34.4747 9.80879 34.2904 9.80879 34.1073 9.80879C33.9242 9.80879 33.7423 9.80879 33.5617 9.80879C33.3811 9.80879 33.2018 9.80879 33.0237 9.80879C32.8456 9.80879 32.6688 9.80879 32.4932 9.80879C32.3176 9.80879 32.1433 9.80879 31.9702 9.80879C31.7972 9.80879 31.6254 9.80879 31.4549 9.80879C31.2844 9.80879 31.1152 9.80879 30.9472 9.80879C30.7793 9.80879 30.6126 9.80879 30.4472 9.80879C30.2818 9.80879 30.1177 9.80879 29.9549 9.80879C29.7921 9.80879 29.6306 9.80879 29.4703 9.80879C29.3101 9.80879 29.1512 9.80879 28.9936 9.80879C28.8359 9.80879 28.6796 9.80879 28.5246 9.80879C28.3696 9.80879 28.2159 9.80879 28.0635 9.80879C27.9111 9.80879 27.7601 9.80879 27.6103 9.80879C27.4606 9.80879 27.3121 9.80879 27.165 9.80879C27.0179 9.80879 26.8722 9.80879 26.7277 9.80879C26.5833 9.80879 26.4402 9.80879 26.2984 9.80879C26.1566 9.80879 26.0162 9.80879 25.8771 9.80879C25.738 9.80879 25.6003 9.80879 25.4639 9.80879C25.3275 9.80879 25.1925 9.80879 25.0588 9.80879C24.9251 9.80879 24.7928 9.80879 24.6618 9.80879C24.5308 9.80879 24.4012 9.80879 24.273 9.80879C24.1448 9.80879 24.0179 9.80879 23.8924 9.80879C23.7669 9.80879 23.6428 9.80879 23.52 9.80879C23.3973 9.80879 23.2759 9.80879 23.156 9.80879C23.036 9.80879 22.9174 9.80879 22.8002 9.80879C22.683 9.80879 22.5672 9.80879 22.4528 9.80879C22.3384 9.80879 22.2254 9.80879 22.1138 9.80879V5.80879ZM505.685 5.80879C506.981 5.80879 507.759 5.59848 508.201 5.35413C508.566 5.15209 508.775 4.89357 508.893 4.44862L512.759 5.47441C512.368 6.94701 511.479 8.11213 510.137 8.85434C508.872 9.55424 507.334 9.80879 505.685 9.80879V5.80879ZM508.894 4.44358C509.086 3.72893 508.685 3.26961 508.393 3.17569L509.617 -0.632356C512.217 0.203451 513.423 2.99817 512.758 5.47945L508.894 4.44358ZM508.413 3.18198C508.384 3.17286 508.366 3.17301 508.355 3.17416C508.343 3.17533 508.316 3.17987 508.272 3.20395L506.365 -0.311978C507.365 -0.854632 508.511 -0.975562 509.597 -0.638643L508.413 3.18198ZM508.31 3.18274C508.305 3.1856 508.278 3.20318 508.247 3.24464C508.216 3.28529 508.193 3.33273 508.181 3.37892L504.313 2.36034C504.605 1.251 505.334 0.275903 506.326 -0.290775L508.31 3.18274ZM508.177 3.39289C508.175 3.40341 508.173 3.4162 508.175 3.42885C508.176 3.44201 508.179 3.44596 508.176 3.44006L504.586 5.20459C504.156 4.32856 504.057 3.30562 504.317 2.34637L508.177 3.39289ZM508.176 3.44006C508.174 3.43531 508.168 3.42498 508.151 3.41012C508.134 3.39462 508.096 3.36686 508.033 3.34671L506.817 7.15738C505.785 6.82798 505.012 6.07045 504.586 5.20459L508.176 3.44006ZM508.059 3.35498C507.978 3.328 507.875 3.31235 507.761 3.3238C507.646 3.33538 507.552 3.37138 507.487 3.40895L509.505 6.8627C508.652 7.36127 507.678 7.44483 506.792 7.14912L508.059 3.35498ZM507.427 3.44588C507.331 3.50642 507.269 3.59478 507.242 3.68952L511.09 4.78081C510.849 5.63095 510.304 6.35849 509.566 6.82578L507.427 3.44588ZM507.232 3.72587C507.184 3.90719 507.208 4.08108 507.281 4.22889C507.354 4.37755 507.528 4.59292 507.851 4.69278L509.035 0.87216C510.788 1.4156 511.486 3.27725 511.1 4.74446L507.232 3.72587ZM507.875 4.70027C506.396 4.26253 505.765 2.71378 506.198 1.42058L509.991 2.69167C510.21 2.03766 509.901 1.12809 509.01 0.864676L507.875 4.70027ZM506.155 1.56858C506.484 0.260888 507.912 -0.807674 509.498 -0.182006L508.03 3.53885C508.445 3.70237 508.933 3.67404 509.343 3.43941C509.736 3.21451 509.954 2.86294 510.034 2.54367L506.155 1.56858ZM509.401 -0.217515C511.605 0.522628 512.755 2.95289 512.133 5.13246L508.287 4.03516C508.315 3.93547 508.305 3.81836 508.252 3.71262C508.198 3.60425 508.136 3.57711 508.127 3.57436L509.401 -0.217515ZM512.142 5.103C511.818 6.30532 511.062 7.2885 510.024 7.90293L507.987 4.46061C508.127 4.37775 508.227 4.25689 508.279 4.06462L512.142 5.103ZM510.024 7.90293C508.924 8.55364 507.653 8.66391 506.504 8.28428L507.758 4.48602C507.806 4.50181 507.844 4.50399 507.874 4.50095C507.902 4.49804 507.939 4.48876 507.987 4.46061L510.024 7.90293ZM506.519 8.28917C505.24 7.87812 504.258 6.96619 503.667 5.82068L507.221 3.98613C507.38 4.29331 507.576 4.42731 507.743 4.48112L506.519 8.28917ZM503.64 5.76777C503.086 4.61235 502.958 3.27618 503.3 2.02317L507.159 3.0769C507.073 3.3928 507.105 3.74176 507.247 4.03903L503.64 5.76777ZM503.298 2.03307C503.668 0.647881 504.544 -0.545926 505.782 -1.28692L507.837 2.14512C507.521 2.33386 507.273 2.65085 507.162 3.067L503.298 2.03307ZM505.831 -1.315C507.045 -1.99629 508.524 -2.22295 509.96 -1.72009L508.639 2.05533C508.416 1.97711 508.127 1.98288 507.788 2.17321L505.831 -1.315ZM509.931 -1.73009C513.059 -0.689392 514.602 2.68699 513.778 5.81945L509.91 4.80086C510.263 3.45902 509.557 2.36111 508.668 2.06532L509.931 -1.73009ZM513.779 5.81384C513.334 7.52282 512.352 8.89763 510.844 9.79821C509.397 10.6625 507.62 11 505.685 11V7C507.204 7 508.185 6.72738 508.793 6.36414C509.34 6.03718 509.71 5.56707 509.908 4.80647L513.779 5.81384ZM505.685 11C505.147 11 337.686 11 301.856 11V7C337.671 7 505.163 7 505.685 7V11Z" fill="black" mask="url(#path-1-inside-1_202_2)"/>
</svg>
