<svg width="30" height="30" viewBox="0 0 30 30" fill="none" xmlns="http://www.w3.org/2000/svg">
<path d="M15 1.66663C7.63602 1.66663 1.66669 7.63596 1.66669 15C1.66669 22.364 7.63602 28.3333 15 28.3333C22.364 28.3333 28.3334 22.364 28.3334 15C28.3334 7.63596 22.364 1.66663 15 1.66663Z" stroke="white" stroke-width="1.5" stroke-linecap="round" stroke-linejoin="round"/>
<path d="M4.6947 23.4613C4.6947 23.4613 7.6667 19.6666 15 19.6666C22.3334 19.6666 25.3067 23.4613 25.3067 23.4613" stroke="white" stroke-width="1.5" stroke-linecap="round" stroke-linejoin="round"/>
<path d="M15 15C16.0609 15 17.0783 14.5786 17.8284 13.8284C18.5786 13.0783 19 12.0609 19 11C19 9.93913 18.5786 8.92172 17.8284 8.17157C17.0783 7.42143 16.0609 7 15 7C13.9391 7 12.9217 7.42143 12.1716 8.17157C11.4214 8.92172 11 9.93913 11 11C11 12.0609 11.4214 13.0783 12.1716 13.8284C12.9217 14.5786 13.9391 15 15 15V15Z" stroke="white" stroke-width="1.5" stroke-linecap="round" stroke-linejoin="round"/>
</svg>
