<svg width="561" height="65" viewBox="0 0 661 80" fill="none" xmlns="http://www.w3.org/2000/svg">
<path d="M35.3242 64.8697L45.5401 76.5352C45.0238 49.9403 78.2253 41.0796 78.2253 41.0796C37.4978 46.4343 35.3242 64.8697 35.3242 64.8697Z" fill="white"/>
<path d="M45.5401 0.218506L35.3242 11.8841C35.3242 11.8841 37.4978 30.3194 78.2253 35.6869C78.2253 35.6869 45.0238 26.8134 45.5401 0.218506Z" fill="white"/>
<path d="M17.7181 30.6763L0.533203 38.3768L17.7181 46.0901L58.5679 38.3768L17.7181 30.6763Z" fill="white"/>
<path d="M582.842 41.0796C582.842 41.0796 616.043 49.9403 615.527 76.548L625.743 64.8824C625.743 64.8697 623.569 46.4343 582.842 41.0796Z" fill="white"/>
<path d="M625.743 11.8841L615.527 0.218506C616.043 26.8134 582.842 35.6869 582.842 35.6869C623.569 30.3194 625.743 11.8841 625.743 11.8841Z" fill="white"/>
<path d="M643.348 30.6763L602.498 38.3768L643.348 46.0901L660.533 38.3768L643.348 30.6763Z" fill="white"/>
<path d="M130.733 21.128C131.074 21.5973 131.288 22.1093 131.373 22.664C131.458 23.2187 131.501 23.7947 131.501 24.392C131.501 24.904 131.437 25.608 131.309 26.504C131.181 27.4 130.946 28.2747 130.605 29.128C130.306 29.9813 129.922 30.728 129.453 31.368C129.026 31.9653 128.493 32.2427 127.853 32.2C127.853 32.1573 127.81 31.7093 127.725 30.856C127.682 30.0027 127.49 29.0853 127.149 28.104C126.85 27.1227 126.381 26.2267 125.741 25.416C125.101 24.6053 124.205 24.2 123.053 24.2C121.901 24.4987 120.941 25.0533 120.173 25.864C119.405 26.6747 118.957 27.6773 118.829 28.872C118.658 30.536 118.552 32.2 118.509 33.864C118.466 35.528 118.466 37.192 118.509 38.856C118.509 40.4773 118.509 42.0987 118.509 43.72C118.509 45.3413 118.53 46.9627 118.573 48.584C118.573 50.3333 118.744 51.848 119.085 53.128C119.426 54.408 119.853 55.496 120.365 56.392C120.877 57.2453 121.41 57.9067 121.965 58.376C122.52 58.8453 122.989 59.144 123.373 59.272C122.264 60.04 121.197 60.488 120.173 60.616C119.149 60.744 118.21 60.68 117.357 60.424C116.546 60.168 115.864 59.8053 115.309 59.336C114.754 58.8667 114.392 58.44 114.221 58.056C113.88 58.3547 113.581 58.632 113.325 58.888C113.069 59.1013 112.813 59.3147 112.557 59.528C111.661 60.2107 110.722 60.6587 109.741 60.872C108.76 61.0853 107.714 61.0213 106.605 60.68C106.178 60.5093 105.794 60.3173 105.453 60.104C105.112 59.848 104.813 59.528 104.557 59.144C104.472 59.0587 104.408 58.9307 104.365 58.76C104.365 58.5893 104.322 58.4187 104.237 58.248C105.261 58.3333 106.05 58.056 106.605 57.416C107.202 56.776 107.65 56.0293 107.949 55.176C108.248 54.28 108.44 53.384 108.525 52.488C108.653 51.592 108.738 50.9093 108.781 50.44C109.08 48.136 109.229 45.8533 109.229 43.592C109.272 41.288 109.25 38.9627 109.165 36.616C109.122 36.36 109.101 36.104 109.101 35.848C109.101 35.5493 109.101 35.2507 109.101 34.952C109.186 33.8427 109.165 32.7547 109.037 31.688C108.909 30.5787 108.802 29.4693 108.717 28.36C108.674 27.6773 108.461 27.0587 108.077 26.504C107.693 25.9493 107.202 25.5013 106.605 25.16C106.05 24.8187 105.453 24.6053 104.813 24.52C104.173 24.4347 103.597 24.4773 103.085 24.648C102.189 24.9893 101.464 25.4587 100.909 26.056C100.354 26.6107 99.9063 27.2293 99.565 27.912C99.2663 28.5947 99.053 29.2987 98.925 30.024C98.8397 30.7493 98.797 31.4107 98.797 32.008C98.0717 31.5387 97.4957 30.9413 97.069 30.216C96.685 29.4907 96.4077 28.744 96.237 27.976C96.0663 27.1653 95.981 26.3973 95.981 25.672C96.0237 24.904 96.1303 24.2427 96.301 23.688C96.4717 23.2187 96.6423 22.7493 96.813 22.28C96.9837 21.768 97.1543 21.2347 97.325 20.68C96.813 20.424 96.3863 19.9973 96.045 19.4C95.7037 18.76 95.4903 18.0773 95.405 17.352C95.3623 16.584 95.4263 15.8373 95.597 15.112C95.8103 14.3867 96.1943 13.768 96.749 13.256C97.133 14.2373 97.6663 14.984 98.349 15.496C99.0317 15.9653 99.7143 16.2853 100.397 16.456C101.08 16.6267 101.698 16.6907 102.253 16.648C102.808 16.6053 103.17 16.5413 103.341 16.456C104.322 16.0293 105.304 15.7307 106.285 15.56C107.309 15.3467 108.354 15.2187 109.421 15.176C110.53 15.0907 111.64 15.0267 112.749 14.984C113.901 14.9413 115.032 14.92 116.141 14.92C117.293 14.92 118.424 15.0267 119.533 15.24C120.685 15.4533 121.816 15.8373 122.925 16.392C123.309 16.6053 123.842 16.7973 124.525 16.968C125.208 17.1387 125.784 17.288 126.253 17.416C126.808 17.5013 127.384 17.4587 127.981 17.288C128.578 17.0747 129.133 16.7547 129.645 16.328C130.157 15.9013 130.605 15.368 130.989 14.728C131.373 14.0453 131.629 13.256 131.757 12.36C132.525 13.0427 132.994 13.8533 133.165 14.792C133.378 15.688 133.4 16.584 133.229 17.48C133.058 18.3333 132.738 19.1013 132.269 19.784C131.8 20.4667 131.288 20.9147 130.733 21.128ZM169.889 60.936C168.908 60.936 167.905 60.808 166.881 60.552C165.9 60.2533 164.854 59.6133 163.745 58.632C163.66 58.6747 163.574 58.696 163.489 58.696C163.404 58.696 163.34 58.7387 163.297 58.824C162.742 59.336 162.145 59.6987 161.505 59.912C160.865 60.0827 160.204 60.232 159.521 60.36C159.094 60.4453 158.54 60.5093 157.857 60.552C157.217 60.5947 156.534 60.6373 155.809 60.68C155.126 60.7227 154.444 60.744 153.761 60.744C153.121 60.744 152.588 60.744 152.161 60.744C150.753 60.6587 149.409 60.4027 148.129 59.976C147.19 59.6773 146.294 59.144 145.441 58.376C145.228 58.504 145.036 58.6533 144.865 58.824C144.737 58.952 144.566 59.08 144.353 59.208C142.817 60.36 141.068 60.8293 139.105 60.616C138.678 60.5733 138.294 60.488 137.953 60.36C137.612 60.232 137.27 59.9973 136.929 59.656C136.63 59.3573 136.588 58.9947 136.801 58.568C137.782 58.1413 138.55 57.544 139.105 56.776C139.66 56.008 140.065 55.112 140.321 54.088C140.449 53.6613 140.534 53.256 140.577 52.872C140.62 52.4453 140.684 51.9973 140.769 51.528C140.94 49.9493 141.046 48.3707 141.089 46.792C141.174 45.2133 141.217 43.6347 141.217 42.056C141.217 39.752 141.217 37.4907 141.217 35.272C141.26 33.0533 141.26 30.792 141.217 28.488C141.217 27.592 141.153 26.696 141.025 25.8C140.94 24.8613 140.833 23.944 140.705 23.048C140.577 22.2373 140.321 21.4907 139.937 20.808C139.596 20.1253 139.19 19.464 138.721 18.824C138.38 18.3547 137.974 18.0347 137.505 17.864C137.334 17.7787 137.164 17.736 136.993 17.736C136.865 17.6933 136.716 17.6293 136.545 17.544C136.118 17.3307 135.905 17.032 135.905 16.648C135.905 16.136 136.14 15.816 136.609 15.688C137.078 15.5173 137.526 15.368 137.953 15.24C138.422 15.112 138.892 15.0267 139.361 14.984C140.342 14.984 141.196 15.112 141.921 15.368C142.689 15.5813 143.585 16.0507 144.609 16.776C146.06 15.88 147.638 15.3253 149.345 15.112C149.985 15.0693 150.732 15.0267 151.585 14.984C152.481 14.8987 153.377 14.856 154.273 14.856C155.169 14.856 156.044 14.8773 156.897 14.92C157.75 14.9627 158.497 15.048 159.137 15.176C159.265 15.176 159.414 15.1973 159.585 15.24C159.756 15.24 159.905 15.24 160.033 15.24C160.63 15.24 161.185 15.3467 161.697 15.56C162.252 15.7733 162.806 16.008 163.361 16.264C163.446 16.3493 163.532 16.4133 163.617 16.456C163.745 16.456 163.873 16.4987 164.001 16.584C164.214 16.4987 164.406 16.4133 164.577 16.328C164.748 16.2 164.918 16.072 165.089 15.944C165.601 15.6453 166.092 15.368 166.561 15.112C167.073 14.8133 167.585 14.5147 168.097 14.216C168.481 13.96 168.865 13.8107 169.249 13.768C169.505 13.7253 169.782 13.768 170.081 13.896C170.209 13.9813 170.316 14.088 170.401 14.216C170.486 14.3013 170.572 14.408 170.657 14.536C170.273 16.1573 169.868 17.7787 169.441 19.4C169.014 20.9787 168.63 22.5787 168.289 24.2C168.118 24.8827 167.905 25.544 167.649 26.184C167.436 26.824 167.265 27.4853 167.137 28.168C167.052 28.3813 166.945 28.5733 166.817 28.744C166.732 28.9147 166.561 29.0427 166.305 29.128C165.665 29.0853 165.238 28.7227 165.025 28.04C164.94 27.8267 164.854 27.6347 164.769 27.464C164.726 27.2507 164.662 27.0373 164.577 26.824C163.852 25.032 162.657 23.7307 160.993 22.92C159.329 22.0667 157.601 21.768 155.809 22.024C155.425 22.0667 154.913 22.1947 154.273 22.408C153.676 22.5787 153.078 22.8773 152.481 23.304C151.926 23.7307 151.457 24.264 151.073 24.904C150.689 25.544 150.497 26.3333 150.497 27.272C150.54 27.8693 150.54 28.4667 150.497 29.064C150.454 29.6613 150.433 30.2587 150.433 30.856C150.476 31.1547 150.476 31.4533 150.433 31.752C150.433 32.008 150.412 32.3067 150.369 32.648C150.284 33.032 150.284 33.416 150.369 33.8C150.454 34.1413 150.71 34.4187 151.137 34.632C152.63 34.9733 153.825 35.08 154.721 34.952C155.617 34.824 156.321 34.568 156.833 34.184C157.345 33.8 157.708 33.3733 157.921 32.904C158.177 32.392 158.369 31.9013 158.497 31.432C158.582 31.5173 158.646 31.5813 158.689 31.624C158.774 31.6667 158.838 31.7307 158.881 31.816C159.18 32.1573 159.436 32.584 159.649 33.096C159.862 33.5653 159.969 34.0773 159.969 34.632C160.012 35.1867 159.926 35.72 159.713 36.232C159.542 36.744 159.201 37.2133 158.689 37.64C158.561 37.768 158.433 37.896 158.305 38.024C158.177 38.1093 158.028 38.216 157.857 38.344C158.07 38.5573 158.262 38.7707 158.433 38.984C158.604 39.1973 158.796 39.4107 159.009 39.624C159.564 40.264 159.862 40.9467 159.905 41.672C159.99 42.3973 159.969 43.1227 159.841 43.848C159.756 44.3173 159.414 44.616 158.817 44.744C158.732 44.7013 158.625 44.552 158.497 44.296C158.369 43.9973 158.092 43.6987 157.665 43.4C157.238 43.0587 156.62 42.7813 155.809 42.568C155.041 42.3547 153.974 42.312 152.609 42.44C152.012 42.5253 151.478 42.7813 151.009 43.208C150.54 43.6347 150.262 44.168 150.177 44.808V44.936C150.092 45.2773 150.049 45.6187 150.049 45.96C150.049 46.2587 150.028 46.5787 149.985 46.92C149.9 47.6453 149.964 48.3067 150.177 48.904C150.39 49.4587 150.689 50.0133 151.073 50.568C151.884 51.72 152.929 52.5947 154.209 53.192C155.66 53.5333 156.94 53.576 158.049 53.32C159.201 53.064 160.225 52.68 161.121 52.168C162.017 51.6133 162.785 50.9733 163.425 50.248C164.065 49.5227 164.598 48.8187 165.025 48.136C165.452 47.4533 165.772 46.8773 165.985 46.408C166.198 45.9387 166.326 45.6827 166.369 45.64C166.668 45.2133 167.03 45.0427 167.457 45.128C167.884 45.2987 168.097 45.64 168.097 46.152C168.14 46.3653 168.161 46.5573 168.161 46.728C168.161 46.8987 168.182 47.0907 168.225 47.304C168.225 47.9013 168.246 48.52 168.289 49.16C168.332 49.8 168.353 50.4187 168.353 51.016C168.31 52.3813 168.438 53.704 168.737 54.984C169.078 56.264 169.484 57.5227 169.953 58.76C170.124 59.144 170.23 59.5067 170.273 59.848C170.358 60.0187 170.358 60.1467 170.273 60.232C170.23 60.3173 170.102 60.552 169.889 60.936ZM185.442 43.72C184.802 43.5067 184.098 43.6987 183.33 44.296C182.562 44.8933 182.178 45.8107 182.178 47.048C182.178 48.6693 182.54 49.9067 183.266 50.76C184.034 51.5707 184.866 52.1467 185.762 52.488C186.7 52.8293 187.575 53.0213 188.385 53.064C189.239 53.064 189.772 53.064 189.986 53.064C190.284 53.0213 190.562 52.9787 190.818 52.936C191.116 52.8933 191.415 52.872 191.714 52.872C192.311 52.7867 192.866 52.6373 193.378 52.424C193.932 52.168 194.466 51.8693 194.978 51.528C195.532 51.1013 195.959 50.568 196.258 49.928C196.599 49.2453 196.77 48.5413 196.77 47.816C196.77 46.8347 196.492 45.9387 195.938 45.128C195.596 44.6587 195.212 44.2533 194.786 43.912C194.359 43.528 193.911 43.1867 193.442 42.888C191.778 41.9493 190.178 41.0107 188.642 40.072C187.148 39.0907 185.591 38.088 183.97 37.064C181.708 35.656 179.746 33.9493 178.082 31.944C176.759 30.4507 175.948 28.744 175.65 26.824C175.479 25.8 175.479 24.8187 175.65 23.88C175.863 22.8987 176.204 21.9387 176.674 21C177.399 19.3787 178.402 18.0987 179.682 17.16C180.962 16.1787 182.412 15.432 184.034 14.92C186.679 14.0667 189.495 13.768 192.482 14.024C193.207 14.0667 193.89 14.1733 194.53 14.344C195.17 14.5147 195.81 14.7493 196.45 15.048C196.876 15.2613 197.516 15.624 198.37 16.136C199.266 16.6053 200.204 16.9893 201.186 17.288C202.167 17.5867 203.127 17.6507 204.066 17.48C205.004 17.3093 205.772 16.648 206.37 15.496C206.711 15.8373 206.882 16.264 206.882 16.776C207.01 17.8853 206.903 18.9093 206.562 19.848C206.263 20.744 205.687 21.5547 204.833 22.28C204.663 22.408 204.45 22.6 204.194 22.856C204.194 22.856 204.13 22.92 204.002 23.048C204.002 23.4747 204.002 23.9227 204.002 24.392C204.044 24.8613 204.044 25.3307 204.002 25.8C203.959 26.7813 203.724 27.6987 203.298 28.552C202.871 29.3627 202.316 30.1307 201.634 30.856C201.42 31.0693 201.186 31.24 200.93 31.368C200.716 31.4533 200.503 31.5387 200.29 31.624C200.29 30.344 200.076 29.2347 199.65 28.296C199.266 27.3573 198.754 26.5467 198.114 25.864C197.474 25.1813 196.748 24.6053 195.938 24.136C195.17 23.6667 194.423 23.2613 193.698 22.92C192.162 22.28 190.583 22.2587 188.962 22.856C188.066 23.24 187.426 23.7093 187.042 24.264C186.658 24.776 186.551 25.6293 186.722 26.824C186.85 27.7627 187.234 28.552 187.874 29.192C188.215 29.576 188.578 29.9387 188.962 30.28C189.346 30.5787 189.73 30.8987 190.114 31.24C191.138 32.0933 192.204 32.904 193.314 33.672C194.466 34.3973 195.639 35.08 196.834 35.72C198.668 36.7013 200.311 37.8533 201.762 39.176C201.975 39.3893 202.188 39.624 202.402 39.88C202.658 40.136 202.892 40.392 203.106 40.648C204.855 42.6533 205.729 45 205.729 47.688C205.729 50.0347 205.218 52.0827 204.194 53.832C203.212 55.5813 201.911 57.0533 200.29 58.248C198.668 59.4 196.834 60.2747 194.786 60.872C192.738 61.4693 190.69 61.768 188.642 61.768C188.343 61.768 188.044 61.7467 187.746 61.704C187.49 61.704 187.212 61.704 186.914 61.704C185.719 61.6187 184.567 61.4267 183.458 61.128C182.391 60.8293 181.324 60.4667 180.258 60.04C179.66 59.784 179.127 59.4427 178.658 59.016C178.188 58.5893 177.719 58.1413 177.25 57.672C176.908 57.3307 176.588 57.0107 176.29 56.712C176.034 56.3707 175.756 56.0293 175.458 55.688C175.372 55.6027 175.287 55.4747 175.202 55.304C174.604 54.3227 174.114 53.2987 173.73 52.232C173.388 51.1653 173.218 50.0773 173.218 48.968C173.218 47.9867 173.367 46.984 173.666 45.96C173.964 44.8933 174.412 43.9547 175.01 43.144C175.607 42.2907 176.311 41.608 177.122 41.096C177.975 40.5413 178.956 40.264 180.066 40.264C180.578 40.264 181.111 40.3493 181.666 40.52C182.22 40.6907 182.754 40.9467 183.266 41.288C183.778 41.5867 184.226 41.9493 184.61 42.376C185.036 42.76 185.314 43.208 185.442 43.72ZM246.608 21.128C246.949 21.5973 247.163 22.1093 247.248 22.664C247.333 23.2187 247.376 23.7947 247.376 24.392C247.376 24.904 247.312 25.608 247.184 26.504C247.056 27.4 246.821 28.2747 246.48 29.128C246.181 29.9813 245.797 30.728 245.328 31.368C244.901 31.9653 244.368 32.2427 243.728 32.2C243.728 32.1573 243.685 31.7093 243.6 30.856C243.557 30.0027 243.365 29.0853 243.024 28.104C242.725 27.1227 242.256 26.2267 241.616 25.416C240.976 24.6053 240.08 24.2 238.928 24.2C237.776 24.4987 236.816 25.0533 236.048 25.864C235.28 26.6747 234.832 27.6773 234.704 28.872C234.533 30.536 234.427 32.2 234.384 33.864C234.341 35.528 234.341 37.192 234.384 38.856C234.384 40.4773 234.384 42.0987 234.384 43.72C234.384 45.3413 234.405 46.9627 234.448 48.584C234.448 50.3333 234.619 51.848 234.96 53.128C235.301 54.408 235.728 55.496 236.24 56.392C236.752 57.2453 237.285 57.9067 237.84 58.376C238.395 58.8453 238.864 59.144 239.248 59.272C238.139 60.04 237.072 60.488 236.048 60.616C235.024 60.744 234.085 60.68 233.232 60.424C232.421 60.168 231.739 59.8053 231.184 59.336C230.629 58.8667 230.267 58.44 230.096 58.056C229.755 58.3547 229.456 58.632 229.2 58.888C228.944 59.1013 228.688 59.3147 228.432 59.528C227.536 60.2107 226.597 60.6587 225.616 60.872C224.635 61.0853 223.589 61.0213 222.48 60.68C222.053 60.5093 221.669 60.3173 221.328 60.104C220.987 59.848 220.688 59.528 220.432 59.144C220.347 59.0587 220.283 58.9307 220.24 58.76C220.24 58.5893 220.197 58.4187 220.112 58.248C221.136 58.3333 221.925 58.056 222.48 57.416C223.077 56.776 223.525 56.0293 223.824 55.176C224.123 54.28 224.315 53.384 224.4 52.488C224.528 51.592 224.613 50.9093 224.656 50.44C224.955 48.136 225.104 45.8533 225.104 43.592C225.147 41.288 225.125 38.9627 225.04 36.616C224.997 36.36 224.976 36.104 224.976 35.848C224.976 35.5493 224.976 35.2507 224.976 34.952C225.061 33.8427 225.04 32.7547 224.912 31.688C224.784 30.5787 224.677 29.4693 224.592 28.36C224.549 27.6773 224.336 27.0587 223.952 26.504C223.568 25.9493 223.077 25.5013 222.48 25.16C221.925 24.8187 221.328 24.6053 220.688 24.52C220.048 24.4347 219.472 24.4773 218.96 24.648C218.064 24.9893 217.339 25.4587 216.784 26.056C216.229 26.6107 215.781 27.2293 215.44 27.912C215.141 28.5947 214.928 29.2987 214.8 30.024C214.715 30.7493 214.672 31.4107 214.672 32.008C213.947 31.5387 213.371 30.9413 212.944 30.216C212.56 29.4907 212.283 28.744 212.112 27.976C211.941 27.1653 211.856 26.3973 211.856 25.672C211.899 24.904 212.005 24.2427 212.176 23.688C212.347 23.2187 212.517 22.7493 212.688 22.28C212.859 21.768 213.029 21.2347 213.2 20.68C212.688 20.424 212.261 19.9973 211.92 19.4C211.579 18.76 211.365 18.0773 211.28 17.352C211.237 16.584 211.301 15.8373 211.472 15.112C211.685 14.3867 212.069 13.768 212.624 13.256C213.008 14.2373 213.541 14.984 214.224 15.496C214.907 15.9653 215.589 16.2853 216.272 16.456C216.955 16.6267 217.573 16.6907 218.128 16.648C218.683 16.6053 219.045 16.5413 219.216 16.456C220.197 16.0293 221.179 15.7307 222.16 15.56C223.184 15.3467 224.229 15.2187 225.296 15.176C226.405 15.0907 227.515 15.0267 228.624 14.984C229.776 14.9413 230.907 14.92 232.016 14.92C233.168 14.92 234.299 15.0267 235.408 15.24C236.56 15.4533 237.691 15.8373 238.8 16.392C239.184 16.6053 239.717 16.7973 240.4 16.968C241.083 17.1387 241.659 17.288 242.128 17.416C242.683 17.5013 243.259 17.4587 243.856 17.288C244.453 17.0747 245.008 16.7547 245.52 16.328C246.032 15.9013 246.48 15.368 246.864 14.728C247.248 14.0453 247.504 13.256 247.632 12.36C248.4 13.0427 248.869 13.8533 249.04 14.792C249.253 15.688 249.275 16.584 249.104 17.48C248.933 18.3333 248.613 19.1013 248.144 19.784C247.675 20.4667 247.163 20.9147 246.608 21.128ZM272.196 59.016C272.025 59.528 271.748 59.8907 271.364 60.104C271.023 60.3173 270.639 60.4667 270.212 60.552C268.761 60.8507 267.396 60.8507 266.116 60.552C264.836 60.2107 263.684 59.4427 262.66 58.248C262.575 58.1627 262.489 58.0773 262.404 57.992C262.319 57.9067 262.233 57.8 262.148 57.672L261.444 58.376C259.652 60.296 257.497 61.128 254.98 60.872C254.511 60.7867 254.041 60.7013 253.572 60.616C253.145 60.488 252.74 60.2747 252.356 59.976C252.228 59.8907 252.121 59.784 252.036 59.656C251.951 59.528 251.865 59.4213 251.78 59.336C251.823 59.08 251.887 58.9093 251.972 58.824C252.1 58.696 252.249 58.5893 252.42 58.504C253.06 58.248 253.593 57.9067 254.02 57.48C254.447 57.0107 254.831 56.4773 255.172 55.88C255.769 54.8987 256.217 53.9173 256.516 52.936C256.857 51.912 257.049 50.824 257.092 49.672C257.177 48.008 257.241 46.344 257.284 44.68C257.369 43.016 257.455 41.352 257.54 39.688C257.583 39.048 257.583 38.4293 257.54 37.832C257.497 37.192 257.455 36.552 257.412 35.912C257.327 34.8027 257.263 33.6933 257.22 32.584C257.22 31.4747 257.177 30.3653 257.092 29.256C257.049 28.4027 257.007 27.5707 256.964 26.76C256.921 25.9493 256.857 25.1387 256.772 24.328C256.687 23.8587 256.623 23.3253 256.58 22.728C256.537 22.088 256.388 21.448 256.132 20.808C255.876 20.168 255.492 19.592 254.98 19.08C254.468 18.5253 253.743 18.12 252.804 17.864C252.591 17.5227 252.697 17.096 253.124 16.584C253.764 15.944 254.447 15.496 255.172 15.24C255.855 14.984 256.559 14.856 257.284 14.856C258.137 14.856 258.841 15.0053 259.396 15.304C259.993 15.56 260.484 15.8587 260.868 16.2C261.252 16.5413 261.529 16.8827 261.7 17.224C261.913 17.5227 262.063 17.7147 262.148 17.8C262.191 17.7147 262.361 17.4587 262.66 17.032C263.001 16.6053 263.449 16.1787 264.004 15.752C264.601 15.3253 265.327 14.984 266.18 14.728C267.076 14.472 268.1 14.4507 269.252 14.664C269.636 14.7067 270.041 14.856 270.468 15.112C270.937 15.3253 271.364 15.7947 271.748 16.52C270.639 16.904 269.828 17.3947 269.316 17.992C268.804 18.5467 268.441 19.1653 268.228 19.848C268.057 20.5307 267.972 21.2347 267.972 21.96C267.972 22.6427 267.929 23.3253 267.844 24.008C267.503 26.696 267.311 29.3627 267.268 32.008C267.268 34.6107 267.225 37.256 267.14 39.944C267.097 42.888 267.097 45.7893 267.14 48.648C267.14 49.288 267.183 49.928 267.268 50.568C267.396 51.208 267.524 51.8267 267.652 52.424C268.249 55.0267 269.636 57.096 271.812 58.632L272.196 59.016ZM329.028 59.08C328.857 59.592 328.58 59.9547 328.196 60.168C327.855 60.3813 327.471 60.5307 327.044 60.616C325.593 60.9147 324.228 60.9147 322.948 60.616C321.668 60.2747 320.516 59.528 319.492 58.376C319.407 58.2907 319.321 58.2053 319.236 58.12C319.151 58.0347 319.065 57.928 318.98 57.8C318.809 57.9707 318.639 58.12 318.468 58.248C318.34 58.376 318.191 58.5253 318.02 58.696C316.356 60.36 314.351 61.1067 312.004 60.936C311.492 60.8933 311.001 60.8293 310.532 60.744C310.063 60.616 309.615 60.3813 309.188 60.04C309.06 59.9547 308.953 59.848 308.868 59.72C308.783 59.592 308.697 59.4853 308.612 59.4C308.655 59.144 308.719 58.9733 308.804 58.888C308.932 58.76 309.081 58.6533 309.252 58.568C309.892 58.312 310.425 57.9707 310.852 57.544C311.279 57.0747 311.663 56.5627 312.004 56.008C312.601 55.0693 313.049 54.1093 313.348 53.128C313.689 52.104 313.881 51.0373 313.924 49.928C314.009 48.3067 314.073 46.6853 314.116 45.064C314.201 43.4 314.287 41.7573 314.372 40.136C314.415 39.6667 314.415 39.2187 314.372 38.792C314.372 38.3227 314.351 37.8533 314.308 37.384C314.265 36.5733 314.223 35.784 314.18 35.016C314.18 34.2053 314.159 33.3733 314.116 32.52C314.073 32.3067 314.052 32.072 314.052 31.816C314.095 31.5173 314.009 31.2613 313.796 31.048C313.668 31.176 313.583 31.2827 313.54 31.368C312.687 32.8187 311.855 34.248 311.044 35.656C310.233 37.064 309.423 38.4933 308.612 39.944C308.313 40.4987 308.079 41.0747 307.908 41.672C307.737 42.2267 307.631 42.824 307.588 43.464C307.503 44.1893 307.588 44.8507 307.844 45.448C308.143 46.0027 308.505 46.5573 308.932 47.112C309.188 47.4107 309.465 47.6027 309.764 47.688C310.063 47.7307 310.383 47.7947 310.724 47.88C310.937 48.264 311.044 48.5413 311.044 48.712C311.044 48.8827 310.916 49.0747 310.66 49.288C309.935 49.928 309.145 50.376 308.292 50.632C307.439 50.8453 306.521 50.8027 305.54 50.504C304.9 50.2907 304.281 50.0347 303.684 49.736C303.129 49.3947 302.617 48.9467 302.148 48.392C301.935 48.5627 301.743 48.7333 301.572 48.904C301.444 49.032 301.295 49.16 301.124 49.288C299.46 50.696 297.604 51.144 295.556 50.632C295.087 50.5467 294.639 50.3973 294.212 50.184C293.828 49.9707 293.551 49.608 293.38 49.096C293.38 48.6267 293.593 48.2853 294.02 48.072C294.489 47.816 294.852 47.496 295.108 47.112C295.364 46.728 295.556 46.3013 295.684 45.832C295.897 45.2347 295.897 44.68 295.684 44.168C295.428 43.4427 295.172 42.7173 294.916 41.992C294.66 41.224 294.383 40.4773 294.084 39.752C293.743 38.8987 293.359 38.088 292.932 37.32C292.505 36.5093 292.057 35.72 291.588 34.952C291.375 34.9947 291.268 35.08 291.268 35.208C291.268 35.336 291.268 35.4427 291.268 35.528C291.183 37.576 291.119 39.6027 291.076 41.608C291.076 43.5707 291.055 45.576 291.012 47.624C291.012 49.288 291.204 50.952 291.588 52.616C291.929 53.9387 292.441 55.1333 293.124 56.2C293.807 57.2667 294.724 58.184 295.876 58.952L296.068 59.144C296.111 59.6133 295.876 59.9973 295.364 60.296C295.065 60.424 294.767 60.552 294.468 60.68C294.212 60.7653 293.935 60.8293 293.636 60.872C292.185 61.0427 290.841 60.9573 289.604 60.616C288.367 60.232 287.279 59.4213 286.34 58.184C286.34 58.1413 286.255 58.0773 286.084 57.992C285.913 58.12 285.764 58.2693 285.636 58.44C285.508 58.568 285.359 58.696 285.188 58.824C284.548 59.464 283.844 59.9973 283.076 60.424C282.308 60.808 281.455 61.0213 280.516 61.064C279.791 61.1067 279.065 61.0853 278.34 61C277.657 60.9147 276.975 60.6587 276.292 60.232C276.079 60.0613 275.908 59.8907 275.78 59.72C275.695 59.5493 275.737 59.3147 275.908 59.016C277.572 58.1627 278.767 57.032 279.492 55.624C280.26 54.216 280.751 52.6587 280.964 50.952C281.135 49.8427 281.22 48.712 281.22 47.56C281.22 46.408 281.263 45.256 281.348 44.104C281.476 42.4827 281.519 40.8827 281.476 39.304C281.476 37.6827 281.412 36.0613 281.284 34.44C281.199 33.1173 281.113 31.816 281.028 30.536C280.943 29.2133 280.879 27.8907 280.836 26.568C280.793 25.8427 280.708 25.16 280.58 24.52C280.452 23.8373 280.239 23.1973 279.94 22.6C279.855 22.3013 279.727 22.024 279.556 21.768C279.428 21.4693 279.279 21.192 279.108 20.936C278.681 20.1253 278.105 19.5707 277.38 19.272C277.124 19.1013 276.953 18.9733 276.868 18.888C276.697 18.5467 276.655 18.2693 276.74 18.056C276.825 17.8427 276.975 17.6293 277.188 17.416C277.572 17.032 278.041 16.712 278.596 16.456C279.193 16.1573 279.812 15.9653 280.452 15.88C281.092 15.7947 281.753 15.816 282.436 15.944C283.119 16.072 283.78 16.392 284.42 16.904C284.719 17.1173 284.996 17.3733 285.252 17.672C285.508 17.928 285.807 18.2053 286.148 18.504C287.513 16.8827 289.007 15.944 290.628 15.688C292.249 15.432 293.977 15.6667 295.812 16.392C296.153 16.776 296.153 17.1387 295.812 17.48C295.172 18.0773 294.809 18.76 294.724 19.528C294.639 20.2533 294.639 21.0213 294.724 21.832C294.809 22.5147 294.937 23.176 295.108 23.816C295.279 24.456 295.492 25.0747 295.748 25.672C296.217 26.696 296.665 27.7413 297.092 28.808C297.519 29.832 297.945 30.8987 298.372 32.008C298.713 32.8187 299.097 33.5867 299.524 34.312C299.993 34.9947 300.484 35.7413 300.996 36.552C301.124 36.3813 301.231 36.2533 301.316 36.168C301.401 36.04 301.487 35.9333 301.572 35.848C301.913 35.2507 302.255 34.6533 302.596 34.056C302.98 33.4587 303.343 32.8613 303.684 32.264C304.452 30.9413 305.199 29.64 305.924 28.36C306.692 27.0373 307.439 25.6933 308.164 24.328C308.676 23.432 309.017 22.5147 309.188 21.576C309.359 20.5947 309.295 19.592 308.996 18.568C308.655 18.2693 308.335 18.0133 308.036 17.8C307.865 17.3733 307.844 17.0533 307.972 16.84C308.143 16.584 308.377 16.3493 308.676 16.136C309.487 15.6667 310.319 15.3467 311.172 15.176C312.025 15.0053 312.921 15.0693 313.86 15.368C314.116 15.4533 314.372 15.5387 314.628 15.624C314.927 15.6667 315.204 15.7307 315.46 15.816C316.484 16.1147 317.337 16.648 318.02 17.416C318.191 17.544 318.34 17.6933 318.468 17.864C318.596 17.992 318.745 18.1627 318.916 18.376C319.172 18.12 319.364 17.9493 319.492 17.864C320.345 16.8827 321.327 16.2213 322.436 15.88C323.545 15.496 324.74 15.368 326.02 15.496C326.404 15.5387 326.767 15.6453 327.108 15.816C327.449 15.9867 327.791 16.1787 328.132 16.392C328.601 16.776 328.623 17.224 328.196 17.736C328.068 17.864 328.004 17.928 328.004 17.928C326.98 18.696 326.233 19.6133 325.764 20.68C325.295 21.704 324.975 22.792 324.804 23.944C324.591 25.096 324.441 26.2693 324.356 27.464C324.271 28.616 324.207 29.768 324.164 30.92C324.079 33.608 324.015 36.296 323.972 38.984C323.972 41.672 323.929 44.36 323.844 47.048C323.844 48.84 324.036 50.5893 324.42 52.296C325.017 55.0693 326.447 57.224 328.708 58.76C328.751 58.8027 328.793 58.8453 328.836 58.888C328.879 58.9307 328.943 58.9947 329.028 59.08ZM375.446 39.304C375.275 42.4613 374.507 45.512 373.142 48.456C371.819 51.3573 369.814 54.024 367.126 56.456C366.273 57.224 365.355 57.864 364.374 58.376C363.393 58.8453 362.347 59.2507 361.238 59.592C359.745 60.0187 358.23 60.424 356.694 60.808C355.201 61.1493 353.665 61.384 352.086 61.512C350.465 61.5973 348.886 61.4907 347.35 61.192C345.857 60.936 344.385 60.4453 342.934 59.72C340.587 58.44 338.561 56.8827 336.854 55.048C335.147 53.2133 333.761 51.0587 332.694 48.584C332.225 47.4747 331.841 46.3653 331.542 45.256C331.286 44.1467 331.179 42.9947 331.222 41.8C331.222 41.4587 331.201 41.1387 331.158 40.84C331.115 40.4987 331.094 40.1573 331.094 39.816C331.009 38.28 331.03 36.7653 331.158 35.272C331.286 33.736 331.521 32.2213 331.862 30.728C332.374 28.2107 333.419 25.992 334.998 24.072C335.083 23.944 335.254 23.7093 335.51 23.368C336.363 22.0027 337.409 20.8293 338.646 19.848C339.883 18.8667 341.185 17.9493 342.55 17.096C343.105 16.7547 343.659 16.4987 344.214 16.328C344.811 16.1147 345.409 15.944 346.006 15.816C347.329 15.5173 348.63 15.2827 349.91 15.112C351.233 14.8987 352.577 14.7493 353.942 14.664C354.411 14.664 354.859 14.6853 355.286 14.728C355.713 14.728 356.139 14.8347 356.566 15.048L357.142 15.24C359.062 15.5813 360.833 16.2 362.454 17.096C364.075 17.9493 365.611 19.016 367.062 20.296C367.531 20.68 367.979 21.0853 368.406 21.512C368.833 21.9387 369.259 22.3867 369.686 22.856C371.734 25.0747 373.185 27.528 374.038 30.216C374.891 32.904 375.361 35.9333 375.446 39.304ZM341.014 39.56C341.057 43.9547 342.849 47.56 346.39 50.376C346.603 50.5893 346.838 50.7813 347.094 50.952C347.35 51.08 347.606 51.1867 347.862 51.272C348.417 51.4 348.971 51.528 349.526 51.656C350.081 51.7413 350.635 51.8053 351.19 51.848C352.427 51.976 353.601 51.8907 354.71 51.592C355.819 51.2933 356.886 50.8667 357.91 50.312C361.366 48.4773 363.563 45.7253 364.502 42.056C364.971 40.3067 365.142 38.5787 365.014 36.872C364.886 35.1227 364.566 33.3947 364.054 31.688C363.969 31.4747 363.862 31.2613 363.734 31.048C363.649 30.8347 363.563 30.6213 363.478 30.408C362.838 29.384 362.113 28.4667 361.302 27.656C360.491 26.8453 359.595 26.12 358.614 25.48C358.401 25.352 358.187 25.2453 357.974 25.16C357.761 25.032 357.547 24.9253 357.334 24.84C356.481 24.4987 355.606 24.2427 354.71 24.072C353.814 23.9013 352.918 23.8373 352.022 23.88C347.883 24.136 344.833 26.0347 342.87 29.576C342.657 30.0027 342.465 30.4293 342.294 30.856C342.123 31.2827 341.974 31.7307 341.846 32.2C341.291 34.1627 341.014 36.232 341.014 38.408V39.56ZM353.558 47.432C353.473 47.6453 353.409 47.8373 353.366 48.008C353.366 48.1787 353.323 48.3707 353.238 48.584C352.769 48.6693 352.449 48.6693 352.278 48.584C352.107 48.4987 351.979 48.3067 351.894 48.008C351.851 47.8373 351.83 47.688 351.83 47.56C351.873 47.3893 351.873 47.2187 351.83 47.048C351.702 45.7253 351.425 44.488 350.998 43.336C350.614 42.184 349.974 41.1173 349.078 40.136C348.822 39.7947 348.545 39.496 348.246 39.24C347.947 38.984 347.606 38.792 347.222 38.664C347.051 38.5787 346.902 38.4933 346.774 38.408C346.689 38.28 346.603 38.1733 346.518 38.088C346.518 37.6187 346.731 37.2773 347.158 37.064C348.353 36.5947 349.27 35.912 349.91 35.016C350.55 34.12 351.041 33.0747 351.382 31.88C351.467 31.5387 351.553 31.1973 351.638 30.856C351.723 30.472 351.809 30.1093 351.894 29.768C351.937 29.512 351.979 29.2773 352.022 29.064C352.065 28.808 352.129 28.5733 352.214 28.36C352.47 28.232 352.641 28.168 352.726 28.168C352.982 28.168 353.195 28.232 353.366 28.36C353.579 28.488 353.793 28.6587 354.006 28.872C354.091 29.3413 354.155 29.8107 354.198 30.28C354.283 30.7493 354.369 31.2187 354.454 31.688C354.539 32.1147 354.625 32.5413 354.71 32.968C354.838 33.3947 354.987 33.8 355.158 34.184C355.798 35.7627 356.843 36.9573 358.294 37.768C358.379 37.8107 358.465 37.8747 358.55 37.96C358.678 38.0027 358.806 38.0667 358.934 38.152C359.019 38.5787 359.062 38.8773 359.062 39.048C358.977 39.1333 358.913 39.1973 358.87 39.24C358.87 39.2827 358.827 39.3467 358.742 39.432L358.166 39.816C356.801 40.584 355.819 41.7147 355.222 43.208C354.923 43.9333 354.646 44.6373 354.39 45.32C354.134 46.0027 353.857 46.7067 353.558 47.432ZM393.454 34.568C393.454 35.4213 393.454 36.232 393.454 37C393.454 37.7253 393.433 38.4507 393.39 39.176C393.347 40.4987 393.305 41.8 393.262 43.08C393.219 44.36 393.219 45.6613 393.262 46.984C393.262 47.7947 393.305 48.6053 393.39 49.416C393.475 50.2267 393.582 51.0373 393.71 51.848C394.222 54.7493 395.651 57.0107 397.998 58.632C398.041 58.6747 398.083 58.7173 398.126 58.76C398.169 58.76 398.211 58.7813 398.254 58.824V58.888C398.254 58.9307 398.275 58.9733 398.318 59.016C398.318 59.3147 398.211 59.5493 397.998 59.72C397.785 59.8907 397.55 60.0613 397.294 60.232C396.697 60.488 396.099 60.6587 395.502 60.744C394.905 60.7867 394.286 60.7653 393.646 60.68C392.665 60.5947 391.747 60.36 390.894 59.976C390.083 59.5493 389.379 58.9307 388.782 58.12C388.697 58.0347 388.611 57.9707 388.526 57.928C388.483 57.8853 388.419 57.8213 388.334 57.736C388.121 57.9067 387.95 58.0773 387.822 58.248C387.694 58.376 387.545 58.504 387.374 58.632C385.753 60.2533 383.769 60.9787 381.422 60.808C380.91 60.7653 380.419 60.7013 379.95 60.616C379.481 60.488 379.033 60.296 378.606 60.04C378.393 59.912 378.222 59.784 378.094 59.656C378.009 59.4853 378.009 59.2293 378.094 58.888C378.179 58.8027 378.286 58.7173 378.414 58.632C378.542 58.5467 378.67 58.4613 378.798 58.376C379.267 58.1627 379.673 57.9067 380.014 57.608C380.398 57.2667 380.739 56.8827 381.038 56.456C381.635 55.5173 382.126 54.5787 382.51 53.64C382.937 52.6587 383.193 51.6133 383.278 50.504C383.363 48.9253 383.427 47.368 383.47 45.832C383.555 44.2533 383.641 42.6747 383.726 41.096C383.811 38.664 383.769 36.1893 383.598 33.672C383.427 31.1547 383.257 28.68 383.086 26.248C383.001 24.84 382.723 23.56 382.254 22.408C381.998 21.8107 381.678 21.2133 381.294 20.616C380.867 19.8907 380.334 19.3787 379.694 19.08C379.481 18.952 379.331 18.8453 379.246 18.76C379.203 18.6747 379.075 18.44 378.862 18.056C379.417 17.16 380.099 16.5413 380.91 16.2C381.721 15.816 382.638 15.624 383.662 15.624C384.686 15.5813 385.561 15.8373 386.286 16.392C387.011 16.9467 387.737 17.608 388.462 18.376C388.633 18.0347 388.739 17.8427 388.782 17.8C389.635 16.8187 390.617 16.1573 391.726 15.816C392.878 15.432 394.094 15.2827 395.374 15.368C395.758 15.4107 396.099 15.5173 396.398 15.688C396.739 15.8587 397.081 16.0507 397.422 16.264C397.849 16.5627 397.934 17.0107 397.678 17.608C396.782 18.2053 396.035 19.016 395.438 20.04C395.225 20.552 395.118 21.0213 395.118 21.448C395.203 22.0453 395.331 22.6213 395.502 23.176C395.673 23.688 395.993 24.1573 396.462 24.584C398.211 26.1627 399.897 27.7627 401.518 29.384C403.182 30.9627 404.91 32.4987 406.702 33.992C407.171 34.376 407.641 34.8027 408.11 35.272C408.622 35.6987 409.113 36.1253 409.582 36.552C409.71 36.7227 409.945 36.936 410.286 37.192C410.499 37.1067 410.585 37 410.542 36.872C410.542 36.7013 410.521 36.552 410.478 36.424C410.35 34.8027 410.286 33.1813 410.286 31.56C410.286 29.896 410.179 28.2533 409.966 26.632C409.881 25.9067 409.795 25.224 409.71 24.584C409.625 23.9013 409.433 23.24 409.134 22.6C408.835 21.9173 408.558 21.32 408.302 20.808C408.089 20.424 407.833 20.0827 407.534 19.784C407.278 19.4853 406.937 19.2293 406.51 19.016C406.083 18.888 405.849 18.6107 405.806 18.184C405.763 17.9707 405.806 17.7787 405.934 17.608C406.062 17.4373 406.211 17.2667 406.382 17.096C406.851 16.6693 407.406 16.328 408.046 16.072C408.686 15.7733 409.347 15.624 410.03 15.624C410.713 15.5813 411.395 15.688 412.078 15.944C412.803 16.1573 413.486 16.5627 414.126 17.16C414.339 17.3307 414.51 17.5013 414.638 17.672C414.809 17.8427 415.001 18.0347 415.214 18.248L415.79 17.672C416.686 16.6907 417.689 16.0293 418.798 15.688C419.95 15.3467 421.166 15.2613 422.446 15.432C423.086 15.4747 423.726 15.752 424.366 16.264C424.835 16.6907 424.857 17.16 424.43 17.672L424.238 17.864C423.129 18.632 422.361 19.5707 421.934 20.68C421.507 21.7893 421.187 22.9413 420.974 24.136C420.846 24.8613 420.761 25.5867 420.718 26.312C420.675 26.9947 420.633 27.6987 420.59 28.424C420.505 29.5333 420.441 30.6213 420.398 31.688C420.398 32.7547 420.377 33.8427 420.334 34.952C420.249 36.9573 420.185 38.9413 420.142 40.904C420.099 42.8667 420.078 44.8293 420.078 46.792C420.078 47.6453 420.121 48.4773 420.206 49.288C420.291 50.0987 420.419 50.9307 420.59 51.784C421.059 54.728 422.51 57.032 424.942 58.696C425.027 58.7813 425.113 58.888 425.198 59.016C425.113 59.1013 425.049 59.2293 425.006 59.4C424.963 59.5707 424.878 59.6987 424.75 59.784C424.323 60.2107 423.79 60.4667 423.15 60.552C421.657 60.808 420.27 60.7653 418.99 60.424C417.753 60.0827 416.643 59.3147 415.662 58.12C415.491 57.9493 415.363 57.7787 415.278 57.608C414.937 57.9493 414.638 58.2693 414.382 58.568C414.126 58.824 413.827 59.0587 413.486 59.272C413.145 59.4853 412.803 59.6987 412.462 59.912C412.121 60.1253 411.779 60.296 411.438 60.424C411.097 60.5947 410.713 60.7013 410.286 60.744C409.902 60.7867 409.539 60.808 409.198 60.808C408.814 60.8507 408.43 60.8507 408.046 60.808C407.662 60.7653 407.257 60.744 406.83 60.744C406.489 60.4453 406.083 60.2533 405.614 60.168C405.187 60.04 404.931 59.6347 404.846 58.952C405.187 58.696 405.443 58.5253 405.614 58.44C406.595 58.0133 407.385 57.3093 407.982 56.328C408.579 55.3893 409.07 54.4293 409.454 53.448C409.881 52.4667 410.073 51.3573 410.03 50.12C409.774 49.864 409.497 49.5867 409.198 49.288C408.942 48.9893 408.643 48.6907 408.302 48.392C406.681 46.8987 405.059 45.4267 403.438 43.976C401.859 42.4827 400.259 40.9893 398.638 39.496C397.913 38.8133 397.209 38.1307 396.526 37.448C395.843 36.7653 395.139 36.0827 394.414 35.4C394.329 35.3147 394.201 35.208 394.03 35.08C393.902 34.952 393.71 34.7813 393.454 34.568ZM448.196 59.016C448.025 59.528 447.748 59.8907 447.364 60.104C447.023 60.3173 446.639 60.4667 446.212 60.552C444.761 60.8507 443.396 60.8507 442.116 60.552C440.836 60.2107 439.684 59.4427 438.66 58.248C438.575 58.1627 438.489 58.0773 438.404 57.992C438.319 57.9067 438.233 57.8 438.148 57.672L437.444 58.376C435.652 60.296 433.497 61.128 430.98 60.872C430.511 60.7867 430.041 60.7013 429.572 60.616C429.145 60.488 428.74 60.2747 428.356 59.976C428.228 59.8907 428.121 59.784 428.036 59.656C427.951 59.528 427.865 59.4213 427.78 59.336C427.823 59.08 427.887 58.9093 427.972 58.824C428.1 58.696 428.249 58.5893 428.42 58.504C429.06 58.248 429.593 57.9067 430.02 57.48C430.447 57.0107 430.831 56.4773 431.172 55.88C431.769 54.8987 432.217 53.9173 432.516 52.936C432.857 51.912 433.049 50.824 433.092 49.672C433.177 48.008 433.241 46.344 433.284 44.68C433.369 43.016 433.455 41.352 433.54 39.688C433.583 39.048 433.583 38.4293 433.54 37.832C433.497 37.192 433.455 36.552 433.412 35.912C433.327 34.8027 433.263 33.6933 433.22 32.584C433.22 31.4747 433.177 30.3653 433.092 29.256C433.049 28.4027 433.007 27.5707 432.964 26.76C432.921 25.9493 432.857 25.1387 432.772 24.328C432.687 23.8587 432.623 23.3253 432.58 22.728C432.537 22.088 432.388 21.448 432.132 20.808C431.876 20.168 431.492 19.592 430.98 19.08C430.468 18.5253 429.743 18.12 428.804 17.864C428.591 17.5227 428.697 17.096 429.124 16.584C429.764 15.944 430.447 15.496 431.172 15.24C431.855 14.984 432.559 14.856 433.284 14.856C434.137 14.856 434.841 15.0053 435.396 15.304C435.993 15.56 436.484 15.8587 436.868 16.2C437.252 16.5413 437.529 16.8827 437.7 17.224C437.913 17.5227 438.063 17.7147 438.148 17.8C438.191 17.7147 438.361 17.4587 438.66 17.032C439.001 16.6053 439.449 16.1787 440.004 15.752C440.601 15.3253 441.327 14.984 442.18 14.728C443.076 14.472 444.1 14.4507 445.252 14.664C445.636 14.7067 446.041 14.856 446.468 15.112C446.937 15.3253 447.364 15.7947 447.748 16.52C446.639 16.904 445.828 17.3947 445.316 17.992C444.804 18.5467 444.441 19.1653 444.228 19.848C444.057 20.5307 443.972 21.2347 443.972 21.96C443.972 22.6427 443.929 23.3253 443.844 24.008C443.503 26.696 443.311 29.3627 443.268 32.008C443.268 34.6107 443.225 37.256 443.14 39.944C443.097 42.888 443.097 45.7893 443.14 48.648C443.14 49.288 443.183 49.928 443.268 50.568C443.396 51.208 443.524 51.8267 443.652 52.424C444.249 55.0267 445.636 57.096 447.812 58.632L448.196 59.016ZM468.624 59.272C468.112 59.912 467.557 60.3387 466.96 60.552C466.363 60.7653 465.765 60.872 465.168 60.872C464.613 60.8293 464.08 60.7227 463.568 60.552C463.056 60.3387 462.608 60.1253 462.224 59.912C462.011 59.784 461.797 59.6773 461.584 59.592C461.413 59.464 461.221 59.3147 461.008 59.144C460.837 59.016 460.688 58.888 460.56 58.76C460.432 58.5893 460.304 58.4187 460.176 58.248C459.664 58.8453 459.045 59.4 458.32 59.912C457.637 60.424 456.997 60.7227 456.4 60.808C456.059 60.8933 455.632 60.936 455.12 60.936C454.651 60.8933 454.16 60.8293 453.648 60.744C453.136 60.616 452.667 60.4453 452.24 60.232C451.813 59.976 451.493 59.6347 451.28 59.208C452.133 58.952 452.88 58.4187 453.52 57.608C454.16 56.7973 454.651 56.0293 454.992 55.304C455.333 54.4507 455.675 53.5333 456.016 52.552C456.4 51.528 456.72 50.568 456.976 49.672C458.128 45.96 459.131 42.248 459.984 38.536C460.88 34.7813 461.819 31.0267 462.8 27.272C462.843 27.016 462.949 26.5893 463.12 25.992C463.333 25.352 463.504 24.6693 463.632 23.944C463.803 23.176 463.909 22.3867 463.952 21.576C464.037 20.7653 463.995 20.04 463.824 19.4C463.696 18.7173 463.419 18.184 462.992 17.8C462.565 17.3733 461.925 17.16 461.072 17.16C461.115 16.6053 461.264 16.2 461.52 15.944C461.776 15.6453 462.096 15.4107 462.48 15.24C463.632 14.6853 464.848 14.6213 466.128 15.048C467.195 15.3893 468.219 15.816 469.2 16.328C470.224 16.84 471.099 17.608 471.824 18.632C471.995 18.4613 472.123 18.312 472.208 18.184C472.293 18.0133 472.4 17.8853 472.528 17.8C472.912 17.4587 473.296 17.096 473.68 16.712C474.064 16.2853 474.469 15.9227 474.896 15.624C475.152 15.4533 475.536 15.2827 476.048 15.112C476.603 14.8987 477.2 14.792 477.84 14.792C478.523 14.7493 479.227 14.856 479.952 15.112C480.72 15.3253 481.424 15.7733 482.064 16.456C481.253 16.6267 480.635 17.0533 480.208 17.736C479.781 18.4187 479.504 19.2507 479.376 20.232C479.248 21.2133 479.205 22.28 479.248 23.432C479.333 24.584 479.461 25.7147 479.632 26.824C479.803 27.8907 479.995 28.872 480.208 29.768C480.421 30.6213 480.592 31.2827 480.72 31.752C481.531 34.6107 482.277 37.512 482.96 40.456C483.685 43.3573 484.496 46.216 485.392 49.032C485.648 49.7573 485.968 50.6533 486.352 51.72C486.736 52.744 487.205 53.7253 487.76 54.664C488.315 55.6027 488.955 56.392 489.68 57.032C490.405 57.6293 491.195 57.8853 492.048 57.8C491.835 58.5253 491.365 59.2293 490.64 59.912C489.957 60.5947 488.869 60.936 487.376 60.936C485.499 60.936 483.813 60.1467 482.32 58.568C481.851 59.1227 481.232 59.6773 480.464 60.232C479.739 60.7867 478.523 61.064 476.816 61.064C475.323 61.064 474.171 60.488 473.36 59.336C474.939 59.08 475.984 58.4187 476.496 57.352C477.008 56.2427 477.157 54.92 476.944 53.384C476.859 52.7013 476.773 52.04 476.688 51.4C476.645 50.76 476.453 50.0773 476.112 49.352C475.685 49.5227 475.301 49.7573 474.96 50.056C474.661 50.312 474.363 50.6107 474.064 50.952C473.808 51.2507 473.531 51.5493 473.232 51.848C472.976 52.1467 472.699 52.3813 472.4 52.552C472.016 52.5947 471.696 52.552 471.44 52.424C471.227 52.2533 471.013 52.104 470.8 51.976C470.16 51.592 469.52 51.208 468.88 50.824C468.283 50.44 467.664 50.056 467.024 49.672C466.896 49.5867 466.768 49.544 466.64 49.544C466.512 49.5013 466.363 49.4373 466.192 49.352C465.979 49.608 465.872 49.864 465.872 50.12C465.872 50.376 465.829 50.632 465.744 50.888C465.659 51.3573 465.637 52.04 465.68 52.936C465.765 53.832 465.915 54.7493 466.128 55.688C466.341 56.584 466.64 57.3947 467.024 58.12C467.451 58.8453 467.984 59.2293 468.624 59.272ZM471.12 29.576C470.523 32.008 469.883 34.376 469.2 36.68C468.517 38.9413 467.941 41.2453 467.472 43.592C468.539 44.1893 469.477 44.6587 470.288 45C471.141 45.3413 471.803 45.5547 472.272 45.64C472.656 45.1707 473.04 44.7013 473.424 44.232C473.851 43.72 474.192 43.144 474.448 42.504L471.376 30.024C471.376 29.9387 471.291 29.7893 471.12 29.576ZM496.739 58.568C497.72 58.1413 498.467 57.5653 498.979 56.84C499.533 56.1147 499.939 55.2613 500.195 54.28C500.365 53.768 500.472 53.256 500.515 52.744C500.6 52.1893 500.685 51.6347 500.771 51.08C501.027 48.52 501.155 45.96 501.155 43.4V28.808C501.155 28.04 501.112 27.272 501.027 26.504C500.984 25.6933 500.92 24.904 500.835 24.136C500.579 22.6 500.003 21.1493 499.107 19.784C498.808 19.3573 498.488 19.016 498.147 18.76C497.805 18.4613 497.379 18.2267 496.867 18.056C496.739 18.0133 496.611 17.9707 496.483 17.928C496.355 17.8853 496.248 17.8427 496.163 17.8C495.821 17.3307 495.779 16.8827 496.035 16.456C496.589 16.072 497.251 15.7947 498.019 15.624C498.787 15.4107 499.576 15.368 500.387 15.496C501.24 15.5813 502.072 15.8373 502.883 16.264C503.736 16.648 504.525 17.2453 505.251 18.056C505.421 17.8853 505.571 17.736 505.699 17.608C505.869 17.4373 506.061 17.288 506.275 17.16C506.445 17.032 506.616 16.904 506.787 16.776C506.957 16.648 507.128 16.52 507.299 16.392C508.707 15.5813 510.2 15.1973 511.779 15.24C512.504 15.24 513.165 15.3467 513.763 15.56C514.36 15.7733 514.829 16.2213 515.171 16.904C515.299 17.16 515.448 17.3733 515.619 17.544C515.619 17.8853 515.533 18.12 515.363 18.248C515.235 18.376 515.064 18.4827 514.851 18.568C514.168 18.8667 513.507 19.208 512.867 19.592C512.269 19.9333 511.736 20.36 511.267 20.872C510.797 21.384 510.413 21.9813 510.115 22.664C509.859 23.3467 509.731 24.136 509.731 25.032C509.731 26.7387 509.731 28.5733 509.731 30.536C509.773 32.456 509.795 34.376 509.795 36.296C509.795 38.1733 509.795 39.9653 509.795 41.672C509.795 43.3787 509.773 44.8293 509.731 46.024C509.645 47.944 510.157 49.6293 511.267 51.08C512.163 52.104 513.144 52.8507 514.211 53.32C514.595 53.4907 515.256 53.576 516.195 53.576C517.133 53.576 518.157 53.32 519.267 52.808C520.419 52.296 521.528 51.4427 522.595 50.248C523.661 49.0107 524.515 47.24 525.155 44.936C525.581 45.064 525.88 45.4693 526.051 46.152C526.221 46.792 526.328 47.6027 526.371 48.584C526.413 49.5227 526.413 50.568 526.371 51.72C526.328 52.872 526.328 54.024 526.371 55.176C526.456 56.2853 526.584 57.352 526.755 58.376C526.968 59.3573 527.309 60.168 527.779 60.808C527.139 61.0213 526.499 61.064 525.859 60.936C525.219 60.808 524.621 60.616 524.067 60.36C523.512 60.0613 523 59.7413 522.531 59.4C522.104 59.0587 521.784 58.8027 521.571 58.632C521.315 58.7173 521.123 58.7813 520.995 58.824C520.44 59.336 519.843 59.6987 519.203 59.912C518.563 60.0827 517.901 60.232 517.219 60.36C515.555 60.7013 513.848 60.8293 512.099 60.744C510.691 60.7013 509.347 60.4453 508.067 59.976C507.128 59.6773 506.232 59.144 505.379 58.376C505.165 58.5467 504.973 58.696 504.803 58.824C504.632 58.952 504.461 59.08 504.291 59.208C502.797 60.2747 501.091 60.7653 499.171 60.68C498.744 60.6373 498.339 60.552 497.955 60.424C497.571 60.296 497.208 60.0613 496.867 59.72C496.525 59.3787 496.483 58.9947 496.739 58.568ZM544.067 43.72C543.427 43.5067 542.723 43.6987 541.955 44.296C541.187 44.8933 540.803 45.8107 540.803 47.048C540.803 48.6693 541.165 49.9067 541.891 50.76C542.659 51.5707 543.491 52.1467 544.387 52.488C545.325 52.8293 546.2 53.0213 547.01 53.064C547.864 53.064 548.397 53.064 548.611 53.064C548.909 53.0213 549.187 52.9787 549.443 52.936C549.741 52.8933 550.04 52.872 550.339 52.872C550.936 52.7867 551.491 52.6373 552.003 52.424C552.557 52.168 553.091 51.8693 553.603 51.528C554.157 51.1013 554.584 50.568 554.883 49.928C555.224 49.2453 555.395 48.5413 555.395 47.816C555.395 46.8347 555.117 45.9387 554.563 45.128C554.221 44.6587 553.837 44.2533 553.411 43.912C552.984 43.528 552.536 43.1867 552.067 42.888C550.403 41.9493 548.803 41.0107 547.267 40.072C545.773 39.0907 544.216 38.088 542.595 37.064C540.333 35.656 538.371 33.9493 536.707 31.944C535.384 30.4507 534.573 28.744 534.275 26.824C534.104 25.8 534.104 24.8187 534.275 23.88C534.488 22.8987 534.829 21.9387 535.299 21C536.024 19.3787 537.027 18.0987 538.307 17.16C539.587 16.1787 541.037 15.432 542.659 14.92C545.304 14.0667 548.12 13.768 551.107 14.024C551.832 14.0667 552.515 14.1733 553.155 14.344C553.795 14.5147 554.435 14.7493 555.075 15.048C555.501 15.2613 556.141 15.624 556.995 16.136C557.891 16.6053 558.829 16.9893 559.811 17.288C560.792 17.5867 561.752 17.6507 562.691 17.48C563.629 17.3093 564.397 16.648 564.995 15.496C565.336 15.8373 565.507 16.264 565.507 16.776C565.635 17.8853 565.528 18.9093 565.187 19.848C564.888 20.744 564.312 21.5547 563.458 22.28C563.288 22.408 563.075 22.6 562.819 22.856C562.819 22.856 562.755 22.92 562.627 23.048C562.627 23.4747 562.627 23.9227 562.627 24.392C562.669 24.8613 562.669 25.3307 562.627 25.8C562.584 26.7813 562.349 27.6987 561.923 28.552C561.496 29.3627 560.941 30.1307 560.259 30.856C560.045 31.0693 559.811 31.24 559.555 31.368C559.341 31.4533 559.128 31.5387 558.915 31.624C558.915 30.344 558.701 29.2347 558.275 28.296C557.891 27.3573 557.379 26.5467 556.739 25.864C556.099 25.1813 555.373 24.6053 554.563 24.136C553.795 23.6667 553.048 23.2613 552.323 22.92C550.787 22.28 549.208 22.2587 547.587 22.856C546.691 23.24 546.051 23.7093 545.667 24.264C545.283 24.776 545.176 25.6293 545.347 26.824C545.475 27.7627 545.859 28.552 546.499 29.192C546.84 29.576 547.203 29.9387 547.587 30.28C547.971 30.5787 548.355 30.8987 548.739 31.24C549.763 32.0933 550.829 32.904 551.939 33.672C553.091 34.3973 554.264 35.08 555.459 35.72C557.293 36.7013 558.936 37.8533 560.387 39.176C560.6 39.3893 560.813 39.624 561.027 39.88C561.283 40.136 561.517 40.392 561.731 40.648C563.48 42.6533 564.354 45 564.354 47.688C564.354 50.0347 563.843 52.0827 562.819 53.832C561.837 55.5813 560.536 57.0533 558.915 58.248C557.293 59.4 555.459 60.2747 553.411 60.872C551.363 61.4693 549.315 61.768 547.267 61.768C546.968 61.768 546.669 61.7467 546.371 61.704C546.115 61.704 545.837 61.704 545.539 61.704C544.344 61.6187 543.192 61.4267 542.083 61.128C541.016 60.8293 539.949 60.4667 538.883 60.04C538.285 59.784 537.752 59.4427 537.283 59.016C536.813 58.5893 536.344 58.1413 535.875 57.672C535.533 57.3307 535.213 57.0107 534.915 56.712C534.659 56.3707 534.381 56.0293 534.083 55.688C533.997 55.6027 533.912 55.4747 533.827 55.304C533.229 54.3227 532.739 53.2987 532.355 52.232C532.013 51.1653 531.843 50.0773 531.843 48.968C531.843 47.9867 531.992 46.984 532.291 45.96C532.589 44.8933 533.037 43.9547 533.635 43.144C534.232 42.2907 534.936 41.608 535.747 41.096C536.6 40.5413 537.581 40.264 538.691 40.264C539.203 40.264 539.736 40.3493 540.291 40.52C540.845 40.6907 541.379 40.9467 541.891 41.288C542.403 41.5867 542.851 41.9493 543.235 42.376C543.661 42.76 543.939 43.208 544.067 43.72Z" fill="white"/>
</svg>
