<svg width="200" height="29" viewBox="0 0 242 39" fill="none" xmlns="http://www.w3.org/2000/svg">
<path d="M47.7656 31.625V10.25H41.0781V10.0938L42.3438 7.40625H57.5781V7.5625L56.3125 10.25H50.8906V30.2188L47.9219 31.625H47.7656ZM57.1875 25.0625V19.75C57.1875 18.0312 57.8333 16.5365 59.125 15.2656C60.3333 14.0885 61.849 13.5 63.6719 13.5C65.474 13.5 66.9896 14.0885 68.2188 15.2656C69.5104 16.5156 70.1562 18.0104 70.1562 19.75V25.0625C70.1562 26.7812 69.5104 28.276 68.2188 29.5469C67.0104 30.724 65.4948 31.3125 63.6719 31.3125C61.8698 31.3125 60.3542 30.724 59.125 29.5469C57.8333 28.2969 57.1875 26.8021 57.1875 25.0625ZM60.3125 25.0625C60.3125 26.2604 60.6354 27.1406 61.2812 27.7031C61.9375 28.2552 62.7344 28.5312 63.6719 28.5312C64.6094 28.5312 65.401 28.2552 66.0469 27.7031C66.7031 27.1406 67.0312 26.2604 67.0312 25.0625V19.75C67.0312 18.5521 66.7031 17.6771 66.0469 17.125C65.401 16.5625 64.6094 16.2812 63.6719 16.2812C62.7344 16.2812 61.9375 16.5625 61.2812 17.125C60.6354 17.6771 60.3125 18.5521 60.3125 19.75V25.0625ZM74.8438 31.625V19.75C74.8438 18.0312 75.4896 16.5365 76.7812 15.2656C77.9896 14.0885 79.5052 13.5 81.3281 13.5C83.1302 13.5 84.6458 14.0885 85.875 15.2656C87.1667 16.5156 87.8125 18.0104 87.8125 19.75V30.2188L84.8438 31.625H84.6875V19.75C84.6875 18.5521 84.3594 17.6771 83.7031 17.125C83.0573 16.5625 82.2656 16.2812 81.3281 16.2812C80.3906 16.2812 79.5938 16.5625 78.9375 17.125C78.2917 17.6771 77.9688 18.5521 77.9688 19.75V30.2188L75 31.625H74.8438ZM92.5 25.0625V14.5938L95.4688 13.1875H95.625V25.0625C95.625 26.2604 95.9479 27.1406 96.5938 27.7031C97.25 28.2552 98.0469 28.5312 98.9844 28.5312C99.9219 28.5312 100.714 28.2552 101.359 27.7031C102.016 27.1406 102.344 26.2604 102.344 25.0625V14.5938L105.312 13.1875H105.469V31.4688C105.469 33.1875 104.823 34.6823 103.531 35.9531C102.323 37.1302 100.807 37.7188 98.9844 37.7188H94.1719V37.5625L95.4219 34.9375H98.9844C99.9219 34.9375 100.719 34.6562 101.375 34.0938C102.021 33.5312 102.344 32.6562 102.344 31.4688V29.9844C101.573 30.8698 100.453 31.3125 98.9844 31.3125C97.2031 31.3125 95.6875 30.724 94.4375 29.5469C93.1458 28.3177 92.5 26.8229 92.5 25.0625ZM139.359 23.625C139.359 25.75 138.661 27.5573 137.266 29.0469C135.839 30.5573 133.911 31.3125 131.484 31.3125C129.057 31.3125 127.13 30.5573 125.703 29.0469C124.297 27.5573 123.594 25.8125 123.594 23.8125L126.562 22.4062H126.719V23.6875C126.719 24.9583 127.094 26.026 127.844 26.8906C128.771 27.9635 129.984 28.5 131.484 28.5C132.974 28.5 134.188 27.9635 135.125 26.8906C135.865 26.0469 136.234 24.9688 136.234 23.6562C136.234 22.4167 135.932 21.4427 135.328 20.7344C134.495 19.7552 133.214 19.2656 131.484 19.2656C129.589 19.2656 127.948 18.6406 126.562 17.3906C125.521 16.4531 125 15.0938 125 13.3125C125 11.2188 125.646 9.64583 126.938 8.59375C128.167 7.59375 129.682 7.09375 131.484 7.09375C133.286 7.09375 134.802 7.59375 136.031 8.59375C137.323 9.64583 137.969 11.0885 137.969 12.9219L135 14.3281H134.844V13.0781C134.844 11.8906 134.505 11.0052 133.828 10.4219C133.172 9.84896 132.391 9.5625 131.484 9.5625C130.474 9.5625 129.661 9.88021 129.047 10.5156C128.432 11.151 128.125 12.0052 128.125 13.0781C128.125 14.1094 128.359 14.8854 128.828 15.4062C129.453 16.1042 130.339 16.4531 131.484 16.4531C134.005 16.4531 135.932 17.0469 137.266 18.2344C138.661 19.474 139.359 21.2708 139.359 23.625ZM146.281 31.625V16.6562H142.266V16.5L143.531 13.8125H146.281V8.1875L149.25 6.78125H149.406V13.8125H153.422V13.9688L152.156 16.6562H149.406V30.2188L146.438 31.625H146.281ZM168.031 30.2188L165.062 31.625H164.906V29.9844C164.073 30.8698 162.953 31.3125 161.547 31.3125C159.599 31.3125 158.083 30.724 157 29.5469C155.917 28.3698 155.375 26.9792 155.375 25.375C155.375 23.7083 155.964 22.2917 157.141 21.125C158.276 20 159.745 19.4375 161.547 19.4375C162.828 19.4375 163.948 19.8802 164.906 20.7656C164.906 18.9219 164.583 17.7083 163.938 17.125C163.312 16.5625 162.516 16.2812 161.547 16.2812H157.75V16.125L159 13.5H161.547C163.37 13.5 164.885 14.0885 166.094 15.2656C167.385 16.526 168.031 18.0208 168.031 19.75V30.2188ZM158.438 25.375C158.438 26.3021 158.719 27.0677 159.281 27.6719C159.823 28.2552 160.583 28.5469 161.562 28.5469C162.583 28.5469 163.375 28.25 163.938 27.6562C164.562 26.9896 164.875 26.2396 164.875 25.4062C164.875 24.4688 164.552 23.7083 163.906 23.125C163.26 22.5417 162.484 22.25 161.578 22.25C160.63 22.25 159.87 22.5573 159.297 23.1719C158.724 23.7865 158.438 24.5208 158.438 25.375ZM172.719 31.625V19.75C172.719 18.0312 173.365 16.5365 174.656 15.2656C175.865 14.0885 177.38 13.5 179.203 13.5H181.312V13.6562L180.062 16.2812H179.203C178.266 16.2812 177.469 16.5625 176.812 17.125C176.167 17.6771 175.844 18.5521 175.844 19.75C175.844 19.75 175.844 23.2396 175.844 30.2188L172.875 31.625H172.719ZM184.75 31.625V8.1875L187.719 6.78125H187.875V19.7969L194.406 13.1875H194.562L197.312 14.4844L192.125 19.25C193.604 19.4479 194.823 19.9323 195.781 20.7031C197.073 21.7656 197.719 23.2604 197.719 25.1875V30.2188L194.75 31.625H194.594V25.1875C194.594 23.9896 194.266 23.1146 193.609 22.5625C192.964 22 192.172 21.7188 191.234 21.7188C190.297 21.7188 189.5 22 188.844 22.5625C188.198 23.125 187.875 24 187.875 25.1875V30.2188L184.906 31.625H184.75Z" fill="black"/>
<g clip-path="url(#clip0_194_52055)">
<path d="M13.5806 11.3157L17.8727 6.42426C17.6558 17.5756 31.6051 21.291 31.6051 21.291C14.4938 19.0457 13.5806 11.3157 13.5806 11.3157Z" fill="black"/>
<path d="M17.8727 38.4243L13.5806 33.5328C13.5806 33.5328 14.4938 25.8028 31.6051 23.5522C31.6051 23.5522 17.6558 27.2729 17.8727 38.4243Z" fill="black"/>
<path d="M6.18365 25.6531L-1.0364 22.4243L6.18365 19.1901L23.3462 22.4243L6.18365 25.6531Z" fill="black"/>
<path d="M208.322 21.291C208.322 21.291 222.271 17.5756 222.054 6.41892L226.347 11.3103C226.347 11.3157 225.433 19.0457 208.322 21.291Z" fill="black"/>
<path d="M226.347 33.5328L222.054 38.4243C222.271 27.2729 208.322 23.5522 208.322 23.5522C225.433 25.8028 226.347 33.5328 226.347 33.5328Z" fill="black"/>
<path d="M233.744 25.6531L216.581 22.4243L233.744 19.1901L240.964 22.4243L233.744 25.6531Z" fill="black"/>
</g>
<defs>
<clipPath id="clip0_194_52055">
<rect width="242" height="32" fill="white" transform="matrix(1 0 0 -1 0 36)"/>
</clipPath>
</defs>
</svg>
