<svg width="9" height="167" viewBox="0 0 9 167" fill="none" xmlns="http://www.w3.org/2000/svg">
<path d="M7.28074 6.93559C6.68143 4.84523 7.32355 1.60459 6.72424 1.04733C6.12492 0.490084 5.4828 3.66096 5.95369 5.19407C6.42458 6.72718 5.78246 9.20127 6.72424 9.3408C6.72424 9.33991 7.88006 9.02595 7.28074 6.93559Z" fill="grey"/>
<path d="M4.84056 6.93559C4.24124 4.84523 4.88337 1.60459 4.28405 1.04733C3.68474 0.490084 3.04261 3.66096 3.5135 5.19407C3.98439 6.72718 3.34227 9.20127 4.28405 9.3408C4.28405 9.33991 5.43987 9.02595 4.84056 6.93559Z" fill="grey"/>
<path d="M2.35765 6.93559C1.75833 4.84523 2.40046 1.60459 1.80114 1.04733C1.20183 0.490084 0.559704 3.66096 1.03059 5.19407C1.50148 6.72718 0.859362 9.20127 1.80114 9.3408C1.80114 9.33991 2.95696 9.02595 2.35765 6.93559Z" fill="grey"/>
<path d="M8.15991 11.2478C8.15991 11.2478 7.8594 10.0403 5.85854 10.6664C3.85769 11.2925 0.755803 10.6217 0.222413 11.2478C-0.310978 11.8739 2.72327 12.5448 4.19073 12.0528C5.65906 11.5609 8.02635 12.2317 8.15991 11.2478Z" fill="grey"/>
<path d="M8.15991 13.7971C8.15991 13.7971 7.8594 12.5896 5.85854 13.2157C3.85769 13.8419 0.755803 13.171 0.222413 13.7971C-0.310978 14.4233 2.72327 15.0941 4.19073 14.6021C5.65906 14.1102 8.02635 14.781 8.15991 13.7971Z" fill="grey"/>
<path d="M8.15991 16.3909C8.15991 16.3909 7.8594 15.1834 5.85854 15.8095C3.85769 16.4356 0.755803 15.7648 0.222413 16.3909C-0.310978 17.017 2.72327 17.6879 4.19073 17.1959C5.65906 16.7039 8.02635 17.3748 8.15991 16.3909Z" fill="grey"/>
<path d="M7.28074 24.4224C6.68143 22.332 7.32355 19.0914 6.72424 18.5342C6.12492 17.9769 5.4828 21.1478 5.95369 22.6809C6.42458 24.214 5.78246 26.6881 6.72424 26.8276C6.72424 26.8267 7.88006 26.5128 7.28074 24.4224Z" fill="grey"/>
<path d="M4.84056 24.4224C4.24124 22.332 4.88337 19.0914 4.28405 18.5342C3.68474 17.9769 3.04261 21.1478 3.5135 22.6809C3.98439 24.214 3.34227 26.6881 4.28405 26.8276C4.28405 26.8267 5.43987 26.5128 4.84056 24.4224Z" fill="grey"/>
<path d="M2.35765 24.4224C1.75833 22.332 2.40046 19.0914 1.80114 18.5342C1.20183 17.9769 0.559704 21.1478 1.03059 22.6809C1.50148 24.214 0.859362 26.6881 1.80114 26.8276C1.80114 26.8267 2.95696 26.5128 2.35765 24.4224Z" fill="grey"/>
<path d="M8.15991 28.824C8.15991 28.824 7.8594 27.6165 5.85854 28.2426C3.85769 28.8687 0.755803 28.1979 0.222413 28.824C-0.310978 29.4501 2.72327 30.121 4.19073 29.629C5.65906 29.137 8.02635 29.8079 8.15991 28.824Z" fill="grey"/>
<path d="M8.15991 31.3733C8.15991 31.3733 7.8594 30.1658 5.85854 30.7919C3.85769 31.418 0.755803 30.7472 0.222413 31.3733C-0.310978 31.9994 2.72327 32.6703 4.19073 32.1783C5.65906 31.6864 8.02635 32.3572 8.15991 31.3733Z" fill="grey"/>
<path d="M8.15991 33.9671C8.15991 33.9671 7.8594 32.7595 5.85854 33.3857C3.85769 34.0118 0.755803 33.3409 0.222413 33.9671C-0.310978 34.5932 2.72327 35.264 4.19073 34.7721C5.65906 34.2801 8.02635 34.951 8.15991 33.9671Z" fill="grey"/>
<path d="M7.28074 41.9986C6.68143 39.9082 7.32355 36.6676 6.72424 36.1103C6.12492 35.5531 5.4828 38.7239 5.95369 40.2571C6.42458 41.7902 5.78246 44.2643 6.72424 44.4038C6.72424 44.4029 7.88006 44.0889 7.28074 41.9986Z" fill="grey"/>
<path d="M4.84056 41.9986C4.24124 39.9082 4.88337 36.6676 4.28405 36.1103C3.68474 35.5531 3.04261 38.7239 3.5135 40.2571C3.98439 41.7902 3.34227 44.2643 4.28405 44.4038C4.28405 44.4029 5.43987 44.0889 4.84056 41.9986Z" fill="grey"/>
<path d="M2.35765 41.9986C1.75833 39.9082 2.40046 36.6676 1.80114 36.1103C1.20183 35.5531 0.559704 38.7239 1.03059 40.2571C1.50148 41.7902 0.859362 44.2643 1.80114 44.4038C1.80114 44.4029 2.95696 44.0889 2.35765 41.9986Z" fill="grey"/>
<path d="M8.15991 46.3108C8.15991 46.3108 7.8594 45.1033 5.85854 45.7294C3.85769 46.3555 0.755803 45.6847 0.222413 46.3108C-0.310978 46.9369 2.72327 47.6078 4.19073 47.1158C5.65906 46.6239 8.02635 47.2947 8.15991 46.3108Z" fill="grey"/>
<path d="M8.15991 48.8601C8.15991 48.8601 7.8594 47.6526 5.85854 48.2787C3.85769 48.9048 0.755803 48.234 0.222413 48.8601C-0.310978 49.4863 2.72327 50.1571 4.19073 49.6651C5.65906 49.1732 8.02635 49.844 8.15991 48.8601Z" fill="grey"/>
<path d="M8.15991 51.4539C8.15991 51.4539 7.8594 50.2464 5.85854 50.8725C3.85769 51.4986 0.755803 50.8278 0.222413 51.4539C-0.310978 52.08 2.72327 52.7508 4.19073 52.2589C5.65906 51.7669 8.02635 52.4378 8.15991 51.4539Z" fill="grey"/>
<path d="M7.28074 59.4854C6.68143 57.395 7.32355 54.1544 6.72424 53.5971C6.12492 53.0399 5.4828 56.2108 5.95369 57.7439C6.42458 59.277 5.78246 61.7511 6.72424 61.8906C6.72424 61.8897 7.88006 61.5758 7.28074 59.4854Z" fill="grey"/>
<path d="M4.84056 59.4854C4.24124 57.395 4.88337 54.1544 4.28405 53.5971C3.68474 53.0399 3.04261 56.2108 3.5135 57.7439C3.98439 59.277 3.34227 61.7511 4.28405 61.8906C4.28405 61.8897 5.43987 61.5758 4.84056 59.4854Z" fill="grey"/>
<path d="M2.35765 59.4854C1.75833 57.395 2.40046 54.1544 1.80114 53.5971C1.20183 53.0399 0.559704 56.2108 1.03059 57.7439C1.50148 59.277 0.859362 61.7511 1.80114 61.8906C1.80114 61.8897 2.95696 61.5758 2.35765 59.4854Z" fill="grey"/>
<path d="M8.15991 63.9163C8.15991 63.9163 7.8594 62.7088 5.85854 63.3349C3.85769 63.961 0.755803 63.2902 0.222413 63.9163C-0.310978 64.5424 2.72327 65.2133 4.19073 64.7213C5.65906 64.2293 8.02635 64.9002 8.15991 63.9163Z" fill="grey"/>
<path d="M8.15991 66.4656C8.15991 66.4656 7.8594 65.2581 5.85854 65.8842C3.85769 66.5103 0.755803 65.8395 0.222413 66.4656C-0.310978 67.0917 2.72327 67.7626 4.19073 67.2706C5.65906 66.7787 8.02635 67.4495 8.15991 66.4656Z" fill="grey"/>
<path d="M8.15991 69.0598C8.15991 69.0598 7.8594 67.8523 5.85854 68.4784C3.85769 69.1045 0.755803 68.4337 0.222413 69.0598C-0.310978 69.6859 2.72327 70.3568 4.19073 69.8648C5.65906 69.3729 8.02635 70.0437 8.15991 69.0598Z" fill="grey"/>
<path d="M7.2805 77.0909C6.68118 75.0005 7.32331 71.7599 6.72399 71.2026C6.12468 70.6454 5.48255 73.8162 5.95345 75.3493C6.42434 76.8825 5.78221 79.3566 6.72399 79.4952C6.72399 79.4943 7.87981 79.1812 7.2805 77.0909Z" fill="grey"/>
<path d="M4.84056 77.0909C4.24124 75.0005 4.88337 71.7599 4.28405 71.2026C3.68474 70.6454 3.04261 73.8162 3.5135 75.3493C3.98439 76.8825 3.34227 79.3566 4.28405 79.4952C4.28405 79.4943 5.43987 79.1812 4.84056 77.0909Z" fill="grey"/>
<path d="M2.35765 77.0909C1.75833 75.0005 2.40046 71.7599 1.80114 71.2026C1.20183 70.6454 0.559704 73.8162 1.03059 75.3493C1.50148 76.8825 0.859362 79.3566 1.80114 79.4952C1.80114 79.4943 2.95696 79.1812 2.35765 77.0909Z" fill="grey"/>
<path d="M8.15991 81.4031C8.15991 81.4031 7.8594 80.1956 5.85854 80.8217C3.85769 81.4478 0.755803 80.777 0.222413 81.4031C-0.310978 82.0292 2.72327 82.7 4.19073 82.2081C5.65906 81.7161 8.02635 82.387 8.15991 81.4031Z" fill="grey"/>
<path d="M8.15991 83.9524C8.15991 83.9524 7.8594 82.7449 5.85854 83.371C3.85769 83.9971 0.755803 83.3263 0.222413 83.9524C-0.310978 84.5785 2.72327 85.2494 4.19073 84.7574C5.65906 84.2655 8.02635 84.9363 8.15991 83.9524Z" fill="grey"/>
<path d="M8.15991 86.5466C8.15991 86.5466 7.8594 85.3391 5.85854 85.9652C3.85769 86.5914 0.755803 85.9205 0.222413 86.5466C-0.310978 87.1728 2.72327 87.8436 4.19073 87.3517C5.65906 86.8597 8.02635 87.5306 8.15991 86.5466Z" fill="grey"/>
<path d="M7.2805 94.5777C6.68118 92.4873 7.32331 89.2467 6.72399 88.6894C6.12468 88.1322 5.48255 91.303 5.95345 92.8361C6.42434 94.3693 5.78221 96.8433 6.72399 96.9829C6.72399 96.9811 7.87981 96.668 7.2805 94.5777Z" fill="grey"/>
<path d="M4.84056 94.5777C4.24124 92.4873 4.88337 89.2467 4.28405 88.6894C3.68474 88.1322 3.04261 91.303 3.5135 92.8361C3.98439 94.3693 3.34227 96.8433 4.28405 96.9829C4.28405 96.9811 5.43987 96.668 4.84056 94.5777Z" fill="grey"/>
<path d="M2.35765 94.5777C1.75833 92.4873 2.40046 89.2467 1.80114 88.6894C1.20183 88.1322 0.559704 91.303 1.03059 92.8361C1.50148 94.3693 0.859362 96.8433 1.80114 96.9829C1.80114 96.9811 2.95696 96.668 2.35765 94.5777Z" fill="grey"/>
<path d="M8.15991 98.9793C8.15991 98.9793 7.8594 97.7717 5.85854 98.3979C3.85769 99.024 0.755803 98.3531 0.222413 98.9793C-0.310978 99.6054 2.72327 100.276 4.19073 99.7843C5.65906 99.2923 8.02635 99.9632 8.15991 98.9793Z" fill="grey"/>
<path d="M8.15991 101.529C8.15991 101.529 7.8594 100.321 5.85854 100.947C3.85769 101.573 0.755803 100.902 0.222413 101.529C-0.310978 102.155 2.72327 102.826 4.19073 102.334C5.65906 101.842 8.02635 102.513 8.15991 101.529Z" fill="grey"/>
<path d="M8.15991 104.123C8.15991 104.123 7.8594 102.915 5.85854 103.541C3.85769 104.168 0.755803 103.497 0.222413 104.123C-0.310978 104.749 2.72327 105.42 4.19073 104.928C5.65906 104.436 8.02635 105.107 8.15991 104.123Z" fill="grey"/>
<path d="M7.2805 112.154C6.68118 110.063 7.32331 106.823 6.72399 106.266C6.12468 105.708 5.48255 108.879 5.95345 110.412C6.42434 111.945 5.78221 114.42 6.72399 114.559C6.72399 114.557 7.87981 114.244 7.2805 112.154Z" fill="grey"/>
<path d="M4.84056 112.154C4.24124 110.063 4.88337 106.823 4.28405 106.266C3.68474 105.708 3.04261 108.879 3.5135 110.412C3.98439 111.945 3.34227 114.42 4.28405 114.559C4.28405 114.557 5.43987 114.244 4.84056 112.154Z" fill="grey"/>
<path d="M2.35765 112.154C1.75833 110.063 2.40046 106.823 1.80114 106.266C1.20183 105.708 0.559704 108.879 1.03059 110.412C1.50148 111.945 0.859362 114.42 1.80114 114.559C1.80114 114.557 2.95696 114.244 2.35765 112.154Z" fill="grey"/>
<path d="M8.15991 116.466C8.15991 116.466 7.8594 115.259 5.85854 115.885C3.85769 116.511 0.755803 115.84 0.222413 116.466C-0.310978 117.092 2.72327 117.763 4.19073 117.271C5.65906 116.779 8.02635 117.45 8.15991 116.466Z" fill="grey"/>
<path d="M8.15991 119.015C8.15991 119.015 7.8594 117.808 5.85854 118.434C3.85769 119.06 0.755803 118.389 0.222413 119.015C-0.310978 119.642 2.72327 120.312 4.19073 119.82C5.65906 119.328 8.02635 119.999 8.15991 119.015Z" fill="grey"/>
<path d="M8.15991 121.609C8.15991 121.609 7.8594 120.402 5.85854 121.028C3.85769 121.654 0.755803 120.983 0.222413 121.609C-0.310978 122.235 2.72327 122.906 4.19073 122.414C5.65906 121.922 8.02635 122.593 8.15991 121.609Z" fill="grey"/>
<path d="M7.28074 129.641C6.68143 127.55 7.32355 124.31 6.72424 123.752C6.12492 123.195 5.4828 126.366 5.95369 127.899C6.42458 129.432 5.78246 131.906 6.72424 132.046C6.72424 132.044 7.88006 131.731 7.28074 129.641Z" fill="grey"/>
<path d="M4.84056 129.641C4.24124 127.55 4.88337 124.31 4.28405 123.752C3.68474 123.195 3.04261 126.366 3.5135 127.899C3.98439 129.432 3.34227 131.906 4.28405 132.046C4.28405 132.044 5.43987 131.731 4.84056 129.641Z" fill="grey"/>
<path d="M2.35765 129.641C1.75833 127.55 2.40046 124.31 1.80114 123.752C1.20183 123.195 0.559704 126.366 1.03059 127.899C1.50148 129.432 0.859362 131.906 1.80114 132.046C1.80114 132.044 2.95696 131.731 2.35765 129.641Z" fill="grey"/>
<path d="M8.15991 133.935C8.15991 133.935 7.8594 132.728 5.85854 133.354C3.85769 133.98 0.755803 133.309 0.222413 133.935C-0.310978 134.561 2.72327 135.232 4.19073 134.74C5.65906 134.248 8.02635 134.919 8.15991 133.935Z" fill="grey"/>
<path d="M8.15991 136.484C8.15991 136.484 7.8594 135.277 5.85854 135.903C3.85769 136.529 0.755803 135.858 0.222413 136.484C-0.310978 137.11 2.72327 137.781 4.19073 137.289C5.65906 136.797 8.02635 137.468 8.15991 136.484Z" fill="grey"/>
<path d="M8.15991 139.078C8.15991 139.078 7.8594 137.871 5.85854 138.497C3.85769 139.123 0.755803 138.452 0.222413 139.078C-0.310978 139.705 2.72327 140.375 4.19073 139.883C5.65906 139.391 8.02635 140.062 8.15991 139.078Z" fill="grey"/>
<path d="M7.28074 147.109C6.68143 145.019 7.32355 141.778 6.72424 141.221C6.12492 140.664 5.4828 143.835 5.95369 145.368C6.42458 146.901 5.78246 149.375 6.72424 149.515C6.72424 149.513 7.88006 149.2 7.28074 147.109Z" fill="grey"/>
<path d="M4.84056 147.109C4.24124 145.019 4.88337 141.778 4.28405 141.221C3.68474 140.664 3.04261 143.835 3.5135 145.368C3.98439 146.901 3.34227 149.375 4.28405 149.515C4.28405 149.513 5.43987 149.2 4.84056 147.109Z" fill="grey"/>
<path d="M2.35765 147.109C1.75833 145.019 2.40046 141.778 1.80114 141.221C1.20183 140.664 0.559704 143.835 1.03059 145.368C1.50148 146.901 0.859362 149.375 1.80114 149.515C1.80114 149.513 2.95696 149.2 2.35765 147.109Z" fill="grey"/>
<path d="M8.15991 151.422C8.15991 151.422 7.8594 150.214 5.85854 150.84C3.85769 151.466 0.755803 150.796 0.222413 151.422C-0.310978 152.048 2.72327 152.719 4.19073 152.227C5.65906 151.735 8.02635 152.406 8.15991 151.422Z" fill="grey"/>
<path d="M8.15991 153.971C8.15991 153.971 7.8594 152.763 5.85854 153.39C3.85769 154.016 0.755803 153.345 0.222413 153.971C-0.310978 154.597 2.72327 155.268 4.19073 154.776C5.65906 154.284 8.02635 154.955 8.15991 153.971Z" fill="grey"/>
<path d="M8.15991 156.565C8.15991 156.565 7.8594 155.358 5.85854 155.984C3.85769 156.61 0.755803 155.939 0.222413 156.565C-0.310978 157.191 2.72327 157.862 4.19073 157.37C5.65906 156.878 8.02635 157.549 8.15991 156.565Z" fill="grey"/>
<path d="M5.95369 162.854C6.42458 164.387 5.78246 166.861 6.72424 167.001C6.72424 167.001 7.88006 166.687 7.28074 164.596C6.68143 162.506 7.32355 159.265 6.72424 158.708C6.12492 158.151 5.4828 161.321 5.95369 162.854Z" fill="grey"/>
<path d="M4.84056 164.596C4.24124 162.506 4.88337 159.265 4.28405 158.708C3.68474 158.151 3.04261 161.322 3.5135 162.855C3.98439 164.388 3.34227 166.862 4.28405 167.001C4.28405 167 5.43987 166.687 4.84056 164.596Z" fill="grey"/>
<path d="M2.35765 164.596C1.75833 162.506 2.40046 159.265 1.80114 158.708C1.20183 158.151 0.559704 161.322 1.03059 162.855C1.50148 164.388 0.859362 166.862 1.80114 167.001C1.80114 167 2.95696 166.687 2.35765 164.596Z" fill="grey"/>
</svg>
