<svg width="112" height="79" viewBox="0 0 112 79" fill="none" xmlns="http://www.w3.org/2000/svg">
<path d="M109.66 12.3608C108.372 7.49533 104.576 3.66342 99.7577 2.36301C91.0234 0 56 0 56 0C56 0 20.9768 0 12.2423 2.36301C7.42361 3.66363 3.62844 7.49533 2.34035 12.3608C0 21.1798 0 39.5798 0 39.5798C0 39.5798 0 57.9798 2.34035 66.7988C3.62844 71.6643 7.42361 75.3366 12.2423 76.637C20.9768 79 56 79 56 79C56 79 91.0232 79 99.7577 76.637C104.576 75.3366 108.372 71.6643 109.66 66.7988C112 57.9798 112 39.5798 112 39.5798C112 39.5798 112 21.1798 109.66 12.3608ZM44.5454 56.2857V22.874L73.818 39.5802L44.5454 56.2857Z" fill="#CBCBCB"/>
</svg>
