<svg width="30" height="30" viewBox="0 0 30 30" fill="none" xmlns="http://www.w3.org/2000/svg">
<path d="M5.82049 26.0009H0.429944V8.64159H5.82049V26.0009ZM3.12197 6.27365C1.39848 6.27365 0 4.84546 0 3.12197C0 2.29397 0.328921 1.49989 0.914404 0.914403C1.49989 0.328921 2.29397 0 3.12197 0C3.94997 0 4.74405 0.328921 5.32953 0.914403C5.91502 1.49989 6.24394 2.29397 6.24394 3.12197C6.24394 4.84546 4.84546 6.27365 3.12197 6.27365ZM25.9954 26.0009H20.6169V17.5506C20.6169 15.5365 20.576 12.954 17.8144 12.954C15.0118 12.954 14.5819 15.1418 14.5819 17.4058V26.0009H9.1969V8.64159H14.3664V11.0095H14.4417C15.1613 9.64542 16.9192 8.20608 19.5416 8.20608C24.9971 8.20608 26 11.7989 26 16.4651V26.0009H25.9954Z" fill="white"/>
</svg>
