<svg width="28" height="23" viewBox="0 0 28 23" fill="none" xmlns="http://www.w3.org/2000/svg">
<path d="M25.2 22.4H2.8C2.05739 22.4 1.3452 22.105 0.820101 21.5799C0.294999 21.0548 0 20.3426 0 19.6V2.6782C0.0314057 1.95691 0.340213 1.27562 0.861949 0.776581C1.38369 0.27754 2.07802 -0.000682134 2.8 1.25597e-06H25.2C25.9426 1.25597e-06 26.6548 0.295 27.1799 0.820102C27.705 1.3452 28 2.05739 28 2.8V19.6C28 20.3426 27.705 21.0548 27.1799 21.5799C26.6548 22.105 25.9426 22.4 25.2 22.4ZM2.8 5.4152V19.6H25.2V5.4152L14 12.88L2.8 5.4152ZM3.92 2.8L14 9.52L24.08 2.8H3.92Z" fill="white"/>
</svg>
